<?xml version="1.0" encoding="utf-8"?>
<svg xmlns="http://www.w3.org/2000/svg" xmlns:xlink="http://www.w3.org/1999/xlink" width="600" height="400" viewBox="0 0 2400 1600">
<defs>
  <clipPath id="clip810">
    <rect x="0" y="0" width="2400" height="1600"/>
  </clipPath>
</defs>
<path clip-path="url(#clip810)" d="
M0 1600 L2400 1600 L2400 0 L0 0  Z
  " fill="#ffffff" fill-rule="evenodd" fill-opacity="1"/>
<defs>
  <clipPath id="clip811">
    <rect x="480" y="0" width="1681" height="1600"/>
  </clipPath>
</defs>
<path clip-path="url(#clip810)" d="
M169.121 1474.16 L2352.76 1474.16 L2352.76 123.472 L169.121 123.472  Z
  " fill="#ffffff" fill-rule="evenodd" fill-opacity="1"/>
<defs>
  <clipPath id="clip812">
    <rect x="169" y="123" width="2185" height="1352"/>
  </clipPath>
</defs>
<polyline clip-path="url(#clip812)" style="stroke:#000000; stroke-width:2; stroke-opacity:0.1; fill:none" points="
  186.939,1474.16 186.939,123.472 
  "/>
<polyline clip-path="url(#clip812)" style="stroke:#000000; stroke-width:2; stroke-opacity:0.1; fill:none" points="
  698.368,1474.16 698.368,123.472 
  "/>
<polyline clip-path="url(#clip812)" style="stroke:#000000; stroke-width:2; stroke-opacity:0.1; fill:none" points="
  1209.8,1474.16 1209.8,123.472 
  "/>
<polyline clip-path="url(#clip812)" style="stroke:#000000; stroke-width:2; stroke-opacity:0.1; fill:none" points="
  1721.22,1474.16 1721.22,123.472 
  "/>
<polyline clip-path="url(#clip812)" style="stroke:#000000; stroke-width:2; stroke-opacity:0.1; fill:none" points="
  2232.65,1474.16 2232.65,123.472 
  "/>
<polyline clip-path="url(#clip810)" style="stroke:#000000; stroke-width:4; stroke-opacity:1; fill:none" points="
  169.121,1474.16 2352.76,1474.16 
  "/>
<polyline clip-path="url(#clip810)" style="stroke:#000000; stroke-width:4; stroke-opacity:1; fill:none" points="
  186.939,1474.16 186.939,1457.96 
  "/>
<polyline clip-path="url(#clip810)" style="stroke:#000000; stroke-width:4; stroke-opacity:1; fill:none" points="
  698.368,1474.16 698.368,1457.96 
  "/>
<polyline clip-path="url(#clip810)" style="stroke:#000000; stroke-width:4; stroke-opacity:1; fill:none" points="
  1209.8,1474.16 1209.8,1457.96 
  "/>
<polyline clip-path="url(#clip810)" style="stroke:#000000; stroke-width:4; stroke-opacity:1; fill:none" points="
  1721.22,1474.16 1721.22,1457.96 
  "/>
<polyline clip-path="url(#clip810)" style="stroke:#000000; stroke-width:4; stroke-opacity:1; fill:none" points="
  2232.65,1474.16 2232.65,1457.96 
  "/>
<path clip-path="url(#clip810)" d="M 0 0 M186.939 1503.36 Q183.328 1503.36 181.5 1506.92 Q179.694 1510.46 179.694 1517.59 Q179.694 1524.7 181.5 1528.26 Q183.328 1531.8 186.939 1531.8 Q190.574 1531.8 192.379 1528.26 Q194.208 1524.7 194.208 1517.59 Q194.208 1510.46 192.379 1506.92 Q190.574 1503.36 186.939 1503.36 M186.939 1499.65 Q192.75 1499.65 195.805 1504.26 Q198.884 1508.84 198.884 1517.59 Q198.884 1526.32 195.805 1530.92 Q192.75 1535.51 186.939 1535.51 Q181.129 1535.51 178.051 1530.92 Q174.995 1526.32 174.995 1517.59 Q174.995 1508.84 178.051 1504.26 Q181.129 1499.65 186.939 1499.65 Z" fill="#000000" fill-rule="evenodd" fill-opacity="1" /><path clip-path="url(#clip810)" d="M 0 0 M591.344 1521.81 L609.701 1521.81 L609.701 1525.75 L595.627 1525.75 L595.627 1534.22 Q596.645 1533.87 597.664 1533.71 Q598.682 1533.52 599.701 1533.52 Q605.488 1533.52 608.867 1536.7 Q612.247 1539.87 612.247 1545.28 Q612.247 1550.86 608.775 1553.96 Q605.302 1557.04 598.983 1557.04 Q596.807 1557.04 594.539 1556.67 Q592.293 1556.3 589.886 1555.56 L589.886 1550.86 Q591.969 1552 594.191 1552.55 Q596.414 1553.11 598.89 1553.11 Q602.895 1553.11 605.233 1551 Q607.571 1548.9 607.571 1545.28 Q607.571 1541.67 605.233 1539.57 Q602.895 1537.46 598.89 1537.46 Q597.015 1537.46 595.14 1537.88 Q593.289 1538.29 591.344 1539.17 L591.344 1521.81 Z" fill="#000000" fill-rule="evenodd" fill-opacity="1" /><path clip-path="url(#clip810)" d="M 0 0 M621.46 1550.49 L626.344 1550.49 L626.344 1556.37 L621.46 1556.37 L621.46 1550.49 Z" fill="#000000" fill-rule="evenodd" fill-opacity="1" /><path clip-path="url(#clip810)" d="M 0 0 M646.529 1524.89 Q642.918 1524.89 641.089 1528.46 Q639.284 1532 639.284 1539.13 Q639.284 1546.23 641.089 1549.8 Q642.918 1553.34 646.529 1553.34 Q650.163 1553.34 651.969 1549.8 Q653.798 1546.23 653.798 1539.13 Q653.798 1532 651.969 1528.46 Q650.163 1524.89 646.529 1524.89 M646.529 1521.19 Q652.339 1521.19 655.395 1525.79 Q658.473 1530.38 658.473 1539.13 Q658.473 1547.85 655.395 1552.46 Q652.339 1557.04 646.529 1557.04 Q640.719 1557.04 637.64 1552.46 Q634.585 1547.85 634.585 1539.13 Q634.585 1530.38 637.64 1525.79 Q640.719 1521.19 646.529 1521.19 Z" fill="#000000" fill-rule="evenodd" fill-opacity="1" /><path clip-path="url(#clip810)" d="M 0 0 M676.691 1524.89 Q673.08 1524.89 671.251 1528.46 Q669.446 1532 669.446 1539.13 Q669.446 1546.23 671.251 1549.8 Q673.08 1553.34 676.691 1553.34 Q680.325 1553.34 682.131 1549.8 Q683.959 1546.23 683.959 1539.13 Q683.959 1532 682.131 1528.46 Q680.325 1524.89 676.691 1524.89 M676.691 1521.19 Q682.501 1521.19 685.557 1525.79 Q688.635 1530.38 688.635 1539.13 Q688.635 1547.85 685.557 1552.46 Q682.501 1557.04 676.691 1557.04 Q670.881 1557.04 667.802 1552.46 Q664.747 1547.85 664.747 1539.13 Q664.747 1530.38 667.802 1525.79 Q670.881 1521.19 676.691 1521.19 Z" fill="#000000" fill-rule="evenodd" fill-opacity="1" /><path clip-path="url(#clip810)" d="M 0 0 M725.024 1530.91 L714.445 1541.53 L725.024 1552.11 L722.269 1554.91 L711.644 1544.29 L701.02 1554.91 L698.288 1552.11 L708.844 1541.53 L698.288 1530.91 L701.02 1528.11 L711.644 1538.73 L722.269 1528.11 L725.024 1530.91 Z" fill="#000000" fill-rule="evenodd" fill-opacity="1" /><path clip-path="url(#clip810)" d="M 0 0 M737.385 1552.44 L745.024 1552.44 L745.024 1526.07 L736.714 1527.74 L736.714 1523.48 L744.978 1521.81 L749.654 1521.81 L749.654 1552.44 L757.292 1552.44 L757.292 1556.37 L737.385 1556.37 L737.385 1552.44 Z" fill="#000000" fill-rule="evenodd" fill-opacity="1" /><path clip-path="url(#clip810)" d="M 0 0 M776.737 1524.89 Q773.126 1524.89 771.297 1528.46 Q769.491 1532 769.491 1539.13 Q769.491 1546.23 771.297 1549.8 Q773.126 1553.34 776.737 1553.34 Q780.371 1553.34 782.177 1549.8 Q784.005 1546.23 784.005 1539.13 Q784.005 1532 782.177 1528.46 Q780.371 1524.89 776.737 1524.89 M776.737 1521.19 Q782.547 1521.19 785.602 1525.79 Q788.681 1530.38 788.681 1539.13 Q788.681 1547.85 785.602 1552.46 Q782.547 1557.04 776.737 1557.04 Q770.927 1557.04 767.848 1552.46 Q764.792 1547.85 764.792 1539.13 Q764.792 1530.38 767.848 1525.79 Q770.927 1521.19 776.737 1521.19 Z" fill="#000000" fill-rule="evenodd" fill-opacity="1" /><path clip-path="url(#clip810)" d="M 0 0 M789.866 1500.88 L804.781 1500.88 L804.781 1504.08 L793.345 1504.08 L793.345 1510.96 Q794.173 1510.68 795.001 1510.55 Q795.828 1510.4 796.656 1510.4 Q801.358 1510.4 804.103 1512.97 Q806.849 1515.55 806.849 1519.95 Q806.849 1524.49 804.028 1527.01 Q801.207 1529.51 796.073 1529.51 Q794.305 1529.51 792.461 1529.21 Q790.637 1528.91 788.681 1528.3 L788.681 1524.49 Q790.374 1525.41 792.179 1525.86 Q793.985 1526.31 795.997 1526.31 Q799.251 1526.31 801.151 1524.6 Q803.05 1522.89 803.05 1519.95 Q803.05 1517.02 801.151 1515.31 Q799.251 1513.6 795.997 1513.6 Q794.474 1513.6 792.95 1513.93 Q791.446 1514.27 789.866 1514.99 L789.866 1500.88 Z" fill="#000000" fill-rule="evenodd" fill-opacity="1" /><path clip-path="url(#clip810)" d="M 0 0 M1102.15 1552.44 L1109.79 1552.44 L1109.79 1526.07 L1101.48 1527.74 L1101.48 1523.48 L1109.74 1521.81 L1114.42 1521.81 L1114.42 1552.44 L1122.06 1552.44 L1122.06 1556.37 L1102.15 1556.37 L1102.15 1552.44 Z" fill="#000000" fill-rule="evenodd" fill-opacity="1" /><path clip-path="url(#clip810)" d="M 0 0 M1131.5 1550.49 L1136.39 1550.49 L1136.39 1556.37 L1131.5 1556.37 L1131.5 1550.49 Z" fill="#000000" fill-rule="evenodd" fill-opacity="1" /><path clip-path="url(#clip810)" d="M 0 0 M1156.57 1524.89 Q1152.96 1524.89 1151.13 1528.46 Q1149.33 1532 1149.33 1539.13 Q1149.33 1546.23 1151.13 1549.8 Q1152.96 1553.34 1156.57 1553.34 Q1160.2 1553.34 1162.01 1549.8 Q1163.84 1546.23 1163.84 1539.13 Q1163.84 1532 1162.01 1528.46 Q1160.2 1524.89 1156.57 1524.89 M1156.57 1521.19 Q1162.38 1521.19 1165.44 1525.79 Q1168.51 1530.38 1168.51 1539.13 Q1168.51 1547.85 1165.44 1552.46 Q1162.38 1557.04 1156.57 1557.04 Q1150.76 1557.04 1147.68 1552.46 Q1144.63 1547.85 1144.63 1539.13 Q1144.63 1530.38 1147.68 1525.79 Q1150.76 1521.19 1156.57 1521.19 Z" fill="#000000" fill-rule="evenodd" fill-opacity="1" /><path clip-path="url(#clip810)" d="M 0 0 M1186.73 1524.89 Q1183.12 1524.89 1181.29 1528.46 Q1179.49 1532 1179.49 1539.13 Q1179.49 1546.23 1181.29 1549.8 Q1183.12 1553.34 1186.73 1553.34 Q1190.37 1553.34 1192.17 1549.8 Q1194 1546.23 1194 1539.13 Q1194 1532 1192.17 1528.46 Q1190.37 1524.89 1186.73 1524.89 M1186.73 1521.19 Q1192.54 1521.19 1195.6 1525.79 Q1198.68 1530.38 1198.68 1539.13 Q1198.68 1547.85 1195.6 1552.46 Q1192.54 1557.04 1186.73 1557.04 Q1180.92 1557.04 1177.84 1552.46 Q1174.79 1547.85 1174.79 1539.13 Q1174.79 1530.38 1177.84 1525.79 Q1180.92 1521.19 1186.73 1521.19 Z" fill="#000000" fill-rule="evenodd" fill-opacity="1" /><path clip-path="url(#clip810)" d="M 0 0 M1235.07 1530.91 L1224.49 1541.53 L1235.07 1552.11 L1232.31 1554.91 L1221.69 1544.29 L1211.06 1554.91 L1208.33 1552.11 L1218.89 1541.53 L1208.33 1530.91 L1211.06 1528.11 L1221.69 1538.73 L1232.31 1528.11 L1235.07 1530.91 Z" fill="#000000" fill-rule="evenodd" fill-opacity="1" /><path clip-path="url(#clip810)" d="M 0 0 M1247.43 1552.44 L1255.07 1552.44 L1255.07 1526.07 L1246.76 1527.74 L1246.76 1523.48 L1255.02 1521.81 L1259.69 1521.81 L1259.69 1552.44 L1267.33 1552.44 L1267.33 1556.37 L1247.43 1556.37 L1247.43 1552.44 Z" fill="#000000" fill-rule="evenodd" fill-opacity="1" /><path clip-path="url(#clip810)" d="M 0 0 M1286.78 1524.89 Q1283.17 1524.89 1281.34 1528.46 Q1279.53 1532 1279.53 1539.13 Q1279.53 1546.23 1281.34 1549.8 Q1283.17 1553.34 1286.78 1553.34 Q1290.41 1553.34 1292.22 1549.8 Q1294.05 1546.23 1294.05 1539.13 Q1294.05 1532 1292.22 1528.46 Q1290.41 1524.89 1286.78 1524.89 M1286.78 1521.19 Q1292.59 1521.19 1295.64 1525.79 Q1298.72 1530.38 1298.72 1539.13 Q1298.72 1547.85 1295.64 1552.46 Q1292.59 1557.04 1286.78 1557.04 Q1280.97 1557.04 1277.89 1552.46 Q1274.83 1547.85 1274.83 1539.13 Q1274.83 1530.38 1277.89 1525.79 Q1280.97 1521.19 1286.78 1521.19 Z" fill="#000000" fill-rule="evenodd" fill-opacity="1" /><path clip-path="url(#clip810)" d="M 0 0 M1308.75 1513.41 Q1306.19 1513.41 1304.68 1515.16 Q1303.2 1516.91 1303.2 1519.95 Q1303.2 1522.98 1304.68 1524.75 Q1306.19 1526.5 1308.75 1526.5 Q1311.3 1526.5 1312.79 1524.75 Q1314.3 1522.98 1314.3 1519.95 Q1314.3 1516.91 1312.79 1515.16 Q1311.3 1513.41 1308.75 1513.41 M1316.29 1501.5 L1316.29 1504.96 Q1314.86 1504.29 1313.39 1503.93 Q1311.94 1503.57 1310.52 1503.57 Q1306.75 1503.57 1304.76 1506.11 Q1302.79 1508.65 1302.5 1513.78 Q1303.61 1512.15 1305.29 1511.28 Q1306.96 1510.4 1308.97 1510.4 Q1313.2 1510.4 1315.65 1512.97 Q1318.11 1515.53 1318.11 1519.95 Q1318.11 1524.28 1315.56 1526.89 Q1313 1529.51 1308.75 1529.51 Q1303.88 1529.51 1301.3 1525.78 Q1298.72 1522.04 1298.72 1514.95 Q1298.72 1508.29 1301.88 1504.34 Q1305.04 1500.37 1310.36 1500.37 Q1311.79 1500.37 1313.24 1500.66 Q1314.71 1500.94 1316.29 1501.5 Z" fill="#000000" fill-rule="evenodd" fill-opacity="1" /><path clip-path="url(#clip810)" d="M 0 0 M1613.58 1552.44 L1621.22 1552.44 L1621.22 1526.07 L1612.91 1527.74 L1612.91 1523.48 L1621.17 1521.81 L1625.85 1521.81 L1625.85 1552.44 L1633.48 1552.44 L1633.48 1556.37 L1613.58 1556.37 L1613.58 1552.44 Z" fill="#000000" fill-rule="evenodd" fill-opacity="1" /><path clip-path="url(#clip810)" d="M 0 0 M1642.93 1550.49 L1647.81 1550.49 L1647.81 1556.37 L1642.93 1556.37 L1642.93 1550.49 Z" fill="#000000" fill-rule="evenodd" fill-opacity="1" /><path clip-path="url(#clip810)" d="M 0 0 M1658.05 1521.81 L1676.4 1521.81 L1676.4 1525.75 L1662.33 1525.75 L1662.33 1534.22 Q1663.35 1533.87 1664.36 1533.71 Q1665.38 1533.52 1666.4 1533.52 Q1672.19 1533.52 1675.57 1536.7 Q1678.95 1539.87 1678.95 1545.28 Q1678.95 1550.86 1675.48 1553.96 Q1672 1557.04 1665.68 1557.04 Q1663.51 1557.04 1661.24 1556.67 Q1658.99 1556.3 1656.59 1555.56 L1656.59 1550.86 Q1658.67 1552 1660.89 1552.55 Q1663.11 1553.11 1665.59 1553.11 Q1669.6 1553.11 1671.93 1551 Q1674.27 1548.9 1674.27 1545.28 Q1674.27 1541.67 1671.93 1539.57 Q1669.6 1537.46 1665.59 1537.46 Q1663.72 1537.46 1661.84 1537.88 Q1659.99 1538.29 1658.05 1539.17 L1658.05 1521.81 Z" fill="#000000" fill-rule="evenodd" fill-opacity="1" /><path clip-path="url(#clip810)" d="M 0 0 M1698.16 1524.89 Q1694.55 1524.89 1692.72 1528.46 Q1690.92 1532 1690.92 1539.13 Q1690.92 1546.23 1692.72 1549.8 Q1694.55 1553.34 1698.16 1553.34 Q1701.79 1553.34 1703.6 1549.8 Q1705.43 1546.23 1705.43 1539.13 Q1705.43 1532 1703.6 1528.46 Q1701.79 1524.89 1698.16 1524.89 M1698.16 1521.19 Q1703.97 1521.19 1707.03 1525.79 Q1710.1 1530.38 1710.1 1539.13 Q1710.1 1547.85 1707.03 1552.46 Q1703.97 1557.04 1698.16 1557.04 Q1692.35 1557.04 1689.27 1552.46 Q1686.22 1547.85 1686.22 1539.13 Q1686.22 1530.38 1689.27 1525.79 Q1692.35 1521.19 1698.16 1521.19 Z" fill="#000000" fill-rule="evenodd" fill-opacity="1" /><path clip-path="url(#clip810)" d="M 0 0 M1746.49 1530.91 L1735.91 1541.53 L1746.49 1552.11 L1743.74 1554.91 L1733.11 1544.29 L1722.49 1554.91 L1719.76 1552.11 L1730.31 1541.53 L1719.76 1530.91 L1722.49 1528.11 L1733.11 1538.73 L1743.74 1528.11 L1746.49 1530.91 Z" fill="#000000" fill-rule="evenodd" fill-opacity="1" /><path clip-path="url(#clip810)" d="M 0 0 M1758.85 1552.44 L1766.49 1552.44 L1766.49 1526.07 L1758.18 1527.74 L1758.18 1523.48 L1766.45 1521.81 L1771.12 1521.81 L1771.12 1552.44 L1778.76 1552.44 L1778.76 1556.37 L1758.85 1556.37 L1758.85 1552.44 Z" fill="#000000" fill-rule="evenodd" fill-opacity="1" /><path clip-path="url(#clip810)" d="M 0 0 M1798.21 1524.89 Q1794.6 1524.89 1792.77 1528.46 Q1790.96 1532 1790.96 1539.13 Q1790.96 1546.23 1792.77 1549.8 Q1794.6 1553.34 1798.21 1553.34 Q1801.84 1553.34 1803.65 1549.8 Q1805.47 1546.23 1805.47 1539.13 Q1805.47 1532 1803.65 1528.46 Q1801.84 1524.89 1798.21 1524.89 M1798.21 1521.19 Q1804.02 1521.19 1807.07 1525.79 Q1810.15 1530.38 1810.15 1539.13 Q1810.15 1547.85 1807.07 1552.46 Q1804.02 1557.04 1798.21 1557.04 Q1792.4 1557.04 1789.32 1552.46 Q1786.26 1547.85 1786.26 1539.13 Q1786.26 1530.38 1789.32 1525.79 Q1792.4 1521.19 1798.21 1521.19 Z" fill="#000000" fill-rule="evenodd" fill-opacity="1" /><path clip-path="url(#clip810)" d="M 0 0 M1820.18 1513.41 Q1817.62 1513.41 1816.11 1515.16 Q1814.63 1516.91 1814.63 1519.95 Q1814.63 1522.98 1816.11 1524.75 Q1817.62 1526.5 1820.18 1526.5 Q1822.73 1526.5 1824.22 1524.75 Q1825.72 1522.98 1825.72 1519.95 Q1825.72 1516.91 1824.22 1515.16 Q1822.73 1513.41 1820.18 1513.41 M1827.72 1501.5 L1827.72 1504.96 Q1826.29 1504.29 1824.82 1503.93 Q1823.37 1503.57 1821.94 1503.57 Q1818.18 1503.57 1816.19 1506.11 Q1814.21 1508.65 1813.93 1513.78 Q1815.04 1512.15 1816.71 1511.28 Q1818.39 1510.4 1820.4 1510.4 Q1824.63 1510.4 1827.08 1512.97 Q1829.54 1515.53 1829.54 1519.95 Q1829.54 1524.28 1826.98 1526.89 Q1824.43 1529.51 1820.18 1529.51 Q1815.3 1529.51 1812.73 1525.78 Q1810.15 1522.04 1810.15 1514.95 Q1810.15 1508.29 1813.31 1504.34 Q1816.47 1500.37 1821.79 1500.37 Q1823.22 1500.37 1824.67 1500.66 Q1826.14 1500.94 1827.72 1501.5 Z" fill="#000000" fill-rule="evenodd" fill-opacity="1" /><path clip-path="url(#clip810)" d="M 0 0 M2129.09 1552.44 L2145.41 1552.44 L2145.41 1556.37 L2123.47 1556.37 L2123.47 1552.44 Q2126.13 1549.68 2130.71 1545.05 Q2135.32 1540.4 2136.5 1539.06 Q2138.74 1536.53 2139.62 1534.8 Q2140.53 1533.04 2140.53 1531.35 Q2140.53 1528.59 2138.58 1526.86 Q2136.66 1525.12 2133.56 1525.12 Q2131.36 1525.12 2128.91 1525.89 Q2126.48 1526.65 2123.7 1528.2 L2123.7 1523.48 Q2126.52 1522.34 2128.98 1521.77 Q2131.43 1521.19 2133.47 1521.19 Q2138.84 1521.19 2142.03 1523.87 Q2145.23 1526.56 2145.23 1531.05 Q2145.23 1533.18 2144.42 1535.1 Q2143.63 1537 2141.52 1539.59 Q2140.94 1540.26 2137.84 1543.48 Q2134.74 1546.67 2129.09 1552.44 Z" fill="#000000" fill-rule="evenodd" fill-opacity="1" /><path clip-path="url(#clip810)" d="M 0 0 M2155.23 1550.49 L2160.11 1550.49 L2160.11 1556.37 L2155.23 1556.37 L2155.23 1550.49 Z" fill="#000000" fill-rule="evenodd" fill-opacity="1" /><path clip-path="url(#clip810)" d="M 0 0 M2180.29 1524.89 Q2176.68 1524.89 2174.86 1528.46 Q2173.05 1532 2173.05 1539.13 Q2173.05 1546.23 2174.86 1549.8 Q2176.68 1553.34 2180.29 1553.34 Q2183.93 1553.34 2185.73 1549.8 Q2187.56 1546.23 2187.56 1539.13 Q2187.56 1532 2185.73 1528.46 Q2183.93 1524.89 2180.29 1524.89 M2180.29 1521.19 Q2186.11 1521.19 2189.16 1525.79 Q2192.24 1530.38 2192.24 1539.13 Q2192.24 1547.85 2189.16 1552.46 Q2186.11 1557.04 2180.29 1557.04 Q2174.48 1557.04 2171.41 1552.46 Q2168.35 1547.85 2168.35 1539.13 Q2168.35 1530.38 2171.41 1525.79 Q2174.48 1521.19 2180.29 1521.19 Z" fill="#000000" fill-rule="evenodd" fill-opacity="1" /><path clip-path="url(#clip810)" d="M 0 0 M2210.46 1524.89 Q2206.85 1524.89 2205.02 1528.46 Q2203.21 1532 2203.21 1539.13 Q2203.21 1546.23 2205.02 1549.8 Q2206.85 1553.34 2210.46 1553.34 Q2214.09 1553.34 2215.9 1549.8 Q2217.73 1546.23 2217.73 1539.13 Q2217.73 1532 2215.9 1528.46 Q2214.09 1524.89 2210.46 1524.89 M2210.46 1521.19 Q2216.27 1521.19 2219.32 1525.79 Q2222.4 1530.38 2222.4 1539.13 Q2222.4 1547.85 2219.32 1552.46 Q2216.27 1557.04 2210.46 1557.04 Q2204.65 1557.04 2201.57 1552.46 Q2198.51 1547.85 2198.51 1539.13 Q2198.51 1530.38 2201.57 1525.79 Q2204.65 1521.19 2210.46 1521.19 Z" fill="#000000" fill-rule="evenodd" fill-opacity="1" /><path clip-path="url(#clip810)" d="M 0 0 M2258.79 1530.91 L2248.21 1541.53 L2258.79 1552.11 L2256.04 1554.91 L2245.41 1544.29 L2234.79 1554.91 L2232.05 1552.11 L2242.61 1541.53 L2232.05 1530.91 L2234.79 1528.11 L2245.41 1538.73 L2256.04 1528.11 L2258.79 1530.91 Z" fill="#000000" fill-rule="evenodd" fill-opacity="1" /><path clip-path="url(#clip810)" d="M 0 0 M2271.15 1552.44 L2278.79 1552.44 L2278.79 1526.07 L2270.48 1527.74 L2270.48 1523.48 L2278.74 1521.81 L2283.42 1521.81 L2283.42 1552.44 L2291.06 1552.44 L2291.06 1556.37 L2271.15 1556.37 L2271.15 1552.44 Z" fill="#000000" fill-rule="evenodd" fill-opacity="1" /><path clip-path="url(#clip810)" d="M 0 0 M2310.5 1524.89 Q2306.89 1524.89 2305.06 1528.46 Q2303.26 1532 2303.26 1539.13 Q2303.26 1546.23 2305.06 1549.8 Q2306.89 1553.34 2310.5 1553.34 Q2314.14 1553.34 2315.94 1549.8 Q2317.77 1546.23 2317.77 1539.13 Q2317.77 1532 2315.94 1528.46 Q2314.14 1524.89 2310.5 1524.89 M2310.5 1521.19 Q2316.31 1521.19 2319.37 1525.79 Q2322.45 1530.38 2322.45 1539.13 Q2322.45 1547.85 2319.37 1552.46 Q2316.31 1557.04 2310.5 1557.04 Q2304.69 1557.04 2301.61 1552.46 Q2298.56 1547.85 2298.56 1539.13 Q2298.56 1530.38 2301.61 1525.79 Q2304.69 1521.19 2310.5 1521.19 Z" fill="#000000" fill-rule="evenodd" fill-opacity="1" /><path clip-path="url(#clip810)" d="M 0 0 M2332.47 1513.41 Q2329.91 1513.41 2328.41 1515.16 Q2326.92 1516.91 2326.92 1519.95 Q2326.92 1522.98 2328.41 1524.75 Q2329.91 1526.5 2332.47 1526.5 Q2335.03 1526.5 2336.52 1524.75 Q2338.02 1522.98 2338.02 1519.95 Q2338.02 1516.91 2336.52 1515.16 Q2335.03 1513.41 2332.47 1513.41 M2340.01 1501.5 L2340.01 1504.96 Q2338.58 1504.29 2337.12 1503.93 Q2335.67 1503.57 2334.24 1503.57 Q2330.48 1503.57 2328.48 1506.11 Q2326.51 1508.65 2326.23 1513.78 Q2327.34 1512.15 2329.01 1511.28 Q2330.68 1510.4 2332.7 1510.4 Q2336.93 1510.4 2339.37 1512.97 Q2341.84 1515.53 2341.84 1519.95 Q2341.84 1524.28 2339.28 1526.89 Q2336.72 1529.51 2332.47 1529.51 Q2327.6 1529.51 2325.02 1525.78 Q2322.45 1522.04 2322.45 1514.95 Q2322.45 1508.29 2325.61 1504.34 Q2328.77 1500.37 2334.09 1500.37 Q2335.52 1500.37 2336.97 1500.66 Q2338.43 1500.94 2340.01 1501.5 Z" fill="#000000" fill-rule="evenodd" fill-opacity="1" /><polyline clip-path="url(#clip812)" style="stroke:#000000; stroke-width:2; stroke-opacity:0.1; fill:none" points="
  169.121,1435.94 2352.76,1435.94 
  "/>
<polyline clip-path="url(#clip812)" style="stroke:#000000; stroke-width:2; stroke-opacity:0.1; fill:none" points="
  169.121,1132.55 2352.76,1132.55 
  "/>
<polyline clip-path="url(#clip812)" style="stroke:#000000; stroke-width:2; stroke-opacity:0.1; fill:none" points="
  169.121,829.157 2352.76,829.157 
  "/>
<polyline clip-path="url(#clip812)" style="stroke:#000000; stroke-width:2; stroke-opacity:0.1; fill:none" points="
  169.121,525.767 2352.76,525.767 
  "/>
<polyline clip-path="url(#clip812)" style="stroke:#000000; stroke-width:2; stroke-opacity:0.1; fill:none" points="
  169.121,222.377 2352.76,222.377 
  "/>
<polyline clip-path="url(#clip810)" style="stroke:#000000; stroke-width:4; stroke-opacity:1; fill:none" points="
  169.121,1474.16 169.121,123.472 
  "/>
<polyline clip-path="url(#clip810)" style="stroke:#000000; stroke-width:4; stroke-opacity:1; fill:none" points="
  169.121,1435.94 195.325,1435.94 
  "/>
<polyline clip-path="url(#clip810)" style="stroke:#000000; stroke-width:4; stroke-opacity:1; fill:none" points="
  169.121,1132.55 195.325,1132.55 
  "/>
<polyline clip-path="url(#clip810)" style="stroke:#000000; stroke-width:4; stroke-opacity:1; fill:none" points="
  169.121,829.157 195.325,829.157 
  "/>
<polyline clip-path="url(#clip810)" style="stroke:#000000; stroke-width:4; stroke-opacity:1; fill:none" points="
  169.121,525.767 195.325,525.767 
  "/>
<polyline clip-path="url(#clip810)" style="stroke:#000000; stroke-width:4; stroke-opacity:1; fill:none" points="
  169.121,222.377 195.325,222.377 
  "/>
<path clip-path="url(#clip810)" d="M 0 0 M121.177 1421.74 Q117.566 1421.74 115.737 1425.3 Q113.932 1428.84 113.932 1435.97 Q113.932 1443.08 115.737 1446.64 Q117.566 1450.19 121.177 1450.19 Q124.811 1450.19 126.617 1446.64 Q128.445 1443.08 128.445 1435.97 Q128.445 1428.84 126.617 1425.3 Q124.811 1421.74 121.177 1421.74 M121.177 1418.03 Q126.987 1418.03 130.043 1422.64 Q133.121 1427.22 133.121 1435.97 Q133.121 1444.7 130.043 1449.31 Q126.987 1453.89 121.177 1453.89 Q115.367 1453.89 112.288 1449.31 Q109.233 1444.7 109.233 1435.97 Q109.233 1427.22 112.288 1422.64 Q115.367 1418.03 121.177 1418.03 Z" fill="#000000" fill-rule="evenodd" fill-opacity="1" /><path clip-path="url(#clip810)" d="M 0 0 M86.0382 1145.89 L102.358 1145.89 L102.358 1149.83 L80.4133 1149.83 L80.4133 1145.89 Q83.0753 1143.14 87.6586 1138.51 Q92.2651 1133.86 93.4456 1132.51 Q95.691 1129.99 96.5706 1128.25 Q97.4734 1126.49 97.4734 1124.8 Q97.4734 1122.05 95.5289 1120.31 Q93.6076 1118.58 90.5058 1118.58 Q88.3067 1118.58 85.8531 1119.34 Q83.4225 1120.11 80.6447 1121.66 L80.6447 1116.93 Q83.4688 1115.8 85.9225 1115.22 Q88.3762 1114.64 90.4132 1114.64 Q95.7836 1114.64 98.978 1117.33 Q102.172 1120.01 102.172 1124.5 Q102.172 1126.63 101.362 1128.55 Q100.575 1130.45 98.4687 1133.05 Q97.89 1133.72 94.7882 1136.93 Q91.6864 1140.13 86.0382 1145.89 Z" fill="#000000" fill-rule="evenodd" fill-opacity="1" /><path clip-path="url(#clip810)" d="M 0 0 M112.219 1115.27 L130.575 1115.27 L130.575 1119.2 L116.501 1119.2 L116.501 1127.67 Q117.52 1127.33 118.538 1127.17 Q119.557 1126.98 120.575 1126.98 Q126.362 1126.98 129.742 1130.15 Q133.121 1133.32 133.121 1138.74 Q133.121 1144.32 129.649 1147.42 Q126.177 1150.5 119.857 1150.5 Q117.682 1150.5 115.413 1150.13 Q113.168 1149.76 110.76 1149.02 L110.76 1144.32 Q112.844 1145.45 115.066 1146.01 Q117.288 1146.56 119.765 1146.56 Q123.77 1146.56 126.107 1144.46 Q128.445 1142.35 128.445 1138.74 Q128.445 1135.13 126.107 1133.02 Q123.77 1130.92 119.765 1130.92 Q117.89 1130.92 116.015 1131.33 Q114.163 1131.75 112.219 1132.63 L112.219 1115.27 Z" fill="#000000" fill-rule="evenodd" fill-opacity="1" /><path clip-path="url(#clip810)" d="M 0 0 M81.0614 811.877 L99.4178 811.877 L99.4178 815.813 L85.3438 815.813 L85.3438 824.285 Q86.3623 823.938 87.3808 823.775 Q88.3993 823.59 89.4178 823.59 Q95.2049 823.59 98.5845 826.762 Q101.964 829.933 101.964 835.35 Q101.964 840.928 98.4919 844.03 Q95.0197 847.109 88.7003 847.109 Q86.5243 847.109 84.2558 846.738 Q82.0105 846.368 79.6031 845.627 L79.6031 840.928 Q81.6864 842.062 83.9086 842.618 Q86.1308 843.174 88.6077 843.174 Q92.6123 843.174 94.9502 841.067 Q97.2882 838.961 97.2882 835.35 Q97.2882 831.738 94.9502 829.632 Q92.6123 827.525 88.6077 827.525 Q86.7327 827.525 84.8577 827.942 Q83.0058 828.359 81.0614 829.238 L81.0614 811.877 Z" fill="#000000" fill-rule="evenodd" fill-opacity="1" /><path clip-path="url(#clip810)" d="M 0 0 M121.177 814.956 Q117.566 814.956 115.737 818.521 Q113.932 822.063 113.932 829.192 Q113.932 836.299 115.737 839.863 Q117.566 843.405 121.177 843.405 Q124.811 843.405 126.617 839.863 Q128.445 836.299 128.445 829.192 Q128.445 822.063 126.617 818.521 Q124.811 814.956 121.177 814.956 M121.177 811.252 Q126.987 811.252 130.043 815.859 Q133.121 820.442 133.121 829.192 Q133.121 837.919 130.043 842.525 Q126.987 847.109 121.177 847.109 Q115.367 847.109 112.288 842.525 Q109.233 837.919 109.233 829.192 Q109.233 820.442 112.288 815.859 Q115.367 811.252 121.177 811.252 Z" fill="#000000" fill-rule="evenodd" fill-opacity="1" /><path clip-path="url(#clip810)" d="M 0 0 M80.8299 508.487 L103.052 508.487 L103.052 510.478 L90.5058 543.047 L85.6216 543.047 L97.4271 512.423 L80.8299 512.423 L80.8299 508.487 Z" fill="#000000" fill-rule="evenodd" fill-opacity="1" /><path clip-path="url(#clip810)" d="M 0 0 M112.219 508.487 L130.575 508.487 L130.575 512.423 L116.501 512.423 L116.501 520.895 Q117.52 520.547 118.538 520.385 Q119.557 520.2 120.575 520.2 Q126.362 520.2 129.742 523.372 Q133.121 526.543 133.121 531.959 Q133.121 537.538 129.649 540.64 Q126.177 543.719 119.857 543.719 Q117.682 543.719 115.413 543.348 Q113.168 542.978 110.76 542.237 L110.76 537.538 Q112.844 538.672 115.066 539.228 Q117.288 539.783 119.765 539.783 Q123.77 539.783 126.107 537.677 Q128.445 535.571 128.445 531.959 Q128.445 528.348 126.107 526.242 Q123.77 524.135 119.765 524.135 Q117.89 524.135 116.015 524.552 Q114.163 524.969 112.219 525.848 L112.219 508.487 Z" fill="#000000" fill-rule="evenodd" fill-opacity="1" /><path clip-path="url(#clip810)" d="M 0 0 M51.6634 235.722 L59.3023 235.722 L59.3023 209.357 L50.9921 211.023 L50.9921 206.764 L59.256 205.097 L63.9319 205.097 L63.9319 235.722 L71.5707 235.722 L71.5707 239.657 L51.6634 239.657 L51.6634 235.722 Z" fill="#000000" fill-rule="evenodd" fill-opacity="1" /><path clip-path="url(#clip810)" d="M 0 0 M91.0151 208.176 Q87.404 208.176 85.5753 211.741 Q83.7697 215.282 83.7697 222.412 Q83.7697 229.518 85.5753 233.083 Q87.404 236.625 91.0151 236.625 Q94.6493 236.625 96.4548 233.083 Q98.2835 229.518 98.2835 222.412 Q98.2835 215.282 96.4548 211.741 Q94.6493 208.176 91.0151 208.176 M91.0151 204.472 Q96.8252 204.472 99.8808 209.079 Q102.959 213.662 102.959 222.412 Q102.959 231.139 99.8808 235.745 Q96.8252 240.329 91.0151 240.329 Q85.2049 240.329 82.1262 235.745 Q79.0707 231.139 79.0707 222.412 Q79.0707 213.662 82.1262 209.079 Q85.2049 204.472 91.0151 204.472 Z" fill="#000000" fill-rule="evenodd" fill-opacity="1" /><path clip-path="url(#clip810)" d="M 0 0 M121.177 208.176 Q117.566 208.176 115.737 211.741 Q113.932 215.282 113.932 222.412 Q113.932 229.518 115.737 233.083 Q117.566 236.625 121.177 236.625 Q124.811 236.625 126.617 233.083 Q128.445 229.518 128.445 222.412 Q128.445 215.282 126.617 211.741 Q124.811 208.176 121.177 208.176 M121.177 204.472 Q126.987 204.472 130.043 209.079 Q133.121 213.662 133.121 222.412 Q133.121 231.139 130.043 235.745 Q126.987 240.329 121.177 240.329 Q115.367 240.329 112.288 235.745 Q109.233 231.139 109.233 222.412 Q109.233 213.662 112.288 209.079 Q115.367 204.472 121.177 204.472 Z" fill="#000000" fill-rule="evenodd" fill-opacity="1" /><path clip-path="url(#clip810)" d="M 0 0 M938.892 18.8205 L938.892 65.8515 L948.776 65.8515 Q961.293 65.8515 967.086 60.1802 Q972.919 54.509 972.919 42.2752 Q972.919 30.1225 967.086 24.4918 Q961.293 18.8205 948.776 18.8205 L938.892 18.8205 M930.709 12.096 L947.52 12.096 Q965.101 12.096 973.324 19.4281 Q981.548 26.7198 981.548 42.2752 Q981.548 57.9117 973.284 65.2439 Q965.02 72.576 947.52 72.576 L930.709 72.576 L930.709 12.096 Z" fill="#000000" fill-rule="evenodd" fill-opacity="1" /><path clip-path="url(#clip810)" d="M 0 0 M1014.89 49.7694 Q1005.85 49.7694 1002.37 51.8354 Q998.886 53.9013 998.886 58.8839 Q998.886 62.8538 1001.48 65.2034 Q1004.11 67.5124 1008.61 67.5124 Q1014.81 67.5124 1018.53 63.1374 Q1022.3 58.7219 1022.3 51.4303 L1022.3 49.7694 L1014.89 49.7694 M1029.75 46.6907 L1029.75 72.576 L1022.3 72.576 L1022.3 65.6895 Q1019.75 69.8214 1015.94 71.8063 Q1012.13 73.7508 1006.62 73.7508 Q999.655 73.7508 995.523 69.8619 Q991.432 65.9325 991.432 59.3701 Q991.432 51.7138 996.536 47.825 Q1001.68 43.9361 1011.85 43.9361 L1022.3 43.9361 L1022.3 43.2069 Q1022.3 38.0623 1018.9 35.2672 Q1015.53 32.4315 1009.42 32.4315 Q1005.53 32.4315 1001.84 33.3632 Q998.156 34.295 994.754 36.1584 L994.754 29.2718 Q998.845 27.692 1002.69 26.9223 Q1006.54 26.1121 1010.19 26.1121 Q1020.03 26.1121 1024.89 31.2163 Q1029.75 36.3204 1029.75 46.6907 Z" fill="#000000" fill-rule="evenodd" fill-opacity="1" /><path clip-path="url(#clip810)" d="M 0 0 M1052.48 14.324 L1052.48 27.2059 L1067.83 27.2059 L1067.83 32.9987 L1052.48 32.9987 L1052.48 57.6282 Q1052.48 63.1779 1053.98 64.7578 Q1055.52 66.3376 1060.18 66.3376 L1067.83 66.3376 L1067.83 72.576 L1060.18 72.576 Q1051.55 72.576 1048.27 69.3758 Q1044.98 66.1351 1044.98 57.6282 L1044.98 32.9987 L1039.52 32.9987 L1039.52 27.2059 L1044.98 27.2059 L1044.98 14.324 L1052.48 14.324 Z" fill="#000000" fill-rule="evenodd" fill-opacity="1" /><path clip-path="url(#clip810)" d="M 0 0 M1098.25 49.7694 Q1089.22 49.7694 1085.74 51.8354 Q1082.25 53.9013 1082.25 58.8839 Q1082.25 62.8538 1084.85 65.2034 Q1087.48 67.5124 1091.98 67.5124 Q1098.17 67.5124 1101.9 63.1374 Q1105.67 58.7219 1105.67 51.4303 L1105.67 49.7694 L1098.25 49.7694 M1113.12 46.6907 L1113.12 72.576 L1105.67 72.576 L1105.67 65.6895 Q1103.12 69.8214 1099.31 71.8063 Q1095.5 73.7508 1089.99 73.7508 Q1083.02 73.7508 1078.89 69.8619 Q1074.8 65.9325 1074.8 59.3701 Q1074.8 51.7138 1079.9 47.825 Q1085.05 43.9361 1095.22 43.9361 L1105.67 43.9361 L1105.67 43.2069 Q1105.67 38.0623 1102.26 35.2672 Q1098.9 32.4315 1092.79 32.4315 Q1088.9 32.4315 1085.21 33.3632 Q1081.52 34.295 1078.12 36.1584 L1078.12 29.2718 Q1082.21 27.692 1086.06 26.9223 Q1089.91 26.1121 1093.56 26.1121 Q1103.4 26.1121 1108.26 31.2163 Q1113.12 36.3204 1113.12 46.6907 Z" fill="#000000" fill-rule="evenodd" fill-opacity="1" /><path clip-path="url(#clip810)" d="M 0 0 M1184.7 49.3643 Q1184.7 41.2625 1181.34 36.8065 Q1178.02 32.3505 1171.98 32.3505 Q1165.99 32.3505 1162.62 36.8065 Q1159.3 41.2625 1159.3 49.3643 Q1159.3 57.4256 1162.62 61.8816 Q1165.99 66.3376 1171.98 66.3376 Q1178.02 66.3376 1181.34 61.8816 Q1184.7 57.4256 1184.7 49.3643 M1192.15 66.9452 Q1192.15 78.5308 1187.01 84.1616 Q1181.86 89.8329 1171.25 89.8329 Q1167.32 89.8329 1163.84 89.2252 Q1160.35 88.6581 1157.07 87.4428 L1157.07 80.1917 Q1160.35 81.9741 1163.55 82.8248 Q1166.76 83.6755 1170.08 83.6755 Q1177.41 83.6755 1181.05 79.8271 Q1184.7 76.0193 1184.7 68.282 L1184.7 64.5957 Q1182.39 68.6061 1178.79 70.5911 Q1175.18 72.576 1170.16 72.576 Q1161.81 72.576 1156.71 66.2161 Q1151.6 59.8562 1151.6 49.3643 Q1151.6 38.832 1156.71 32.472 Q1161.81 26.1121 1170.16 26.1121 Q1175.18 26.1121 1178.79 28.0971 Q1182.39 30.082 1184.7 34.0924 L1184.7 27.2059 L1192.15 27.2059 L1192.15 66.9452 Z" fill="#000000" fill-rule="evenodd" fill-opacity="1" /><path clip-path="url(#clip810)" d="M 0 0 M1246.31 48.0275 L1246.31 51.6733 L1212.04 51.6733 Q1212.53 59.3701 1216.66 63.421 Q1220.83 67.4314 1228.25 67.4314 Q1232.54 67.4314 1236.55 66.3781 Q1240.6 65.3249 1244.57 63.2184 L1244.57 70.267 Q1240.56 71.9684 1236.35 72.8596 Q1232.14 73.7508 1227.8 73.7508 Q1216.95 73.7508 1210.59 67.4314 Q1204.27 61.1119 1204.27 50.3365 Q1204.27 39.1965 1210.26 32.6746 Q1216.3 26.1121 1226.51 26.1121 Q1235.66 26.1121 1240.97 32.0264 Q1246.31 37.9003 1246.31 48.0275 M1238.86 45.84 Q1238.78 39.7232 1235.42 36.0774 Q1232.1 32.4315 1226.59 32.4315 Q1220.35 32.4315 1216.58 35.9558 Q1212.85 39.4801 1212.29 45.8805 L1238.86 45.84 Z" fill="#000000" fill-rule="evenodd" fill-opacity="1" /><path clip-path="url(#clip810)" d="M 0 0 M1296.26 45.1919 L1296.26 72.576 L1288.81 72.576 L1288.81 45.4349 Q1288.81 38.994 1286.3 35.7938 Q1283.79 32.5936 1278.76 32.5936 Q1272.73 32.5936 1269.24 36.4419 Q1265.76 40.2903 1265.76 46.9338 L1265.76 72.576 L1258.27 72.576 L1258.27 27.2059 L1265.76 27.2059 L1265.76 34.2544 Q1268.43 30.163 1272.04 28.1376 Q1275.68 26.1121 1280.42 26.1121 Q1288.24 26.1121 1292.25 30.9732 Q1296.26 35.7938 1296.26 45.1919 Z" fill="#000000" fill-rule="evenodd" fill-opacity="1" /><path clip-path="url(#clip810)" d="M 0 0 M1349.94 48.0275 L1349.94 51.6733 L1315.67 51.6733 Q1316.15 59.3701 1320.28 63.421 Q1324.46 67.4314 1331.87 67.4314 Q1336.16 67.4314 1340.17 66.3781 Q1344.23 65.3249 1348.2 63.2184 L1348.2 70.267 Q1344.18 71.9684 1339.97 72.8596 Q1335.76 73.7508 1331.42 73.7508 Q1320.57 73.7508 1314.21 67.4314 Q1307.89 61.1119 1307.89 50.3365 Q1307.89 39.1965 1313.88 32.6746 Q1319.92 26.1121 1330.13 26.1121 Q1339.28 26.1121 1344.59 32.0264 Q1349.94 37.9003 1349.94 48.0275 M1342.48 45.84 Q1342.4 39.7232 1339.04 36.0774 Q1335.72 32.4315 1330.21 32.4315 Q1323.97 32.4315 1320.2 35.9558 Q1316.48 39.4801 1315.91 45.8805 L1342.48 45.84 Z" fill="#000000" fill-rule="evenodd" fill-opacity="1" /><path clip-path="url(#clip810)" d="M 0 0 M1388.46 34.1734 Q1387.21 33.4443 1385.71 33.1202 Q1384.25 32.7556 1382.47 32.7556 Q1376.15 32.7556 1372.74 36.8875 Q1369.38 40.9789 1369.38 48.6757 L1369.38 72.576 L1361.89 72.576 L1361.89 27.2059 L1369.38 27.2059 L1369.38 34.2544 Q1371.73 30.1225 1375.5 28.1376 Q1379.27 26.1121 1384.65 26.1121 Q1385.42 26.1121 1386.35 26.2337 Q1387.29 26.3147 1388.42 26.5172 L1388.46 34.1734 Z" fill="#000000" fill-rule="evenodd" fill-opacity="1" /><path clip-path="url(#clip810)" d="M 0 0 M1416.9 49.7694 Q1407.86 49.7694 1404.38 51.8354 Q1400.9 53.9013 1400.9 58.8839 Q1400.9 62.8538 1403.49 65.2034 Q1406.12 67.5124 1410.62 67.5124 Q1416.82 67.5124 1420.54 63.1374 Q1424.31 58.7219 1424.31 51.4303 L1424.31 49.7694 L1416.9 49.7694 M1431.77 46.6907 L1431.77 72.576 L1424.31 72.576 L1424.31 65.6895 Q1421.76 69.8214 1417.95 71.8063 Q1414.14 73.7508 1408.63 73.7508 Q1401.67 73.7508 1397.54 69.8619 Q1393.44 65.9325 1393.44 59.3701 Q1393.44 51.7138 1398.55 47.825 Q1403.69 43.9361 1413.86 43.9361 L1424.31 43.9361 L1424.31 43.2069 Q1424.31 38.0623 1420.91 35.2672 Q1417.55 32.4315 1411.43 32.4315 Q1407.54 32.4315 1403.85 33.3632 Q1400.17 34.295 1396.77 36.1584 L1396.77 29.2718 Q1400.86 27.692 1404.71 26.9223 Q1408.55 26.1121 1412.2 26.1121 Q1422.04 26.1121 1426.9 31.2163 Q1431.77 36.3204 1431.77 46.6907 Z" fill="#000000" fill-rule="evenodd" fill-opacity="1" /><path clip-path="url(#clip810)" d="M 0 0 M1454.49 14.324 L1454.49 27.2059 L1469.84 27.2059 L1469.84 32.9987 L1454.49 32.9987 L1454.49 57.6282 Q1454.49 63.1779 1455.99 64.7578 Q1457.53 66.3376 1462.19 66.3376 L1469.84 66.3376 L1469.84 72.576 L1462.19 72.576 Q1453.56 72.576 1450.28 69.3758 Q1447 66.1351 1447 57.6282 L1447 32.9987 L1441.53 32.9987 L1441.53 27.2059 L1447 27.2059 L1447 14.324 L1454.49 14.324 Z" fill="#000000" fill-rule="evenodd" fill-opacity="1" /><path clip-path="url(#clip810)" d="M 0 0 M1479.65 27.2059 L1487.1 27.2059 L1487.1 72.576 L1479.65 72.576 L1479.65 27.2059 M1479.65 9.54393 L1487.1 9.54393 L1487.1 18.9825 L1479.65 18.9825 L1479.65 9.54393 Z" fill="#000000" fill-rule="evenodd" fill-opacity="1" /><path clip-path="url(#clip810)" d="M 0 0 M1520.28 32.4315 Q1514.28 32.4315 1510.8 37.1306 Q1507.31 41.7891 1507.31 49.9314 Q1507.31 58.0738 1510.76 62.7728 Q1514.24 67.4314 1520.28 67.4314 Q1526.23 67.4314 1529.72 62.7323 Q1533.2 58.0333 1533.2 49.9314 Q1533.2 41.8701 1529.72 37.1711 Q1526.23 32.4315 1520.28 32.4315 M1520.28 26.1121 Q1530 26.1121 1535.55 32.4315 Q1541.1 38.7509 1541.1 49.9314 Q1541.1 61.0714 1535.55 67.4314 Q1530 73.7508 1520.28 73.7508 Q1510.51 73.7508 1504.97 67.4314 Q1499.46 61.0714 1499.46 49.9314 Q1499.46 38.7509 1504.97 32.4315 Q1510.51 26.1121 1520.28 26.1121 Z" fill="#000000" fill-rule="evenodd" fill-opacity="1" /><path clip-path="url(#clip810)" d="M 0 0 M1591.17 45.1919 L1591.17 72.576 L1583.71 72.576 L1583.71 45.4349 Q1583.71 38.994 1581.2 35.7938 Q1578.69 32.5936 1573.67 32.5936 Q1567.63 32.5936 1564.15 36.4419 Q1560.67 40.2903 1560.67 46.9338 L1560.67 72.576 L1553.17 72.576 L1553.17 27.2059 L1560.67 27.2059 L1560.67 34.2544 Q1563.34 30.163 1566.94 28.1376 Q1570.59 26.1121 1575.33 26.1121 Q1583.15 26.1121 1587.16 30.9732 Q1591.17 35.7938 1591.17 45.1919 Z" fill="#000000" fill-rule="evenodd" fill-opacity="1" /><path clip-path="url(#clip812)" d="
M289.225 295.191 L289.225 1435.94 L391.511 1435.94 L391.511 295.191 L289.225 295.191 L289.225 295.191  Z
  " fill="#009af9" fill-rule="evenodd" fill-opacity="0.8"/>
<polyline clip-path="url(#clip812)" style="stroke:#000000; stroke-width:4; stroke-opacity:0.8; fill:none" points="
  289.225,295.191 289.225,1435.94 391.511,1435.94 391.511,295.191 289.225,295.191 
  "/>
<path clip-path="url(#clip812)" d="
M391.511 999.056 L391.511 1435.94 L493.796 1435.94 L493.796 999.056 L391.511 999.056 L391.511 999.056  Z
  " fill="#009af9" fill-rule="evenodd" fill-opacity="0.8"/>
<polyline clip-path="url(#clip812)" style="stroke:#000000; stroke-width:4; stroke-opacity:0.8; fill:none" points="
  391.511,999.056 391.511,1435.94 493.796,1435.94 493.796,999.056 391.511,999.056 
  "/>
<path clip-path="url(#clip812)" d="
M493.796 1168.95 L493.796 1435.94 L596.082 1435.94 L596.082 1168.95 L493.796 1168.95 L493.796 1168.95  Z
  " fill="#009af9" fill-rule="evenodd" fill-opacity="0.8"/>
<polyline clip-path="url(#clip812)" style="stroke:#000000; stroke-width:4; stroke-opacity:0.8; fill:none" points="
  493.796,1168.95 493.796,1435.94 596.082,1435.94 596.082,1168.95 493.796,1168.95 
  "/>
<path clip-path="url(#clip812)" d="
M596.082 1253.9 L596.082 1435.94 L698.368 1435.94 L698.368 1253.9 L596.082 1253.9 L596.082 1253.9  Z
  " fill="#009af9" fill-rule="evenodd" fill-opacity="0.8"/>
<polyline clip-path="url(#clip812)" style="stroke:#000000; stroke-width:4; stroke-opacity:0.8; fill:none" points="
  596.082,1253.9 596.082,1435.94 698.368,1435.94 698.368,1253.9 596.082,1253.9 
  "/>
<path clip-path="url(#clip812)" d="
M698.368 1387.4 L698.368 1435.94 L800.653 1435.94 L800.653 1387.4 L698.368 1387.4 L698.368 1387.4  Z
  " fill="#009af9" fill-rule="evenodd" fill-opacity="0.8"/>
<polyline clip-path="url(#clip812)" style="stroke:#000000; stroke-width:4; stroke-opacity:0.8; fill:none" points="
  698.368,1387.4 698.368,1435.94 800.653,1435.94 800.653,1387.4 698.368,1387.4 
  "/>
<path clip-path="url(#clip812)" d="
M800.653 1399.53 L800.653 1435.94 L902.939 1435.94 L902.939 1399.53 L800.653 1399.53 L800.653 1399.53  Z
  " fill="#009af9" fill-rule="evenodd" fill-opacity="0.8"/>
<polyline clip-path="url(#clip812)" style="stroke:#000000; stroke-width:4; stroke-opacity:0.8; fill:none" points="
  800.653,1399.53 800.653,1435.94 902.939,1435.94 902.939,1399.53 800.653,1399.53 
  "/>
<path clip-path="url(#clip812)" d="
M902.939 1399.53 L902.939 1435.94 L1005.22 1435.94 L1005.22 1399.53 L902.939 1399.53 L902.939 1399.53  Z
  " fill="#009af9" fill-rule="evenodd" fill-opacity="0.8"/>
<polyline clip-path="url(#clip812)" style="stroke:#000000; stroke-width:4; stroke-opacity:0.8; fill:none" points="
  902.939,1399.53 902.939,1435.94 1005.22,1435.94 1005.22,1399.53 902.939,1399.53 
  "/>
<path clip-path="url(#clip812)" d="
M1005.22 1399.53 L1005.22 1435.94 L1107.51 1435.94 L1107.51 1399.53 L1005.22 1399.53 L1005.22 1399.53  Z
  " fill="#009af9" fill-rule="evenodd" fill-opacity="0.8"/>
<polyline clip-path="url(#clip812)" style="stroke:#000000; stroke-width:4; stroke-opacity:0.8; fill:none" points="
  1005.22,1399.53 1005.22,1435.94 1107.51,1435.94 1107.51,1399.53 1005.22,1399.53 
  "/>
<path clip-path="url(#clip812)" d="
M1107.51 1387.4 L1107.51 1435.94 L1209.8 1435.94 L1209.8 1387.4 L1107.51 1387.4 L1107.51 1387.4  Z
  " fill="#009af9" fill-rule="evenodd" fill-opacity="0.8"/>
<polyline clip-path="url(#clip812)" style="stroke:#000000; stroke-width:4; stroke-opacity:0.8; fill:none" points="
  1107.51,1387.4 1107.51,1435.94 1209.8,1435.94 1209.8,1387.4 1107.51,1387.4 
  "/>
<path clip-path="url(#clip812)" d="
M1209.8 1411.67 L1209.8 1435.94 L1312.08 1435.94 L1312.08 1411.67 L1209.8 1411.67 L1209.8 1411.67  Z
  " fill="#009af9" fill-rule="evenodd" fill-opacity="0.8"/>
<polyline clip-path="url(#clip812)" style="stroke:#000000; stroke-width:4; stroke-opacity:0.8; fill:none" points="
  1209.8,1411.67 1209.8,1435.94 1312.08,1435.94 1312.08,1411.67 1209.8,1411.67 
  "/>
<path clip-path="url(#clip812)" d="
M1312.08 1399.53 L1312.08 1435.94 L1414.37 1435.94 L1414.37 1399.53 L1312.08 1399.53 L1312.08 1399.53  Z
  " fill="#009af9" fill-rule="evenodd" fill-opacity="0.8"/>
<polyline clip-path="url(#clip812)" style="stroke:#000000; stroke-width:4; stroke-opacity:0.8; fill:none" points="
  1312.08,1399.53 1312.08,1435.94 1414.37,1435.94 1414.37,1399.53 1312.08,1399.53 
  "/>
<path clip-path="url(#clip812)" d="
M1414.37 1435.94 L1414.37 1435.94 L1516.65 1435.94 L1516.65 1435.94 L1414.37 1435.94 L1414.37 1435.94  Z
  " fill="#009af9" fill-rule="evenodd" fill-opacity="0.8"/>
<polyline clip-path="url(#clip812)" style="stroke:#000000; stroke-width:4; stroke-opacity:0.8; fill:none" points="
  1414.37,1435.94 1414.37,1435.94 1516.65,1435.94 1414.37,1435.94 
  "/>
<path clip-path="url(#clip812)" d="
M1516.65 1435.94 L1516.65 1435.94 L1618.94 1435.94 L1618.94 1435.94 L1516.65 1435.94 L1516.65 1435.94  Z
  " fill="#009af9" fill-rule="evenodd" fill-opacity="0.8"/>
<polyline clip-path="url(#clip812)" style="stroke:#000000; stroke-width:4; stroke-opacity:0.8; fill:none" points="
  1516.65,1435.94 1516.65,1435.94 1618.94,1435.94 1516.65,1435.94 
  "/>
<path clip-path="url(#clip812)" d="
M1618.94 1411.67 L1618.94 1435.94 L1721.22 1435.94 L1721.22 1411.67 L1618.94 1411.67 L1618.94 1411.67  Z
  " fill="#009af9" fill-rule="evenodd" fill-opacity="0.8"/>
<polyline clip-path="url(#clip812)" style="stroke:#000000; stroke-width:4; stroke-opacity:0.8; fill:none" points="
  1618.94,1411.67 1618.94,1435.94 1721.22,1435.94 1721.22,1411.67 1618.94,1411.67 
  "/>
<path clip-path="url(#clip812)" d="
M1721.22 1411.67 L1721.22 1435.94 L1823.51 1435.94 L1823.51 1411.67 L1721.22 1411.67 L1721.22 1411.67  Z
  " fill="#009af9" fill-rule="evenodd" fill-opacity="0.8"/>
<polyline clip-path="url(#clip812)" style="stroke:#000000; stroke-width:4; stroke-opacity:0.8; fill:none" points="
  1721.22,1411.67 1721.22,1435.94 1823.51,1435.94 1823.51,1411.67 1721.22,1411.67 
  "/>
<path clip-path="url(#clip812)" d="
M1823.51 1411.67 L1823.51 1435.94 L1925.8 1435.94 L1925.8 1411.67 L1823.51 1411.67 L1823.51 1411.67  Z
  " fill="#009af9" fill-rule="evenodd" fill-opacity="0.8"/>
<polyline clip-path="url(#clip812)" style="stroke:#000000; stroke-width:4; stroke-opacity:0.8; fill:none" points="
  1823.51,1411.67 1823.51,1435.94 1925.8,1435.94 1925.8,1411.67 1823.51,1411.67 
  "/>
<path clip-path="url(#clip812)" d="
M1925.8 1423.8 L1925.8 1435.94 L2028.08 1435.94 L2028.08 1423.8 L1925.8 1423.8 L1925.8 1423.8  Z
  " fill="#009af9" fill-rule="evenodd" fill-opacity="0.8"/>
<polyline clip-path="url(#clip812)" style="stroke:#000000; stroke-width:4; stroke-opacity:0.8; fill:none" points="
  1925.8,1423.8 1925.8,1435.94 2028.08,1435.94 2028.08,1423.8 1925.8,1423.8 
  "/>
<path clip-path="url(#clip812)" d="
M2028.08 1435.94 L2028.08 1435.94 L2130.37 1435.94 L2130.37 1435.94 L2028.08 1435.94 L2028.08 1435.94  Z
  " fill="#009af9" fill-rule="evenodd" fill-opacity="0.8"/>
<polyline clip-path="url(#clip812)" style="stroke:#000000; stroke-width:4; stroke-opacity:0.8; fill:none" points="
  2028.08,1435.94 2028.08,1435.94 2130.37,1435.94 2028.08,1435.94 
  "/>
<path clip-path="url(#clip812)" d="
M2130.37 1423.8 L2130.37 1435.94 L2232.65 1435.94 L2232.65 1423.8 L2130.37 1423.8 L2130.37 1423.8  Z
  " fill="#009af9" fill-rule="evenodd" fill-opacity="0.8"/>
<polyline clip-path="url(#clip812)" style="stroke:#000000; stroke-width:4; stroke-opacity:0.8; fill:none" points="
  2130.37,1423.8 2130.37,1435.94 2232.65,1435.94 2232.65,1423.8 2130.37,1423.8 
  "/>
<path clip-path="url(#clip812)" d="
M289.225 161.699 L289.225 1435.94 L391.511 1435.94 L391.511 161.699 L289.225 161.699 L289.225 161.699  Z
  " fill="#e26f46" fill-rule="evenodd" fill-opacity="0.8"/>
<polyline clip-path="url(#clip812)" style="stroke:#000000; stroke-width:4; stroke-opacity:0.8; fill:none" points="
  289.225,161.699 289.225,1435.94 391.511,1435.94 391.511,161.699 289.225,161.699 
  "/>
<path clip-path="url(#clip812)" d="
M391.511 1084.01 L391.511 1435.94 L493.796 1435.94 L493.796 1084.01 L391.511 1084.01 L391.511 1084.01  Z
  " fill="#e26f46" fill-rule="evenodd" fill-opacity="0.8"/>
<polyline clip-path="url(#clip812)" style="stroke:#000000; stroke-width:4; stroke-opacity:0.8; fill:none" points="
  391.511,1084.01 391.511,1435.94 493.796,1435.94 493.796,1084.01 391.511,1084.01 
  "/>
<path clip-path="url(#clip812)" d="
M493.796 1217.5 L493.796 1435.94 L596.082 1435.94 L596.082 1217.5 L493.796 1217.5 L493.796 1217.5  Z
  " fill="#e26f46" fill-rule="evenodd" fill-opacity="0.8"/>
<polyline clip-path="url(#clip812)" style="stroke:#000000; stroke-width:4; stroke-opacity:0.8; fill:none" points="
  493.796,1217.5 493.796,1435.94 596.082,1435.94 596.082,1217.5 493.796,1217.5 
  "/>
<path clip-path="url(#clip812)" d="
M596.082 1363.12 L596.082 1435.94 L698.368 1435.94 L698.368 1363.12 L596.082 1363.12 L596.082 1363.12  Z
  " fill="#e26f46" fill-rule="evenodd" fill-opacity="0.8"/>
<polyline clip-path="url(#clip812)" style="stroke:#000000; stroke-width:4; stroke-opacity:0.8; fill:none" points="
  596.082,1363.12 596.082,1435.94 698.368,1435.94 698.368,1363.12 596.082,1363.12 
  "/>
<path clip-path="url(#clip812)" d="
M698.368 1326.72 L698.368 1435.94 L800.653 1435.94 L800.653 1326.72 L698.368 1326.72 L698.368 1326.72  Z
  " fill="#e26f46" fill-rule="evenodd" fill-opacity="0.8"/>
<polyline clip-path="url(#clip812)" style="stroke:#000000; stroke-width:4; stroke-opacity:0.8; fill:none" points="
  698.368,1326.72 698.368,1435.94 800.653,1435.94 800.653,1326.72 698.368,1326.72 
  "/>
<path clip-path="url(#clip812)" d="
M800.653 1363.12 L800.653 1435.94 L902.939 1435.94 L902.939 1363.12 L800.653 1363.12 L800.653 1363.12  Z
  " fill="#e26f46" fill-rule="evenodd" fill-opacity="0.8"/>
<polyline clip-path="url(#clip812)" style="stroke:#000000; stroke-width:4; stroke-opacity:0.8; fill:none" points="
  800.653,1363.12 800.653,1435.94 902.939,1435.94 902.939,1363.12 800.653,1363.12 
  "/>
<path clip-path="url(#clip812)" d="
M902.939 1399.53 L902.939 1435.94 L1005.22 1435.94 L1005.22 1399.53 L902.939 1399.53 L902.939 1399.53  Z
  " fill="#e26f46" fill-rule="evenodd" fill-opacity="0.8"/>
<polyline clip-path="url(#clip812)" style="stroke:#000000; stroke-width:4; stroke-opacity:0.8; fill:none" points="
  902.939,1399.53 902.939,1435.94 1005.22,1435.94 1005.22,1399.53 902.939,1399.53 
  "/>
<path clip-path="url(#clip812)" d="
M1005.22 1399.53 L1005.22 1435.94 L1107.51 1435.94 L1107.51 1399.53 L1005.22 1399.53 L1005.22 1399.53  Z
  " fill="#e26f46" fill-rule="evenodd" fill-opacity="0.8"/>
<polyline clip-path="url(#clip812)" style="stroke:#000000; stroke-width:4; stroke-opacity:0.8; fill:none" points="
  1005.22,1399.53 1005.22,1435.94 1107.51,1435.94 1107.51,1399.53 1005.22,1399.53 
  "/>
<path clip-path="url(#clip812)" d="
M1107.51 1411.67 L1107.51 1435.94 L1209.8 1435.94 L1209.8 1411.67 L1107.51 1411.67 L1107.51 1411.67  Z
  " fill="#e26f46" fill-rule="evenodd" fill-opacity="0.8"/>
<polyline clip-path="url(#clip812)" style="stroke:#000000; stroke-width:4; stroke-opacity:0.8; fill:none" points="
  1107.51,1411.67 1107.51,1435.94 1209.8,1435.94 1209.8,1411.67 1107.51,1411.67 
  "/>
<path clip-path="url(#clip812)" d="
M1209.8 1399.53 L1209.8 1435.94 L1312.08 1435.94 L1312.08 1399.53 L1209.8 1399.53 L1209.8 1399.53  Z
  " fill="#e26f46" fill-rule="evenodd" fill-opacity="0.8"/>
<polyline clip-path="url(#clip812)" style="stroke:#000000; stroke-width:4; stroke-opacity:0.8; fill:none" points="
  1209.8,1399.53 1209.8,1435.94 1312.08,1435.94 1312.08,1399.53 1209.8,1399.53 
  "/>
<path clip-path="url(#clip812)" d="
M1312.08 1435.94 L1312.08 1435.94 L1414.37 1435.94 L1414.37 1435.94 L1312.08 1435.94 L1312.08 1435.94  Z
  " fill="#e26f46" fill-rule="evenodd" fill-opacity="0.8"/>
<polyline clip-path="url(#clip812)" style="stroke:#000000; stroke-width:4; stroke-opacity:0.8; fill:none" points="
  1312.08,1435.94 1312.08,1435.94 1414.37,1435.94 1312.08,1435.94 
  "/>
<path clip-path="url(#clip812)" d="
M1414.37 1411.67 L1414.37 1435.94 L1516.65 1435.94 L1516.65 1411.67 L1414.37 1411.67 L1414.37 1411.67  Z
  " fill="#e26f46" fill-rule="evenodd" fill-opacity="0.8"/>
<polyline clip-path="url(#clip812)" style="stroke:#000000; stroke-width:4; stroke-opacity:0.8; fill:none" points="
  1414.37,1411.67 1414.37,1435.94 1516.65,1435.94 1516.65,1411.67 1414.37,1411.67 
  "/>
<path clip-path="url(#clip810)" d="
M1625.96 349.935 L2279.97 349.935 L2279.97 168.495 L1625.96 168.495  Z
  " fill="#ffffff" fill-rule="evenodd" fill-opacity="1"/>
<polyline clip-path="url(#clip810)" style="stroke:#000000; stroke-width:4; stroke-opacity:1; fill:none" points="
  1625.96,349.935 2279.97,349.935 2279.97,168.495 1625.96,168.495 1625.96,349.935 
  "/>
<path clip-path="url(#clip810)" d="
M1650.22 253.167 L1795.79 253.167 L1795.79 204.783 L1650.22 204.783 L1650.22 253.167  Z
  " fill="#009af9" fill-rule="evenodd" fill-opacity="0.8"/>
<polyline clip-path="url(#clip810)" style="stroke:#000000; stroke-width:4; stroke-opacity:1; fill:none" points="
  1650.22,253.167 1795.79,253.167 1795.79,204.783 1650.22,204.783 1650.22,253.167 
  "/>
<path clip-path="url(#clip810)" d="M 0 0 M1827.16 211.695 L1831.84 211.695 L1831.84 243.848 Q1831.84 250.098 1829.45 252.922 Q1827.09 255.746 1821.84 255.746 L1820.06 255.746 L1820.06 251.811 L1821.51 251.811 Q1824.62 251.811 1825.89 250.075 Q1827.16 248.339 1827.16 243.848 L1827.16 211.695 Z" fill="#000000" fill-rule="evenodd" fill-opacity="1" /><path clip-path="url(#clip810)" d="M 0 0 M1852.74 233.223 Q1847.58 233.223 1845.59 234.403 Q1843.6 235.584 1843.6 238.431 Q1843.6 240.7 1845.08 242.042 Q1846.58 243.362 1849.15 243.362 Q1852.69 243.362 1854.82 240.862 Q1856.98 238.339 1856.98 234.172 L1856.98 233.223 L1852.74 233.223 M1861.24 231.464 L1861.24 246.255 L1856.98 246.255 L1856.98 242.32 Q1855.52 244.681 1853.34 245.815 Q1851.17 246.927 1848.02 246.927 Q1844.04 246.927 1841.68 244.704 Q1839.34 242.459 1839.34 238.709 Q1839.34 234.334 1842.26 232.112 Q1845.19 229.89 1851.01 229.89 L1856.98 229.89 L1856.98 229.473 Q1856.98 226.533 1855.03 224.936 Q1853.11 223.316 1849.62 223.316 Q1847.39 223.316 1845.29 223.848 Q1843.18 224.38 1841.24 225.445 L1841.24 221.51 Q1843.57 220.607 1845.77 220.167 Q1847.97 219.704 1850.06 219.704 Q1855.68 219.704 1858.46 222.621 Q1861.24 225.538 1861.24 231.464 Z" fill="#000000" fill-rule="evenodd" fill-opacity="1" /><path clip-path="url(#clip810)" d="M 0 0 M1874.13 242.366 L1874.13 256.116 L1869.85 256.116 L1869.85 220.329 L1874.13 220.329 L1874.13 224.265 Q1875.47 221.95 1877.51 220.839 Q1879.57 219.704 1882.42 219.704 Q1887.14 219.704 1890.08 223.454 Q1893.04 227.204 1893.04 233.315 Q1893.04 239.427 1890.08 243.177 Q1887.14 246.927 1882.42 246.927 Q1879.57 246.927 1877.51 245.815 Q1875.47 244.681 1874.13 242.366 M1888.62 233.315 Q1888.62 228.616 1886.68 225.954 Q1884.75 223.269 1881.38 223.269 Q1878 223.269 1876.05 225.954 Q1874.13 228.616 1874.13 233.315 Q1874.13 238.015 1876.05 240.7 Q1878 243.362 1881.38 243.362 Q1884.75 243.362 1886.68 240.7 Q1888.62 238.015 1888.62 233.315 Z" fill="#000000" fill-rule="evenodd" fill-opacity="1" /><path clip-path="url(#clip810)" d="M 0 0 M1911.88 233.223 Q1906.72 233.223 1904.73 234.403 Q1902.74 235.584 1902.74 238.431 Q1902.74 240.7 1904.22 242.042 Q1905.73 243.362 1908.3 243.362 Q1911.84 243.362 1913.97 240.862 Q1916.12 238.339 1916.12 234.172 L1916.12 233.223 L1911.88 233.223 M1920.38 231.464 L1920.38 246.255 L1916.12 246.255 L1916.12 242.32 Q1914.66 244.681 1912.49 245.815 Q1910.31 246.927 1907.16 246.927 Q1903.18 246.927 1900.82 244.704 Q1898.48 242.459 1898.48 238.709 Q1898.48 234.334 1901.4 232.112 Q1904.34 229.89 1910.15 229.89 L1916.12 229.89 L1916.12 229.473 Q1916.12 226.533 1914.18 224.936 Q1912.25 223.316 1908.76 223.316 Q1906.54 223.316 1904.43 223.848 Q1902.32 224.38 1900.38 225.445 L1900.38 221.51 Q1902.72 220.607 1904.92 220.167 Q1907.12 219.704 1909.2 219.704 Q1914.82 219.704 1917.6 222.621 Q1920.38 225.538 1920.38 231.464 Z" fill="#000000" fill-rule="evenodd" fill-opacity="1" /><path clip-path="url(#clip810)" d="M 0 0 M1950.7 230.607 L1950.7 246.255 L1946.44 246.255 L1946.44 230.746 Q1946.44 227.065 1945.01 225.237 Q1943.57 223.408 1940.7 223.408 Q1937.25 223.408 1935.26 225.607 Q1933.27 227.806 1933.27 231.603 L1933.27 246.255 L1928.99 246.255 L1928.99 220.329 L1933.27 220.329 L1933.27 224.357 Q1934.8 222.019 1936.86 220.862 Q1938.94 219.704 1941.65 219.704 Q1946.12 219.704 1948.41 222.482 Q1950.7 225.237 1950.7 230.607 Z" fill="#000000" fill-rule="evenodd" fill-opacity="1" /><path clip-path="url(#clip810)" d="M 0 0 M1995.17 212.829 L1995.17 217.39 Q1992.51 216.116 1990.15 215.491 Q1987.79 214.866 1985.59 214.866 Q1981.77 214.866 1979.68 216.348 Q1977.62 217.829 1977.62 220.561 Q1977.62 222.853 1978.99 224.033 Q1980.38 225.191 1984.22 225.908 L1987.05 226.487 Q1992.28 227.482 1994.75 230.005 Q1997.25 232.505 1997.25 236.718 Q1997.25 241.741 1993.87 244.334 Q1990.52 246.927 1984.01 246.927 Q1981.56 246.927 1978.78 246.371 Q1976.03 245.815 1973.06 244.727 L1973.06 239.913 Q1975.91 241.51 1978.64 242.32 Q1981.37 243.13 1984.01 243.13 Q1988.02 243.13 1990.19 241.556 Q1992.37 239.982 1992.37 237.065 Q1992.37 234.519 1990.8 233.084 Q1989.25 231.649 1985.68 230.931 L1982.83 230.376 Q1977.6 229.334 1975.26 227.112 Q1972.93 224.89 1972.93 220.931 Q1972.93 216.348 1976.14 213.709 Q1979.38 211.07 1985.06 211.07 Q1987.49 211.07 1990.01 211.51 Q1992.53 211.95 1995.17 212.829 Z" fill="#000000" fill-rule="evenodd" fill-opacity="1" /><path clip-path="url(#clip810)" d="M 0 0 M2004.36 220.329 L2008.62 220.329 L2008.62 246.255 L2004.36 246.255 L2004.36 220.329 M2004.36 210.237 L2008.62 210.237 L2008.62 215.63 L2004.36 215.63 L2004.36 210.237 Z" fill="#000000" fill-rule="evenodd" fill-opacity="1" /><path clip-path="url(#clip810)" d="M 0 0 M2037.72 225.306 Q2039.31 222.436 2041.54 221.07 Q2043.76 219.704 2046.77 219.704 Q2050.82 219.704 2053.02 222.552 Q2055.22 225.376 2055.22 230.607 L2055.22 246.255 L2050.93 246.255 L2050.93 230.746 Q2050.93 227.019 2049.62 225.214 Q2048.3 223.408 2045.59 223.408 Q2042.28 223.408 2040.36 225.607 Q2038.43 227.806 2038.43 231.603 L2038.43 246.255 L2034.15 246.255 L2034.15 230.746 Q2034.15 226.996 2032.83 225.214 Q2031.51 223.408 2028.76 223.408 Q2025.49 223.408 2023.57 225.63 Q2021.65 227.829 2021.65 231.603 L2021.65 246.255 L2017.37 246.255 L2017.37 220.329 L2021.65 220.329 L2021.65 224.357 Q2023.11 221.973 2025.15 220.839 Q2027.18 219.704 2029.99 219.704 Q2032.81 219.704 2034.78 221.14 Q2036.77 222.575 2037.72 225.306 Z" fill="#000000" fill-rule="evenodd" fill-opacity="1" /><path clip-path="url(#clip810)" d="M 0 0 M2063.27 236.024 L2063.27 220.329 L2067.53 220.329 L2067.53 235.862 Q2067.53 239.542 2068.97 241.394 Q2070.4 243.223 2073.27 243.223 Q2076.72 243.223 2078.71 241.024 Q2080.73 238.825 2080.73 235.028 L2080.73 220.329 L2084.99 220.329 L2084.99 246.255 L2080.73 246.255 L2080.73 242.274 Q2079.18 244.635 2077.11 245.792 Q2075.08 246.927 2072.37 246.927 Q2067.9 246.927 2065.59 244.149 Q2063.27 241.371 2063.27 236.024 M2073.99 219.704 L2073.99 219.704 Z" fill="#000000" fill-rule="evenodd" fill-opacity="1" /><path clip-path="url(#clip810)" d="M 0 0 M2093.76 210.237 L2098.02 210.237 L2098.02 246.255 L2093.76 246.255 L2093.76 210.237 Z" fill="#000000" fill-rule="evenodd" fill-opacity="1" /><path clip-path="url(#clip810)" d="M 0 0 M2118.71 233.223 Q2113.55 233.223 2111.56 234.403 Q2109.57 235.584 2109.57 238.431 Q2109.57 240.7 2111.05 242.042 Q2112.55 243.362 2115.12 243.362 Q2118.67 243.362 2120.8 240.862 Q2122.95 238.339 2122.95 234.172 L2122.95 233.223 L2118.71 233.223 M2127.21 231.464 L2127.21 246.255 L2122.95 246.255 L2122.95 242.32 Q2121.49 244.681 2119.31 245.815 Q2117.14 246.927 2113.99 246.927 Q2110.01 246.927 2107.65 244.704 Q2105.31 242.459 2105.31 238.709 Q2105.31 234.334 2108.23 232.112 Q2111.17 229.89 2116.98 229.89 L2122.95 229.89 L2122.95 229.473 Q2122.95 226.533 2121 224.936 Q2119.08 223.316 2115.59 223.316 Q2113.36 223.316 2111.26 223.848 Q2109.15 224.38 2107.21 225.445 L2107.21 221.51 Q2109.55 220.607 2111.74 220.167 Q2113.94 219.704 2116.03 219.704 Q2121.65 219.704 2124.43 222.621 Q2127.21 225.538 2127.21 231.464 Z" fill="#000000" fill-rule="evenodd" fill-opacity="1" /><path clip-path="url(#clip810)" d="M 0 0 M2140.19 212.968 L2140.19 220.329 L2148.97 220.329 L2148.97 223.64 L2140.19 223.64 L2140.19 237.714 Q2140.19 240.885 2141.05 241.788 Q2141.93 242.69 2144.59 242.69 L2148.97 242.69 L2148.97 246.255 L2144.59 246.255 Q2139.66 246.255 2137.79 244.427 Q2135.91 242.575 2135.91 237.714 L2135.91 223.64 L2132.79 223.64 L2132.79 220.329 L2135.91 220.329 L2135.91 212.968 L2140.19 212.968 Z" fill="#000000" fill-rule="evenodd" fill-opacity="1" /><path clip-path="url(#clip810)" d="M 0 0 M2154.57 220.329 L2158.83 220.329 L2158.83 246.255 L2154.57 246.255 L2154.57 220.329 M2154.57 210.237 L2158.83 210.237 L2158.83 215.63 L2154.57 215.63 L2154.57 210.237 Z" fill="#000000" fill-rule="evenodd" fill-opacity="1" /><path clip-path="url(#clip810)" d="M 0 0 M2177.79 223.316 Q2174.36 223.316 2172.37 226.001 Q2170.38 228.663 2170.38 233.315 Q2170.38 237.968 2172.35 240.653 Q2174.34 243.315 2177.79 243.315 Q2181.19 243.315 2183.18 240.63 Q2185.17 237.945 2185.17 233.315 Q2185.17 228.709 2183.18 226.024 Q2181.19 223.316 2177.79 223.316 M2177.79 219.704 Q2183.34 219.704 2186.51 223.316 Q2189.68 226.927 2189.68 233.315 Q2189.68 239.681 2186.51 243.315 Q2183.34 246.927 2177.79 246.927 Q2172.21 246.927 2169.04 243.315 Q2165.89 239.681 2165.89 233.315 Q2165.89 226.927 2169.04 223.316 Q2172.21 219.704 2177.79 219.704 Z" fill="#000000" fill-rule="evenodd" fill-opacity="1" /><path clip-path="url(#clip810)" d="M 0 0 M2218.29 230.607 L2218.29 246.255 L2214.04 246.255 L2214.04 230.746 Q2214.04 227.065 2212.6 225.237 Q2211.17 223.408 2208.29 223.408 Q2204.85 223.408 2202.86 225.607 Q2200.86 227.806 2200.86 231.603 L2200.86 246.255 L2196.58 246.255 L2196.58 220.329 L2200.86 220.329 L2200.86 224.357 Q2202.39 222.019 2204.45 220.862 Q2206.54 219.704 2209.24 219.704 Q2213.71 219.704 2216 222.482 Q2218.29 225.237 2218.29 230.607 Z" fill="#000000" fill-rule="evenodd" fill-opacity="1" /><path clip-path="url(#clip810)" d="
M1650.22 313.647 L1795.79 313.647 L1795.79 265.263 L1650.22 265.263 L1650.22 313.647  Z
  " fill="#e26f46" fill-rule="evenodd" fill-opacity="0.8"/>
<polyline clip-path="url(#clip810)" style="stroke:#000000; stroke-width:4; stroke-opacity:1; fill:none" points="
  1650.22,313.647 1795.79,313.647 1795.79,265.263 1650.22,265.263 1650.22,313.647 
  "/>
<path clip-path="url(#clip810)" d="M 0 0 M1836.44 290.532 Q1837.95 291.041 1839.36 292.708 Q1840.8 294.374 1842.23 297.291 L1846.98 306.735 L1841.95 306.735 L1837.53 297.87 Q1835.82 294.397 1834.2 293.263 Q1832.6 292.129 1829.82 292.129 L1824.73 292.129 L1824.73 306.735 L1820.06 306.735 L1820.06 272.175 L1830.61 272.175 Q1836.54 272.175 1839.45 274.652 Q1842.37 277.129 1842.37 282.129 Q1842.37 285.393 1840.84 287.545 Q1839.34 289.698 1836.44 290.532 M1824.73 276.018 L1824.73 288.286 L1830.61 288.286 Q1833.99 288.286 1835.7 286.735 Q1837.44 285.161 1837.44 282.129 Q1837.44 279.096 1835.7 277.569 Q1833.99 276.018 1830.61 276.018 L1824.73 276.018 Z" fill="#000000" fill-rule="evenodd" fill-opacity="1" /><path clip-path="url(#clip810)" d="M 0 0 M1850.24 296.504 L1850.24 280.809 L1854.5 280.809 L1854.5 296.342 Q1854.5 300.022 1855.94 301.874 Q1857.37 303.703 1860.24 303.703 Q1863.69 303.703 1865.68 301.504 Q1867.69 299.305 1867.69 295.508 L1867.69 280.809 L1871.95 280.809 L1871.95 306.735 L1867.69 306.735 L1867.69 302.754 Q1866.14 305.115 1864.08 306.272 Q1862.05 307.407 1859.34 307.407 Q1854.87 307.407 1852.56 304.629 Q1850.24 301.851 1850.24 296.504 M1860.96 280.184 L1860.96 280.184 Z" fill="#000000" fill-rule="evenodd" fill-opacity="1" /><path clip-path="url(#clip810)" d="M 0 0 M1897.25 281.573 L1897.25 285.601 Q1895.45 284.675 1893.5 284.212 Q1891.56 283.749 1889.48 283.749 Q1886.31 283.749 1884.71 284.721 Q1883.13 285.694 1883.13 287.638 Q1883.13 289.12 1884.27 289.976 Q1885.4 290.809 1888.83 291.573 L1890.29 291.897 Q1894.82 292.87 1896.72 294.652 Q1898.64 296.411 1898.64 299.582 Q1898.64 303.194 1895.77 305.3 Q1892.93 307.407 1887.93 307.407 Q1885.84 307.407 1883.57 306.99 Q1881.33 306.596 1878.83 305.786 L1878.83 301.388 Q1881.19 302.615 1883.48 303.24 Q1885.77 303.842 1888.02 303.842 Q1891.03 303.842 1892.65 302.823 Q1894.27 301.782 1894.27 299.907 Q1894.27 298.17 1893.09 297.245 Q1891.93 296.319 1887.97 295.462 L1886.49 295.115 Q1882.53 294.282 1880.77 292.569 Q1879.01 290.833 1879.01 287.823 Q1879.01 284.166 1881.61 282.175 Q1884.2 280.184 1888.97 280.184 Q1891.33 280.184 1893.41 280.532 Q1895.5 280.879 1897.25 281.573 Z" fill="#000000" fill-rule="evenodd" fill-opacity="1" /><path clip-path="url(#clip810)" d="M 0 0 M1921.95 281.573 L1921.95 285.601 Q1920.15 284.675 1918.2 284.212 Q1916.26 283.749 1914.18 283.749 Q1911 283.749 1909.41 284.721 Q1907.83 285.694 1907.83 287.638 Q1907.83 289.12 1908.97 289.976 Q1910.1 290.809 1913.53 291.573 L1914.99 291.897 Q1919.52 292.87 1921.42 294.652 Q1923.34 296.411 1923.34 299.582 Q1923.34 303.194 1920.47 305.3 Q1917.63 307.407 1912.63 307.407 Q1910.54 307.407 1908.27 306.99 Q1906.03 306.596 1903.53 305.786 L1903.53 301.388 Q1905.89 302.615 1908.18 303.24 Q1910.47 303.842 1912.72 303.842 Q1915.73 303.842 1917.35 302.823 Q1918.97 301.782 1918.97 299.907 Q1918.97 298.17 1917.79 297.245 Q1916.63 296.319 1912.67 295.462 L1911.19 295.115 Q1907.23 294.282 1905.47 292.569 Q1903.71 290.833 1903.71 287.823 Q1903.71 284.166 1906.31 282.175 Q1908.9 280.184 1913.67 280.184 Q1916.03 280.184 1918.11 280.532 Q1920.19 280.879 1921.95 281.573 Z" fill="#000000" fill-rule="evenodd" fill-opacity="1" /><path clip-path="url(#clip810)" d="M 0 0 M1930.13 280.809 L1934.38 280.809 L1934.38 306.735 L1930.13 306.735 L1930.13 280.809 M1930.13 270.717 L1934.38 270.717 L1934.38 276.11 L1930.13 276.11 L1930.13 270.717 Z" fill="#000000" fill-rule="evenodd" fill-opacity="1" /><path clip-path="url(#clip810)" d="M 0 0 M1955.08 293.703 Q1949.92 293.703 1947.93 294.883 Q1945.94 296.064 1945.94 298.911 Q1945.94 301.18 1947.42 302.522 Q1948.92 303.842 1951.49 303.842 Q1955.03 303.842 1957.16 301.342 Q1959.31 298.819 1959.31 294.652 L1959.31 293.703 L1955.08 293.703 M1963.57 291.944 L1963.57 306.735 L1959.31 306.735 L1959.31 302.8 Q1957.86 305.161 1955.68 306.295 Q1953.5 307.407 1950.36 307.407 Q1946.37 307.407 1944.01 305.184 Q1941.68 302.939 1941.68 299.189 Q1941.68 294.814 1944.59 292.592 Q1947.53 290.37 1953.34 290.37 L1959.31 290.37 L1959.31 289.953 Q1959.31 287.013 1957.37 285.416 Q1955.45 283.796 1951.95 283.796 Q1949.73 283.796 1947.62 284.328 Q1945.52 284.86 1943.57 285.925 L1943.57 281.99 Q1945.91 281.087 1948.11 280.647 Q1950.31 280.184 1952.39 280.184 Q1958.02 280.184 1960.8 283.101 Q1963.57 286.018 1963.57 291.944 Z" fill="#000000" fill-rule="evenodd" fill-opacity="1" /><path clip-path="url(#clip810)" d="M 0 0 M2008.32 273.309 L2008.32 277.87 Q2005.66 276.596 2003.3 275.971 Q2000.93 275.346 1998.74 275.346 Q1994.92 275.346 1992.83 276.828 Q1990.77 278.309 1990.77 281.041 Q1990.77 283.333 1992.14 284.513 Q1993.53 285.671 1997.37 286.388 L2000.19 286.967 Q2005.43 287.962 2007.9 290.485 Q2010.4 292.985 2010.4 297.198 Q2010.4 302.221 2007.02 304.814 Q2003.67 307.407 1997.16 307.407 Q1994.71 307.407 1991.93 306.851 Q1989.18 306.295 1986.21 305.207 L1986.21 300.393 Q1989.06 301.99 1991.79 302.8 Q1994.52 303.61 1997.16 303.61 Q2001.17 303.61 2003.34 302.036 Q2005.52 300.462 2005.52 297.545 Q2005.52 294.999 2003.94 293.564 Q2002.39 292.129 1998.83 291.411 L1995.98 290.856 Q1990.75 289.814 1988.41 287.592 Q1986.07 285.37 1986.07 281.411 Q1986.07 276.828 1989.29 274.189 Q1992.53 271.55 1998.2 271.55 Q2000.63 271.55 2003.16 271.99 Q2005.68 272.43 2008.32 273.309 Z" fill="#000000" fill-rule="evenodd" fill-opacity="1" /><path clip-path="url(#clip810)" d="M 0 0 M2017.51 280.809 L2021.77 280.809 L2021.77 306.735 L2017.51 306.735 L2017.51 280.809 M2017.51 270.717 L2021.77 270.717 L2021.77 276.11 L2017.51 276.11 L2017.51 270.717 Z" fill="#000000" fill-rule="evenodd" fill-opacity="1" /><path clip-path="url(#clip810)" d="M 0 0 M2050.87 285.786 Q2052.46 282.916 2054.68 281.55 Q2056.91 280.184 2059.92 280.184 Q2063.97 280.184 2066.17 283.032 Q2068.37 285.856 2068.37 291.087 L2068.37 306.735 L2064.08 306.735 L2064.08 291.226 Q2064.08 287.499 2062.76 285.694 Q2061.44 283.888 2058.74 283.888 Q2055.43 283.888 2053.5 286.087 Q2051.58 288.286 2051.58 292.083 L2051.58 306.735 L2047.3 306.735 L2047.3 291.226 Q2047.3 287.476 2045.98 285.694 Q2044.66 283.888 2041.91 283.888 Q2038.64 283.888 2036.72 286.11 Q2034.8 288.309 2034.8 292.083 L2034.8 306.735 L2030.52 306.735 L2030.52 280.809 L2034.8 280.809 L2034.8 284.837 Q2036.26 282.453 2038.3 281.319 Q2040.33 280.184 2043.13 280.184 Q2045.96 280.184 2047.93 281.62 Q2049.92 283.055 2050.87 285.786 Z" fill="#000000" fill-rule="evenodd" fill-opacity="1" /><path clip-path="url(#clip810)" d="M 0 0 M2076.42 296.504 L2076.42 280.809 L2080.68 280.809 L2080.68 296.342 Q2080.68 300.022 2082.11 301.874 Q2083.55 303.703 2086.42 303.703 Q2089.87 303.703 2091.86 301.504 Q2093.87 299.305 2093.87 295.508 L2093.87 280.809 L2098.13 280.809 L2098.13 306.735 L2093.87 306.735 L2093.87 302.754 Q2092.32 305.115 2090.26 306.272 Q2088.23 307.407 2085.52 307.407 Q2081.05 307.407 2078.74 304.629 Q2076.42 301.851 2076.42 296.504 M2087.14 280.184 L2087.14 280.184 Z" fill="#000000" fill-rule="evenodd" fill-opacity="1" /><path clip-path="url(#clip810)" d="M 0 0 M2106.91 270.717 L2111.17 270.717 L2111.17 306.735 L2106.91 306.735 L2106.91 270.717 Z" fill="#000000" fill-rule="evenodd" fill-opacity="1" /><path clip-path="url(#clip810)" d="M 0 0 M2131.86 293.703 Q2126.7 293.703 2124.71 294.883 Q2122.72 296.064 2122.72 298.911 Q2122.72 301.18 2124.2 302.522 Q2125.7 303.842 2128.27 303.842 Q2131.81 303.842 2133.94 301.342 Q2136.1 298.819 2136.1 294.652 L2136.1 293.703 L2131.86 293.703 M2140.36 291.944 L2140.36 306.735 L2136.1 306.735 L2136.1 302.8 Q2134.64 305.161 2132.46 306.295 Q2130.29 307.407 2127.14 307.407 Q2123.16 307.407 2120.8 305.184 Q2118.46 302.939 2118.46 299.189 Q2118.46 294.814 2121.37 292.592 Q2124.31 290.37 2130.12 290.37 L2136.1 290.37 L2136.1 289.953 Q2136.1 287.013 2134.15 285.416 Q2132.23 283.796 2128.74 283.796 Q2126.51 283.796 2124.41 284.328 Q2122.3 284.86 2120.36 285.925 L2120.36 281.99 Q2122.69 281.087 2124.89 280.647 Q2127.09 280.184 2129.17 280.184 Q2134.8 280.184 2137.58 283.101 Q2140.36 286.018 2140.36 291.944 Z" fill="#000000" fill-rule="evenodd" fill-opacity="1" /><path clip-path="url(#clip810)" d="M 0 0 M2153.34 273.448 L2153.34 280.809 L2162.11 280.809 L2162.11 284.12 L2153.34 284.12 L2153.34 298.194 Q2153.34 301.365 2154.2 302.268 Q2155.08 303.17 2157.74 303.17 L2162.11 303.17 L2162.11 306.735 L2157.74 306.735 Q2152.81 306.735 2150.93 304.907 Q2149.06 303.055 2149.06 298.194 L2149.06 284.12 L2145.93 284.12 L2145.93 280.809 L2149.06 280.809 L2149.06 273.448 L2153.34 273.448 Z" fill="#000000" fill-rule="evenodd" fill-opacity="1" /><path clip-path="url(#clip810)" d="M 0 0 M2167.72 280.809 L2171.98 280.809 L2171.98 306.735 L2167.72 306.735 L2167.72 280.809 M2167.72 270.717 L2171.98 270.717 L2171.98 276.11 L2167.72 276.11 L2167.72 270.717 Z" fill="#000000" fill-rule="evenodd" fill-opacity="1" /><path clip-path="url(#clip810)" d="M 0 0 M2190.93 283.796 Q2187.51 283.796 2185.52 286.481 Q2183.53 289.143 2183.53 293.795 Q2183.53 298.448 2185.49 301.133 Q2187.48 303.795 2190.93 303.795 Q2194.34 303.795 2196.33 301.11 Q2198.32 298.425 2198.32 293.795 Q2198.32 289.189 2196.33 286.504 Q2194.34 283.796 2190.93 283.796 M2190.93 280.184 Q2196.49 280.184 2199.66 283.796 Q2202.83 287.407 2202.83 293.795 Q2202.83 300.161 2199.66 303.795 Q2196.49 307.407 2190.93 307.407 Q2185.36 307.407 2182.18 303.795 Q2179.04 300.161 2179.04 293.795 Q2179.04 287.407 2182.18 283.796 Q2185.36 280.184 2190.93 280.184 Z" fill="#000000" fill-rule="evenodd" fill-opacity="1" /><path clip-path="url(#clip810)" d="M 0 0 M2231.44 291.087 L2231.44 306.735 L2227.18 306.735 L2227.18 291.226 Q2227.18 287.545 2225.75 285.717 Q2224.31 283.888 2221.44 283.888 Q2217.99 283.888 2216 286.087 Q2214.01 288.286 2214.01 292.083 L2214.01 306.735 L2209.73 306.735 L2209.73 280.809 L2214.01 280.809 L2214.01 284.837 Q2215.54 282.499 2217.6 281.342 Q2219.68 280.184 2222.39 280.184 Q2226.86 280.184 2229.15 282.962 Q2231.44 285.717 2231.44 291.087 Z" fill="#000000" fill-rule="evenodd" fill-opacity="1" /></svg>
