<?xml version="1.0" encoding="utf-8"?>
<svg xmlns="http://www.w3.org/2000/svg" xmlns:xlink="http://www.w3.org/1999/xlink" width="900" height="500" viewBox="0 0 3600 2000">
<defs>
  <clipPath id="clip910">
    <rect x="0" y="0" width="3600" height="2000"/>
  </clipPath>
</defs>
<path clip-path="url(#clip910)" d="
M0 2000 L3600 2000 L3600 0 L0 0  Z
  " fill="#ffffff" fill-rule="evenodd" fill-opacity="1"/>
<defs>
  <clipPath id="clip911">
    <rect x="720" y="0" width="2521" height="2000"/>
  </clipPath>
</defs>
<path clip-path="url(#clip910)" d="
M153.853 1877.97 L3552.76 1877.97 L3552.76 113.392 L153.853 113.392  Z
  " fill="#ffffff" fill-rule="evenodd" fill-opacity="1"/>
<defs>
  <clipPath id="clip912">
    <rect x="153" y="113" width="3400" height="1766"/>
  </clipPath>
</defs>
<polyline clip-path="url(#clip912)" style="stroke:#000000; stroke-width:2; stroke-opacity:0.1; fill:none" points="
  718.925,1877.97 718.925,113.392 
  "/>
<polyline clip-path="url(#clip912)" style="stroke:#000000; stroke-width:2; stroke-opacity:0.1; fill:none" points="
  1349.14,1877.97 1349.14,113.392 
  "/>
<polyline clip-path="url(#clip912)" style="stroke:#000000; stroke-width:2; stroke-opacity:0.1; fill:none" points="
  1979.35,1877.97 1979.35,113.392 
  "/>
<polyline clip-path="url(#clip912)" style="stroke:#000000; stroke-width:2; stroke-opacity:0.1; fill:none" points="
  2609.56,1877.97 2609.56,113.392 
  "/>
<polyline clip-path="url(#clip912)" style="stroke:#000000; stroke-width:2; stroke-opacity:0.1; fill:none" points="
  3239.77,1877.97 3239.77,113.392 
  "/>
<polyline clip-path="url(#clip910)" style="stroke:#000000; stroke-width:4; stroke-opacity:1; fill:none" points="
  153.853,1877.97 3552.76,1877.97 
  "/>
<polyline clip-path="url(#clip910)" style="stroke:#000000; stroke-width:4; stroke-opacity:1; fill:none" points="
  718.925,1877.97 718.925,1856.8 
  "/>
<polyline clip-path="url(#clip910)" style="stroke:#000000; stroke-width:4; stroke-opacity:1; fill:none" points="
  1349.14,1877.97 1349.14,1856.8 
  "/>
<polyline clip-path="url(#clip910)" style="stroke:#000000; stroke-width:4; stroke-opacity:1; fill:none" points="
  1979.35,1877.97 1979.35,1856.8 
  "/>
<polyline clip-path="url(#clip910)" style="stroke:#000000; stroke-width:4; stroke-opacity:1; fill:none" points="
  2609.56,1877.97 2609.56,1856.8 
  "/>
<polyline clip-path="url(#clip910)" style="stroke:#000000; stroke-width:4; stroke-opacity:1; fill:none" points="
  3239.77,1877.97 3239.77,1856.8 
  "/>
<path clip-path="url(#clip910)" d="M 0 0 M600.895 1965.84 L617.214 1965.84 L617.214 1969.78 L595.27 1969.78 L595.27 1965.84 Q597.932 1963.09 602.515 1958.46 Q607.122 1953.81 608.302 1952.46 Q610.547 1949.94 611.427 1948.21 Q612.33 1946.45 612.33 1944.76 Q612.33 1942 610.385 1940.27 Q608.464 1938.53 605.362 1938.53 Q603.163 1938.53 600.71 1939.29 Q598.279 1940.06 595.501 1941.61 L595.501 1936.89 Q598.325 1935.75 600.779 1935.17 Q603.233 1934.59 605.27 1934.59 Q610.64 1934.59 613.835 1937.28 Q617.029 1939.96 617.029 1944.46 Q617.029 1946.58 616.219 1948.51 Q615.432 1950.4 613.325 1953 Q612.747 1953.67 609.645 1956.89 Q606.543 1960.08 600.895 1965.84 Z" fill="#000000" fill-rule="evenodd" fill-opacity="1" /><path clip-path="url(#clip910)" d="M 0 0 M627.029 1963.9 L631.913 1963.9 L631.913 1969.78 L627.029 1969.78 L627.029 1963.9 Z" fill="#000000" fill-rule="evenodd" fill-opacity="1" /><path clip-path="url(#clip910)" d="M 0 0 M642.145 1935.22 L660.501 1935.22 L660.501 1939.15 L646.427 1939.15 L646.427 1947.63 Q647.445 1947.28 648.464 1947.12 Q649.482 1946.93 650.501 1946.93 Q656.288 1946.93 659.668 1950.1 Q663.047 1953.27 663.047 1958.69 Q663.047 1964.27 659.575 1967.37 Q656.103 1970.45 649.783 1970.45 Q647.607 1970.45 645.339 1970.08 Q643.094 1969.71 640.686 1968.97 L640.686 1964.27 Q642.77 1965.4 644.992 1965.96 Q647.214 1966.52 649.691 1966.52 Q653.695 1966.52 656.033 1964.41 Q658.371 1962.3 658.371 1958.69 Q658.371 1955.08 656.033 1952.97 Q653.695 1950.87 649.691 1950.87 Q647.816 1950.87 645.941 1951.28 Q644.089 1951.7 642.145 1952.58 L642.145 1935.22 Z" fill="#000000" fill-rule="evenodd" fill-opacity="1" /><path clip-path="url(#clip910)" d="M 0 0 M682.26 1938.3 Q678.649 1938.3 676.82 1941.86 Q675.015 1945.4 675.015 1952.53 Q675.015 1959.64 676.82 1963.21 Q678.649 1966.75 682.26 1966.75 Q685.894 1966.75 687.7 1963.21 Q689.529 1959.64 689.529 1952.53 Q689.529 1945.4 687.7 1941.86 Q685.894 1938.3 682.26 1938.3 M682.26 1934.59 Q688.07 1934.59 691.126 1939.2 Q694.204 1943.78 694.204 1952.53 Q694.204 1961.26 691.126 1965.87 Q688.07 1970.45 682.26 1970.45 Q676.45 1970.45 673.371 1965.87 Q670.316 1961.26 670.316 1952.53 Q670.316 1943.78 673.371 1939.2 Q676.45 1934.59 682.26 1934.59 Z" fill="#000000" fill-rule="evenodd" fill-opacity="1" /><path clip-path="url(#clip910)" d="M 0 0 M712.422 1938.3 Q708.811 1938.3 706.982 1941.86 Q705.177 1945.4 705.177 1952.53 Q705.177 1959.64 706.982 1963.21 Q708.811 1966.75 712.422 1966.75 Q716.056 1966.75 717.862 1963.21 Q719.69 1959.64 719.69 1952.53 Q719.69 1945.4 717.862 1941.86 Q716.056 1938.3 712.422 1938.3 M712.422 1934.59 Q718.232 1934.59 721.288 1939.2 Q724.366 1943.78 724.366 1952.53 Q724.366 1961.26 721.288 1965.87 Q718.232 1970.45 712.422 1970.45 Q706.612 1970.45 703.533 1965.87 Q700.478 1961.26 700.478 1952.53 Q700.478 1943.78 703.533 1939.2 Q706.612 1934.59 712.422 1934.59 Z" fill="#000000" fill-rule="evenodd" fill-opacity="1" /><path clip-path="url(#clip910)" d="M 0 0 M760.755 1944.32 L750.176 1954.94 L760.755 1965.52 L758 1968.32 L747.375 1957.7 L736.751 1968.32 L734.019 1965.52 L744.575 1954.94 L734.019 1944.32 L736.751 1941.52 L747.375 1952.14 L758 1941.52 L760.755 1944.32 Z" fill="#000000" fill-rule="evenodd" fill-opacity="1" /><path clip-path="url(#clip910)" d="M 0 0 M773.116 1965.84 L780.755 1965.84 L780.755 1939.48 L772.445 1941.14 L772.445 1936.89 L780.709 1935.22 L785.385 1935.22 L785.385 1965.84 L793.023 1965.84 L793.023 1969.78 L773.116 1969.78 L773.116 1965.84 Z" fill="#000000" fill-rule="evenodd" fill-opacity="1" /><path clip-path="url(#clip910)" d="M 0 0 M812.468 1938.3 Q808.857 1938.3 807.028 1941.86 Q805.222 1945.4 805.222 1952.53 Q805.222 1959.64 807.028 1963.21 Q808.857 1966.75 812.468 1966.75 Q816.102 1966.75 817.907 1963.21 Q819.736 1959.64 819.736 1952.53 Q819.736 1945.4 817.907 1941.86 Q816.102 1938.3 812.468 1938.3 M812.468 1934.59 Q818.278 1934.59 821.333 1939.2 Q824.412 1943.78 824.412 1952.53 Q824.412 1961.26 821.333 1965.87 Q818.278 1970.45 812.468 1970.45 Q806.658 1970.45 803.579 1965.87 Q800.523 1961.26 800.523 1952.53 Q800.523 1943.78 803.579 1939.2 Q806.658 1934.59 812.468 1934.59 Z" fill="#000000" fill-rule="evenodd" fill-opacity="1" /><path clip-path="url(#clip910)" d="M 0 0 M825.597 1914.29 L840.512 1914.29 L840.512 1917.49 L829.076 1917.49 L829.076 1924.37 Q829.904 1924.09 830.732 1923.96 Q831.559 1923.81 832.387 1923.81 Q837.089 1923.81 839.834 1926.38 Q842.58 1928.96 842.58 1933.36 Q842.58 1937.89 839.759 1940.41 Q836.938 1942.91 831.804 1942.91 Q830.036 1942.91 828.192 1942.61 Q826.368 1942.31 824.412 1941.71 L824.412 1937.89 Q826.105 1938.81 827.91 1939.27 Q829.716 1939.72 831.728 1939.72 Q834.982 1939.72 836.882 1938.01 Q838.781 1936.29 838.781 1933.36 Q838.781 1930.43 836.882 1928.71 Q834.982 1927 831.728 1927 Q830.205 1927 828.681 1927.34 Q827.177 1927.68 825.597 1928.39 L825.597 1914.29 Z" fill="#000000" fill-rule="evenodd" fill-opacity="1" /><path clip-path="url(#clip910)" d="M 0 0 M1227.03 1935.22 L1245.39 1935.22 L1245.39 1939.15 L1231.31 1939.15 L1231.31 1947.63 Q1232.33 1947.28 1233.35 1947.12 Q1234.37 1946.93 1235.39 1946.93 Q1241.17 1946.93 1244.55 1950.1 Q1247.93 1953.27 1247.93 1958.69 Q1247.93 1964.27 1244.46 1967.37 Q1240.99 1970.45 1234.67 1970.45 Q1232.49 1970.45 1230.23 1970.08 Q1227.98 1969.71 1225.57 1968.97 L1225.57 1964.27 Q1227.66 1965.4 1229.88 1965.96 Q1232.1 1966.52 1234.58 1966.52 Q1238.58 1966.52 1240.92 1964.41 Q1243.26 1962.3 1243.26 1958.69 Q1243.26 1955.08 1240.92 1952.97 Q1238.58 1950.87 1234.58 1950.87 Q1232.7 1950.87 1230.83 1951.28 Q1228.98 1951.7 1227.03 1952.58 L1227.03 1935.22 Z" fill="#000000" fill-rule="evenodd" fill-opacity="1" /><path clip-path="url(#clip910)" d="M 0 0 M1257.15 1963.9 L1262.03 1963.9 L1262.03 1969.78 L1257.15 1969.78 L1257.15 1963.9 Z" fill="#000000" fill-rule="evenodd" fill-opacity="1" /><path clip-path="url(#clip910)" d="M 0 0 M1282.22 1938.3 Q1278.61 1938.3 1276.78 1941.86 Q1274.97 1945.4 1274.97 1952.53 Q1274.97 1959.64 1276.78 1963.21 Q1278.61 1966.75 1282.22 1966.75 Q1285.85 1966.75 1287.66 1963.21 Q1289.48 1959.64 1289.48 1952.53 Q1289.48 1945.4 1287.66 1941.86 Q1285.85 1938.3 1282.22 1938.3 M1282.22 1934.59 Q1288.03 1934.59 1291.08 1939.2 Q1294.16 1943.78 1294.16 1952.53 Q1294.16 1961.26 1291.08 1965.87 Q1288.03 1970.45 1282.22 1970.45 Q1276.41 1970.45 1273.33 1965.87 Q1270.27 1961.26 1270.27 1952.53 Q1270.27 1943.78 1273.33 1939.2 Q1276.41 1934.59 1282.22 1934.59 Z" fill="#000000" fill-rule="evenodd" fill-opacity="1" /><path clip-path="url(#clip910)" d="M 0 0 M1312.38 1938.3 Q1308.77 1938.3 1306.94 1941.86 Q1305.13 1945.4 1305.13 1952.53 Q1305.13 1959.64 1306.94 1963.21 Q1308.77 1966.75 1312.38 1966.75 Q1316.01 1966.75 1317.82 1963.21 Q1319.65 1959.64 1319.65 1952.53 Q1319.65 1945.4 1317.82 1941.86 Q1316.01 1938.3 1312.38 1938.3 M1312.38 1934.59 Q1318.19 1934.59 1321.24 1939.2 Q1324.32 1943.78 1324.32 1952.53 Q1324.32 1961.26 1321.24 1965.87 Q1318.19 1970.45 1312.38 1970.45 Q1306.57 1970.45 1303.49 1965.87 Q1300.43 1961.26 1300.43 1952.53 Q1300.43 1943.78 1303.49 1939.2 Q1306.57 1934.59 1312.38 1934.59 Z" fill="#000000" fill-rule="evenodd" fill-opacity="1" /><path clip-path="url(#clip910)" d="M 0 0 M1342.54 1938.3 Q1338.93 1938.3 1337.1 1941.86 Q1335.29 1945.4 1335.29 1952.53 Q1335.29 1959.64 1337.1 1963.21 Q1338.93 1966.75 1342.54 1966.75 Q1346.17 1966.75 1347.98 1963.21 Q1349.81 1959.64 1349.81 1952.53 Q1349.81 1945.4 1347.98 1941.86 Q1346.17 1938.3 1342.54 1938.3 M1342.54 1934.59 Q1348.35 1934.59 1351.41 1939.2 Q1354.48 1943.78 1354.48 1952.53 Q1354.48 1961.26 1351.41 1965.87 Q1348.35 1970.45 1342.54 1970.45 Q1336.73 1970.45 1333.65 1965.87 Q1330.6 1961.26 1330.6 1952.53 Q1330.6 1943.78 1333.65 1939.2 Q1336.73 1934.59 1342.54 1934.59 Z" fill="#000000" fill-rule="evenodd" fill-opacity="1" /><path clip-path="url(#clip910)" d="M 0 0 M1390.87 1944.32 L1380.29 1954.94 L1390.87 1965.52 L1388.12 1968.32 L1377.49 1957.7 L1366.87 1968.32 L1364.14 1965.52 L1374.69 1954.94 L1364.14 1944.32 L1366.87 1941.52 L1377.49 1952.14 L1388.12 1941.52 L1390.87 1944.32 Z" fill="#000000" fill-rule="evenodd" fill-opacity="1" /><path clip-path="url(#clip910)" d="M 0 0 M1403.23 1965.84 L1410.87 1965.84 L1410.87 1939.48 L1402.56 1941.14 L1402.56 1936.89 L1410.83 1935.22 L1415.5 1935.22 L1415.5 1965.84 L1423.14 1965.84 L1423.14 1969.78 L1403.23 1969.78 L1403.23 1965.84 Z" fill="#000000" fill-rule="evenodd" fill-opacity="1" /><path clip-path="url(#clip910)" d="M 0 0 M1442.59 1938.3 Q1438.97 1938.3 1437.15 1941.86 Q1435.34 1945.4 1435.34 1952.53 Q1435.34 1959.64 1437.15 1963.21 Q1438.97 1966.75 1442.59 1966.75 Q1446.22 1966.75 1448.03 1963.21 Q1449.85 1959.64 1449.85 1952.53 Q1449.85 1945.4 1448.03 1941.86 Q1446.22 1938.3 1442.59 1938.3 M1442.59 1934.59 Q1448.4 1934.59 1451.45 1939.2 Q1454.53 1943.78 1454.53 1952.53 Q1454.53 1961.26 1451.45 1965.87 Q1448.4 1970.45 1442.59 1970.45 Q1436.78 1970.45 1433.7 1965.87 Q1430.64 1961.26 1430.64 1952.53 Q1430.64 1943.78 1433.7 1939.2 Q1436.78 1934.59 1442.59 1934.59 Z" fill="#000000" fill-rule="evenodd" fill-opacity="1" /><path clip-path="url(#clip910)" d="M 0 0 M1455.72 1914.29 L1470.63 1914.29 L1470.63 1917.49 L1459.19 1917.49 L1459.19 1924.37 Q1460.02 1924.09 1460.85 1923.96 Q1461.68 1923.81 1462.5 1923.81 Q1467.21 1923.81 1469.95 1926.38 Q1472.7 1928.96 1472.7 1933.36 Q1472.7 1937.89 1469.88 1940.41 Q1467.06 1942.91 1461.92 1942.91 Q1460.15 1942.91 1458.31 1942.61 Q1456.49 1942.31 1454.53 1941.71 L1454.53 1937.89 Q1456.22 1938.81 1458.03 1939.27 Q1459.83 1939.72 1461.85 1939.72 Q1465.1 1939.72 1467 1938.01 Q1468.9 1936.29 1468.9 1933.36 Q1468.9 1930.43 1467 1928.71 Q1465.1 1927 1461.85 1927 Q1460.32 1927 1458.8 1927.34 Q1457.29 1927.68 1455.72 1928.39 L1455.72 1914.29 Z" fill="#000000" fill-rule="evenodd" fill-opacity="1" /><path clip-path="url(#clip910)" d="M 0 0 M1855.9 1935.22 L1878.12 1935.22 L1878.12 1937.21 L1865.58 1969.78 L1860.69 1969.78 L1872.5 1939.15 L1855.9 1939.15 L1855.9 1935.22 Z" fill="#000000" fill-rule="evenodd" fill-opacity="1" /><path clip-path="url(#clip910)" d="M 0 0 M1887.24 1963.9 L1892.13 1963.9 L1892.13 1969.78 L1887.24 1969.78 L1887.24 1963.9 Z" fill="#000000" fill-rule="evenodd" fill-opacity="1" /><path clip-path="url(#clip910)" d="M 0 0 M1902.36 1935.22 L1920.71 1935.22 L1920.71 1939.15 L1906.64 1939.15 L1906.64 1947.63 Q1907.66 1947.28 1908.68 1947.12 Q1909.7 1946.93 1910.71 1946.93 Q1916.5 1946.93 1919.88 1950.1 Q1923.26 1953.27 1923.26 1958.69 Q1923.26 1964.27 1919.79 1967.37 Q1916.32 1970.45 1910 1970.45 Q1907.82 1970.45 1905.55 1970.08 Q1903.31 1969.71 1900.9 1968.97 L1900.9 1964.27 Q1902.98 1965.4 1905.2 1965.96 Q1907.43 1966.52 1909.9 1966.52 Q1913.91 1966.52 1916.25 1964.41 Q1918.58 1962.3 1918.58 1958.69 Q1918.58 1955.08 1916.25 1952.97 Q1913.91 1950.87 1909.9 1950.87 Q1908.03 1950.87 1906.15 1951.28 Q1904.3 1951.7 1902.36 1952.58 L1902.36 1935.22 Z" fill="#000000" fill-rule="evenodd" fill-opacity="1" /><path clip-path="url(#clip910)" d="M 0 0 M1942.47 1938.3 Q1938.86 1938.3 1937.03 1941.86 Q1935.23 1945.4 1935.23 1952.53 Q1935.23 1959.64 1937.03 1963.21 Q1938.86 1966.75 1942.47 1966.75 Q1946.11 1966.75 1947.91 1963.21 Q1949.74 1959.64 1949.74 1952.53 Q1949.74 1945.4 1947.91 1941.86 Q1946.11 1938.3 1942.47 1938.3 M1942.47 1934.59 Q1948.28 1934.59 1951.34 1939.2 Q1954.42 1943.78 1954.42 1952.53 Q1954.42 1961.26 1951.34 1965.87 Q1948.28 1970.45 1942.47 1970.45 Q1936.66 1970.45 1933.58 1965.87 Q1930.53 1961.26 1930.53 1952.53 Q1930.53 1943.78 1933.58 1939.2 Q1936.66 1934.59 1942.47 1934.59 Z" fill="#000000" fill-rule="evenodd" fill-opacity="1" /><path clip-path="url(#clip910)" d="M 0 0 M1972.64 1938.3 Q1969.02 1938.3 1967.2 1941.86 Q1965.39 1945.4 1965.39 1952.53 Q1965.39 1959.64 1967.2 1963.21 Q1969.02 1966.75 1972.64 1966.75 Q1976.27 1966.75 1978.07 1963.21 Q1979.9 1959.64 1979.9 1952.53 Q1979.9 1945.4 1978.07 1941.86 Q1976.27 1938.3 1972.64 1938.3 M1972.64 1934.59 Q1978.45 1934.59 1981.5 1939.2 Q1984.58 1943.78 1984.58 1952.53 Q1984.58 1961.26 1981.5 1965.87 Q1978.45 1970.45 1972.64 1970.45 Q1966.82 1970.45 1963.75 1965.87 Q1960.69 1961.26 1960.69 1952.53 Q1960.69 1943.78 1963.75 1939.2 Q1966.82 1934.59 1972.64 1934.59 Z" fill="#000000" fill-rule="evenodd" fill-opacity="1" /><path clip-path="url(#clip910)" d="M 0 0 M2020.97 1944.32 L2010.39 1954.94 L2020.97 1965.52 L2018.21 1968.32 L2007.59 1957.7 L1996.96 1968.32 L1994.23 1965.52 L2004.79 1954.94 L1994.23 1944.32 L1996.96 1941.52 L2007.59 1952.14 L2018.21 1941.52 L2020.97 1944.32 Z" fill="#000000" fill-rule="evenodd" fill-opacity="1" /><path clip-path="url(#clip910)" d="M 0 0 M2033.33 1965.84 L2040.97 1965.84 L2040.97 1939.48 L2032.66 1941.14 L2032.66 1936.89 L2040.92 1935.22 L2045.6 1935.22 L2045.6 1965.84 L2053.24 1965.84 L2053.24 1969.78 L2033.33 1969.78 L2033.33 1965.84 Z" fill="#000000" fill-rule="evenodd" fill-opacity="1" /><path clip-path="url(#clip910)" d="M 0 0 M2072.68 1938.3 Q2069.07 1938.3 2067.24 1941.86 Q2065.44 1945.4 2065.44 1952.53 Q2065.44 1959.64 2067.24 1963.21 Q2069.07 1966.75 2072.68 1966.75 Q2076.32 1966.75 2078.12 1963.21 Q2079.95 1959.64 2079.95 1952.53 Q2079.95 1945.4 2078.12 1941.86 Q2076.32 1938.3 2072.68 1938.3 M2072.68 1934.59 Q2078.49 1934.59 2081.55 1939.2 Q2084.63 1943.78 2084.63 1952.53 Q2084.63 1961.26 2081.55 1965.87 Q2078.49 1970.45 2072.68 1970.45 Q2066.87 1970.45 2063.79 1965.87 Q2060.74 1961.26 2060.74 1952.53 Q2060.74 1943.78 2063.79 1939.2 Q2066.87 1934.59 2072.68 1934.59 Z" fill="#000000" fill-rule="evenodd" fill-opacity="1" /><path clip-path="url(#clip910)" d="M 0 0 M2085.81 1914.29 L2100.72 1914.29 L2100.72 1917.49 L2089.29 1917.49 L2089.29 1924.37 Q2090.12 1924.09 2090.94 1923.96 Q2091.77 1923.81 2092.6 1923.81 Q2097.3 1923.81 2100.05 1926.38 Q2102.79 1928.96 2102.79 1933.36 Q2102.79 1937.89 2099.97 1940.41 Q2097.15 1942.91 2092.02 1942.91 Q2090.25 1942.91 2088.41 1942.61 Q2086.58 1942.31 2084.63 1941.71 L2084.63 1937.89 Q2086.32 1938.81 2088.12 1939.27 Q2089.93 1939.72 2091.94 1939.72 Q2095.2 1939.72 2097.09 1938.01 Q2098.99 1936.29 2098.99 1933.36 Q2098.99 1930.43 2097.09 1928.71 Q2095.2 1927 2091.94 1927 Q2090.42 1927 2088.89 1927.34 Q2087.39 1927.68 2085.81 1928.39 L2085.81 1914.29 Z" fill="#000000" fill-rule="evenodd" fill-opacity="1" /><path clip-path="url(#clip910)" d="M 0 0 M2486.83 1965.84 L2494.47 1965.84 L2494.47 1939.48 L2486.16 1941.14 L2486.16 1936.89 L2494.42 1935.22 L2499.1 1935.22 L2499.1 1965.84 L2506.74 1965.84 L2506.74 1969.78 L2486.83 1969.78 L2486.83 1965.84 Z" fill="#000000" fill-rule="evenodd" fill-opacity="1" /><path clip-path="url(#clip910)" d="M 0 0 M2516.18 1963.9 L2521.07 1963.9 L2521.07 1969.78 L2516.18 1969.78 L2516.18 1963.9 Z" fill="#000000" fill-rule="evenodd" fill-opacity="1" /><path clip-path="url(#clip910)" d="M 0 0 M2541.25 1938.3 Q2537.64 1938.3 2535.81 1941.86 Q2534.01 1945.4 2534.01 1952.53 Q2534.01 1959.64 2535.81 1963.21 Q2537.64 1966.75 2541.25 1966.75 Q2544.89 1966.75 2546.69 1963.21 Q2548.52 1959.64 2548.52 1952.53 Q2548.52 1945.4 2546.69 1941.86 Q2544.89 1938.3 2541.25 1938.3 M2541.25 1934.59 Q2547.06 1934.59 2550.12 1939.2 Q2553.2 1943.78 2553.2 1952.53 Q2553.2 1961.26 2550.12 1965.87 Q2547.06 1970.45 2541.25 1970.45 Q2535.44 1970.45 2532.36 1965.87 Q2529.31 1961.26 2529.31 1952.53 Q2529.31 1943.78 2532.36 1939.2 Q2535.44 1934.59 2541.25 1934.59 Z" fill="#000000" fill-rule="evenodd" fill-opacity="1" /><path clip-path="url(#clip910)" d="M 0 0 M2571.41 1938.3 Q2567.8 1938.3 2565.97 1941.86 Q2564.17 1945.4 2564.17 1952.53 Q2564.17 1959.64 2565.97 1963.21 Q2567.8 1966.75 2571.41 1966.75 Q2575.05 1966.75 2576.85 1963.21 Q2578.68 1959.64 2578.68 1952.53 Q2578.68 1945.4 2576.85 1941.86 Q2575.05 1938.3 2571.41 1938.3 M2571.41 1934.59 Q2577.22 1934.59 2580.28 1939.2 Q2583.36 1943.78 2583.36 1952.53 Q2583.36 1961.26 2580.28 1965.87 Q2577.22 1970.45 2571.41 1970.45 Q2565.6 1970.45 2562.52 1965.87 Q2559.47 1961.26 2559.47 1952.53 Q2559.47 1943.78 2562.52 1939.2 Q2565.6 1934.59 2571.41 1934.59 Z" fill="#000000" fill-rule="evenodd" fill-opacity="1" /><path clip-path="url(#clip910)" d="M 0 0 M2601.57 1938.3 Q2597.96 1938.3 2596.14 1941.86 Q2594.33 1945.4 2594.33 1952.53 Q2594.33 1959.64 2596.14 1963.21 Q2597.96 1966.75 2601.57 1966.75 Q2605.21 1966.75 2607.01 1963.21 Q2608.84 1959.64 2608.84 1952.53 Q2608.84 1945.4 2607.01 1941.86 Q2605.21 1938.3 2601.57 1938.3 M2601.57 1934.59 Q2607.39 1934.59 2610.44 1939.2 Q2613.52 1943.78 2613.52 1952.53 Q2613.52 1961.26 2610.44 1965.87 Q2607.39 1970.45 2601.57 1970.45 Q2595.76 1970.45 2592.69 1965.87 Q2589.63 1961.26 2589.63 1952.53 Q2589.63 1943.78 2592.69 1939.2 Q2595.76 1934.59 2601.57 1934.59 Z" fill="#000000" fill-rule="evenodd" fill-opacity="1" /><path clip-path="url(#clip910)" d="M 0 0 M2649.91 1944.32 L2639.33 1954.94 L2649.91 1965.52 L2647.15 1968.32 L2636.53 1957.7 L2625.9 1968.32 L2623.17 1965.52 L2633.73 1954.94 L2623.17 1944.32 L2625.9 1941.52 L2636.53 1952.14 L2647.15 1941.52 L2649.91 1944.32 Z" fill="#000000" fill-rule="evenodd" fill-opacity="1" /><path clip-path="url(#clip910)" d="M 0 0 M2662.27 1965.84 L2669.91 1965.84 L2669.91 1939.48 L2661.6 1941.14 L2661.6 1936.89 L2669.86 1935.22 L2674.54 1935.22 L2674.54 1965.84 L2682.18 1965.84 L2682.18 1969.78 L2662.27 1969.78 L2662.27 1965.84 Z" fill="#000000" fill-rule="evenodd" fill-opacity="1" /><path clip-path="url(#clip910)" d="M 0 0 M2701.62 1938.3 Q2698.01 1938.3 2696.18 1941.86 Q2694.38 1945.4 2694.38 1952.53 Q2694.38 1959.64 2696.18 1963.21 Q2698.01 1966.75 2701.62 1966.75 Q2705.25 1966.75 2707.06 1963.21 Q2708.89 1959.64 2708.89 1952.53 Q2708.89 1945.4 2707.06 1941.86 Q2705.25 1938.3 2701.62 1938.3 M2701.62 1934.59 Q2707.43 1934.59 2710.49 1939.2 Q2713.56 1943.78 2713.56 1952.53 Q2713.56 1961.26 2710.49 1965.87 Q2707.43 1970.45 2701.62 1970.45 Q2695.81 1970.45 2692.73 1965.87 Q2689.68 1961.26 2689.68 1952.53 Q2689.68 1943.78 2692.73 1939.2 Q2695.81 1934.59 2701.62 1934.59 Z" fill="#000000" fill-rule="evenodd" fill-opacity="1" /><path clip-path="url(#clip910)" d="M 0 0 M2723.59 1926.81 Q2721.03 1926.81 2719.53 1928.56 Q2718.04 1930.31 2718.04 1933.36 Q2718.04 1936.39 2719.53 1938.16 Q2721.03 1939.9 2723.59 1939.9 Q2726.15 1939.9 2727.63 1938.16 Q2729.14 1936.39 2729.14 1933.36 Q2729.14 1930.31 2727.63 1928.56 Q2726.15 1926.81 2723.59 1926.81 M2731.13 1914.91 L2731.13 1918.37 Q2729.7 1917.69 2728.24 1917.34 Q2726.79 1916.98 2725.36 1916.98 Q2721.6 1916.98 2719.6 1919.52 Q2717.63 1922.06 2717.35 1927.19 Q2718.46 1925.55 2720.13 1924.69 Q2721.8 1923.81 2723.82 1923.81 Q2728.05 1923.81 2730.49 1926.38 Q2732.96 1928.94 2732.96 1933.36 Q2732.96 1937.69 2730.4 1940.3 Q2727.84 1942.91 2723.59 1942.91 Q2718.72 1942.91 2716.14 1939.19 Q2713.56 1935.45 2713.56 1928.36 Q2713.56 1921.7 2716.72 1917.75 Q2719.88 1913.78 2725.21 1913.78 Q2726.64 1913.78 2728.08 1914.06 Q2729.55 1914.35 2731.13 1914.91 Z" fill="#000000" fill-rule="evenodd" fill-opacity="1" /><path clip-path="url(#clip910)" d="M 0 0 M3117.04 1965.84 L3124.68 1965.84 L3124.68 1939.48 L3116.37 1941.14 L3116.37 1936.89 L3124.63 1935.22 L3129.31 1935.22 L3129.31 1965.84 L3136.95 1965.84 L3136.95 1969.78 L3117.04 1969.78 L3117.04 1965.84 Z" fill="#000000" fill-rule="evenodd" fill-opacity="1" /><path clip-path="url(#clip910)" d="M 0 0 M3146.39 1963.9 L3151.28 1963.9 L3151.28 1969.78 L3146.39 1969.78 L3146.39 1963.9 Z" fill="#000000" fill-rule="evenodd" fill-opacity="1" /><path clip-path="url(#clip910)" d="M 0 0 M3165.49 1965.84 L3181.81 1965.84 L3181.81 1969.78 L3159.86 1969.78 L3159.86 1965.84 Q3162.53 1963.09 3167.11 1958.46 Q3171.72 1953.81 3172.9 1952.46 Q3175.14 1949.94 3176.02 1948.21 Q3176.92 1946.45 3176.92 1944.76 Q3176.92 1942 3174.98 1940.27 Q3173.06 1938.53 3169.96 1938.53 Q3167.76 1938.53 3165.3 1939.29 Q3162.87 1940.06 3160.1 1941.61 L3160.1 1936.89 Q3162.92 1935.75 3165.37 1935.17 Q3167.83 1934.59 3169.86 1934.59 Q3175.23 1934.59 3178.43 1937.28 Q3181.62 1939.96 3181.62 1944.46 Q3181.62 1946.58 3180.81 1948.51 Q3180.03 1950.4 3177.92 1953 Q3177.34 1953.67 3174.24 1956.89 Q3171.14 1960.08 3165.49 1965.84 Z" fill="#000000" fill-rule="evenodd" fill-opacity="1" /><path clip-path="url(#clip910)" d="M 0 0 M3191.67 1935.22 L3210.03 1935.22 L3210.03 1939.15 L3195.95 1939.15 L3195.95 1947.63 Q3196.97 1947.28 3197.99 1947.12 Q3199.01 1946.93 3200.03 1946.93 Q3205.81 1946.93 3209.19 1950.1 Q3212.57 1953.27 3212.57 1958.69 Q3212.57 1964.27 3209.1 1967.37 Q3205.63 1970.45 3199.31 1970.45 Q3197.13 1970.45 3194.86 1970.08 Q3192.62 1969.71 3190.21 1968.97 L3190.21 1964.27 Q3192.3 1965.4 3194.52 1965.96 Q3196.74 1966.52 3199.22 1966.52 Q3203.22 1966.52 3205.56 1964.41 Q3207.9 1962.3 3207.9 1958.69 Q3207.9 1955.08 3205.56 1952.97 Q3203.22 1950.87 3199.22 1950.87 Q3197.34 1950.87 3195.47 1951.28 Q3193.61 1951.7 3191.67 1952.58 L3191.67 1935.22 Z" fill="#000000" fill-rule="evenodd" fill-opacity="1" /><path clip-path="url(#clip910)" d="M 0 0 M3231.79 1938.3 Q3228.17 1938.3 3226.35 1941.86 Q3224.54 1945.4 3224.54 1952.53 Q3224.54 1959.64 3226.35 1963.21 Q3228.17 1966.75 3231.79 1966.75 Q3235.42 1966.75 3237.23 1963.21 Q3239.05 1959.64 3239.05 1952.53 Q3239.05 1945.4 3237.23 1941.86 Q3235.42 1938.3 3231.79 1938.3 M3231.79 1934.59 Q3237.6 1934.59 3240.65 1939.2 Q3243.73 1943.78 3243.73 1952.53 Q3243.73 1961.26 3240.65 1965.87 Q3237.6 1970.45 3231.79 1970.45 Q3225.98 1970.45 3222.9 1965.87 Q3219.84 1961.26 3219.84 1952.53 Q3219.84 1943.78 3222.9 1939.2 Q3225.98 1934.59 3231.79 1934.59 Z" fill="#000000" fill-rule="evenodd" fill-opacity="1" /><path clip-path="url(#clip910)" d="M 0 0 M3280.12 1944.32 L3269.54 1954.94 L3280.12 1965.52 L3277.36 1968.32 L3266.74 1957.7 L3256.11 1968.32 L3253.38 1965.52 L3263.94 1954.94 L3253.38 1944.32 L3256.11 1941.52 L3266.74 1952.14 L3277.36 1941.52 L3280.12 1944.32 Z" fill="#000000" fill-rule="evenodd" fill-opacity="1" /><path clip-path="url(#clip910)" d="M 0 0 M3292.48 1965.84 L3300.12 1965.84 L3300.12 1939.48 L3291.81 1941.14 L3291.81 1936.89 L3300.07 1935.22 L3304.75 1935.22 L3304.75 1965.84 L3312.39 1965.84 L3312.39 1969.78 L3292.48 1969.78 L3292.48 1965.84 Z" fill="#000000" fill-rule="evenodd" fill-opacity="1" /><path clip-path="url(#clip910)" d="M 0 0 M3331.83 1938.3 Q3328.22 1938.3 3326.39 1941.86 Q3324.59 1945.4 3324.59 1952.53 Q3324.59 1959.64 3326.39 1963.21 Q3328.22 1966.75 3331.83 1966.75 Q3335.47 1966.75 3337.27 1963.21 Q3339.1 1959.64 3339.1 1952.53 Q3339.1 1945.4 3337.27 1941.86 Q3335.47 1938.3 3331.83 1938.3 M3331.83 1934.59 Q3337.64 1934.59 3340.7 1939.2 Q3343.78 1943.78 3343.78 1952.53 Q3343.78 1961.26 3340.7 1965.87 Q3337.64 1970.45 3331.83 1970.45 Q3326.02 1970.45 3322.94 1965.87 Q3319.89 1961.26 3319.89 1952.53 Q3319.89 1943.78 3322.94 1939.2 Q3326.02 1934.59 3331.83 1934.59 Z" fill="#000000" fill-rule="evenodd" fill-opacity="1" /><path clip-path="url(#clip910)" d="M 0 0 M3353.8 1926.81 Q3351.24 1926.81 3349.74 1928.56 Q3348.25 1930.31 3348.25 1933.36 Q3348.25 1936.39 3349.74 1938.16 Q3351.24 1939.9 3353.8 1939.9 Q3356.36 1939.9 3357.84 1938.16 Q3359.35 1936.39 3359.35 1933.36 Q3359.35 1930.31 3357.84 1928.56 Q3356.36 1926.81 3353.8 1926.81 M3361.34 1914.91 L3361.34 1918.37 Q3359.91 1917.69 3358.45 1917.34 Q3357 1916.98 3355.57 1916.98 Q3351.81 1916.98 3349.81 1919.52 Q3347.84 1922.06 3347.56 1927.19 Q3348.67 1925.55 3350.34 1924.69 Q3352.01 1923.81 3354.03 1923.81 Q3358.26 1923.81 3360.7 1926.38 Q3363.17 1928.94 3363.17 1933.36 Q3363.17 1937.69 3360.61 1940.3 Q3358.05 1942.91 3353.8 1942.91 Q3348.93 1942.91 3346.35 1939.19 Q3343.78 1935.45 3343.78 1928.36 Q3343.78 1921.7 3346.94 1917.75 Q3350.1 1913.78 3355.42 1913.78 Q3356.85 1913.78 3358.3 1914.06 Q3359.76 1914.35 3361.34 1914.91 Z" fill="#000000" fill-rule="evenodd" fill-opacity="1" /><polyline clip-path="url(#clip912)" style="stroke:#000000; stroke-width:2; stroke-opacity:0.1; fill:none" points="
  153.853,1828.03 3552.76,1828.03 
  "/>
<polyline clip-path="url(#clip912)" style="stroke:#000000; stroke-width:2; stroke-opacity:0.1; fill:none" points="
  153.853,1541.01 3552.76,1541.01 
  "/>
<polyline clip-path="url(#clip912)" style="stroke:#000000; stroke-width:2; stroke-opacity:0.1; fill:none" points="
  153.853,1254 3552.76,1254 
  "/>
<polyline clip-path="url(#clip912)" style="stroke:#000000; stroke-width:2; stroke-opacity:0.1; fill:none" points="
  153.853,966.98 3552.76,966.98 
  "/>
<polyline clip-path="url(#clip912)" style="stroke:#000000; stroke-width:2; stroke-opacity:0.1; fill:none" points="
  153.853,679.963 3552.76,679.963 
  "/>
<polyline clip-path="url(#clip912)" style="stroke:#000000; stroke-width:2; stroke-opacity:0.1; fill:none" points="
  153.853,392.947 3552.76,392.947 
  "/>
<polyline clip-path="url(#clip910)" style="stroke:#000000; stroke-width:4; stroke-opacity:1; fill:none" points="
  153.853,1877.97 153.853,113.392 
  "/>
<polyline clip-path="url(#clip910)" style="stroke:#000000; stroke-width:4; stroke-opacity:1; fill:none" points="
  153.853,1828.03 194.64,1828.03 
  "/>
<polyline clip-path="url(#clip910)" style="stroke:#000000; stroke-width:4; stroke-opacity:1; fill:none" points="
  153.853,1541.01 194.64,1541.01 
  "/>
<polyline clip-path="url(#clip910)" style="stroke:#000000; stroke-width:4; stroke-opacity:1; fill:none" points="
  153.853,1254 194.64,1254 
  "/>
<polyline clip-path="url(#clip910)" style="stroke:#000000; stroke-width:4; stroke-opacity:1; fill:none" points="
  153.853,966.98 194.64,966.98 
  "/>
<polyline clip-path="url(#clip910)" style="stroke:#000000; stroke-width:4; stroke-opacity:1; fill:none" points="
  153.853,679.963 194.64,679.963 
  "/>
<polyline clip-path="url(#clip910)" style="stroke:#000000; stroke-width:4; stroke-opacity:1; fill:none" points="
  153.853,392.947 194.64,392.947 
  "/>
<path clip-path="url(#clip910)" d="M 0 0 M87.9086 1813.83 Q84.2975 1813.83 82.4688 1817.39 Q80.6632 1820.94 80.6632 1828.07 Q80.6632 1835.17 82.4688 1838.74 Q84.2975 1842.28 87.9086 1842.28 Q91.5428 1842.28 93.3483 1838.74 Q95.177 1835.17 95.177 1828.07 Q95.177 1820.94 93.3483 1817.39 Q91.5428 1813.83 87.9086 1813.83 M87.9086 1810.13 Q93.7187 1810.13 96.7743 1814.73 Q99.8529 1819.32 99.8529 1828.07 Q99.8529 1836.79 96.7743 1841.4 Q93.7187 1845.98 87.9086 1845.98 Q82.0984 1845.98 79.0197 1841.4 Q75.9642 1836.79 75.9642 1828.07 Q75.9642 1819.32 79.0197 1814.73 Q82.0984 1810.13 87.9086 1810.13 Z" fill="#000000" fill-rule="evenodd" fill-opacity="1" /><path clip-path="url(#clip910)" d="M 0 0 M48.5569 1554.36 L56.1958 1554.36 L56.1958 1527.99 L47.8856 1529.66 L47.8856 1525.4 L56.1495 1523.73 L60.8254 1523.73 L60.8254 1554.36 L68.4642 1554.36 L68.4642 1558.29 L48.5569 1558.29 L48.5569 1554.36 Z" fill="#000000" fill-rule="evenodd" fill-opacity="1" /><path clip-path="url(#clip910)" d="M 0 0 M87.9086 1526.81 Q84.2975 1526.81 82.4688 1530.38 Q80.6632 1533.92 80.6632 1541.05 Q80.6632 1548.16 82.4688 1551.72 Q84.2975 1555.26 87.9086 1555.26 Q91.5428 1555.26 93.3483 1551.72 Q95.177 1548.16 95.177 1541.05 Q95.177 1533.92 93.3483 1530.38 Q91.5428 1526.81 87.9086 1526.81 M87.9086 1523.11 Q93.7187 1523.11 96.7743 1527.72 Q99.8529 1532.3 99.8529 1541.05 Q99.8529 1549.78 96.7743 1554.38 Q93.7187 1558.97 87.9086 1558.97 Q82.0984 1558.97 79.0197 1554.38 Q75.9642 1549.78 75.9642 1541.05 Q75.9642 1532.3 79.0197 1527.72 Q82.0984 1523.11 87.9086 1523.11 Z" fill="#000000" fill-rule="evenodd" fill-opacity="1" /><path clip-path="url(#clip910)" d="M 0 0 M51.7745 1267.34 L68.0939 1267.34 L68.0939 1271.28 L46.1495 1271.28 L46.1495 1267.34 Q48.8115 1264.59 53.3949 1259.96 Q58.0013 1255.31 59.1819 1253.96 Q61.4272 1251.44 62.3068 1249.7 Q63.2096 1247.94 63.2096 1246.25 Q63.2096 1243.5 61.2652 1241.76 Q59.3439 1240.03 56.2421 1240.03 Q54.043 1240.03 51.5893 1240.79 Q49.1588 1241.56 46.381 1243.11 L46.381 1238.38 Q49.2051 1237.25 51.6588 1236.67 Q54.1124 1236.09 56.1495 1236.09 Q61.5198 1236.09 64.7142 1238.78 Q67.9087 1241.46 67.9087 1245.95 Q67.9087 1248.08 67.0985 1250 Q66.3115 1251.9 64.205 1254.49 Q63.6263 1255.17 60.5245 1258.38 Q57.4226 1261.58 51.7745 1267.34 Z" fill="#000000" fill-rule="evenodd" fill-opacity="1" /><path clip-path="url(#clip910)" d="M 0 0 M87.9086 1239.8 Q84.2975 1239.8 82.4688 1243.36 Q80.6632 1246.9 80.6632 1254.03 Q80.6632 1261.14 82.4688 1264.7 Q84.2975 1268.24 87.9086 1268.24 Q91.5428 1268.24 93.3483 1264.7 Q95.177 1261.14 95.177 1254.03 Q95.177 1246.9 93.3483 1243.36 Q91.5428 1239.8 87.9086 1239.8 M87.9086 1236.09 Q93.7187 1236.09 96.7743 1240.7 Q99.8529 1245.28 99.8529 1254.03 Q99.8529 1262.76 96.7743 1267.37 Q93.7187 1271.95 87.9086 1271.95 Q82.0984 1271.95 79.0197 1267.37 Q75.9642 1262.76 75.9642 1254.03 Q75.9642 1245.28 79.0197 1240.7 Q82.0984 1236.09 87.9086 1236.09 Z" fill="#000000" fill-rule="evenodd" fill-opacity="1" /><path clip-path="url(#clip910)" d="M 0 0 M61.9133 965.626 Q65.2698 966.344 67.1448 968.612 Q69.0429 970.881 69.0429 974.214 Q69.0429 979.33 65.5244 982.131 Q62.0059 984.932 55.5245 984.932 Q53.3486 984.932 51.0338 984.492 Q48.7421 984.075 46.2884 983.219 L46.2884 978.705 Q48.2328 979.839 50.5477 980.418 Q52.8625 980.996 55.3856 980.996 Q59.7837 980.996 62.0754 979.26 Q64.3902 977.524 64.3902 974.214 Q64.3902 971.159 62.2374 969.446 Q60.1078 967.709 56.2884 967.709 L52.2606 967.709 L52.2606 963.867 L56.4735 963.867 Q59.9226 963.867 61.7513 962.501 Q63.58 961.112 63.58 958.52 Q63.58 955.858 61.6819 954.446 Q59.8069 953.01 56.2884 953.01 Q54.3671 953.01 52.168 953.427 Q49.969 953.844 47.3301 954.723 L47.3301 950.557 Q49.9921 949.816 52.3069 949.446 Q54.6449 949.075 56.705 949.075 Q62.0291 949.075 65.1309 951.506 Q68.2327 953.913 68.2327 958.034 Q68.2327 960.904 66.5892 962.895 Q64.9457 964.862 61.9133 965.626 Z" fill="#000000" fill-rule="evenodd" fill-opacity="1" /><path clip-path="url(#clip910)" d="M 0 0 M87.9086 952.779 Q84.2975 952.779 82.4688 956.344 Q80.6632 959.885 80.6632 967.015 Q80.6632 974.121 82.4688 977.686 Q84.2975 981.228 87.9086 981.228 Q91.5428 981.228 93.3483 977.686 Q95.177 974.121 95.177 967.015 Q95.177 959.885 93.3483 956.344 Q91.5428 952.779 87.9086 952.779 M87.9086 949.075 Q93.7187 949.075 96.7743 953.682 Q99.8529 958.265 99.8529 967.015 Q99.8529 975.742 96.7743 980.348 Q93.7187 984.932 87.9086 984.932 Q82.0984 984.932 79.0197 980.348 Q75.9642 975.742 75.9642 967.015 Q75.9642 958.265 79.0197 953.682 Q82.0984 949.075 87.9086 949.075 Z" fill="#000000" fill-rule="evenodd" fill-opacity="1" /><path clip-path="url(#clip910)" d="M 0 0 M60.5939 666.757 L48.7884 685.206 L60.5939 685.206 L60.5939 666.757 M59.367 662.683 L65.2466 662.683 L65.2466 685.206 L70.1772 685.206 L70.1772 689.095 L65.2466 689.095 L65.2466 697.243 L60.5939 697.243 L60.5939 689.095 L44.9921 689.095 L44.9921 684.581 L59.367 662.683 Z" fill="#000000" fill-rule="evenodd" fill-opacity="1" /><path clip-path="url(#clip910)" d="M 0 0 M87.9086 665.762 Q84.2975 665.762 82.4688 669.327 Q80.6632 672.869 80.6632 679.998 Q80.6632 687.105 82.4688 690.669 Q84.2975 694.211 87.9086 694.211 Q91.5428 694.211 93.3483 690.669 Q95.177 687.105 95.177 679.998 Q95.177 672.869 93.3483 669.327 Q91.5428 665.762 87.9086 665.762 M87.9086 662.058 Q93.7187 662.058 96.7743 666.665 Q99.8529 671.248 99.8529 679.998 Q99.8529 688.725 96.7743 693.331 Q93.7187 697.915 87.9086 697.915 Q82.0984 697.915 79.0197 693.331 Q75.9642 688.725 75.9642 679.998 Q75.9642 671.248 79.0197 666.665 Q82.0984 662.058 87.9086 662.058 Z" fill="#000000" fill-rule="evenodd" fill-opacity="1" /><path clip-path="url(#clip910)" d="M 0 0 M47.793 375.667 L66.1494 375.667 L66.1494 379.602 L52.0754 379.602 L52.0754 388.074 Q53.0939 387.727 54.1124 387.565 Q55.131 387.379 56.1495 387.379 Q61.9365 387.379 65.3161 390.551 Q68.6957 393.722 68.6957 399.139 Q68.6957 404.717 65.2235 407.819 Q61.7513 410.898 55.4319 410.898 Q53.256 410.898 50.9875 410.527 Q48.7421 410.157 46.3347 409.416 L46.3347 404.717 Q48.418 405.852 50.6402 406.407 Q52.8625 406.963 55.3393 406.963 Q59.3439 406.963 61.6819 404.856 Q64.0198 402.75 64.0198 399.139 Q64.0198 395.528 61.6819 393.421 Q59.3439 391.315 55.3393 391.315 Q53.4643 391.315 51.5893 391.731 Q49.7375 392.148 47.793 393.028 L47.793 375.667 Z" fill="#000000" fill-rule="evenodd" fill-opacity="1" /><path clip-path="url(#clip910)" d="M 0 0 M87.9086 378.745 Q84.2975 378.745 82.4688 382.31 Q80.6632 385.852 80.6632 392.981 Q80.6632 400.088 82.4688 403.653 Q84.2975 407.194 87.9086 407.194 Q91.5428 407.194 93.3483 403.653 Q95.177 400.088 95.177 392.981 Q95.177 385.852 93.3483 382.31 Q91.5428 378.745 87.9086 378.745 M87.9086 375.042 Q93.7187 375.042 96.7743 379.648 Q99.8529 384.231 99.8529 392.981 Q99.8529 401.708 96.7743 406.315 Q93.7187 410.898 87.9086 410.898 Q82.0984 410.898 79.0197 406.315 Q75.9642 401.708 75.9642 392.981 Q75.9642 384.231 79.0197 379.648 Q82.0984 375.042 87.9086 375.042 Z" fill="#000000" fill-rule="evenodd" fill-opacity="1" /><path clip-path="url(#clip910)" d="M 0 0 M1272.67 44.2197 Q1275.3 45.1109 1277.77 48.0275 Q1280.28 50.9442 1282.8 56.0483 L1291.1 72.576 L1282.31 72.576 L1274.57 57.061 Q1271.57 50.9847 1268.74 48.9997 Q1265.94 47.0148 1261.08 47.0148 L1252.17 47.0148 L1252.17 72.576 L1243.99 72.576 L1243.99 12.096 L1262.46 12.096 Q1272.83 12.096 1277.93 16.4305 Q1283.04 20.7649 1283.04 29.5149 Q1283.04 35.2267 1280.36 38.994 Q1277.73 42.7613 1272.67 44.2197 M1252.17 18.8205 L1252.17 40.2903 L1262.46 40.2903 Q1268.37 40.2903 1271.37 37.5762 Q1274.41 34.8216 1274.41 29.5149 Q1274.41 24.2082 1271.37 21.5346 Q1268.37 18.8205 1262.46 18.8205 L1252.17 18.8205 Z" fill="#000000" fill-rule="evenodd" fill-opacity="1" /><path clip-path="url(#clip910)" d="M 0 0 M1296.81 54.671 L1296.81 27.2059 L1304.27 27.2059 L1304.27 54.3874 Q1304.27 60.8284 1306.78 64.0691 Q1309.29 67.2693 1314.31 67.2693 Q1320.35 67.2693 1323.83 63.421 Q1327.36 59.5726 1327.36 52.9291 L1327.36 27.2059 L1334.81 27.2059 L1334.81 72.576 L1327.36 72.576 L1327.36 65.6084 Q1324.64 69.7404 1321.04 71.7658 Q1317.47 73.7508 1312.73 73.7508 Q1304.91 73.7508 1300.86 68.8897 Q1296.81 64.0286 1296.81 54.671 M1315.57 26.1121 L1315.57 26.1121 Z" fill="#000000" fill-rule="evenodd" fill-opacity="1" /><path clip-path="url(#clip910)" d="M 0 0 M1379.09 28.5427 L1379.09 35.5912 Q1375.93 33.9709 1372.52 33.1607 Q1369.12 32.3505 1365.47 32.3505 Q1359.92 32.3505 1357.13 34.0519 Q1354.37 35.7533 1354.37 39.156 Q1354.37 41.7486 1356.36 43.2475 Q1358.34 44.7058 1364.34 46.0426 L1366.89 46.6097 Q1374.83 48.3111 1378.15 51.4303 Q1381.52 54.509 1381.52 60.0587 Q1381.52 66.3781 1376.49 70.0644 Q1371.51 73.7508 1362.76 73.7508 Q1359.11 73.7508 1355.14 73.0216 Q1351.22 72.3329 1346.84 70.9151 L1346.84 63.2184 Q1350.97 65.3654 1354.98 66.4591 Q1358.99 67.5124 1362.92 67.5124 Q1368.19 67.5124 1371.02 65.73 Q1373.86 63.9071 1373.86 60.6258 Q1373.86 57.5877 1371.79 55.9673 Q1369.77 54.3469 1362.84 52.8481 L1360.25 52.2405 Q1353.32 50.7821 1350.24 47.7845 Q1347.16 44.7463 1347.16 39.4801 Q1347.16 33.0797 1351.7 29.5959 Q1356.24 26.1121 1364.58 26.1121 Q1368.72 26.1121 1372.36 26.7198 Q1376.01 27.3274 1379.09 28.5427 Z" fill="#000000" fill-rule="evenodd" fill-opacity="1" /><path clip-path="url(#clip910)" d="M 0 0 M1422.31 28.5427 L1422.31 35.5912 Q1419.15 33.9709 1415.75 33.1607 Q1412.34 32.3505 1408.7 32.3505 Q1403.15 32.3505 1400.35 34.0519 Q1397.6 35.7533 1397.6 39.156 Q1397.6 41.7486 1399.58 43.2475 Q1401.57 44.7058 1407.56 46.0426 L1410.12 46.6097 Q1418.06 48.3111 1421.38 51.4303 Q1424.74 54.509 1424.74 60.0587 Q1424.74 66.3781 1419.72 70.0644 Q1414.73 73.7508 1405.98 73.7508 Q1402.34 73.7508 1398.37 73.0216 Q1394.44 72.3329 1390.06 70.9151 L1390.06 63.2184 Q1394.2 65.3654 1398.21 66.4591 Q1402.22 67.5124 1406.15 67.5124 Q1411.41 67.5124 1414.25 65.73 Q1417.08 63.9071 1417.08 60.6258 Q1417.08 57.5877 1415.02 55.9673 Q1412.99 54.3469 1406.06 52.8481 L1403.47 52.2405 Q1396.54 50.7821 1393.47 47.7845 Q1390.39 44.7463 1390.39 39.4801 Q1390.39 33.0797 1394.92 29.5959 Q1399.46 26.1121 1407.81 26.1121 Q1411.94 26.1121 1415.58 26.7198 Q1419.23 27.3274 1422.31 28.5427 Z" fill="#000000" fill-rule="evenodd" fill-opacity="1" /><path clip-path="url(#clip910)" d="M 0 0 M1436.61 27.2059 L1444.06 27.2059 L1444.06 72.576 L1436.61 72.576 L1436.61 27.2059 M1436.61 9.54393 L1444.06 9.54393 L1444.06 18.9825 L1436.61 18.9825 L1436.61 9.54393 Z" fill="#000000" fill-rule="evenodd" fill-opacity="1" /><path clip-path="url(#clip910)" d="M 0 0 M1480.28 49.7694 Q1471.24 49.7694 1467.76 51.8354 Q1464.28 53.9013 1464.28 58.8839 Q1464.28 62.8538 1466.87 65.2034 Q1469.5 67.5124 1474 67.5124 Q1480.2 67.5124 1483.92 63.1374 Q1487.69 58.7219 1487.69 51.4303 L1487.69 49.7694 L1480.28 49.7694 M1495.14 46.6907 L1495.14 72.576 L1487.69 72.576 L1487.69 65.6895 Q1485.14 69.8214 1481.33 71.8063 Q1477.52 73.7508 1472.01 73.7508 Q1465.05 73.7508 1460.91 69.8619 Q1456.82 65.9325 1456.82 59.3701 Q1456.82 51.7138 1461.93 47.825 Q1467.07 43.9361 1477.24 43.9361 L1487.69 43.9361 L1487.69 43.2069 Q1487.69 38.0623 1484.29 35.2672 Q1480.93 32.4315 1474.81 32.4315 Q1470.92 32.4315 1467.23 33.3632 Q1463.55 34.295 1460.14 36.1584 L1460.14 29.2718 Q1464.24 27.692 1468.08 26.9223 Q1471.93 26.1121 1475.58 26.1121 Q1485.42 26.1121 1490.28 31.2163 Q1495.14 36.3204 1495.14 46.6907 Z" fill="#000000" fill-rule="evenodd" fill-opacity="1" /><path clip-path="url(#clip910)" d="M 0 0 M1544.08 65.7705 L1544.08 89.8329 L1536.58 89.8329 L1536.58 27.2059 L1544.08 27.2059 L1544.08 34.0924 Q1546.43 30.0415 1549.99 28.0971 Q1553.6 26.1121 1558.58 26.1121 Q1566.84 26.1121 1571.99 32.6746 Q1577.17 39.2371 1577.17 49.9314 Q1577.17 60.6258 1571.99 67.1883 Q1566.84 73.7508 1558.58 73.7508 Q1553.6 73.7508 1549.99 71.8063 Q1546.43 69.8214 1544.08 65.7705 M1569.44 49.9314 Q1569.44 41.7081 1566.03 37.0496 Q1562.67 32.3505 1556.76 32.3505 Q1550.84 32.3505 1547.44 37.0496 Q1544.08 41.7081 1544.08 49.9314 Q1544.08 58.1548 1547.44 62.8538 Q1550.84 67.5124 1556.76 67.5124 Q1562.67 67.5124 1566.03 62.8538 Q1569.44 58.1548 1569.44 49.9314 Z" fill="#000000" fill-rule="evenodd" fill-opacity="1" /><path clip-path="url(#clip910)" d="M 0 0 M1607.11 32.4315 Q1601.12 32.4315 1597.63 37.1306 Q1594.15 41.7891 1594.15 49.9314 Q1594.15 58.0738 1597.59 62.7728 Q1601.07 67.4314 1607.11 67.4314 Q1613.07 67.4314 1616.55 62.7323 Q1620.03 58.0333 1620.03 49.9314 Q1620.03 41.8701 1616.55 37.1711 Q1613.07 32.4315 1607.11 32.4315 M1607.11 26.1121 Q1616.83 26.1121 1622.38 32.4315 Q1627.93 38.7509 1627.93 49.9314 Q1627.93 61.0714 1622.38 67.4314 Q1616.83 73.7508 1607.11 73.7508 Q1597.35 73.7508 1591.8 67.4314 Q1586.29 61.0714 1586.29 49.9314 Q1586.29 38.7509 1591.8 32.4315 Q1597.35 26.1121 1607.11 26.1121 Z" fill="#000000" fill-rule="evenodd" fill-opacity="1" /><path clip-path="url(#clip910)" d="M 0 0 M1647.5 65.7705 L1647.5 89.8329 L1640 89.8329 L1640 27.2059 L1647.5 27.2059 L1647.5 34.0924 Q1649.85 30.0415 1653.41 28.0971 Q1657.02 26.1121 1662 26.1121 Q1670.26 26.1121 1675.41 32.6746 Q1680.59 39.2371 1680.59 49.9314 Q1680.59 60.6258 1675.41 67.1883 Q1670.26 73.7508 1662 73.7508 Q1657.02 73.7508 1653.41 71.8063 Q1649.85 69.8214 1647.5 65.7705 M1672.86 49.9314 Q1672.86 41.7081 1669.45 37.0496 Q1666.09 32.3505 1660.18 32.3505 Q1654.26 32.3505 1650.86 37.0496 Q1647.5 41.7081 1647.5 49.9314 Q1647.5 58.1548 1650.86 62.8538 Q1654.26 67.5124 1660.18 67.5124 Q1666.09 67.5124 1669.45 62.8538 Q1672.86 58.1548 1672.86 49.9314 Z" fill="#000000" fill-rule="evenodd" fill-opacity="1" /><path clip-path="url(#clip910)" d="M 0 0 M1692.18 54.671 L1692.18 27.2059 L1699.63 27.2059 L1699.63 54.3874 Q1699.63 60.8284 1702.14 64.0691 Q1704.66 67.2693 1709.68 67.2693 Q1715.72 67.2693 1719.2 63.421 Q1722.72 59.5726 1722.72 52.9291 L1722.72 27.2059 L1730.18 27.2059 L1730.18 72.576 L1722.72 72.576 L1722.72 65.6084 Q1720.01 69.7404 1716.4 71.7658 Q1712.84 73.7508 1708.1 73.7508 Q1700.28 73.7508 1696.23 68.8897 Q1692.18 64.0286 1692.18 54.671 M1710.94 26.1121 L1710.94 26.1121 Z" fill="#000000" fill-rule="evenodd" fill-opacity="1" /><path clip-path="url(#clip910)" d="M 0 0 M1745.53 9.54393 L1752.98 9.54393 L1752.98 72.576 L1745.53 72.576 L1745.53 9.54393 Z" fill="#000000" fill-rule="evenodd" fill-opacity="1" /><path clip-path="url(#clip910)" d="M 0 0 M1789.2 49.7694 Q1780.17 49.7694 1776.68 51.8354 Q1773.2 53.9013 1773.2 58.8839 Q1773.2 62.8538 1775.79 65.2034 Q1778.42 67.5124 1782.92 67.5124 Q1789.12 67.5124 1792.84 63.1374 Q1796.61 58.7219 1796.61 51.4303 L1796.61 49.7694 L1789.2 49.7694 M1804.07 46.6907 L1804.07 72.576 L1796.61 72.576 L1796.61 65.6895 Q1794.06 69.8214 1790.25 71.8063 Q1786.44 73.7508 1780.94 73.7508 Q1773.97 73.7508 1769.84 69.8619 Q1765.74 65.9325 1765.74 59.3701 Q1765.74 51.7138 1770.85 47.825 Q1775.99 43.9361 1786.16 43.9361 L1796.61 43.9361 L1796.61 43.2069 Q1796.61 38.0623 1793.21 35.2672 Q1789.85 32.4315 1783.73 32.4315 Q1779.84 32.4315 1776.15 33.3632 Q1772.47 34.295 1769.07 36.1584 L1769.07 29.2718 Q1773.16 27.692 1777.01 26.9223 Q1780.85 26.1121 1784.5 26.1121 Q1794.34 26.1121 1799.2 31.2163 Q1804.07 36.3204 1804.07 46.6907 Z" fill="#000000" fill-rule="evenodd" fill-opacity="1" /><path clip-path="url(#clip910)" d="M 0 0 M1826.79 14.324 L1826.79 27.2059 L1842.14 27.2059 L1842.14 32.9987 L1826.79 32.9987 L1826.79 57.6282 Q1826.79 63.1779 1828.29 64.7578 Q1829.83 66.3376 1834.49 66.3376 L1842.14 66.3376 L1842.14 72.576 L1834.49 72.576 Q1825.86 72.576 1822.58 69.3758 Q1819.3 66.1351 1819.3 57.6282 L1819.3 32.9987 L1813.83 32.9987 L1813.83 27.2059 L1819.3 27.2059 L1819.3 14.324 L1826.79 14.324 Z" fill="#000000" fill-rule="evenodd" fill-opacity="1" /><path clip-path="url(#clip910)" d="M 0 0 M1851.95 27.2059 L1859.4 27.2059 L1859.4 72.576 L1851.95 72.576 L1851.95 27.2059 M1851.95 9.54393 L1859.4 9.54393 L1859.4 18.9825 L1851.95 18.9825 L1851.95 9.54393 Z" fill="#000000" fill-rule="evenodd" fill-opacity="1" /><path clip-path="url(#clip910)" d="M 0 0 M1892.58 32.4315 Q1886.58 32.4315 1883.1 37.1306 Q1879.62 41.7891 1879.62 49.9314 Q1879.62 58.0738 1883.06 62.7728 Q1886.54 67.4314 1892.58 67.4314 Q1898.53 67.4314 1902.02 62.7323 Q1905.5 58.0333 1905.5 49.9314 Q1905.5 41.8701 1902.02 37.1711 Q1898.53 32.4315 1892.58 32.4315 M1892.58 26.1121 Q1902.3 26.1121 1907.85 32.4315 Q1913.4 38.7509 1913.4 49.9314 Q1913.4 61.0714 1907.85 67.4314 Q1902.3 73.7508 1892.58 73.7508 Q1882.82 73.7508 1877.27 67.4314 Q1871.76 61.0714 1871.76 49.9314 Q1871.76 38.7509 1877.27 32.4315 Q1882.82 26.1121 1892.58 26.1121 Z" fill="#000000" fill-rule="evenodd" fill-opacity="1" /><path clip-path="url(#clip910)" d="M 0 0 M1963.47 45.1919 L1963.47 72.576 L1956.02 72.576 L1956.02 45.4349 Q1956.02 38.994 1953.5 35.7938 Q1950.99 32.5936 1945.97 32.5936 Q1939.93 32.5936 1936.45 36.4419 Q1932.97 40.2903 1932.97 46.9338 L1932.97 72.576 L1925.47 72.576 L1925.47 27.2059 L1932.97 27.2059 L1932.97 34.2544 Q1935.64 30.163 1939.24 28.1376 Q1942.89 26.1121 1947.63 26.1121 Q1955.45 26.1121 1959.46 30.9732 Q1963.47 35.7938 1963.47 45.1919 Z" fill="#000000" fill-rule="evenodd" fill-opacity="1" /><path clip-path="url(#clip910)" d="M 0 0 M2034.56 34.0924 L2034.56 9.54393 L2042.02 9.54393 L2042.02 72.576 L2034.56 72.576 L2034.56 65.7705 Q2032.21 69.8214 2028.61 71.8063 Q2025.04 73.7508 2020.02 73.7508 Q2011.8 73.7508 2006.61 67.1883 Q2001.47 60.6258 2001.47 49.9314 Q2001.47 39.2371 2006.61 32.6746 Q2011.8 26.1121 2020.02 26.1121 Q2025.04 26.1121 2028.61 28.0971 Q2032.21 30.0415 2034.56 34.0924 M2009.16 49.9314 Q2009.16 58.1548 2012.53 62.8538 Q2015.93 67.5124 2021.84 67.5124 Q2027.76 67.5124 2031.16 62.8538 Q2034.56 58.1548 2034.56 49.9314 Q2034.56 41.7081 2031.16 37.0496 Q2027.76 32.3505 2021.84 32.3505 Q2015.93 32.3505 2012.53 37.0496 Q2009.16 41.7081 2009.16 49.9314 Z" fill="#000000" fill-rule="evenodd" fill-opacity="1" /><path clip-path="url(#clip910)" d="M 0 0 M2057.37 27.2059 L2064.82 27.2059 L2064.82 72.576 L2057.37 72.576 L2057.37 27.2059 M2057.37 9.54393 L2064.82 9.54393 L2064.82 18.9825 L2057.37 18.9825 L2057.37 9.54393 Z" fill="#000000" fill-rule="evenodd" fill-opacity="1" /><path clip-path="url(#clip910)" d="M 0 0 M2109.34 28.5427 L2109.34 35.5912 Q2106.18 33.9709 2102.78 33.1607 Q2099.38 32.3505 2095.73 32.3505 Q2090.18 32.3505 2087.39 34.0519 Q2084.63 35.7533 2084.63 39.156 Q2084.63 41.7486 2086.62 43.2475 Q2088.6 44.7058 2094.6 46.0426 L2097.15 46.6097 Q2105.09 48.3111 2108.41 51.4303 Q2111.77 54.509 2111.77 60.0587 Q2111.77 66.3781 2106.75 70.0644 Q2101.77 73.7508 2093.02 73.7508 Q2089.37 73.7508 2085.4 73.0216 Q2081.47 72.3329 2077.1 70.9151 L2077.1 63.2184 Q2081.23 65.3654 2085.24 66.4591 Q2089.25 67.5124 2093.18 67.5124 Q2098.44 67.5124 2101.28 65.73 Q2104.12 63.9071 2104.12 60.6258 Q2104.12 57.5877 2102.05 55.9673 Q2100.02 54.3469 2093.1 52.8481 L2090.51 52.2405 Q2083.58 50.7821 2080.5 47.7845 Q2077.42 44.7463 2077.42 39.4801 Q2077.42 33.0797 2081.96 29.5959 Q2086.49 26.1121 2094.84 26.1121 Q2098.97 26.1121 2102.62 26.7198 Q2106.26 27.3274 2109.34 28.5427 Z" fill="#000000" fill-rule="evenodd" fill-opacity="1" /><path clip-path="url(#clip910)" d="M 0 0 M2131.01 14.324 L2131.01 27.2059 L2146.37 27.2059 L2146.37 32.9987 L2131.01 32.9987 L2131.01 57.6282 Q2131.01 63.1779 2132.51 64.7578 Q2134.05 66.3376 2138.71 66.3376 L2146.37 66.3376 L2146.37 72.576 L2138.71 72.576 Q2130.08 72.576 2126.8 69.3758 Q2123.52 66.1351 2123.52 57.6282 L2123.52 32.9987 L2118.05 32.9987 L2118.05 27.2059 L2123.52 27.2059 L2123.52 14.324 L2131.01 14.324 Z" fill="#000000" fill-rule="evenodd" fill-opacity="1" /><path clip-path="url(#clip910)" d="M 0 0 M2182.46 34.1734 Q2181.2 33.4443 2179.71 33.1202 Q2178.25 32.7556 2176.47 32.7556 Q2170.15 32.7556 2166.74 36.8875 Q2163.38 40.9789 2163.38 48.6757 L2163.38 72.576 L2155.89 72.576 L2155.89 27.2059 L2163.38 27.2059 L2163.38 34.2544 Q2165.73 30.1225 2169.5 28.1376 Q2173.27 26.1121 2178.65 26.1121 Q2179.42 26.1121 2180.35 26.2337 Q2181.29 26.3147 2182.42 26.5172 L2182.46 34.1734 Z" fill="#000000" fill-rule="evenodd" fill-opacity="1" /><path clip-path="url(#clip910)" d="M 0 0 M2190.28 27.2059 L2197.73 27.2059 L2197.73 72.576 L2190.28 72.576 L2190.28 27.2059 M2190.28 9.54393 L2197.73 9.54393 L2197.73 18.9825 L2190.28 18.9825 L2190.28 9.54393 Z" fill="#000000" fill-rule="evenodd" fill-opacity="1" /><path clip-path="url(#clip910)" d="M 0 0 M2245.9 49.9314 Q2245.9 41.7081 2242.5 37.0496 Q2239.13 32.3505 2233.22 32.3505 Q2227.3 32.3505 2223.9 37.0496 Q2220.54 41.7081 2220.54 49.9314 Q2220.54 58.1548 2223.9 62.8538 Q2227.3 67.5124 2233.22 67.5124 Q2239.13 67.5124 2242.5 62.8538 Q2245.9 58.1548 2245.9 49.9314 M2220.54 34.0924 Q2222.89 30.0415 2226.45 28.0971 Q2230.06 26.1121 2235.04 26.1121 Q2243.31 26.1121 2248.45 32.6746 Q2253.64 39.2371 2253.64 49.9314 Q2253.64 60.6258 2248.45 67.1883 Q2243.31 73.7508 2235.04 73.7508 Q2230.06 73.7508 2226.45 71.8063 Q2222.89 69.8214 2220.54 65.7705 L2220.54 72.576 L2213.04 72.576 L2213.04 9.54393 L2220.54 9.54393 L2220.54 34.0924 Z" fill="#000000" fill-rule="evenodd" fill-opacity="1" /><path clip-path="url(#clip910)" d="M 0 0 M2265.22 54.671 L2265.22 27.2059 L2272.67 27.2059 L2272.67 54.3874 Q2272.67 60.8284 2275.19 64.0691 Q2277.7 67.2693 2282.72 67.2693 Q2288.76 67.2693 2292.24 63.421 Q2295.76 59.5726 2295.76 52.9291 L2295.76 27.2059 L2303.22 27.2059 L2303.22 72.576 L2295.76 72.576 L2295.76 65.6084 Q2293.05 69.7404 2289.45 71.7658 Q2285.88 73.7508 2281.14 73.7508 Q2273.32 73.7508 2269.27 68.8897 Q2265.22 64.0286 2265.22 54.671 M2283.98 26.1121 L2283.98 26.1121 Z" fill="#000000" fill-rule="evenodd" fill-opacity="1" /><path clip-path="url(#clip910)" d="M 0 0 M2325.94 14.324 L2325.94 27.2059 L2341.3 27.2059 L2341.3 32.9987 L2325.94 32.9987 L2325.94 57.6282 Q2325.94 63.1779 2327.44 64.7578 Q2328.98 66.3376 2333.64 66.3376 L2341.3 66.3376 L2341.3 72.576 L2333.64 72.576 Q2325.01 72.576 2321.73 69.3758 Q2318.45 66.1351 2318.45 57.6282 L2318.45 32.9987 L2312.98 32.9987 L2312.98 27.2059 L2318.45 27.2059 L2318.45 14.324 L2325.94 14.324 Z" fill="#000000" fill-rule="evenodd" fill-opacity="1" /><path clip-path="url(#clip910)" d="M 0 0 M2351.1 27.2059 L2358.55 27.2059 L2358.55 72.576 L2351.1 72.576 L2351.1 27.2059 M2351.1 9.54393 L2358.55 9.54393 L2358.55 18.9825 L2351.1 18.9825 L2351.1 9.54393 Z" fill="#000000" fill-rule="evenodd" fill-opacity="1" /><path clip-path="url(#clip910)" d="M 0 0 M2391.73 32.4315 Q2385.74 32.4315 2382.25 37.1306 Q2378.77 41.7891 2378.77 49.9314 Q2378.77 58.0738 2382.21 62.7728 Q2385.69 67.4314 2391.73 67.4314 Q2397.69 67.4314 2401.17 62.7323 Q2404.65 58.0333 2404.65 49.9314 Q2404.65 41.8701 2401.17 37.1711 Q2397.69 32.4315 2391.73 32.4315 M2391.73 26.1121 Q2401.45 26.1121 2407 32.4315 Q2412.55 38.7509 2412.55 49.9314 Q2412.55 61.0714 2407 67.4314 Q2401.45 73.7508 2391.73 73.7508 Q2381.97 73.7508 2376.42 67.4314 Q2370.91 61.0714 2370.91 49.9314 Q2370.91 38.7509 2376.42 32.4315 Q2381.97 26.1121 2391.73 26.1121 Z" fill="#000000" fill-rule="evenodd" fill-opacity="1" /><path clip-path="url(#clip910)" d="M 0 0 M2462.62 45.1919 L2462.62 72.576 L2455.17 72.576 L2455.17 45.4349 Q2455.17 38.994 2452.66 35.7938 Q2450.14 32.5936 2445.12 32.5936 Q2439.09 32.5936 2435.6 36.4419 Q2432.12 40.2903 2432.12 46.9338 L2432.12 72.576 L2424.62 72.576 L2424.62 27.2059 L2432.12 27.2059 L2432.12 34.2544 Q2434.79 30.163 2438.4 28.1376 Q2442.04 26.1121 2446.78 26.1121 Q2454.6 26.1121 2458.61 30.9732 Q2462.62 35.7938 2462.62 45.1919 Z" fill="#000000" fill-rule="evenodd" fill-opacity="1" /><path clip-path="url(#clip912)" d="
M340.799 364.245 L340.799 1828.03 L466.841 1828.03 L466.841 364.245 L340.799 364.245 L340.799 364.245  Z
  " fill="#00ffff" fill-rule="evenodd" fill-opacity="0.7"/>
<polyline clip-path="url(#clip912)" style="stroke:#000000; stroke-width:4; stroke-opacity:0.7; fill:none" points="
  340.799,364.245 340.799,1828.03 466.841,1828.03 466.841,364.245 340.799,364.245 
  "/>
<path clip-path="url(#clip912)" d="
M466.841 1167.89 L466.841 1828.03 L592.883 1828.03 L592.883 1167.89 L466.841 1167.89 L466.841 1167.89  Z
  " fill="#00ffff" fill-rule="evenodd" fill-opacity="0.7"/>
<polyline clip-path="url(#clip912)" style="stroke:#000000; stroke-width:4; stroke-opacity:0.7; fill:none" points="
  466.841,1167.89 466.841,1828.03 592.883,1828.03 592.883,1167.89 466.841,1167.89 
  "/>
<path clip-path="url(#clip912)" d="
M592.883 1282.7 L592.883 1828.03 L718.925 1828.03 L718.925 1282.7 L592.883 1282.7 L592.883 1282.7  Z
  " fill="#00ffff" fill-rule="evenodd" fill-opacity="0.7"/>
<polyline clip-path="url(#clip912)" style="stroke:#000000; stroke-width:4; stroke-opacity:0.7; fill:none" points="
  592.883,1282.7 592.883,1828.03 718.925,1828.03 718.925,1282.7 592.883,1282.7 
  "/>
<path clip-path="url(#clip912)" d="
M718.925 1483.61 L718.925 1828.03 L844.967 1828.03 L844.967 1483.61 L718.925 1483.61 L718.925 1483.61  Z
  " fill="#00ffff" fill-rule="evenodd" fill-opacity="0.7"/>
<polyline clip-path="url(#clip912)" style="stroke:#000000; stroke-width:4; stroke-opacity:0.7; fill:none" points="
  718.925,1483.61 718.925,1828.03 844.967,1828.03 844.967,1483.61 718.925,1483.61 
  "/>
<path clip-path="url(#clip912)" d="
M844.967 1512.31 L844.967 1828.03 L971.009 1828.03 L971.009 1512.31 L844.967 1512.31 L844.967 1512.31  Z
  " fill="#00ffff" fill-rule="evenodd" fill-opacity="0.7"/>
<polyline clip-path="url(#clip912)" style="stroke:#000000; stroke-width:4; stroke-opacity:0.7; fill:none" points="
  844.967,1512.31 844.967,1828.03 971.009,1828.03 971.009,1512.31 844.967,1512.31 
  "/>
<path clip-path="url(#clip912)" d="
M971.009 1684.52 L971.009 1828.03 L1097.05 1828.03 L1097.05 1684.52 L971.009 1684.52 L971.009 1684.52  Z
  " fill="#00ffff" fill-rule="evenodd" fill-opacity="0.7"/>
<polyline clip-path="url(#clip912)" style="stroke:#000000; stroke-width:4; stroke-opacity:0.7; fill:none" points="
  971.009,1684.52 971.009,1828.03 1097.05,1828.03 1097.05,1684.52 971.009,1684.52 
  "/>
<path clip-path="url(#clip912)" d="
M1097.05 1598.42 L1097.05 1828.03 L1223.09 1828.03 L1223.09 1598.42 L1097.05 1598.42 L1097.05 1598.42  Z
  " fill="#00ffff" fill-rule="evenodd" fill-opacity="0.7"/>
<polyline clip-path="url(#clip912)" style="stroke:#000000; stroke-width:4; stroke-opacity:0.7; fill:none" points="
  1097.05,1598.42 1097.05,1828.03 1223.09,1828.03 1223.09,1598.42 1097.05,1598.42 
  "/>
<path clip-path="url(#clip912)" d="
M1223.09 1713.22 L1223.09 1828.03 L1349.14 1828.03 L1349.14 1713.22 L1223.09 1713.22 L1223.09 1713.22  Z
  " fill="#00ffff" fill-rule="evenodd" fill-opacity="0.7"/>
<polyline clip-path="url(#clip912)" style="stroke:#000000; stroke-width:4; stroke-opacity:0.7; fill:none" points="
  1223.09,1713.22 1223.09,1828.03 1349.14,1828.03 1349.14,1713.22 1223.09,1713.22 
  "/>
<path clip-path="url(#clip912)" d="
M1349.14 1655.82 L1349.14 1828.03 L1475.18 1828.03 L1475.18 1655.82 L1349.14 1655.82 L1349.14 1655.82  Z
  " fill="#00ffff" fill-rule="evenodd" fill-opacity="0.7"/>
<polyline clip-path="url(#clip912)" style="stroke:#000000; stroke-width:4; stroke-opacity:0.7; fill:none" points="
  1349.14,1655.82 1349.14,1828.03 1475.18,1828.03 1475.18,1655.82 1349.14,1655.82 
  "/>
<path clip-path="url(#clip912)" d="
M1475.18 1684.52 L1475.18 1828.03 L1601.22 1828.03 L1601.22 1684.52 L1475.18 1684.52 L1475.18 1684.52  Z
  " fill="#00ffff" fill-rule="evenodd" fill-opacity="0.7"/>
<polyline clip-path="url(#clip912)" style="stroke:#000000; stroke-width:4; stroke-opacity:0.7; fill:none" points="
  1475.18,1684.52 1475.18,1828.03 1601.22,1828.03 1601.22,1684.52 1475.18,1684.52 
  "/>
<path clip-path="url(#clip912)" d="
M1601.22 1627.12 L1601.22 1828.03 L1727.26 1828.03 L1727.26 1627.12 L1601.22 1627.12 L1601.22 1627.12  Z
  " fill="#00ffff" fill-rule="evenodd" fill-opacity="0.7"/>
<polyline clip-path="url(#clip912)" style="stroke:#000000; stroke-width:4; stroke-opacity:0.7; fill:none" points="
  1601.22,1627.12 1601.22,1828.03 1727.26,1828.03 1727.26,1627.12 1601.22,1627.12 
  "/>
<path clip-path="url(#clip912)" d="
M1727.26 1828.03 L1727.26 1828.03 L1853.3 1828.03 L1853.3 1828.03 L1727.26 1828.03 L1727.26 1828.03  Z
  " fill="#00ffff" fill-rule="evenodd" fill-opacity="0.7"/>
<polyline clip-path="url(#clip912)" style="stroke:#000000; stroke-width:4; stroke-opacity:0.7; fill:none" points="
  1727.26,1828.03 1727.26,1828.03 1853.3,1828.03 1727.26,1828.03 
  "/>
<path clip-path="url(#clip912)" d="
M1853.3 1770.63 L1853.3 1828.03 L1979.35 1828.03 L1979.35 1770.63 L1853.3 1770.63 L1853.3 1770.63  Z
  " fill="#00ffff" fill-rule="evenodd" fill-opacity="0.7"/>
<polyline clip-path="url(#clip912)" style="stroke:#000000; stroke-width:4; stroke-opacity:0.7; fill:none" points="
  1853.3,1770.63 1853.3,1828.03 1979.35,1828.03 1979.35,1770.63 1853.3,1770.63 
  "/>
<path clip-path="url(#clip912)" d="
M1979.35 1828.03 L1979.35 1828.03 L2105.39 1828.03 L2105.39 1828.03 L1979.35 1828.03 L1979.35 1828.03  Z
  " fill="#00ffff" fill-rule="evenodd" fill-opacity="0.7"/>
<polyline clip-path="url(#clip912)" style="stroke:#000000; stroke-width:4; stroke-opacity:0.7; fill:none" points="
  1979.35,1828.03 1979.35,1828.03 2105.39,1828.03 1979.35,1828.03 
  "/>
<path clip-path="url(#clip912)" d="
M2105.39 1799.33 L2105.39 1828.03 L2231.43 1828.03 L2231.43 1799.33 L2105.39 1799.33 L2105.39 1799.33  Z
  " fill="#00ffff" fill-rule="evenodd" fill-opacity="0.7"/>
<polyline clip-path="url(#clip912)" style="stroke:#000000; stroke-width:4; stroke-opacity:0.7; fill:none" points="
  2105.39,1799.33 2105.39,1828.03 2231.43,1828.03 2231.43,1799.33 2105.39,1799.33 
  "/>
<path clip-path="url(#clip912)" d="
M2231.43 1799.33 L2231.43 1828.03 L2357.47 1828.03 L2357.47 1799.33 L2231.43 1799.33 L2231.43 1799.33  Z
  " fill="#00ffff" fill-rule="evenodd" fill-opacity="0.7"/>
<polyline clip-path="url(#clip912)" style="stroke:#000000; stroke-width:4; stroke-opacity:0.7; fill:none" points="
  2231.43,1799.33 2231.43,1828.03 2357.47,1828.03 2357.47,1799.33 2231.43,1799.33 
  "/>
<path clip-path="url(#clip912)" d="
M2357.47 1828.03 L2357.47 1828.03 L2483.52 1828.03 L2483.52 1828.03 L2357.47 1828.03 L2357.47 1828.03  Z
  " fill="#00ffff" fill-rule="evenodd" fill-opacity="0.7"/>
<polyline clip-path="url(#clip912)" style="stroke:#000000; stroke-width:4; stroke-opacity:0.7; fill:none" points="
  2357.47,1828.03 2357.47,1828.03 2483.52,1828.03 2357.47,1828.03 
  "/>
<path clip-path="url(#clip912)" d="
M2483.52 1828.03 L2483.52 1828.03 L2609.56 1828.03 L2609.56 1828.03 L2483.52 1828.03 L2483.52 1828.03  Z
  " fill="#00ffff" fill-rule="evenodd" fill-opacity="0.7"/>
<polyline clip-path="url(#clip912)" style="stroke:#000000; stroke-width:4; stroke-opacity:0.7; fill:none" points="
  2483.52,1828.03 2483.52,1828.03 2609.56,1828.03 2483.52,1828.03 
  "/>
<path clip-path="url(#clip912)" d="
M2609.56 1741.93 L2609.56 1828.03 L2735.6 1828.03 L2735.6 1741.93 L2609.56 1741.93 L2609.56 1741.93  Z
  " fill="#00ffff" fill-rule="evenodd" fill-opacity="0.7"/>
<polyline clip-path="url(#clip912)" style="stroke:#000000; stroke-width:4; stroke-opacity:0.7; fill:none" points="
  2609.56,1741.93 2609.56,1828.03 2735.6,1828.03 2735.6,1741.93 2609.56,1741.93 
  "/>
<path clip-path="url(#clip912)" d="
M2735.6 1799.33 L2735.6 1828.03 L2861.64 1828.03 L2861.64 1799.33 L2735.6 1799.33 L2735.6 1799.33  Z
  " fill="#00ffff" fill-rule="evenodd" fill-opacity="0.7"/>
<polyline clip-path="url(#clip912)" style="stroke:#000000; stroke-width:4; stroke-opacity:0.7; fill:none" points="
  2735.6,1799.33 2735.6,1828.03 2861.64,1828.03 2861.64,1799.33 2735.6,1799.33 
  "/>
<path clip-path="url(#clip912)" d="
M2861.64 1770.63 L2861.64 1828.03 L2987.68 1828.03 L2987.68 1770.63 L2861.64 1770.63 L2861.64 1770.63  Z
  " fill="#00ffff" fill-rule="evenodd" fill-opacity="0.7"/>
<polyline clip-path="url(#clip912)" style="stroke:#000000; stroke-width:4; stroke-opacity:0.7; fill:none" points="
  2861.64,1770.63 2861.64,1828.03 2987.68,1828.03 2987.68,1770.63 2861.64,1770.63 
  "/>
<path clip-path="url(#clip912)" d="
M2987.68 1770.63 L2987.68 1828.03 L3113.73 1828.03 L3113.73 1770.63 L2987.68 1770.63 L2987.68 1770.63  Z
  " fill="#00ffff" fill-rule="evenodd" fill-opacity="0.7"/>
<polyline clip-path="url(#clip912)" style="stroke:#000000; stroke-width:4; stroke-opacity:0.7; fill:none" points="
  2987.68,1770.63 2987.68,1828.03 3113.73,1828.03 3113.73,1770.63 2987.68,1770.63 
  "/>
<path clip-path="url(#clip912)" d="
M3113.73 1770.63 L3113.73 1828.03 L3239.77 1828.03 L3239.77 1770.63 L3113.73 1770.63 L3113.73 1770.63  Z
  " fill="#00ffff" fill-rule="evenodd" fill-opacity="0.7"/>
<polyline clip-path="url(#clip912)" style="stroke:#000000; stroke-width:4; stroke-opacity:0.7; fill:none" points="
  3113.73,1770.63 3113.73,1828.03 3239.77,1828.03 3239.77,1770.63 3113.73,1770.63 
  "/>
<path clip-path="url(#clip912)" d="
M3239.77 1799.33 L3239.77 1828.03 L3365.81 1828.03 L3365.81 1799.33 L3239.77 1799.33 L3239.77 1799.33  Z
  " fill="#00ffff" fill-rule="evenodd" fill-opacity="0.7"/>
<polyline clip-path="url(#clip912)" style="stroke:#000000; stroke-width:4; stroke-opacity:0.7; fill:none" points="
  3239.77,1799.33 3239.77,1828.03 3365.81,1828.03 3365.81,1799.33 3239.77,1799.33 
  "/>
<path clip-path="url(#clip912)" d="
M340.799 163.333 L340.799 1828.03 L466.841 1828.03 L466.841 163.333 L340.799 163.333 L340.799 163.333  Z
  " fill="#ffa500" fill-rule="evenodd" fill-opacity="0.7"/>
<polyline clip-path="url(#clip912)" style="stroke:#000000; stroke-width:4; stroke-opacity:0.7; fill:none" points="
  340.799,163.333 340.799,1828.03 466.841,1828.03 466.841,163.333 340.799,163.333 
  "/>
<path clip-path="url(#clip912)" d="
M466.841 679.963 L466.841 1828.03 L592.883 1828.03 L592.883 679.963 L466.841 679.963 L466.841 679.963  Z
  " fill="#ffa500" fill-rule="evenodd" fill-opacity="0.7"/>
<polyline clip-path="url(#clip912)" style="stroke:#000000; stroke-width:4; stroke-opacity:0.7; fill:none" points="
  466.841,679.963 466.841,1828.03 592.883,1828.03 592.883,679.963 466.841,679.963 
  "/>
<path clip-path="url(#clip912)" d="
M592.883 1454.91 L592.883 1828.03 L718.925 1828.03 L718.925 1454.91 L592.883 1454.91 L592.883 1454.91  Z
  " fill="#ffa500" fill-rule="evenodd" fill-opacity="0.7"/>
<polyline clip-path="url(#clip912)" style="stroke:#000000; stroke-width:4; stroke-opacity:0.7; fill:none" points="
  592.883,1454.91 592.883,1828.03 718.925,1828.03 718.925,1454.91 592.883,1454.91 
  "/>
<path clip-path="url(#clip912)" d="
M718.925 1311.4 L718.925 1828.03 L844.967 1828.03 L844.967 1311.4 L718.925 1311.4 L718.925 1311.4  Z
  " fill="#ffa500" fill-rule="evenodd" fill-opacity="0.7"/>
<polyline clip-path="url(#clip912)" style="stroke:#000000; stroke-width:4; stroke-opacity:0.7; fill:none" points="
  718.925,1311.4 718.925,1828.03 844.967,1828.03 844.967,1311.4 718.925,1311.4 
  "/>
<path clip-path="url(#clip912)" d="
M844.967 1541.01 L844.967 1828.03 L971.009 1828.03 L971.009 1541.01 L844.967 1541.01 L844.967 1541.01  Z
  " fill="#ffa500" fill-rule="evenodd" fill-opacity="0.7"/>
<polyline clip-path="url(#clip912)" style="stroke:#000000; stroke-width:4; stroke-opacity:0.7; fill:none" points="
  844.967,1541.01 844.967,1828.03 971.009,1828.03 971.009,1541.01 844.967,1541.01 
  "/>
<path clip-path="url(#clip912)" d="
M971.009 1512.31 L971.009 1828.03 L1097.05 1828.03 L1097.05 1512.31 L971.009 1512.31 L971.009 1512.31  Z
  " fill="#ffa500" fill-rule="evenodd" fill-opacity="0.7"/>
<polyline clip-path="url(#clip912)" style="stroke:#000000; stroke-width:4; stroke-opacity:0.7; fill:none" points="
  971.009,1512.31 971.009,1828.03 1097.05,1828.03 1097.05,1512.31 971.009,1512.31 
  "/>
<path clip-path="url(#clip912)" d="
M1097.05 1627.12 L1097.05 1828.03 L1223.09 1828.03 L1223.09 1627.12 L1097.05 1627.12 L1097.05 1627.12  Z
  " fill="#ffa500" fill-rule="evenodd" fill-opacity="0.7"/>
<polyline clip-path="url(#clip912)" style="stroke:#000000; stroke-width:4; stroke-opacity:0.7; fill:none" points="
  1097.05,1627.12 1097.05,1828.03 1223.09,1828.03 1223.09,1627.12 1097.05,1627.12 
  "/>
<path clip-path="url(#clip912)" d="
M1223.09 1569.72 L1223.09 1828.03 L1349.14 1828.03 L1349.14 1569.72 L1223.09 1569.72 L1223.09 1569.72  Z
  " fill="#ffa500" fill-rule="evenodd" fill-opacity="0.7"/>
<polyline clip-path="url(#clip912)" style="stroke:#000000; stroke-width:4; stroke-opacity:0.7; fill:none" points="
  1223.09,1569.72 1223.09,1828.03 1349.14,1828.03 1349.14,1569.72 1223.09,1569.72 
  "/>
<path clip-path="url(#clip912)" d="
M1349.14 1828.03 L1349.14 1828.03 L1475.18 1828.03 L1475.18 1828.03 L1349.14 1828.03 L1349.14 1828.03  Z
  " fill="#ffa500" fill-rule="evenodd" fill-opacity="0.7"/>
<polyline clip-path="url(#clip912)" style="stroke:#000000; stroke-width:4; stroke-opacity:0.7; fill:none" points="
  1349.14,1828.03 1349.14,1828.03 1475.18,1828.03 1349.14,1828.03 
  "/>
<path clip-path="url(#clip912)" d="
M1475.18 1713.22 L1475.18 1828.03 L1601.22 1828.03 L1601.22 1713.22 L1475.18 1713.22 L1475.18 1713.22  Z
  " fill="#ffa500" fill-rule="evenodd" fill-opacity="0.7"/>
<polyline clip-path="url(#clip912)" style="stroke:#000000; stroke-width:4; stroke-opacity:0.7; fill:none" points="
  1475.18,1713.22 1475.18,1828.03 1601.22,1828.03 1601.22,1713.22 1475.18,1713.22 
  "/>
<path clip-path="url(#clip912)" d="
M1601.22 1770.63 L1601.22 1828.03 L1727.26 1828.03 L1727.26 1770.63 L1601.22 1770.63 L1601.22 1770.63  Z
  " fill="#ffa500" fill-rule="evenodd" fill-opacity="0.7"/>
<polyline clip-path="url(#clip912)" style="stroke:#000000; stroke-width:4; stroke-opacity:0.7; fill:none" points="
  1601.22,1770.63 1601.22,1828.03 1727.26,1828.03 1727.26,1770.63 1601.22,1770.63 
  "/>
<path clip-path="url(#clip912)" d="
M1727.26 1828.03 L1727.26 1828.03 L1853.3 1828.03 L1853.3 1828.03 L1727.26 1828.03 L1727.26 1828.03  Z
  " fill="#ffa500" fill-rule="evenodd" fill-opacity="0.7"/>
<polyline clip-path="url(#clip912)" style="stroke:#000000; stroke-width:4; stroke-opacity:0.7; fill:none" points="
  1727.26,1828.03 1727.26,1828.03 1853.3,1828.03 1727.26,1828.03 
  "/>
<path clip-path="url(#clip912)" d="
M1853.3 1799.33 L1853.3 1828.03 L1979.35 1828.03 L1979.35 1799.33 L1853.3 1799.33 L1853.3 1799.33  Z
  " fill="#ffa500" fill-rule="evenodd" fill-opacity="0.7"/>
<polyline clip-path="url(#clip912)" style="stroke:#000000; stroke-width:4; stroke-opacity:0.7; fill:none" points="
  1853.3,1799.33 1853.3,1828.03 1979.35,1828.03 1979.35,1799.33 1853.3,1799.33 
  "/>
<path clip-path="url(#clip912)" d="
M1979.35 1713.22 L1979.35 1828.03 L2105.39 1828.03 L2105.39 1713.22 L1979.35 1713.22 L1979.35 1713.22  Z
  " fill="#ffa500" fill-rule="evenodd" fill-opacity="0.7"/>
<polyline clip-path="url(#clip912)" style="stroke:#000000; stroke-width:4; stroke-opacity:0.7; fill:none" points="
  1979.35,1713.22 1979.35,1828.03 2105.39,1828.03 2105.39,1713.22 1979.35,1713.22 
  "/>
<path clip-path="url(#clip912)" d="
M2105.39 1741.93 L2105.39 1828.03 L2231.43 1828.03 L2231.43 1741.93 L2105.39 1741.93 L2105.39 1741.93  Z
  " fill="#ffa500" fill-rule="evenodd" fill-opacity="0.7"/>
<polyline clip-path="url(#clip912)" style="stroke:#000000; stroke-width:4; stroke-opacity:0.7; fill:none" points="
  2105.39,1741.93 2105.39,1828.03 2231.43,1828.03 2231.43,1741.93 2105.39,1741.93 
  "/>
<path clip-path="url(#clip912)" d="
M2231.43 1770.63 L2231.43 1828.03 L2357.47 1828.03 L2357.47 1770.63 L2231.43 1770.63 L2231.43 1770.63  Z
  " fill="#ffa500" fill-rule="evenodd" fill-opacity="0.7"/>
<polyline clip-path="url(#clip912)" style="stroke:#000000; stroke-width:4; stroke-opacity:0.7; fill:none" points="
  2231.43,1770.63 2231.43,1828.03 2357.47,1828.03 2357.47,1770.63 2231.43,1770.63 
  "/>
<path clip-path="url(#clip912)" d="
M2357.47 1828.03 L2357.47 1828.03 L2483.52 1828.03 L2483.52 1828.03 L2357.47 1828.03 L2357.47 1828.03  Z
  " fill="#ffa500" fill-rule="evenodd" fill-opacity="0.7"/>
<polyline clip-path="url(#clip912)" style="stroke:#000000; stroke-width:4; stroke-opacity:0.7; fill:none" points="
  2357.47,1828.03 2357.47,1828.03 2483.52,1828.03 2357.47,1828.03 
  "/>
<path clip-path="url(#clip912)" d="
M2483.52 1770.63 L2483.52 1828.03 L2609.56 1828.03 L2609.56 1770.63 L2483.52 1770.63 L2483.52 1770.63  Z
  " fill="#ffa500" fill-rule="evenodd" fill-opacity="0.7"/>
<polyline clip-path="url(#clip912)" style="stroke:#000000; stroke-width:4; stroke-opacity:0.7; fill:none" points="
  2483.52,1770.63 2483.52,1828.03 2609.56,1828.03 2609.56,1770.63 2483.52,1770.63 
  "/>
<path clip-path="url(#clip912)" d="
M2609.56 1770.63 L2609.56 1828.03 L2735.6 1828.03 L2735.6 1770.63 L2609.56 1770.63 L2609.56 1770.63  Z
  " fill="#ffa500" fill-rule="evenodd" fill-opacity="0.7"/>
<polyline clip-path="url(#clip912)" style="stroke:#000000; stroke-width:4; stroke-opacity:0.7; fill:none" points="
  2609.56,1770.63 2609.56,1828.03 2735.6,1828.03 2735.6,1770.63 2609.56,1770.63 
  "/>
<path clip-path="url(#clip912)" d="
M2735.6 1799.33 L2735.6 1828.03 L2861.64 1828.03 L2861.64 1799.33 L2735.6 1799.33 L2735.6 1799.33  Z
  " fill="#ffa500" fill-rule="evenodd" fill-opacity="0.7"/>
<polyline clip-path="url(#clip912)" style="stroke:#000000; stroke-width:4; stroke-opacity:0.7; fill:none" points="
  2735.6,1799.33 2735.6,1828.03 2861.64,1828.03 2861.64,1799.33 2735.6,1799.33 
  "/>
<path clip-path="url(#clip912)" d="
M2861.64 1828.03 L2861.64 1828.03 L2987.68 1828.03 L2987.68 1828.03 L2861.64 1828.03 L2861.64 1828.03  Z
  " fill="#ffa500" fill-rule="evenodd" fill-opacity="0.7"/>
<polyline clip-path="url(#clip912)" style="stroke:#000000; stroke-width:4; stroke-opacity:0.7; fill:none" points="
  2861.64,1828.03 2861.64,1828.03 2987.68,1828.03 2861.64,1828.03 
  "/>
<path clip-path="url(#clip912)" d="
M2987.68 1828.03 L2987.68 1828.03 L3113.73 1828.03 L3113.73 1828.03 L2987.68 1828.03 L2987.68 1828.03  Z
  " fill="#ffa500" fill-rule="evenodd" fill-opacity="0.7"/>
<polyline clip-path="url(#clip912)" style="stroke:#000000; stroke-width:4; stroke-opacity:0.7; fill:none" points="
  2987.68,1828.03 2987.68,1828.03 3113.73,1828.03 2987.68,1828.03 
  "/>
<path clip-path="url(#clip912)" d="
M3113.73 1828.03 L3113.73 1828.03 L3239.77 1828.03 L3239.77 1828.03 L3113.73 1828.03 L3113.73 1828.03  Z
  " fill="#ffa500" fill-rule="evenodd" fill-opacity="0.7"/>
<polyline clip-path="url(#clip912)" style="stroke:#000000; stroke-width:4; stroke-opacity:0.7; fill:none" points="
  3113.73,1828.03 3113.73,1828.03 3239.77,1828.03 3113.73,1828.03 
  "/>
<path clip-path="url(#clip912)" d="
M3239.77 1799.33 L3239.77 1828.03 L3365.81 1828.03 L3365.81 1799.33 L3239.77 1799.33 L3239.77 1799.33  Z
  " fill="#ffa500" fill-rule="evenodd" fill-opacity="0.7"/>
<polyline clip-path="url(#clip912)" style="stroke:#000000; stroke-width:4; stroke-opacity:0.7; fill:none" points="
  3239.77,1799.33 3239.77,1828.03 3365.81,1828.03 3365.81,1799.33 3239.77,1799.33 
  "/>
<path clip-path="url(#clip910)" d="
M2695.42 353.651 L3439.46 353.651 L3439.46 172.211 L2695.42 172.211  Z
  " fill="#ffffff" fill-rule="evenodd" fill-opacity="1"/>
<polyline clip-path="url(#clip910)" style="stroke:#000000; stroke-width:4; stroke-opacity:1; fill:none" points="
  2695.42,353.651 3439.46,353.651 3439.46,172.211 2695.42,172.211 2695.42,353.651 
  "/>
<path clip-path="url(#clip910)" d="
M2733.18 256.883 L2959.78 256.883 L2959.78 208.499 L2733.18 208.499 L2733.18 256.883  Z
  " fill="#00ffff" fill-rule="evenodd" fill-opacity="0.7"/>
<polyline clip-path="url(#clip910)" style="stroke:#000000; stroke-width:4; stroke-opacity:1; fill:none" points="
  2733.18,256.883 2959.78,256.883 2959.78,208.499 2733.18,208.499 2733.18,256.883 
  "/>
<path clip-path="url(#clip910)" d="M 0 0 M3013.93 233.768 Q3015.43 234.277 3016.85 235.944 Q3018.28 237.61 3019.72 240.527 L3024.46 249.971 L3019.44 249.971 L3015.02 241.106 Q3013.3 237.634 3011.68 236.499 Q3010.09 235.365 3007.31 235.365 L3002.22 235.365 L3002.22 249.971 L2997.54 249.971 L2997.54 215.411 L3008.1 215.411 Q3014.02 215.411 3016.94 217.888 Q3019.86 220.365 3019.86 225.365 Q3019.86 228.629 3018.33 230.782 Q3016.82 232.935 3013.93 233.768 M3002.22 219.254 L3002.22 231.522 L3008.1 231.522 Q3011.48 231.522 3013.19 229.972 Q3014.93 228.397 3014.93 225.365 Q3014.93 222.333 3013.19 220.805 Q3011.48 219.254 3008.1 219.254 L3002.22 219.254 Z" fill="#000000" fill-rule="evenodd" fill-opacity="1" /><path clip-path="url(#clip910)" d="M 0 0 M3050.34 235.944 L3050.34 238.027 L3030.76 238.027 Q3031.04 242.425 3033.4 244.74 Q3035.78 247.032 3040.02 247.032 Q3042.47 247.032 3044.76 246.43 Q3047.08 245.828 3049.35 244.624 L3049.35 248.652 Q3047.05 249.624 3044.65 250.133 Q3042.24 250.643 3039.76 250.643 Q3033.56 250.643 3029.93 247.032 Q3026.31 243.421 3026.31 237.263 Q3026.31 230.897 3029.74 227.171 Q3033.19 223.421 3039.02 223.421 Q3044.25 223.421 3047.29 226.8 Q3050.34 230.157 3050.34 235.944 M3046.08 234.694 Q3046.04 231.198 3044.11 229.115 Q3042.22 227.032 3039.07 227.032 Q3035.5 227.032 3033.35 229.046 Q3031.22 231.06 3030.9 234.717 L3046.08 234.694 Z" fill="#000000" fill-rule="evenodd" fill-opacity="1" /><path clip-path="url(#clip910)" d="M 0 0 M3069.11 236.939 Q3063.95 236.939 3061.96 238.12 Q3059.97 239.3 3059.97 242.147 Q3059.97 244.416 3061.45 245.759 Q3062.96 247.078 3065.53 247.078 Q3069.07 247.078 3071.2 244.578 Q3073.35 242.055 3073.35 237.888 L3073.35 236.939 L3069.11 236.939 M3077.61 235.18 L3077.61 249.971 L3073.35 249.971 L3073.35 246.036 Q3071.89 248.397 3069.72 249.532 Q3067.54 250.643 3064.39 250.643 Q3060.41 250.643 3058.05 248.421 Q3055.71 246.175 3055.71 242.425 Q3055.71 238.05 3058.63 235.828 Q3061.57 233.606 3067.38 233.606 L3073.35 233.606 L3073.35 233.189 Q3073.35 230.249 3071.41 228.652 Q3069.49 227.032 3065.99 227.032 Q3063.77 227.032 3061.66 227.564 Q3059.55 228.097 3057.61 229.161 L3057.61 225.226 Q3059.95 224.323 3062.15 223.884 Q3064.35 223.421 3066.43 223.421 Q3072.05 223.421 3074.83 226.337 Q3077.61 229.254 3077.61 235.18 Z" fill="#000000" fill-rule="evenodd" fill-opacity="1" /><path clip-path="url(#clip910)" d="M 0 0 M3086.38 213.953 L3090.64 213.953 L3090.64 249.971 L3086.38 249.971 L3086.38 213.953 Z" fill="#000000" fill-rule="evenodd" fill-opacity="1" /><path clip-path="url(#clip910)" d="M 0 0 M3131.68 227.981 L3131.68 213.953 L3135.94 213.953 L3135.94 249.971 L3131.68 249.971 L3131.68 246.083 Q3130.34 248.397 3128.28 249.532 Q3126.24 250.643 3123.37 250.643 Q3118.67 250.643 3115.71 246.893 Q3112.77 243.143 3112.77 237.032 Q3112.77 230.921 3115.71 227.171 Q3118.67 223.421 3123.37 223.421 Q3126.24 223.421 3128.28 224.555 Q3130.34 225.666 3131.68 227.981 M3117.17 237.032 Q3117.17 241.731 3119.09 244.416 Q3121.04 247.078 3124.42 247.078 Q3127.79 247.078 3129.74 244.416 Q3131.68 241.731 3131.68 237.032 Q3131.68 232.333 3129.74 229.671 Q3127.79 226.985 3124.42 226.985 Q3121.04 226.985 3119.09 229.671 Q3117.17 232.333 3117.17 237.032 Z" fill="#000000" fill-rule="evenodd" fill-opacity="1" /><path clip-path="url(#clip910)" d="M 0 0 M3156.5 236.939 Q3151.34 236.939 3149.35 238.12 Q3147.36 239.3 3147.36 242.147 Q3147.36 244.416 3148.84 245.759 Q3150.34 247.078 3152.91 247.078 Q3156.45 247.078 3158.58 244.578 Q3160.73 242.055 3160.73 237.888 L3160.73 236.939 L3156.5 236.939 M3164.99 235.18 L3164.99 249.971 L3160.73 249.971 L3160.73 246.036 Q3159.28 248.397 3157.1 249.532 Q3154.92 250.643 3151.78 250.643 Q3147.79 250.643 3145.43 248.421 Q3143.1 246.175 3143.1 242.425 Q3143.1 238.05 3146.01 235.828 Q3148.95 233.606 3154.76 233.606 L3160.73 233.606 L3160.73 233.189 Q3160.73 230.249 3158.79 228.652 Q3156.87 227.032 3153.37 227.032 Q3151.15 227.032 3149.04 227.564 Q3146.94 228.097 3144.99 229.161 L3144.99 225.226 Q3147.33 224.323 3149.53 223.884 Q3151.73 223.421 3153.81 223.421 Q3159.44 223.421 3162.22 226.337 Q3164.99 229.254 3164.99 235.18 Z" fill="#000000" fill-rule="evenodd" fill-opacity="1" /><path clip-path="url(#clip910)" d="M 0 0 M3177.98 216.685 L3177.98 224.046 L3186.75 224.046 L3186.75 227.356 L3177.98 227.356 L3177.98 241.43 Q3177.98 244.601 3178.84 245.504 Q3179.72 246.407 3182.38 246.407 L3186.75 246.407 L3186.75 249.971 L3182.38 249.971 Q3177.45 249.971 3175.57 248.143 Q3173.7 246.291 3173.7 241.43 L3173.7 227.356 L3170.57 227.356 L3170.57 224.046 L3173.7 224.046 L3173.7 216.685 L3177.98 216.685 Z" fill="#000000" fill-rule="evenodd" fill-opacity="1" /><path clip-path="url(#clip910)" d="M 0 0 M3204.14 236.939 Q3198.98 236.939 3196.98 238.12 Q3194.99 239.3 3194.99 242.147 Q3194.99 244.416 3196.48 245.759 Q3197.98 247.078 3200.55 247.078 Q3204.09 247.078 3206.22 244.578 Q3208.37 242.055 3208.37 237.888 L3208.37 236.939 L3204.14 236.939 M3212.63 235.18 L3212.63 249.971 L3208.37 249.971 L3208.37 246.036 Q3206.91 248.397 3204.74 249.532 Q3202.56 250.643 3199.41 250.643 Q3195.43 250.643 3193.07 248.421 Q3190.73 246.175 3190.73 242.425 Q3190.73 238.05 3193.65 235.828 Q3196.59 233.606 3202.4 233.606 L3208.37 233.606 L3208.37 233.189 Q3208.37 230.249 3206.43 228.652 Q3204.51 227.032 3201.01 227.032 Q3198.79 227.032 3196.68 227.564 Q3194.58 228.097 3192.63 229.161 L3192.63 225.226 Q3194.97 224.323 3197.17 223.884 Q3199.37 223.421 3201.45 223.421 Q3207.08 223.421 3209.85 226.337 Q3212.63 229.254 3212.63 235.18 Z" fill="#000000" fill-rule="evenodd" fill-opacity="1" /><path clip-path="url(#clip910)" d="
M2733.18 317.363 L2959.78 317.363 L2959.78 268.979 L2733.18 268.979 L2733.18 317.363  Z
  " fill="#ffa500" fill-rule="evenodd" fill-opacity="0.7"/>
<polyline clip-path="url(#clip910)" style="stroke:#000000; stroke-width:4; stroke-opacity:1; fill:none" points="
  2733.18,317.363 2959.78,317.363 2959.78,268.979 2733.18,268.979 2733.18,317.363 
  "/>
<path clip-path="url(#clip910)" d="M 0 0 M3023.1 305.521 L3023.1 296.239 L3015.46 296.239 L3015.46 292.396 L3027.73 292.396 L3027.73 307.234 Q3025.02 309.155 3021.75 310.151 Q3018.49 311.123 3014.79 311.123 Q3006.68 311.123 3002.1 306.401 Q2997.54 301.655 2997.54 293.206 Q2997.54 284.734 3002.1 280.012 Q3006.68 275.266 3014.79 275.266 Q3018.17 275.266 3021.2 276.1 Q3024.25 276.933 3026.82 278.553 L3026.82 283.53 Q3024.23 281.331 3021.31 280.22 Q3018.4 279.109 3015.18 279.109 Q3008.84 279.109 3005.64 282.651 Q3002.47 286.192 3002.47 293.206 Q3002.47 300.197 3005.64 303.739 Q3008.84 307.28 3015.18 307.28 Q3017.66 307.28 3019.6 306.864 Q3021.55 306.424 3023.1 305.521 Z" fill="#000000" fill-rule="evenodd" fill-opacity="1" /><path clip-path="url(#clip910)" d="M 0 0 M3058.26 296.424 L3058.26 298.507 L3038.68 298.507 Q3038.95 302.905 3041.31 305.22 Q3043.7 307.512 3047.93 307.512 Q3050.39 307.512 3052.68 306.91 Q3054.99 306.308 3057.26 305.104 L3057.26 309.132 Q3054.97 310.104 3052.56 310.613 Q3050.16 311.123 3047.68 311.123 Q3041.48 311.123 3037.84 307.512 Q3034.23 303.901 3034.23 297.743 Q3034.23 291.377 3037.66 287.651 Q3041.11 283.901 3046.94 283.901 Q3052.17 283.901 3055.2 287.28 Q3058.26 290.637 3058.26 296.424 M3054 295.174 Q3053.95 291.678 3052.03 289.595 Q3050.13 287.512 3046.99 287.512 Q3043.42 287.512 3041.27 289.526 Q3039.14 291.54 3038.81 295.197 L3054 295.174 Z" fill="#000000" fill-rule="evenodd" fill-opacity="1" /><path clip-path="url(#clip910)" d="M 0 0 M3086.8 294.803 L3086.8 310.451 L3082.54 310.451 L3082.54 294.942 Q3082.54 291.262 3081.11 289.433 Q3079.67 287.604 3076.8 287.604 Q3073.35 287.604 3071.36 289.803 Q3069.37 292.002 3069.37 295.799 L3069.37 310.451 L3065.09 310.451 L3065.09 284.526 L3069.37 284.526 L3069.37 288.553 Q3070.9 286.215 3072.96 285.058 Q3075.04 283.901 3077.75 283.901 Q3082.22 283.901 3084.51 286.678 Q3086.8 289.433 3086.8 294.803 Z" fill="#000000" fill-rule="evenodd" fill-opacity="1" /><path clip-path="url(#clip910)" d="M 0 0 M3117.47 296.424 L3117.47 298.507 L3097.89 298.507 Q3098.17 302.905 3100.53 305.22 Q3102.91 307.512 3107.15 307.512 Q3109.6 307.512 3111.89 306.91 Q3114.21 306.308 3116.48 305.104 L3116.48 309.132 Q3114.18 310.104 3111.78 310.613 Q3109.37 311.123 3106.89 311.123 Q3100.69 311.123 3097.05 307.512 Q3093.44 303.901 3093.44 297.743 Q3093.44 291.377 3096.87 287.651 Q3100.32 283.901 3106.15 283.901 Q3111.38 283.901 3114.42 287.28 Q3117.47 290.637 3117.47 296.424 M3113.21 295.174 Q3113.17 291.678 3111.24 289.595 Q3109.35 287.512 3106.2 287.512 Q3102.63 287.512 3100.48 289.526 Q3098.35 291.54 3098.03 295.197 L3113.21 295.174 Z" fill="#000000" fill-rule="evenodd" fill-opacity="1" /><path clip-path="url(#clip910)" d="M 0 0 M3139.48 288.507 Q3138.77 288.09 3137.91 287.905 Q3137.08 287.697 3136.06 287.697 Q3132.45 287.697 3130.5 290.058 Q3128.58 292.396 3128.58 296.794 L3128.58 310.451 L3124.3 310.451 L3124.3 284.526 L3128.58 284.526 L3128.58 288.553 Q3129.92 286.192 3132.08 285.058 Q3134.23 283.901 3137.31 283.901 Q3137.75 283.901 3138.28 283.97 Q3138.81 284.016 3139.46 284.132 L3139.48 288.507 Z" fill="#000000" fill-rule="evenodd" fill-opacity="1" /><path clip-path="url(#clip910)" d="M 0 0 M3155.73 297.419 Q3150.57 297.419 3148.58 298.6 Q3146.59 299.78 3146.59 302.627 Q3146.59 304.896 3148.07 306.239 Q3149.58 307.558 3152.15 307.558 Q3155.69 307.558 3157.82 305.058 Q3159.97 302.535 3159.97 298.368 L3159.97 297.419 L3155.73 297.419 M3164.23 295.66 L3164.23 310.451 L3159.97 310.451 L3159.97 306.516 Q3158.51 308.877 3156.34 310.012 Q3154.16 311.123 3151.01 311.123 Q3147.03 311.123 3144.67 308.901 Q3142.33 306.655 3142.33 302.905 Q3142.33 298.53 3145.25 296.308 Q3148.19 294.086 3154 294.086 L3159.97 294.086 L3159.97 293.669 Q3159.97 290.729 3158.03 289.132 Q3156.11 287.512 3152.61 287.512 Q3150.39 287.512 3148.28 288.044 Q3146.17 288.577 3144.23 289.641 L3144.23 285.706 Q3146.57 284.803 3148.77 284.364 Q3150.97 283.901 3153.05 283.901 Q3158.67 283.901 3161.45 286.817 Q3164.23 289.734 3164.23 295.66 Z" fill="#000000" fill-rule="evenodd" fill-opacity="1" /><path clip-path="url(#clip910)" d="M 0 0 M3177.22 277.165 L3177.22 284.526 L3185.99 284.526 L3185.99 287.836 L3177.22 287.836 L3177.22 301.91 Q3177.22 305.081 3178.07 305.984 Q3178.95 306.887 3181.61 306.887 L3185.99 306.887 L3185.99 310.451 L3181.61 310.451 Q3176.68 310.451 3174.81 308.623 Q3172.93 306.771 3172.93 301.91 L3172.93 287.836 L3169.81 287.836 L3169.81 284.526 L3172.93 284.526 L3172.93 277.165 L3177.22 277.165 Z" fill="#000000" fill-rule="evenodd" fill-opacity="1" /><path clip-path="url(#clip910)" d="M 0 0 M3213.77 296.424 L3213.77 298.507 L3194.18 298.507 Q3194.46 302.905 3196.82 305.22 Q3199.21 307.512 3203.44 307.512 Q3205.9 307.512 3208.19 306.91 Q3210.5 306.308 3212.77 305.104 L3212.77 309.132 Q3210.48 310.104 3208.07 310.613 Q3205.66 311.123 3203.19 311.123 Q3196.98 311.123 3193.35 307.512 Q3189.74 303.901 3189.74 297.743 Q3189.74 291.377 3193.16 287.651 Q3196.61 283.901 3202.45 283.901 Q3207.68 283.901 3210.71 287.28 Q3213.77 290.637 3213.77 296.424 M3209.51 295.174 Q3209.46 291.678 3207.54 289.595 Q3205.64 287.512 3202.49 287.512 Q3198.93 287.512 3196.78 289.526 Q3194.65 291.54 3194.32 295.197 L3209.51 295.174 Z" fill="#000000" fill-rule="evenodd" fill-opacity="1" /><path clip-path="url(#clip910)" d="M 0 0 M3237.82 288.461 L3237.82 274.433 L3242.08 274.433 L3242.08 310.451 L3237.82 310.451 L3237.82 306.563 Q3236.47 308.877 3234.41 310.012 Q3232.38 311.123 3229.51 311.123 Q3224.81 311.123 3221.85 307.373 Q3218.91 303.623 3218.91 297.512 Q3218.91 291.401 3221.85 287.651 Q3224.81 283.901 3229.51 283.901 Q3232.38 283.901 3234.41 285.035 Q3236.47 286.146 3237.82 288.461 M3223.3 297.512 Q3223.3 302.211 3225.23 304.896 Q3227.17 307.558 3230.55 307.558 Q3233.93 307.558 3235.87 304.896 Q3237.82 302.211 3237.82 297.512 Q3237.82 292.813 3235.87 290.151 Q3233.93 287.465 3230.55 287.465 Q3227.17 287.465 3225.23 290.151 Q3223.3 292.813 3223.3 297.512 Z" fill="#000000" fill-rule="evenodd" fill-opacity="1" /><path clip-path="url(#clip910)" d="M 0 0 M3282.98 288.461 L3282.98 274.433 L3287.24 274.433 L3287.24 310.451 L3282.98 310.451 L3282.98 306.563 Q3281.64 308.877 3279.58 310.012 Q3277.54 311.123 3274.67 311.123 Q3269.97 311.123 3267.01 307.373 Q3264.07 303.623 3264.07 297.512 Q3264.07 291.401 3267.01 287.651 Q3269.97 283.901 3274.67 283.901 Q3277.54 283.901 3279.58 285.035 Q3281.64 286.146 3282.98 288.461 M3268.47 297.512 Q3268.47 302.211 3270.39 304.896 Q3272.33 307.558 3275.71 307.558 Q3279.09 307.558 3281.03 304.896 Q3282.98 302.211 3282.98 297.512 Q3282.98 292.813 3281.03 290.151 Q3279.09 287.465 3275.71 287.465 Q3272.33 287.465 3270.39 290.151 Q3268.47 292.813 3268.47 297.512 Z" fill="#000000" fill-rule="evenodd" fill-opacity="1" /><path clip-path="url(#clip910)" d="M 0 0 M3307.79 297.419 Q3302.63 297.419 3300.64 298.6 Q3298.65 299.78 3298.65 302.627 Q3298.65 304.896 3300.13 306.239 Q3301.64 307.558 3304.21 307.558 Q3307.75 307.558 3309.88 305.058 Q3312.03 302.535 3312.03 298.368 L3312.03 297.419 L3307.79 297.419 M3316.29 295.66 L3316.29 310.451 L3312.03 310.451 L3312.03 306.516 Q3310.57 308.877 3308.4 310.012 Q3306.22 311.123 3303.07 311.123 Q3299.09 311.123 3296.73 308.901 Q3294.39 306.655 3294.39 302.905 Q3294.39 298.53 3297.31 296.308 Q3300.25 294.086 3306.06 294.086 L3312.03 294.086 L3312.03 293.669 Q3312.03 290.729 3310.09 289.132 Q3308.16 287.512 3304.67 287.512 Q3302.45 287.512 3300.34 288.044 Q3298.23 288.577 3296.29 289.641 L3296.29 285.706 Q3298.63 284.803 3300.83 284.364 Q3303.03 283.901 3305.11 283.901 Q3310.73 283.901 3313.51 286.817 Q3316.29 289.734 3316.29 295.66 Z" fill="#000000" fill-rule="evenodd" fill-opacity="1" /><path clip-path="url(#clip910)" d="M 0 0 M3329.28 277.165 L3329.28 284.526 L3338.05 284.526 L3338.05 287.836 L3329.28 287.836 L3329.28 301.91 Q3329.28 305.081 3330.13 305.984 Q3331.01 306.887 3333.67 306.887 L3338.05 306.887 L3338.05 310.451 L3333.67 310.451 Q3328.74 310.451 3326.87 308.623 Q3324.99 306.771 3324.99 301.91 L3324.99 287.836 L3321.87 287.836 L3321.87 284.526 L3324.99 284.526 L3324.99 277.165 L3329.28 277.165 Z" fill="#000000" fill-rule="evenodd" fill-opacity="1" /><path clip-path="url(#clip910)" d="M 0 0 M3355.43 297.419 Q3350.27 297.419 3348.28 298.6 Q3346.29 299.78 3346.29 302.627 Q3346.29 304.896 3347.77 306.239 Q3349.28 307.558 3351.84 307.558 Q3355.39 307.558 3357.52 305.058 Q3359.67 302.535 3359.67 298.368 L3359.67 297.419 L3355.43 297.419 M3363.93 295.66 L3363.93 310.451 L3359.67 310.451 L3359.67 306.516 Q3358.21 308.877 3356.03 310.012 Q3353.86 311.123 3350.71 311.123 Q3346.73 311.123 3344.37 308.901 Q3342.03 306.655 3342.03 302.905 Q3342.03 298.53 3344.95 296.308 Q3347.89 294.086 3353.7 294.086 L3359.67 294.086 L3359.67 293.669 Q3359.67 290.729 3357.72 289.132 Q3355.8 287.512 3352.31 287.512 Q3350.09 287.512 3347.98 288.044 Q3345.87 288.577 3343.93 289.641 L3343.93 285.706 Q3346.27 284.803 3348.47 284.364 Q3350.66 283.901 3352.75 283.901 Q3358.37 283.901 3361.15 286.817 Q3363.93 289.734 3363.93 295.66 Z" fill="#000000" fill-rule="evenodd" fill-opacity="1" /></svg>
