<?xml version="1.0" encoding="utf-8"?>
<svg xmlns="http://www.w3.org/2000/svg" xmlns:xlink="http://www.w3.org/1999/xlink" width="600" height="400" viewBox="0 0 2400 1600">
<defs>
  <clipPath id="clip830">
    <rect x="0" y="0" width="2400" height="1600"/>
  </clipPath>
</defs>
<path clip-path="url(#clip830)" d="
M0 1600 L2400 1600 L2400 0 L0 0  Z
  " fill="#ffffff" fill-rule="evenodd" fill-opacity="1"/>
<defs>
  <clipPath id="clip831">
    <rect x="480" y="0" width="1681" height="1600"/>
  </clipPath>
</defs>
<path clip-path="url(#clip830)" d="
M169.121 1474.16 L2352.76 1474.16 L2352.76 123.472 L169.121 123.472  Z
  " fill="#ffffff" fill-rule="evenodd" fill-opacity="1"/>
<defs>
  <clipPath id="clip832">
    <rect x="169" y="123" width="2185" height="1352"/>
  </clipPath>
</defs>
<polyline clip-path="url(#clip832)" style="stroke:#000000; stroke-width:2; stroke-opacity:0.1; fill:none" points="
  174.906,1474.16 174.906,123.472 
  "/>
<polyline clip-path="url(#clip832)" style="stroke:#000000; stroke-width:2; stroke-opacity:0.1; fill:none" points="
  746.502,1474.16 746.502,123.472 
  "/>
<polyline clip-path="url(#clip832)" style="stroke:#000000; stroke-width:2; stroke-opacity:0.1; fill:none" points="
  1318.1,1474.16 1318.1,123.472 
  "/>
<polyline clip-path="url(#clip832)" style="stroke:#000000; stroke-width:2; stroke-opacity:0.1; fill:none" points="
  1889.69,1474.16 1889.69,123.472 
  "/>
<polyline clip-path="url(#clip830)" style="stroke:#000000; stroke-width:4; stroke-opacity:1; fill:none" points="
  169.121,1474.16 2352.76,1474.16 
  "/>
<polyline clip-path="url(#clip830)" style="stroke:#000000; stroke-width:4; stroke-opacity:1; fill:none" points="
  174.906,1474.16 174.906,1457.96 
  "/>
<polyline clip-path="url(#clip830)" style="stroke:#000000; stroke-width:4; stroke-opacity:1; fill:none" points="
  746.502,1474.16 746.502,1457.96 
  "/>
<polyline clip-path="url(#clip830)" style="stroke:#000000; stroke-width:4; stroke-opacity:1; fill:none" points="
  1318.1,1474.16 1318.1,1457.96 
  "/>
<polyline clip-path="url(#clip830)" style="stroke:#000000; stroke-width:4; stroke-opacity:1; fill:none" points="
  1889.69,1474.16 1889.69,1457.96 
  "/>
<path clip-path="url(#clip830)" d="M 0 0 M174.906 1503.36 Q171.295 1503.36 169.466 1506.92 Q167.661 1510.46 167.661 1517.59 Q167.661 1524.7 169.466 1528.26 Q171.295 1531.8 174.906 1531.8 Q178.54 1531.8 180.346 1528.26 Q182.174 1524.7 182.174 1517.59 Q182.174 1510.46 180.346 1506.92 Q178.54 1503.36 174.906 1503.36 M174.906 1499.65 Q180.716 1499.65 183.772 1504.26 Q186.85 1508.84 186.85 1517.59 Q186.85 1526.32 183.772 1530.92 Q180.716 1535.51 174.906 1535.51 Q169.096 1535.51 166.017 1530.92 Q162.961 1526.32 162.961 1517.59 Q162.961 1508.84 166.017 1504.26 Q169.096 1499.65 174.906 1499.65 Z" fill="#000000" fill-rule="evenodd" fill-opacity="1" /><path clip-path="url(#clip830)" d="M 0 0 M639.479 1521.81 L657.835 1521.81 L657.835 1525.75 L643.761 1525.75 L643.761 1534.22 Q644.78 1533.87 645.798 1533.71 Q646.817 1533.52 647.835 1533.52 Q653.622 1533.52 657.002 1536.7 Q660.381 1539.87 660.381 1545.28 Q660.381 1550.86 656.909 1553.96 Q653.437 1557.04 647.117 1557.04 Q644.942 1557.04 642.673 1556.67 Q640.428 1556.3 638.02 1555.56 L638.02 1550.86 Q640.104 1552 642.326 1552.55 Q644.548 1553.11 647.025 1553.11 Q651.029 1553.11 653.367 1551 Q655.705 1548.9 655.705 1545.28 Q655.705 1541.67 653.367 1539.57 Q651.029 1537.46 647.025 1537.46 Q645.15 1537.46 643.275 1537.88 Q641.423 1538.29 639.479 1539.17 L639.479 1521.81 Z" fill="#000000" fill-rule="evenodd" fill-opacity="1" /><path clip-path="url(#clip830)" d="M 0 0 M669.594 1550.49 L674.478 1550.49 L674.478 1556.37 L669.594 1556.37 L669.594 1550.49 Z" fill="#000000" fill-rule="evenodd" fill-opacity="1" /><path clip-path="url(#clip830)" d="M 0 0 M694.663 1524.89 Q691.052 1524.89 689.224 1528.46 Q687.418 1532 687.418 1539.13 Q687.418 1546.23 689.224 1549.8 Q691.052 1553.34 694.663 1553.34 Q698.298 1553.34 700.103 1549.8 Q701.932 1546.23 701.932 1539.13 Q701.932 1532 700.103 1528.46 Q698.298 1524.89 694.663 1524.89 M694.663 1521.19 Q700.474 1521.19 703.529 1525.79 Q706.608 1530.38 706.608 1539.13 Q706.608 1547.85 703.529 1552.46 Q700.474 1557.04 694.663 1557.04 Q688.853 1557.04 685.775 1552.46 Q682.719 1547.85 682.719 1539.13 Q682.719 1530.38 685.775 1525.79 Q688.853 1521.19 694.663 1521.19 Z" fill="#000000" fill-rule="evenodd" fill-opacity="1" /><path clip-path="url(#clip830)" d="M 0 0 M724.825 1524.89 Q721.214 1524.89 719.386 1528.46 Q717.58 1532 717.58 1539.13 Q717.58 1546.23 719.386 1549.8 Q721.214 1553.34 724.825 1553.34 Q728.46 1553.34 730.265 1549.8 Q732.094 1546.23 732.094 1539.13 Q732.094 1532 730.265 1528.46 Q728.46 1524.89 724.825 1524.89 M724.825 1521.19 Q730.636 1521.19 733.691 1525.79 Q736.77 1530.38 736.77 1539.13 Q736.77 1547.85 733.691 1552.46 Q730.636 1557.04 724.825 1557.04 Q719.015 1557.04 715.937 1552.46 Q712.881 1547.85 712.881 1539.13 Q712.881 1530.38 715.937 1525.79 Q719.015 1521.19 724.825 1521.19 Z" fill="#000000" fill-rule="evenodd" fill-opacity="1" /><path clip-path="url(#clip830)" d="M 0 0 M773.158 1530.91 L762.58 1541.53 L773.158 1552.11 L770.404 1554.91 L759.779 1544.29 L749.154 1554.91 L746.422 1552.11 L756.978 1541.53 L746.422 1530.91 L749.154 1528.11 L759.779 1538.73 L770.404 1528.11 L773.158 1530.91 Z" fill="#000000" fill-rule="evenodd" fill-opacity="1" /><path clip-path="url(#clip830)" d="M 0 0 M785.519 1552.44 L793.158 1552.44 L793.158 1526.07 L784.848 1527.74 L784.848 1523.48 L793.112 1521.81 L797.788 1521.81 L797.788 1552.44 L805.427 1552.44 L805.427 1556.37 L785.519 1556.37 L785.519 1552.44 Z" fill="#000000" fill-rule="evenodd" fill-opacity="1" /><path clip-path="url(#clip830)" d="M 0 0 M824.871 1524.89 Q821.26 1524.89 819.431 1528.46 Q817.626 1532 817.626 1539.13 Q817.626 1546.23 819.431 1549.8 Q821.26 1553.34 824.871 1553.34 Q828.505 1553.34 830.311 1549.8 Q832.14 1546.23 832.14 1539.13 Q832.14 1532 830.311 1528.46 Q828.505 1524.89 824.871 1524.89 M824.871 1521.19 Q830.681 1521.19 833.737 1525.79 Q836.816 1530.38 836.816 1539.13 Q836.816 1547.85 833.737 1552.46 Q830.681 1557.04 824.871 1557.04 Q819.061 1557.04 815.982 1552.46 Q812.927 1547.85 812.927 1539.13 Q812.927 1530.38 815.982 1525.79 Q819.061 1521.19 824.871 1521.19 Z" fill="#000000" fill-rule="evenodd" fill-opacity="1" /><path clip-path="url(#clip830)" d="M 0 0 M838 1500.88 L852.915 1500.88 L852.915 1504.08 L841.48 1504.08 L841.48 1510.96 Q842.307 1510.68 843.135 1510.55 Q843.962 1510.4 844.79 1510.4 Q849.492 1510.4 852.238 1512.97 Q854.984 1515.55 854.984 1519.95 Q854.984 1524.49 852.163 1527.01 Q849.341 1529.51 844.207 1529.51 Q842.439 1529.51 840.596 1529.21 Q838.772 1528.91 836.816 1528.3 L836.816 1524.49 Q838.508 1525.41 840.314 1525.86 Q842.119 1526.31 844.132 1526.31 Q847.385 1526.31 849.285 1524.6 Q851.185 1522.89 851.185 1519.95 Q851.185 1517.02 849.285 1515.31 Q847.385 1513.6 844.132 1513.6 Q842.608 1513.6 841.085 1513.93 Q839.58 1514.27 838 1514.99 L838 1500.88 Z" fill="#000000" fill-rule="evenodd" fill-opacity="1" /><path clip-path="url(#clip830)" d="M 0 0 M1210.45 1552.44 L1218.09 1552.44 L1218.09 1526.07 L1209.78 1527.74 L1209.78 1523.48 L1218.04 1521.81 L1222.72 1521.81 L1222.72 1552.44 L1230.36 1552.44 L1230.36 1556.37 L1210.45 1556.37 L1210.45 1552.44 Z" fill="#000000" fill-rule="evenodd" fill-opacity="1" /><path clip-path="url(#clip830)" d="M 0 0 M1239.8 1550.49 L1244.69 1550.49 L1244.69 1556.37 L1239.8 1556.37 L1239.8 1550.49 Z" fill="#000000" fill-rule="evenodd" fill-opacity="1" /><path clip-path="url(#clip830)" d="M 0 0 M1264.87 1524.89 Q1261.26 1524.89 1259.43 1528.46 Q1257.63 1532 1257.63 1539.13 Q1257.63 1546.23 1259.43 1549.8 Q1261.26 1553.34 1264.87 1553.34 Q1268.51 1553.34 1270.31 1549.8 Q1272.14 1546.23 1272.14 1539.13 Q1272.14 1532 1270.31 1528.46 Q1268.51 1524.89 1264.87 1524.89 M1264.87 1521.19 Q1270.68 1521.19 1273.74 1525.79 Q1276.82 1530.38 1276.82 1539.13 Q1276.82 1547.85 1273.74 1552.46 Q1270.68 1557.04 1264.87 1557.04 Q1259.06 1557.04 1255.98 1552.46 Q1252.93 1547.85 1252.93 1539.13 Q1252.93 1530.38 1255.98 1525.79 Q1259.06 1521.19 1264.87 1521.19 Z" fill="#000000" fill-rule="evenodd" fill-opacity="1" /><path clip-path="url(#clip830)" d="M 0 0 M1295.03 1524.89 Q1291.42 1524.89 1289.6 1528.46 Q1287.79 1532 1287.79 1539.13 Q1287.79 1546.23 1289.6 1549.8 Q1291.42 1553.34 1295.03 1553.34 Q1298.67 1553.34 1300.47 1549.8 Q1302.3 1546.23 1302.3 1539.13 Q1302.3 1532 1300.47 1528.46 Q1298.67 1524.89 1295.03 1524.89 M1295.03 1521.19 Q1300.84 1521.19 1303.9 1525.79 Q1306.98 1530.38 1306.98 1539.13 Q1306.98 1547.85 1303.9 1552.46 Q1300.84 1557.04 1295.03 1557.04 Q1289.22 1557.04 1286.15 1552.46 Q1283.09 1547.85 1283.09 1539.13 Q1283.09 1530.38 1286.15 1525.79 Q1289.22 1521.19 1295.03 1521.19 Z" fill="#000000" fill-rule="evenodd" fill-opacity="1" /><path clip-path="url(#clip830)" d="M 0 0 M1343.37 1530.91 L1332.79 1541.53 L1343.37 1552.11 L1340.61 1554.91 L1329.99 1544.29 L1319.36 1554.91 L1316.63 1552.11 L1327.19 1541.53 L1316.63 1530.91 L1319.36 1528.11 L1329.99 1538.73 L1340.61 1528.11 L1343.37 1530.91 Z" fill="#000000" fill-rule="evenodd" fill-opacity="1" /><path clip-path="url(#clip830)" d="M 0 0 M1355.73 1552.44 L1363.37 1552.44 L1363.37 1526.07 L1355.06 1527.74 L1355.06 1523.48 L1363.32 1521.81 L1368 1521.81 L1368 1552.44 L1375.64 1552.44 L1375.64 1556.37 L1355.73 1556.37 L1355.73 1552.44 Z" fill="#000000" fill-rule="evenodd" fill-opacity="1" /><path clip-path="url(#clip830)" d="M 0 0 M1395.08 1524.89 Q1391.47 1524.89 1389.64 1528.46 Q1387.84 1532 1387.84 1539.13 Q1387.84 1546.23 1389.64 1549.8 Q1391.47 1553.34 1395.08 1553.34 Q1398.71 1553.34 1400.52 1549.8 Q1402.35 1546.23 1402.35 1539.13 Q1402.35 1532 1400.52 1528.46 Q1398.71 1524.89 1395.08 1524.89 M1395.08 1521.19 Q1400.89 1521.19 1403.95 1525.79 Q1407.02 1530.38 1407.02 1539.13 Q1407.02 1547.85 1403.95 1552.46 Q1400.89 1557.04 1395.08 1557.04 Q1389.27 1557.04 1386.19 1552.46 Q1383.14 1547.85 1383.14 1539.13 Q1383.14 1530.38 1386.19 1525.79 Q1389.27 1521.19 1395.08 1521.19 Z" fill="#000000" fill-rule="evenodd" fill-opacity="1" /><path clip-path="url(#clip830)" d="M 0 0 M1417.05 1513.41 Q1414.49 1513.41 1412.99 1515.16 Q1411.5 1516.91 1411.5 1519.95 Q1411.5 1522.98 1412.99 1524.75 Q1414.49 1526.5 1417.05 1526.5 Q1419.61 1526.5 1421.09 1524.75 Q1422.6 1522.98 1422.6 1519.95 Q1422.6 1516.91 1421.09 1515.16 Q1419.61 1513.41 1417.05 1513.41 M1424.59 1501.5 L1424.59 1504.96 Q1423.16 1504.29 1421.7 1503.93 Q1420.25 1503.57 1418.82 1503.57 Q1415.06 1503.57 1413.06 1506.11 Q1411.09 1508.65 1410.81 1513.78 Q1411.92 1512.15 1413.59 1511.28 Q1415.26 1510.4 1417.28 1510.4 Q1421.51 1510.4 1423.95 1512.97 Q1426.42 1515.53 1426.42 1519.95 Q1426.42 1524.28 1423.86 1526.89 Q1421.3 1529.51 1417.05 1529.51 Q1412.18 1529.51 1409.6 1525.78 Q1407.02 1522.04 1407.02 1514.95 Q1407.02 1508.29 1410.18 1504.34 Q1413.34 1500.37 1418.67 1500.37 Q1420.1 1500.37 1421.54 1500.66 Q1423.01 1500.94 1424.59 1501.5 Z" fill="#000000" fill-rule="evenodd" fill-opacity="1" /><path clip-path="url(#clip830)" d="M 0 0 M1782.05 1552.44 L1789.69 1552.44 L1789.69 1526.07 L1781.38 1527.74 L1781.38 1523.48 L1789.64 1521.81 L1794.32 1521.81 L1794.32 1552.44 L1801.96 1552.44 L1801.96 1556.37 L1782.05 1556.37 L1782.05 1552.44 Z" fill="#000000" fill-rule="evenodd" fill-opacity="1" /><path clip-path="url(#clip830)" d="M 0 0 M1811.4 1550.49 L1816.28 1550.49 L1816.28 1556.37 L1811.4 1556.37 L1811.4 1550.49 Z" fill="#000000" fill-rule="evenodd" fill-opacity="1" /><path clip-path="url(#clip830)" d="M 0 0 M1826.52 1521.81 L1844.87 1521.81 L1844.87 1525.75 L1830.8 1525.75 L1830.8 1534.22 Q1831.82 1533.87 1832.83 1533.71 Q1833.85 1533.52 1834.87 1533.52 Q1840.66 1533.52 1844.04 1536.7 Q1847.42 1539.87 1847.42 1545.28 Q1847.42 1550.86 1843.95 1553.96 Q1840.47 1557.04 1834.15 1557.04 Q1831.98 1557.04 1829.71 1556.67 Q1827.46 1556.3 1825.06 1555.56 L1825.06 1550.86 Q1827.14 1552 1829.36 1552.55 Q1831.58 1553.11 1834.06 1553.11 Q1838.07 1553.11 1840.4 1551 Q1842.74 1548.9 1842.74 1545.28 Q1842.74 1541.67 1840.4 1539.57 Q1838.07 1537.46 1834.06 1537.46 Q1832.19 1537.46 1830.31 1537.88 Q1828.46 1538.29 1826.52 1539.17 L1826.52 1521.81 Z" fill="#000000" fill-rule="evenodd" fill-opacity="1" /><path clip-path="url(#clip830)" d="M 0 0 M1866.63 1524.89 Q1863.02 1524.89 1861.19 1528.46 Q1859.39 1532 1859.39 1539.13 Q1859.39 1546.23 1861.19 1549.8 Q1863.02 1553.34 1866.63 1553.34 Q1870.27 1553.34 1872.07 1549.8 Q1873.9 1546.23 1873.9 1539.13 Q1873.9 1532 1872.07 1528.46 Q1870.27 1524.89 1866.63 1524.89 M1866.63 1521.19 Q1872.44 1521.19 1875.5 1525.79 Q1878.58 1530.38 1878.58 1539.13 Q1878.58 1547.85 1875.5 1552.46 Q1872.44 1557.04 1866.63 1557.04 Q1860.82 1557.04 1857.74 1552.46 Q1854.69 1547.85 1854.69 1539.13 Q1854.69 1530.38 1857.74 1525.79 Q1860.82 1521.19 1866.63 1521.19 Z" fill="#000000" fill-rule="evenodd" fill-opacity="1" /><path clip-path="url(#clip830)" d="M 0 0 M1914.96 1530.91 L1904.39 1541.53 L1914.96 1552.11 L1912.21 1554.91 L1901.58 1544.29 L1890.96 1554.91 L1888.23 1552.11 L1898.78 1541.53 L1888.23 1530.91 L1890.96 1528.11 L1901.58 1538.73 L1912.21 1528.11 L1914.96 1530.91 Z" fill="#000000" fill-rule="evenodd" fill-opacity="1" /><path clip-path="url(#clip830)" d="M 0 0 M1927.33 1552.44 L1934.96 1552.44 L1934.96 1526.07 L1926.65 1527.74 L1926.65 1523.48 L1934.92 1521.81 L1939.59 1521.81 L1939.59 1552.44 L1947.23 1552.44 L1947.23 1556.37 L1927.33 1556.37 L1927.33 1552.44 Z" fill="#000000" fill-rule="evenodd" fill-opacity="1" /><path clip-path="url(#clip830)" d="M 0 0 M1966.68 1524.89 Q1963.07 1524.89 1961.24 1528.46 Q1959.43 1532 1959.43 1539.13 Q1959.43 1546.23 1961.24 1549.8 Q1963.07 1553.34 1966.68 1553.34 Q1970.31 1553.34 1972.12 1549.8 Q1973.95 1546.23 1973.95 1539.13 Q1973.95 1532 1972.12 1528.46 Q1970.31 1524.89 1966.68 1524.89 M1966.68 1521.19 Q1972.49 1521.19 1975.54 1525.79 Q1978.62 1530.38 1978.62 1539.13 Q1978.62 1547.85 1975.54 1552.46 Q1972.49 1557.04 1966.68 1557.04 Q1960.87 1557.04 1957.79 1552.46 Q1954.73 1547.85 1954.73 1539.13 Q1954.73 1530.38 1957.79 1525.79 Q1960.87 1521.19 1966.68 1521.19 Z" fill="#000000" fill-rule="evenodd" fill-opacity="1" /><path clip-path="url(#clip830)" d="M 0 0 M1988.65 1513.41 Q1986.09 1513.41 1984.58 1515.16 Q1983.1 1516.91 1983.1 1519.95 Q1983.1 1522.98 1984.58 1524.75 Q1986.09 1526.5 1988.65 1526.5 Q1991.2 1526.5 1992.69 1524.75 Q1994.19 1522.98 1994.19 1519.95 Q1994.19 1516.91 1992.69 1515.16 Q1991.2 1513.41 1988.65 1513.41 M1996.19 1501.5 L1996.19 1504.96 Q1994.76 1504.29 1993.29 1503.93 Q1991.84 1503.57 1990.41 1503.57 Q1986.65 1503.57 1984.66 1506.11 Q1982.68 1508.65 1982.4 1513.78 Q1983.51 1512.15 1985.19 1511.28 Q1986.86 1510.4 1988.87 1510.4 Q1993.1 1510.4 1995.55 1512.97 Q1998.01 1515.53 1998.01 1519.95 Q1998.01 1524.28 1995.45 1526.89 Q1992.9 1529.51 1988.65 1529.51 Q1983.77 1529.51 1981.2 1525.78 Q1978.62 1522.04 1978.62 1514.95 Q1978.62 1508.29 1981.78 1504.34 Q1984.94 1500.37 1990.26 1500.37 Q1991.69 1500.37 1993.14 1500.66 Q1994.61 1500.94 1996.19 1501.5 Z" fill="#000000" fill-rule="evenodd" fill-opacity="1" /><polyline clip-path="url(#clip832)" style="stroke:#000000; stroke-width:2; stroke-opacity:0.1; fill:none" points="
  169.121,1435.94 2352.76,1435.94 
  "/>
<polyline clip-path="url(#clip832)" style="stroke:#000000; stroke-width:2; stroke-opacity:0.1; fill:none" points="
  169.121,1110.88 2352.76,1110.88 
  "/>
<polyline clip-path="url(#clip832)" style="stroke:#000000; stroke-width:2; stroke-opacity:0.1; fill:none" points="
  169.121,785.816 2352.76,785.816 
  "/>
<polyline clip-path="url(#clip832)" style="stroke:#000000; stroke-width:2; stroke-opacity:0.1; fill:none" points="
  169.121,460.755 2352.76,460.755 
  "/>
<polyline clip-path="url(#clip832)" style="stroke:#000000; stroke-width:2; stroke-opacity:0.1; fill:none" points="
  169.121,135.694 2352.76,135.694 
  "/>
<polyline clip-path="url(#clip830)" style="stroke:#000000; stroke-width:4; stroke-opacity:1; fill:none" points="
  169.121,1474.16 169.121,123.472 
  "/>
<polyline clip-path="url(#clip830)" style="stroke:#000000; stroke-width:4; stroke-opacity:1; fill:none" points="
  169.121,1435.94 195.325,1435.94 
  "/>
<polyline clip-path="url(#clip830)" style="stroke:#000000; stroke-width:4; stroke-opacity:1; fill:none" points="
  169.121,1110.88 195.325,1110.88 
  "/>
<polyline clip-path="url(#clip830)" style="stroke:#000000; stroke-width:4; stroke-opacity:1; fill:none" points="
  169.121,785.816 195.325,785.816 
  "/>
<polyline clip-path="url(#clip830)" style="stroke:#000000; stroke-width:4; stroke-opacity:1; fill:none" points="
  169.121,460.755 195.325,460.755 
  "/>
<polyline clip-path="url(#clip830)" style="stroke:#000000; stroke-width:4; stroke-opacity:1; fill:none" points="
  169.121,135.694 195.325,135.694 
  "/>
<path clip-path="url(#clip830)" d="M 0 0 M121.177 1421.74 Q117.566 1421.74 115.737 1425.3 Q113.932 1428.84 113.932 1435.97 Q113.932 1443.08 115.737 1446.64 Q117.566 1450.19 121.177 1450.19 Q124.811 1450.19 126.617 1446.64 Q128.445 1443.08 128.445 1435.97 Q128.445 1428.84 126.617 1425.3 Q124.811 1421.74 121.177 1421.74 M121.177 1418.03 Q126.987 1418.03 130.043 1422.64 Q133.121 1427.22 133.121 1435.97 Q133.121 1444.7 130.043 1449.31 Q126.987 1453.89 121.177 1453.89 Q115.367 1453.89 112.288 1449.31 Q109.233 1444.7 109.233 1435.97 Q109.233 1427.22 112.288 1422.64 Q115.367 1418.03 121.177 1418.03 Z" fill="#000000" fill-rule="evenodd" fill-opacity="1" /><path clip-path="url(#clip830)" d="M 0 0 M86.0382 1124.22 L102.358 1124.22 L102.358 1128.16 L80.4133 1128.16 L80.4133 1124.22 Q83.0753 1121.47 87.6586 1116.84 Q92.2651 1112.18 93.4456 1110.84 Q95.691 1108.32 96.5706 1106.58 Q97.4734 1104.82 97.4734 1103.13 Q97.4734 1100.38 95.5289 1098.64 Q93.6076 1096.91 90.5058 1096.91 Q88.3067 1096.91 85.8531 1097.67 Q83.4225 1098.43 80.6447 1099.99 L80.6447 1095.26 Q83.4688 1094.13 85.9225 1093.55 Q88.3762 1092.97 90.4132 1092.97 Q95.7836 1092.97 98.978 1095.66 Q102.172 1098.34 102.172 1102.83 Q102.172 1104.96 101.362 1106.88 Q100.575 1108.78 98.4687 1111.37 Q97.89 1112.05 94.7882 1115.26 Q91.6864 1118.46 86.0382 1124.22 Z" fill="#000000" fill-rule="evenodd" fill-opacity="1" /><path clip-path="url(#clip830)" d="M 0 0 M112.219 1093.6 L130.575 1093.6 L130.575 1097.53 L116.501 1097.53 L116.501 1106 Q117.52 1105.66 118.538 1105.49 Q119.557 1105.31 120.575 1105.31 Q126.362 1105.31 129.742 1108.48 Q133.121 1111.65 133.121 1117.07 Q133.121 1122.65 129.649 1125.75 Q126.177 1128.83 119.857 1128.83 Q117.682 1128.83 115.413 1128.46 Q113.168 1128.09 110.76 1127.35 L110.76 1122.65 Q112.844 1123.78 115.066 1124.34 Q117.288 1124.89 119.765 1124.89 Q123.77 1124.89 126.107 1122.79 Q128.445 1120.68 128.445 1117.07 Q128.445 1113.46 126.107 1111.35 Q123.77 1109.24 119.765 1109.24 Q117.89 1109.24 116.015 1109.66 Q114.163 1110.08 112.219 1110.96 L112.219 1093.6 Z" fill="#000000" fill-rule="evenodd" fill-opacity="1" /><path clip-path="url(#clip830)" d="M 0 0 M81.0614 768.536 L99.4178 768.536 L99.4178 772.471 L85.3438 772.471 L85.3438 780.943 Q86.3623 780.596 87.3808 780.434 Q88.3993 780.249 89.4178 780.249 Q95.2049 780.249 98.5845 783.42 Q101.964 786.591 101.964 792.008 Q101.964 797.587 98.4919 800.689 Q95.0197 803.767 88.7003 803.767 Q86.5243 803.767 84.2558 803.397 Q82.0105 803.027 79.6031 802.286 L79.6031 797.587 Q81.6864 798.721 83.9086 799.277 Q86.1308 799.832 88.6077 799.832 Q92.6123 799.832 94.9502 797.726 Q97.2882 795.619 97.2882 792.008 Q97.2882 788.397 94.9502 786.291 Q92.6123 784.184 88.6077 784.184 Q86.7327 784.184 84.8577 784.601 Q83.0058 785.017 81.0614 785.897 L81.0614 768.536 Z" fill="#000000" fill-rule="evenodd" fill-opacity="1" /><path clip-path="url(#clip830)" d="M 0 0 M121.177 771.615 Q117.566 771.615 115.737 775.179 Q113.932 778.721 113.932 785.851 Q113.932 792.957 115.737 796.522 Q117.566 800.064 121.177 800.064 Q124.811 800.064 126.617 796.522 Q128.445 792.957 128.445 785.851 Q128.445 778.721 126.617 775.179 Q124.811 771.615 121.177 771.615 M121.177 767.911 Q126.987 767.911 130.043 772.517 Q133.121 777.101 133.121 785.851 Q133.121 794.577 130.043 799.184 Q126.987 803.767 121.177 803.767 Q115.367 803.767 112.288 799.184 Q109.233 794.577 109.233 785.851 Q109.233 777.101 112.288 772.517 Q115.367 767.911 121.177 767.911 Z" fill="#000000" fill-rule="evenodd" fill-opacity="1" /><path clip-path="url(#clip830)" d="M 0 0 M80.8299 443.475 L103.052 443.475 L103.052 445.466 L90.5058 478.035 L85.6216 478.035 L97.4271 447.41 L80.8299 447.41 L80.8299 443.475 Z" fill="#000000" fill-rule="evenodd" fill-opacity="1" /><path clip-path="url(#clip830)" d="M 0 0 M112.219 443.475 L130.575 443.475 L130.575 447.41 L116.501 447.41 L116.501 455.883 Q117.52 455.535 118.538 455.373 Q119.557 455.188 120.575 455.188 Q126.362 455.188 129.742 458.359 Q133.121 461.531 133.121 466.947 Q133.121 472.526 129.649 475.628 Q126.177 478.706 119.857 478.706 Q117.682 478.706 115.413 478.336 Q113.168 477.966 110.76 477.225 L110.76 472.526 Q112.844 473.66 115.066 474.216 Q117.288 474.771 119.765 474.771 Q123.77 474.771 126.107 472.665 Q128.445 470.558 128.445 466.947 Q128.445 463.336 126.107 461.23 Q123.77 459.123 119.765 459.123 Q117.89 459.123 116.015 459.54 Q114.163 459.957 112.219 460.836 L112.219 443.475 Z" fill="#000000" fill-rule="evenodd" fill-opacity="1" /><path clip-path="url(#clip830)" d="M 0 0 M51.6634 149.039 L59.3023 149.039 L59.3023 122.674 L50.9921 124.34 L50.9921 120.081 L59.256 118.414 L63.9319 118.414 L63.9319 149.039 L71.5707 149.039 L71.5707 152.974 L51.6634 152.974 L51.6634 149.039 Z" fill="#000000" fill-rule="evenodd" fill-opacity="1" /><path clip-path="url(#clip830)" d="M 0 0 M91.0151 121.493 Q87.404 121.493 85.5753 125.058 Q83.7697 128.6 83.7697 135.729 Q83.7697 142.836 85.5753 146.4 Q87.404 149.942 91.0151 149.942 Q94.6493 149.942 96.4548 146.4 Q98.2835 142.836 98.2835 135.729 Q98.2835 128.6 96.4548 125.058 Q94.6493 121.493 91.0151 121.493 M91.0151 117.789 Q96.8252 117.789 99.8808 122.396 Q102.959 126.979 102.959 135.729 Q102.959 144.456 99.8808 149.062 Q96.8252 153.646 91.0151 153.646 Q85.2049 153.646 82.1262 149.062 Q79.0707 144.456 79.0707 135.729 Q79.0707 126.979 82.1262 122.396 Q85.2049 117.789 91.0151 117.789 Z" fill="#000000" fill-rule="evenodd" fill-opacity="1" /><path clip-path="url(#clip830)" d="M 0 0 M121.177 121.493 Q117.566 121.493 115.737 125.058 Q113.932 128.6 113.932 135.729 Q113.932 142.836 115.737 146.4 Q117.566 149.942 121.177 149.942 Q124.811 149.942 126.617 146.4 Q128.445 142.836 128.445 135.729 Q128.445 128.6 126.617 125.058 Q124.811 121.493 121.177 121.493 M121.177 117.789 Q126.987 117.789 130.043 122.396 Q133.121 126.979 133.121 135.729 Q133.121 144.456 130.043 149.062 Q126.987 153.646 121.177 153.646 Q115.367 153.646 112.288 149.062 Q109.233 144.456 109.233 135.729 Q109.233 126.979 112.288 122.396 Q115.367 117.789 121.177 117.789 Z" fill="#000000" fill-rule="evenodd" fill-opacity="1" /><path clip-path="url(#clip830)" d="M 0 0 M938.892 18.8205 L938.892 65.8515 L948.776 65.8515 Q961.293 65.8515 967.086 60.1802 Q972.919 54.509 972.919 42.2752 Q972.919 30.1225 967.086 24.4918 Q961.293 18.8205 948.776 18.8205 L938.892 18.8205 M930.709 12.096 L947.52 12.096 Q965.101 12.096 973.324 19.4281 Q981.548 26.7198 981.548 42.2752 Q981.548 57.9117 973.284 65.2439 Q965.02 72.576 947.52 72.576 L930.709 72.576 L930.709 12.096 Z" fill="#000000" fill-rule="evenodd" fill-opacity="1" /><path clip-path="url(#clip830)" d="M 0 0 M1014.89 49.7694 Q1005.85 49.7694 1002.37 51.8354 Q998.886 53.9013 998.886 58.8839 Q998.886 62.8538 1001.48 65.2034 Q1004.11 67.5124 1008.61 67.5124 Q1014.81 67.5124 1018.53 63.1374 Q1022.3 58.7219 1022.3 51.4303 L1022.3 49.7694 L1014.89 49.7694 M1029.75 46.6907 L1029.75 72.576 L1022.3 72.576 L1022.3 65.6895 Q1019.75 69.8214 1015.94 71.8063 Q1012.13 73.7508 1006.62 73.7508 Q999.655 73.7508 995.523 69.8619 Q991.432 65.9325 991.432 59.3701 Q991.432 51.7138 996.536 47.825 Q1001.68 43.9361 1011.85 43.9361 L1022.3 43.9361 L1022.3 43.2069 Q1022.3 38.0623 1018.9 35.2672 Q1015.53 32.4315 1009.42 32.4315 Q1005.53 32.4315 1001.84 33.3632 Q998.156 34.295 994.754 36.1584 L994.754 29.2718 Q998.845 27.692 1002.69 26.9223 Q1006.54 26.1121 1010.19 26.1121 Q1020.03 26.1121 1024.89 31.2163 Q1029.75 36.3204 1029.75 46.6907 Z" fill="#000000" fill-rule="evenodd" fill-opacity="1" /><path clip-path="url(#clip830)" d="M 0 0 M1052.48 14.324 L1052.48 27.2059 L1067.83 27.2059 L1067.83 32.9987 L1052.48 32.9987 L1052.48 57.6282 Q1052.48 63.1779 1053.98 64.7578 Q1055.52 66.3376 1060.18 66.3376 L1067.83 66.3376 L1067.83 72.576 L1060.18 72.576 Q1051.55 72.576 1048.27 69.3758 Q1044.98 66.1351 1044.98 57.6282 L1044.98 32.9987 L1039.52 32.9987 L1039.52 27.2059 L1044.98 27.2059 L1044.98 14.324 L1052.48 14.324 Z" fill="#000000" fill-rule="evenodd" fill-opacity="1" /><path clip-path="url(#clip830)" d="M 0 0 M1098.25 49.7694 Q1089.22 49.7694 1085.74 51.8354 Q1082.25 53.9013 1082.25 58.8839 Q1082.25 62.8538 1084.85 65.2034 Q1087.48 67.5124 1091.98 67.5124 Q1098.17 67.5124 1101.9 63.1374 Q1105.67 58.7219 1105.67 51.4303 L1105.67 49.7694 L1098.25 49.7694 M1113.12 46.6907 L1113.12 72.576 L1105.67 72.576 L1105.67 65.6895 Q1103.12 69.8214 1099.31 71.8063 Q1095.5 73.7508 1089.99 73.7508 Q1083.02 73.7508 1078.89 69.8619 Q1074.8 65.9325 1074.8 59.3701 Q1074.8 51.7138 1079.9 47.825 Q1085.05 43.9361 1095.22 43.9361 L1105.67 43.9361 L1105.67 43.2069 Q1105.67 38.0623 1102.26 35.2672 Q1098.9 32.4315 1092.79 32.4315 Q1088.9 32.4315 1085.21 33.3632 Q1081.52 34.295 1078.12 36.1584 L1078.12 29.2718 Q1082.21 27.692 1086.06 26.9223 Q1089.91 26.1121 1093.56 26.1121 Q1103.4 26.1121 1108.26 31.2163 Q1113.12 36.3204 1113.12 46.6907 Z" fill="#000000" fill-rule="evenodd" fill-opacity="1" /><path clip-path="url(#clip830)" d="M 0 0 M1184.7 49.3643 Q1184.7 41.2625 1181.34 36.8065 Q1178.02 32.3505 1171.98 32.3505 Q1165.99 32.3505 1162.62 36.8065 Q1159.3 41.2625 1159.3 49.3643 Q1159.3 57.4256 1162.62 61.8816 Q1165.99 66.3376 1171.98 66.3376 Q1178.02 66.3376 1181.34 61.8816 Q1184.7 57.4256 1184.7 49.3643 M1192.15 66.9452 Q1192.15 78.5308 1187.01 84.1616 Q1181.86 89.8329 1171.25 89.8329 Q1167.32 89.8329 1163.84 89.2252 Q1160.35 88.6581 1157.07 87.4428 L1157.07 80.1917 Q1160.35 81.9741 1163.55 82.8248 Q1166.76 83.6755 1170.08 83.6755 Q1177.41 83.6755 1181.05 79.8271 Q1184.7 76.0193 1184.7 68.282 L1184.7 64.5957 Q1182.39 68.6061 1178.79 70.5911 Q1175.18 72.576 1170.16 72.576 Q1161.81 72.576 1156.71 66.2161 Q1151.6 59.8562 1151.6 49.3643 Q1151.6 38.832 1156.71 32.472 Q1161.81 26.1121 1170.16 26.1121 Q1175.18 26.1121 1178.79 28.0971 Q1182.39 30.082 1184.7 34.0924 L1184.7 27.2059 L1192.15 27.2059 L1192.15 66.9452 Z" fill="#000000" fill-rule="evenodd" fill-opacity="1" /><path clip-path="url(#clip830)" d="M 0 0 M1246.31 48.0275 L1246.31 51.6733 L1212.04 51.6733 Q1212.53 59.3701 1216.66 63.421 Q1220.83 67.4314 1228.25 67.4314 Q1232.54 67.4314 1236.55 66.3781 Q1240.6 65.3249 1244.57 63.2184 L1244.57 70.267 Q1240.56 71.9684 1236.35 72.8596 Q1232.14 73.7508 1227.8 73.7508 Q1216.95 73.7508 1210.59 67.4314 Q1204.27 61.1119 1204.27 50.3365 Q1204.27 39.1965 1210.26 32.6746 Q1216.3 26.1121 1226.51 26.1121 Q1235.66 26.1121 1240.97 32.0264 Q1246.31 37.9003 1246.31 48.0275 M1238.86 45.84 Q1238.78 39.7232 1235.42 36.0774 Q1232.1 32.4315 1226.59 32.4315 Q1220.35 32.4315 1216.58 35.9558 Q1212.85 39.4801 1212.29 45.8805 L1238.86 45.84 Z" fill="#000000" fill-rule="evenodd" fill-opacity="1" /><path clip-path="url(#clip830)" d="M 0 0 M1296.26 45.1919 L1296.26 72.576 L1288.81 72.576 L1288.81 45.4349 Q1288.81 38.994 1286.3 35.7938 Q1283.79 32.5936 1278.76 32.5936 Q1272.73 32.5936 1269.24 36.4419 Q1265.76 40.2903 1265.76 46.9338 L1265.76 72.576 L1258.27 72.576 L1258.27 27.2059 L1265.76 27.2059 L1265.76 34.2544 Q1268.43 30.163 1272.04 28.1376 Q1275.68 26.1121 1280.42 26.1121 Q1288.24 26.1121 1292.25 30.9732 Q1296.26 35.7938 1296.26 45.1919 Z" fill="#000000" fill-rule="evenodd" fill-opacity="1" /><path clip-path="url(#clip830)" d="M 0 0 M1349.94 48.0275 L1349.94 51.6733 L1315.67 51.6733 Q1316.15 59.3701 1320.28 63.421 Q1324.46 67.4314 1331.87 67.4314 Q1336.16 67.4314 1340.17 66.3781 Q1344.23 65.3249 1348.2 63.2184 L1348.2 70.267 Q1344.18 71.9684 1339.97 72.8596 Q1335.76 73.7508 1331.42 73.7508 Q1320.57 73.7508 1314.21 67.4314 Q1307.89 61.1119 1307.89 50.3365 Q1307.89 39.1965 1313.88 32.6746 Q1319.92 26.1121 1330.13 26.1121 Q1339.28 26.1121 1344.59 32.0264 Q1349.94 37.9003 1349.94 48.0275 M1342.48 45.84 Q1342.4 39.7232 1339.04 36.0774 Q1335.72 32.4315 1330.21 32.4315 Q1323.97 32.4315 1320.2 35.9558 Q1316.48 39.4801 1315.91 45.8805 L1342.48 45.84 Z" fill="#000000" fill-rule="evenodd" fill-opacity="1" /><path clip-path="url(#clip830)" d="M 0 0 M1388.46 34.1734 Q1387.21 33.4443 1385.71 33.1202 Q1384.25 32.7556 1382.47 32.7556 Q1376.15 32.7556 1372.74 36.8875 Q1369.38 40.9789 1369.38 48.6757 L1369.38 72.576 L1361.89 72.576 L1361.89 27.2059 L1369.38 27.2059 L1369.38 34.2544 Q1371.73 30.1225 1375.5 28.1376 Q1379.27 26.1121 1384.65 26.1121 Q1385.42 26.1121 1386.35 26.2337 Q1387.29 26.3147 1388.42 26.5172 L1388.46 34.1734 Z" fill="#000000" fill-rule="evenodd" fill-opacity="1" /><path clip-path="url(#clip830)" d="M 0 0 M1416.9 49.7694 Q1407.86 49.7694 1404.38 51.8354 Q1400.9 53.9013 1400.9 58.8839 Q1400.9 62.8538 1403.49 65.2034 Q1406.12 67.5124 1410.62 67.5124 Q1416.82 67.5124 1420.54 63.1374 Q1424.31 58.7219 1424.31 51.4303 L1424.31 49.7694 L1416.9 49.7694 M1431.77 46.6907 L1431.77 72.576 L1424.31 72.576 L1424.31 65.6895 Q1421.76 69.8214 1417.95 71.8063 Q1414.14 73.7508 1408.63 73.7508 Q1401.67 73.7508 1397.54 69.8619 Q1393.44 65.9325 1393.44 59.3701 Q1393.44 51.7138 1398.55 47.825 Q1403.69 43.9361 1413.86 43.9361 L1424.31 43.9361 L1424.31 43.2069 Q1424.31 38.0623 1420.91 35.2672 Q1417.55 32.4315 1411.43 32.4315 Q1407.54 32.4315 1403.85 33.3632 Q1400.17 34.295 1396.77 36.1584 L1396.77 29.2718 Q1400.86 27.692 1404.71 26.9223 Q1408.55 26.1121 1412.2 26.1121 Q1422.04 26.1121 1426.9 31.2163 Q1431.77 36.3204 1431.77 46.6907 Z" fill="#000000" fill-rule="evenodd" fill-opacity="1" /><path clip-path="url(#clip830)" d="M 0 0 M1454.49 14.324 L1454.49 27.2059 L1469.84 27.2059 L1469.84 32.9987 L1454.49 32.9987 L1454.49 57.6282 Q1454.49 63.1779 1455.99 64.7578 Q1457.53 66.3376 1462.19 66.3376 L1469.84 66.3376 L1469.84 72.576 L1462.19 72.576 Q1453.56 72.576 1450.28 69.3758 Q1447 66.1351 1447 57.6282 L1447 32.9987 L1441.53 32.9987 L1441.53 27.2059 L1447 27.2059 L1447 14.324 L1454.49 14.324 Z" fill="#000000" fill-rule="evenodd" fill-opacity="1" /><path clip-path="url(#clip830)" d="M 0 0 M1479.65 27.2059 L1487.1 27.2059 L1487.1 72.576 L1479.65 72.576 L1479.65 27.2059 M1479.65 9.54393 L1487.1 9.54393 L1487.1 18.9825 L1479.65 18.9825 L1479.65 9.54393 Z" fill="#000000" fill-rule="evenodd" fill-opacity="1" /><path clip-path="url(#clip830)" d="M 0 0 M1520.28 32.4315 Q1514.28 32.4315 1510.8 37.1306 Q1507.31 41.7891 1507.31 49.9314 Q1507.31 58.0738 1510.76 62.7728 Q1514.24 67.4314 1520.28 67.4314 Q1526.23 67.4314 1529.72 62.7323 Q1533.2 58.0333 1533.2 49.9314 Q1533.2 41.8701 1529.72 37.1711 Q1526.23 32.4315 1520.28 32.4315 M1520.28 26.1121 Q1530 26.1121 1535.55 32.4315 Q1541.1 38.7509 1541.1 49.9314 Q1541.1 61.0714 1535.55 67.4314 Q1530 73.7508 1520.28 73.7508 Q1510.51 73.7508 1504.97 67.4314 Q1499.46 61.0714 1499.46 49.9314 Q1499.46 38.7509 1504.97 32.4315 Q1510.51 26.1121 1520.28 26.1121 Z" fill="#000000" fill-rule="evenodd" fill-opacity="1" /><path clip-path="url(#clip830)" d="M 0 0 M1591.17 45.1919 L1591.17 72.576 L1583.71 72.576 L1583.71 45.4349 Q1583.71 38.994 1581.2 35.7938 Q1578.69 32.5936 1573.67 32.5936 Q1567.63 32.5936 1564.15 36.4419 Q1560.67 40.2903 1560.67 46.9338 L1560.67 72.576 L1553.17 72.576 L1553.17 27.2059 L1560.67 27.2059 L1560.67 34.2544 Q1563.34 30.163 1566.94 28.1376 Q1570.59 26.1121 1575.33 26.1121 Q1583.15 26.1121 1587.16 30.9732 Q1591.17 35.7938 1591.17 45.1919 Z" fill="#000000" fill-rule="evenodd" fill-opacity="1" /><path clip-path="url(#clip832)" d="
M289.225 187.704 L289.225 1435.94 L403.544 1435.94 L403.544 187.704 L289.225 187.704 L289.225 187.704  Z
  " fill="#009af9" fill-rule="evenodd" fill-opacity="0.8"/>
<polyline clip-path="url(#clip832)" style="stroke:#000000; stroke-width:4; stroke-opacity:0.8; fill:none" points="
  289.225,187.704 289.225,1435.94 403.544,1435.94 403.544,187.704 289.225,187.704 
  "/>
<path clip-path="url(#clip832)" d="
M403.544 902.838 L403.544 1435.94 L517.864 1435.94 L517.864 902.838 L403.544 902.838 L403.544 902.838  Z
  " fill="#009af9" fill-rule="evenodd" fill-opacity="0.8"/>
<polyline clip-path="url(#clip832)" style="stroke:#000000; stroke-width:4; stroke-opacity:0.8; fill:none" points="
  403.544,902.838 403.544,1435.94 517.864,1435.94 517.864,902.838 403.544,902.838 
  "/>
<path clip-path="url(#clip832)" d="
M517.864 1214.9 L517.864 1435.94 L632.183 1435.94 L632.183 1214.9 L517.864 1214.9 L517.864 1214.9  Z
  " fill="#009af9" fill-rule="evenodd" fill-opacity="0.8"/>
<polyline clip-path="url(#clip832)" style="stroke:#000000; stroke-width:4; stroke-opacity:0.8; fill:none" points="
  517.864,1214.9 517.864,1435.94 632.183,1435.94 632.183,1214.9 517.864,1214.9 
  "/>
<path clip-path="url(#clip832)" d="
M632.183 1253.9 L632.183 1435.94 L746.502 1435.94 L746.502 1253.9 L632.183 1253.9 L632.183 1253.9  Z
  " fill="#009af9" fill-rule="evenodd" fill-opacity="0.8"/>
<polyline clip-path="url(#clip832)" style="stroke:#000000; stroke-width:4; stroke-opacity:0.8; fill:none" points="
  632.183,1253.9 632.183,1435.94 746.502,1435.94 746.502,1253.9 632.183,1253.9 
  "/>
<path clip-path="url(#clip832)" d="
M746.502 1370.93 L746.502 1435.94 L860.821 1435.94 L860.821 1370.93 L746.502 1370.93 L746.502 1370.93  Z
  " fill="#009af9" fill-rule="evenodd" fill-opacity="0.8"/>
<polyline clip-path="url(#clip832)" style="stroke:#000000; stroke-width:4; stroke-opacity:0.8; fill:none" points="
  746.502,1370.93 746.502,1435.94 860.821,1435.94 860.821,1370.93 746.502,1370.93 
  "/>
<path clip-path="url(#clip832)" d="
M860.821 1344.92 L860.821 1435.94 L975.141 1435.94 L975.141 1344.92 L860.821 1344.92 L860.821 1344.92  Z
  " fill="#009af9" fill-rule="evenodd" fill-opacity="0.8"/>
<polyline clip-path="url(#clip832)" style="stroke:#000000; stroke-width:4; stroke-opacity:0.8; fill:none" points="
  860.821,1344.92 860.821,1435.94 975.141,1435.94 975.141,1344.92 860.821,1344.92 
  "/>
<path clip-path="url(#clip832)" d="
M975.141 1357.92 L975.141 1435.94 L1089.46 1435.94 L1089.46 1357.92 L975.141 1357.92 L975.141 1357.92  Z
  " fill="#009af9" fill-rule="evenodd" fill-opacity="0.8"/>
<polyline clip-path="url(#clip832)" style="stroke:#000000; stroke-width:4; stroke-opacity:0.8; fill:none" points="
  975.141,1357.92 975.141,1435.94 1089.46,1435.94 1089.46,1357.92 975.141,1357.92 
  "/>
<path clip-path="url(#clip832)" d="
M1089.46 1383.93 L1089.46 1435.94 L1203.78 1435.94 L1203.78 1383.93 L1089.46 1383.93 L1089.46 1383.93  Z
  " fill="#009af9" fill-rule="evenodd" fill-opacity="0.8"/>
<polyline clip-path="url(#clip832)" style="stroke:#000000; stroke-width:4; stroke-opacity:0.8; fill:none" points="
  1089.46,1383.93 1089.46,1435.94 1203.78,1435.94 1203.78,1383.93 1089.46,1383.93 
  "/>
<path clip-path="url(#clip832)" d="
M1203.78 1435.94 L1203.78 1435.94 L1318.1 1435.94 L1318.1 1435.94 L1203.78 1435.94 L1203.78 1435.94  Z
  " fill="#009af9" fill-rule="evenodd" fill-opacity="0.8"/>
<polyline clip-path="url(#clip832)" style="stroke:#000000; stroke-width:4; stroke-opacity:0.8; fill:none" points="
  1203.78,1435.94 1203.78,1435.94 1318.1,1435.94 1203.78,1435.94 
  "/>
<path clip-path="url(#clip832)" d="
M1318.1 1396.93 L1318.1 1435.94 L1432.42 1435.94 L1432.42 1396.93 L1318.1 1396.93 L1318.1 1396.93  Z
  " fill="#009af9" fill-rule="evenodd" fill-opacity="0.8"/>
<polyline clip-path="url(#clip832)" style="stroke:#000000; stroke-width:4; stroke-opacity:0.8; fill:none" points="
  1318.1,1396.93 1318.1,1435.94 1432.42,1435.94 1432.42,1396.93 1318.1,1396.93 
  "/>
<path clip-path="url(#clip832)" d="
M1432.42 1435.94 L1432.42 1435.94 L1546.74 1435.94 L1546.74 1435.94 L1432.42 1435.94 L1432.42 1435.94  Z
  " fill="#009af9" fill-rule="evenodd" fill-opacity="0.8"/>
<polyline clip-path="url(#clip832)" style="stroke:#000000; stroke-width:4; stroke-opacity:0.8; fill:none" points="
  1432.42,1435.94 1432.42,1435.94 1546.74,1435.94 1432.42,1435.94 
  "/>
<path clip-path="url(#clip832)" d="
M1546.74 1435.94 L1546.74 1435.94 L1661.06 1435.94 L1661.06 1435.94 L1546.74 1435.94 L1546.74 1435.94  Z
  " fill="#009af9" fill-rule="evenodd" fill-opacity="0.8"/>
<polyline clip-path="url(#clip832)" style="stroke:#000000; stroke-width:4; stroke-opacity:0.8; fill:none" points="
  1546.74,1435.94 1546.74,1435.94 1661.06,1435.94 1546.74,1435.94 
  "/>
<path clip-path="url(#clip832)" d="
M1661.06 1435.94 L1661.06 1435.94 L1775.38 1435.94 L1775.38 1435.94 L1661.06 1435.94 L1661.06 1435.94  Z
  " fill="#009af9" fill-rule="evenodd" fill-opacity="0.8"/>
<polyline clip-path="url(#clip832)" style="stroke:#000000; stroke-width:4; stroke-opacity:0.8; fill:none" points="
  1661.06,1435.94 1661.06,1435.94 1775.38,1435.94 1661.06,1435.94 
  "/>
<path clip-path="url(#clip832)" d="
M1775.38 1435.94 L1775.38 1435.94 L1889.69 1435.94 L1889.69 1435.94 L1775.38 1435.94 L1775.38 1435.94  Z
  " fill="#009af9" fill-rule="evenodd" fill-opacity="0.8"/>
<polyline clip-path="url(#clip832)" style="stroke:#000000; stroke-width:4; stroke-opacity:0.8; fill:none" points="
  1775.38,1435.94 1775.38,1435.94 1889.69,1435.94 1775.38,1435.94 
  "/>
<path clip-path="url(#clip832)" d="
M1889.69 1435.94 L1889.69 1435.94 L2004.01 1435.94 L2004.01 1435.94 L1889.69 1435.94 L1889.69 1435.94  Z
  " fill="#009af9" fill-rule="evenodd" fill-opacity="0.8"/>
<polyline clip-path="url(#clip832)" style="stroke:#000000; stroke-width:4; stroke-opacity:0.8; fill:none" points="
  1889.69,1435.94 1889.69,1435.94 2004.01,1435.94 1889.69,1435.94 
  "/>
<path clip-path="url(#clip832)" d="
M2004.01 1435.94 L2004.01 1435.94 L2118.33 1435.94 L2118.33 1435.94 L2004.01 1435.94 L2004.01 1435.94  Z
  " fill="#009af9" fill-rule="evenodd" fill-opacity="0.8"/>
<polyline clip-path="url(#clip832)" style="stroke:#000000; stroke-width:4; stroke-opacity:0.8; fill:none" points="
  2004.01,1435.94 2004.01,1435.94 2118.33,1435.94 2004.01,1435.94 
  "/>
<path clip-path="url(#clip832)" d="
M2118.33 1422.94 L2118.33 1435.94 L2232.65 1435.94 L2232.65 1422.94 L2118.33 1422.94 L2118.33 1422.94  Z
  " fill="#009af9" fill-rule="evenodd" fill-opacity="0.8"/>
<polyline clip-path="url(#clip832)" style="stroke:#000000; stroke-width:4; stroke-opacity:0.8; fill:none" points="
  2118.33,1422.94 2118.33,1435.94 2232.65,1435.94 2232.65,1422.94 2118.33,1422.94 
  "/>
<path clip-path="url(#clip832)" d="
M289.225 161.699 L289.225 1435.94 L403.544 1435.94 L403.544 161.699 L289.225 161.699 L289.225 161.699  Z
  " fill="#e26f46" fill-rule="evenodd" fill-opacity="0.8"/>
<polyline clip-path="url(#clip832)" style="stroke:#000000; stroke-width:4; stroke-opacity:0.8; fill:none" points="
  289.225,161.699 289.225,1435.94 403.544,1435.94 403.544,161.699 289.225,161.699 
  "/>
<path clip-path="url(#clip832)" d="
M403.544 1032.86 L403.544 1435.94 L517.864 1435.94 L517.864 1032.86 L403.544 1032.86 L403.544 1032.86  Z
  " fill="#e26f46" fill-rule="evenodd" fill-opacity="0.8"/>
<polyline clip-path="url(#clip832)" style="stroke:#000000; stroke-width:4; stroke-opacity:0.8; fill:none" points="
  403.544,1032.86 403.544,1435.94 517.864,1435.94 517.864,1032.86 403.544,1032.86 
  "/>
<path clip-path="url(#clip832)" d="
M517.864 1162.89 L517.864 1435.94 L632.183 1435.94 L632.183 1162.89 L517.864 1162.89 L517.864 1162.89  Z
  " fill="#e26f46" fill-rule="evenodd" fill-opacity="0.8"/>
<polyline clip-path="url(#clip832)" style="stroke:#000000; stroke-width:4; stroke-opacity:0.8; fill:none" points="
  517.864,1162.89 517.864,1435.94 632.183,1435.94 632.183,1162.89 517.864,1162.89 
  "/>
<path clip-path="url(#clip832)" d="
M632.183 1227.9 L632.183 1435.94 L746.502 1435.94 L746.502 1227.9 L632.183 1227.9 L632.183 1227.9  Z
  " fill="#e26f46" fill-rule="evenodd" fill-opacity="0.8"/>
<polyline clip-path="url(#clip832)" style="stroke:#000000; stroke-width:4; stroke-opacity:0.8; fill:none" points="
  632.183,1227.9 632.183,1435.94 746.502,1435.94 746.502,1227.9 632.183,1227.9 
  "/>
<path clip-path="url(#clip832)" d="
M746.502 1383.93 L746.502 1435.94 L860.821 1435.94 L860.821 1383.93 L746.502 1383.93 L746.502 1383.93  Z
  " fill="#e26f46" fill-rule="evenodd" fill-opacity="0.8"/>
<polyline clip-path="url(#clip832)" style="stroke:#000000; stroke-width:4; stroke-opacity:0.8; fill:none" points="
  746.502,1383.93 746.502,1435.94 860.821,1435.94 860.821,1383.93 746.502,1383.93 
  "/>
<path clip-path="url(#clip832)" d="
M860.821 1409.93 L860.821 1435.94 L975.141 1435.94 L975.141 1409.93 L860.821 1409.93 L860.821 1409.93  Z
  " fill="#e26f46" fill-rule="evenodd" fill-opacity="0.8"/>
<polyline clip-path="url(#clip832)" style="stroke:#000000; stroke-width:4; stroke-opacity:0.8; fill:none" points="
  860.821,1409.93 860.821,1435.94 975.141,1435.94 975.141,1409.93 860.821,1409.93 
  "/>
<path clip-path="url(#clip832)" d="
M975.141 1370.93 L975.141 1435.94 L1089.46 1435.94 L1089.46 1370.93 L975.141 1370.93 L975.141 1370.93  Z
  " fill="#e26f46" fill-rule="evenodd" fill-opacity="0.8"/>
<polyline clip-path="url(#clip832)" style="stroke:#000000; stroke-width:4; stroke-opacity:0.8; fill:none" points="
  975.141,1370.93 975.141,1435.94 1089.46,1435.94 1089.46,1370.93 975.141,1370.93 
  "/>
<path clip-path="url(#clip832)" d="
M1089.46 1370.93 L1089.46 1435.94 L1203.78 1435.94 L1203.78 1370.93 L1089.46 1370.93 L1089.46 1370.93  Z
  " fill="#e26f46" fill-rule="evenodd" fill-opacity="0.8"/>
<polyline clip-path="url(#clip832)" style="stroke:#000000; stroke-width:4; stroke-opacity:0.8; fill:none" points="
  1089.46,1370.93 1089.46,1435.94 1203.78,1435.94 1203.78,1370.93 1089.46,1370.93 
  "/>
<path clip-path="url(#clip832)" d="
M1203.78 1409.93 L1203.78 1435.94 L1318.1 1435.94 L1318.1 1409.93 L1203.78 1409.93 L1203.78 1409.93  Z
  " fill="#e26f46" fill-rule="evenodd" fill-opacity="0.8"/>
<polyline clip-path="url(#clip832)" style="stroke:#000000; stroke-width:4; stroke-opacity:0.8; fill:none" points="
  1203.78,1409.93 1203.78,1435.94 1318.1,1435.94 1318.1,1409.93 1203.78,1409.93 
  "/>
<path clip-path="url(#clip832)" d="
M1318.1 1396.93 L1318.1 1435.94 L1432.42 1435.94 L1432.42 1396.93 L1318.1 1396.93 L1318.1 1396.93  Z
  " fill="#e26f46" fill-rule="evenodd" fill-opacity="0.8"/>
<polyline clip-path="url(#clip832)" style="stroke:#000000; stroke-width:4; stroke-opacity:0.8; fill:none" points="
  1318.1,1396.93 1318.1,1435.94 1432.42,1435.94 1432.42,1396.93 1318.1,1396.93 
  "/>
<path clip-path="url(#clip832)" d="
M1432.42 1435.94 L1432.42 1435.94 L1546.74 1435.94 L1546.74 1435.94 L1432.42 1435.94 L1432.42 1435.94  Z
  " fill="#e26f46" fill-rule="evenodd" fill-opacity="0.8"/>
<polyline clip-path="url(#clip832)" style="stroke:#000000; stroke-width:4; stroke-opacity:0.8; fill:none" points="
  1432.42,1435.94 1432.42,1435.94 1546.74,1435.94 1432.42,1435.94 
  "/>
<path clip-path="url(#clip832)" d="
M1546.74 1422.94 L1546.74 1435.94 L1661.06 1435.94 L1661.06 1422.94 L1546.74 1422.94 L1546.74 1422.94  Z
  " fill="#e26f46" fill-rule="evenodd" fill-opacity="0.8"/>
<polyline clip-path="url(#clip832)" style="stroke:#000000; stroke-width:4; stroke-opacity:0.8; fill:none" points="
  1546.74,1422.94 1546.74,1435.94 1661.06,1435.94 1661.06,1422.94 1546.74,1422.94 
  "/>
<path clip-path="url(#clip830)" d="
M1625.96 349.935 L2279.97 349.935 L2279.97 168.495 L1625.96 168.495  Z
  " fill="#ffffff" fill-rule="evenodd" fill-opacity="1"/>
<polyline clip-path="url(#clip830)" style="stroke:#000000; stroke-width:4; stroke-opacity:1; fill:none" points="
  1625.96,349.935 2279.97,349.935 2279.97,168.495 1625.96,168.495 1625.96,349.935 
  "/>
<path clip-path="url(#clip830)" d="
M1650.22 253.167 L1795.79 253.167 L1795.79 204.783 L1650.22 204.783 L1650.22 253.167  Z
  " fill="#009af9" fill-rule="evenodd" fill-opacity="0.8"/>
<polyline clip-path="url(#clip830)" style="stroke:#000000; stroke-width:4; stroke-opacity:1; fill:none" points="
  1650.22,253.167 1795.79,253.167 1795.79,204.783 1650.22,204.783 1650.22,253.167 
  "/>
<path clip-path="url(#clip830)" d="M 0 0 M1827.16 211.695 L1831.84 211.695 L1831.84 243.848 Q1831.84 250.098 1829.45 252.922 Q1827.09 255.746 1821.84 255.746 L1820.06 255.746 L1820.06 251.811 L1821.51 251.811 Q1824.62 251.811 1825.89 250.075 Q1827.16 248.339 1827.16 243.848 L1827.16 211.695 Z" fill="#000000" fill-rule="evenodd" fill-opacity="1" /><path clip-path="url(#clip830)" d="M 0 0 M1852.74 233.223 Q1847.58 233.223 1845.59 234.403 Q1843.6 235.584 1843.6 238.431 Q1843.6 240.7 1845.08 242.042 Q1846.58 243.362 1849.15 243.362 Q1852.69 243.362 1854.82 240.862 Q1856.98 238.339 1856.98 234.172 L1856.98 233.223 L1852.74 233.223 M1861.24 231.464 L1861.24 246.255 L1856.98 246.255 L1856.98 242.32 Q1855.52 244.681 1853.34 245.815 Q1851.17 246.927 1848.02 246.927 Q1844.04 246.927 1841.68 244.704 Q1839.34 242.459 1839.34 238.709 Q1839.34 234.334 1842.26 232.112 Q1845.19 229.89 1851.01 229.89 L1856.98 229.89 L1856.98 229.473 Q1856.98 226.533 1855.03 224.936 Q1853.11 223.316 1849.62 223.316 Q1847.39 223.316 1845.29 223.848 Q1843.18 224.38 1841.24 225.445 L1841.24 221.51 Q1843.57 220.607 1845.77 220.167 Q1847.97 219.704 1850.06 219.704 Q1855.68 219.704 1858.46 222.621 Q1861.24 225.538 1861.24 231.464 Z" fill="#000000" fill-rule="evenodd" fill-opacity="1" /><path clip-path="url(#clip830)" d="M 0 0 M1874.13 242.366 L1874.13 256.116 L1869.85 256.116 L1869.85 220.329 L1874.13 220.329 L1874.13 224.265 Q1875.47 221.95 1877.51 220.839 Q1879.57 219.704 1882.42 219.704 Q1887.14 219.704 1890.08 223.454 Q1893.04 227.204 1893.04 233.315 Q1893.04 239.427 1890.08 243.177 Q1887.14 246.927 1882.42 246.927 Q1879.57 246.927 1877.51 245.815 Q1875.47 244.681 1874.13 242.366 M1888.62 233.315 Q1888.62 228.616 1886.68 225.954 Q1884.75 223.269 1881.38 223.269 Q1878 223.269 1876.05 225.954 Q1874.13 228.616 1874.13 233.315 Q1874.13 238.015 1876.05 240.7 Q1878 243.362 1881.38 243.362 Q1884.75 243.362 1886.68 240.7 Q1888.62 238.015 1888.62 233.315 Z" fill="#000000" fill-rule="evenodd" fill-opacity="1" /><path clip-path="url(#clip830)" d="M 0 0 M1911.88 233.223 Q1906.72 233.223 1904.73 234.403 Q1902.74 235.584 1902.74 238.431 Q1902.74 240.7 1904.22 242.042 Q1905.73 243.362 1908.3 243.362 Q1911.84 243.362 1913.97 240.862 Q1916.12 238.339 1916.12 234.172 L1916.12 233.223 L1911.88 233.223 M1920.38 231.464 L1920.38 246.255 L1916.12 246.255 L1916.12 242.32 Q1914.66 244.681 1912.49 245.815 Q1910.31 246.927 1907.16 246.927 Q1903.18 246.927 1900.82 244.704 Q1898.48 242.459 1898.48 238.709 Q1898.48 234.334 1901.4 232.112 Q1904.34 229.89 1910.15 229.89 L1916.12 229.89 L1916.12 229.473 Q1916.12 226.533 1914.18 224.936 Q1912.25 223.316 1908.76 223.316 Q1906.54 223.316 1904.43 223.848 Q1902.32 224.38 1900.38 225.445 L1900.38 221.51 Q1902.72 220.607 1904.92 220.167 Q1907.12 219.704 1909.2 219.704 Q1914.82 219.704 1917.6 222.621 Q1920.38 225.538 1920.38 231.464 Z" fill="#000000" fill-rule="evenodd" fill-opacity="1" /><path clip-path="url(#clip830)" d="M 0 0 M1950.7 230.607 L1950.7 246.255 L1946.44 246.255 L1946.44 230.746 Q1946.44 227.065 1945.01 225.237 Q1943.57 223.408 1940.7 223.408 Q1937.25 223.408 1935.26 225.607 Q1933.27 227.806 1933.27 231.603 L1933.27 246.255 L1928.99 246.255 L1928.99 220.329 L1933.27 220.329 L1933.27 224.357 Q1934.8 222.019 1936.86 220.862 Q1938.94 219.704 1941.65 219.704 Q1946.12 219.704 1948.41 222.482 Q1950.7 225.237 1950.7 230.607 Z" fill="#000000" fill-rule="evenodd" fill-opacity="1" /><path clip-path="url(#clip830)" d="M 0 0 M1995.17 212.829 L1995.17 217.39 Q1992.51 216.116 1990.15 215.491 Q1987.79 214.866 1985.59 214.866 Q1981.77 214.866 1979.68 216.348 Q1977.62 217.829 1977.62 220.561 Q1977.62 222.853 1978.99 224.033 Q1980.38 225.191 1984.22 225.908 L1987.05 226.487 Q1992.28 227.482 1994.75 230.005 Q1997.25 232.505 1997.25 236.718 Q1997.25 241.741 1993.87 244.334 Q1990.52 246.927 1984.01 246.927 Q1981.56 246.927 1978.78 246.371 Q1976.03 245.815 1973.06 244.727 L1973.06 239.913 Q1975.91 241.51 1978.64 242.32 Q1981.37 243.13 1984.01 243.13 Q1988.02 243.13 1990.19 241.556 Q1992.37 239.982 1992.37 237.065 Q1992.37 234.519 1990.8 233.084 Q1989.25 231.649 1985.68 230.931 L1982.83 230.376 Q1977.6 229.334 1975.26 227.112 Q1972.93 224.89 1972.93 220.931 Q1972.93 216.348 1976.14 213.709 Q1979.38 211.07 1985.06 211.07 Q1987.49 211.07 1990.01 211.51 Q1992.53 211.95 1995.17 212.829 Z" fill="#000000" fill-rule="evenodd" fill-opacity="1" /><path clip-path="url(#clip830)" d="M 0 0 M2004.36 220.329 L2008.62 220.329 L2008.62 246.255 L2004.36 246.255 L2004.36 220.329 M2004.36 210.237 L2008.62 210.237 L2008.62 215.63 L2004.36 215.63 L2004.36 210.237 Z" fill="#000000" fill-rule="evenodd" fill-opacity="1" /><path clip-path="url(#clip830)" d="M 0 0 M2037.72 225.306 Q2039.31 222.436 2041.54 221.07 Q2043.76 219.704 2046.77 219.704 Q2050.82 219.704 2053.02 222.552 Q2055.22 225.376 2055.22 230.607 L2055.22 246.255 L2050.93 246.255 L2050.93 230.746 Q2050.93 227.019 2049.62 225.214 Q2048.3 223.408 2045.59 223.408 Q2042.28 223.408 2040.36 225.607 Q2038.43 227.806 2038.43 231.603 L2038.43 246.255 L2034.15 246.255 L2034.15 230.746 Q2034.15 226.996 2032.83 225.214 Q2031.51 223.408 2028.76 223.408 Q2025.49 223.408 2023.57 225.63 Q2021.65 227.829 2021.65 231.603 L2021.65 246.255 L2017.37 246.255 L2017.37 220.329 L2021.65 220.329 L2021.65 224.357 Q2023.11 221.973 2025.15 220.839 Q2027.18 219.704 2029.99 219.704 Q2032.81 219.704 2034.78 221.14 Q2036.77 222.575 2037.72 225.306 Z" fill="#000000" fill-rule="evenodd" fill-opacity="1" /><path clip-path="url(#clip830)" d="M 0 0 M2063.27 236.024 L2063.27 220.329 L2067.53 220.329 L2067.53 235.862 Q2067.53 239.542 2068.97 241.394 Q2070.4 243.223 2073.27 243.223 Q2076.72 243.223 2078.71 241.024 Q2080.73 238.825 2080.73 235.028 L2080.73 220.329 L2084.99 220.329 L2084.99 246.255 L2080.73 246.255 L2080.73 242.274 Q2079.18 244.635 2077.11 245.792 Q2075.08 246.927 2072.37 246.927 Q2067.9 246.927 2065.59 244.149 Q2063.27 241.371 2063.27 236.024 M2073.99 219.704 L2073.99 219.704 Z" fill="#000000" fill-rule="evenodd" fill-opacity="1" /><path clip-path="url(#clip830)" d="M 0 0 M2093.76 210.237 L2098.02 210.237 L2098.02 246.255 L2093.76 246.255 L2093.76 210.237 Z" fill="#000000" fill-rule="evenodd" fill-opacity="1" /><path clip-path="url(#clip830)" d="M 0 0 M2118.71 233.223 Q2113.55 233.223 2111.56 234.403 Q2109.57 235.584 2109.57 238.431 Q2109.57 240.7 2111.05 242.042 Q2112.55 243.362 2115.12 243.362 Q2118.67 243.362 2120.8 240.862 Q2122.95 238.339 2122.95 234.172 L2122.95 233.223 L2118.71 233.223 M2127.21 231.464 L2127.21 246.255 L2122.95 246.255 L2122.95 242.32 Q2121.49 244.681 2119.31 245.815 Q2117.14 246.927 2113.99 246.927 Q2110.01 246.927 2107.65 244.704 Q2105.31 242.459 2105.31 238.709 Q2105.31 234.334 2108.23 232.112 Q2111.17 229.89 2116.98 229.89 L2122.95 229.89 L2122.95 229.473 Q2122.95 226.533 2121 224.936 Q2119.08 223.316 2115.59 223.316 Q2113.36 223.316 2111.26 223.848 Q2109.15 224.38 2107.21 225.445 L2107.21 221.51 Q2109.55 220.607 2111.74 220.167 Q2113.94 219.704 2116.03 219.704 Q2121.65 219.704 2124.43 222.621 Q2127.21 225.538 2127.21 231.464 Z" fill="#000000" fill-rule="evenodd" fill-opacity="1" /><path clip-path="url(#clip830)" d="M 0 0 M2140.19 212.968 L2140.19 220.329 L2148.97 220.329 L2148.97 223.64 L2140.19 223.64 L2140.19 237.714 Q2140.19 240.885 2141.05 241.788 Q2141.93 242.69 2144.59 242.69 L2148.97 242.69 L2148.97 246.255 L2144.59 246.255 Q2139.66 246.255 2137.79 244.427 Q2135.91 242.575 2135.91 237.714 L2135.91 223.64 L2132.79 223.64 L2132.79 220.329 L2135.91 220.329 L2135.91 212.968 L2140.19 212.968 Z" fill="#000000" fill-rule="evenodd" fill-opacity="1" /><path clip-path="url(#clip830)" d="M 0 0 M2154.57 220.329 L2158.83 220.329 L2158.83 246.255 L2154.57 246.255 L2154.57 220.329 M2154.57 210.237 L2158.83 210.237 L2158.83 215.63 L2154.57 215.63 L2154.57 210.237 Z" fill="#000000" fill-rule="evenodd" fill-opacity="1" /><path clip-path="url(#clip830)" d="M 0 0 M2177.79 223.316 Q2174.36 223.316 2172.37 226.001 Q2170.38 228.663 2170.38 233.315 Q2170.38 237.968 2172.35 240.653 Q2174.34 243.315 2177.79 243.315 Q2181.19 243.315 2183.18 240.63 Q2185.17 237.945 2185.17 233.315 Q2185.17 228.709 2183.18 226.024 Q2181.19 223.316 2177.79 223.316 M2177.79 219.704 Q2183.34 219.704 2186.51 223.316 Q2189.68 226.927 2189.68 233.315 Q2189.68 239.681 2186.51 243.315 Q2183.34 246.927 2177.79 246.927 Q2172.21 246.927 2169.04 243.315 Q2165.89 239.681 2165.89 233.315 Q2165.89 226.927 2169.04 223.316 Q2172.21 219.704 2177.79 219.704 Z" fill="#000000" fill-rule="evenodd" fill-opacity="1" /><path clip-path="url(#clip830)" d="M 0 0 M2218.29 230.607 L2218.29 246.255 L2214.04 246.255 L2214.04 230.746 Q2214.04 227.065 2212.6 225.237 Q2211.17 223.408 2208.29 223.408 Q2204.85 223.408 2202.86 225.607 Q2200.86 227.806 2200.86 231.603 L2200.86 246.255 L2196.58 246.255 L2196.58 220.329 L2200.86 220.329 L2200.86 224.357 Q2202.39 222.019 2204.45 220.862 Q2206.54 219.704 2209.24 219.704 Q2213.71 219.704 2216 222.482 Q2218.29 225.237 2218.29 230.607 Z" fill="#000000" fill-rule="evenodd" fill-opacity="1" /><path clip-path="url(#clip830)" d="
M1650.22 313.647 L1795.79 313.647 L1795.79 265.263 L1650.22 265.263 L1650.22 313.647  Z
  " fill="#e26f46" fill-rule="evenodd" fill-opacity="0.8"/>
<polyline clip-path="url(#clip830)" style="stroke:#000000; stroke-width:4; stroke-opacity:1; fill:none" points="
  1650.22,313.647 1795.79,313.647 1795.79,265.263 1650.22,265.263 1650.22,313.647 
  "/>
<path clip-path="url(#clip830)" d="M 0 0 M1836.44 290.532 Q1837.95 291.041 1839.36 292.708 Q1840.8 294.374 1842.23 297.291 L1846.98 306.735 L1841.95 306.735 L1837.53 297.87 Q1835.82 294.397 1834.2 293.263 Q1832.6 292.129 1829.82 292.129 L1824.73 292.129 L1824.73 306.735 L1820.06 306.735 L1820.06 272.175 L1830.61 272.175 Q1836.54 272.175 1839.45 274.652 Q1842.37 277.129 1842.37 282.129 Q1842.37 285.393 1840.84 287.545 Q1839.34 289.698 1836.44 290.532 M1824.73 276.018 L1824.73 288.286 L1830.61 288.286 Q1833.99 288.286 1835.7 286.735 Q1837.44 285.161 1837.44 282.129 Q1837.44 279.096 1835.7 277.569 Q1833.99 276.018 1830.61 276.018 L1824.73 276.018 Z" fill="#000000" fill-rule="evenodd" fill-opacity="1" /><path clip-path="url(#clip830)" d="M 0 0 M1850.24 296.504 L1850.24 280.809 L1854.5 280.809 L1854.5 296.342 Q1854.5 300.022 1855.94 301.874 Q1857.37 303.703 1860.24 303.703 Q1863.69 303.703 1865.68 301.504 Q1867.69 299.305 1867.69 295.508 L1867.69 280.809 L1871.95 280.809 L1871.95 306.735 L1867.69 306.735 L1867.69 302.754 Q1866.14 305.115 1864.08 306.272 Q1862.05 307.407 1859.34 307.407 Q1854.87 307.407 1852.56 304.629 Q1850.24 301.851 1850.24 296.504 M1860.96 280.184 L1860.96 280.184 Z" fill="#000000" fill-rule="evenodd" fill-opacity="1" /><path clip-path="url(#clip830)" d="M 0 0 M1897.25 281.573 L1897.25 285.601 Q1895.45 284.675 1893.5 284.212 Q1891.56 283.749 1889.48 283.749 Q1886.31 283.749 1884.71 284.721 Q1883.13 285.694 1883.13 287.638 Q1883.13 289.12 1884.27 289.976 Q1885.4 290.809 1888.83 291.573 L1890.29 291.897 Q1894.82 292.87 1896.72 294.652 Q1898.64 296.411 1898.64 299.582 Q1898.64 303.194 1895.77 305.3 Q1892.93 307.407 1887.93 307.407 Q1885.84 307.407 1883.57 306.99 Q1881.33 306.596 1878.83 305.786 L1878.83 301.388 Q1881.19 302.615 1883.48 303.24 Q1885.77 303.842 1888.02 303.842 Q1891.03 303.842 1892.65 302.823 Q1894.27 301.782 1894.27 299.907 Q1894.27 298.17 1893.09 297.245 Q1891.93 296.319 1887.97 295.462 L1886.49 295.115 Q1882.53 294.282 1880.77 292.569 Q1879.01 290.833 1879.01 287.823 Q1879.01 284.166 1881.61 282.175 Q1884.2 280.184 1888.97 280.184 Q1891.33 280.184 1893.41 280.532 Q1895.5 280.879 1897.25 281.573 Z" fill="#000000" fill-rule="evenodd" fill-opacity="1" /><path clip-path="url(#clip830)" d="M 0 0 M1921.95 281.573 L1921.95 285.601 Q1920.15 284.675 1918.2 284.212 Q1916.26 283.749 1914.18 283.749 Q1911 283.749 1909.41 284.721 Q1907.83 285.694 1907.83 287.638 Q1907.83 289.12 1908.97 289.976 Q1910.1 290.809 1913.53 291.573 L1914.99 291.897 Q1919.52 292.87 1921.42 294.652 Q1923.34 296.411 1923.34 299.582 Q1923.34 303.194 1920.47 305.3 Q1917.63 307.407 1912.63 307.407 Q1910.54 307.407 1908.27 306.99 Q1906.03 306.596 1903.53 305.786 L1903.53 301.388 Q1905.89 302.615 1908.18 303.24 Q1910.47 303.842 1912.72 303.842 Q1915.73 303.842 1917.35 302.823 Q1918.97 301.782 1918.97 299.907 Q1918.97 298.17 1917.79 297.245 Q1916.63 296.319 1912.67 295.462 L1911.19 295.115 Q1907.23 294.282 1905.47 292.569 Q1903.71 290.833 1903.71 287.823 Q1903.71 284.166 1906.31 282.175 Q1908.9 280.184 1913.67 280.184 Q1916.03 280.184 1918.11 280.532 Q1920.19 280.879 1921.95 281.573 Z" fill="#000000" fill-rule="evenodd" fill-opacity="1" /><path clip-path="url(#clip830)" d="M 0 0 M1930.13 280.809 L1934.38 280.809 L1934.38 306.735 L1930.13 306.735 L1930.13 280.809 M1930.13 270.717 L1934.38 270.717 L1934.38 276.11 L1930.13 276.11 L1930.13 270.717 Z" fill="#000000" fill-rule="evenodd" fill-opacity="1" /><path clip-path="url(#clip830)" d="M 0 0 M1955.08 293.703 Q1949.92 293.703 1947.93 294.883 Q1945.94 296.064 1945.94 298.911 Q1945.94 301.18 1947.42 302.522 Q1948.92 303.842 1951.49 303.842 Q1955.03 303.842 1957.16 301.342 Q1959.31 298.819 1959.31 294.652 L1959.31 293.703 L1955.08 293.703 M1963.57 291.944 L1963.57 306.735 L1959.31 306.735 L1959.31 302.8 Q1957.86 305.161 1955.68 306.295 Q1953.5 307.407 1950.36 307.407 Q1946.37 307.407 1944.01 305.184 Q1941.68 302.939 1941.68 299.189 Q1941.68 294.814 1944.59 292.592 Q1947.53 290.37 1953.34 290.37 L1959.31 290.37 L1959.31 289.953 Q1959.31 287.013 1957.37 285.416 Q1955.45 283.796 1951.95 283.796 Q1949.73 283.796 1947.62 284.328 Q1945.52 284.86 1943.57 285.925 L1943.57 281.99 Q1945.91 281.087 1948.11 280.647 Q1950.31 280.184 1952.39 280.184 Q1958.02 280.184 1960.8 283.101 Q1963.57 286.018 1963.57 291.944 Z" fill="#000000" fill-rule="evenodd" fill-opacity="1" /><path clip-path="url(#clip830)" d="M 0 0 M2008.32 273.309 L2008.32 277.87 Q2005.66 276.596 2003.3 275.971 Q2000.93 275.346 1998.74 275.346 Q1994.92 275.346 1992.83 276.828 Q1990.77 278.309 1990.77 281.041 Q1990.77 283.333 1992.14 284.513 Q1993.53 285.671 1997.37 286.388 L2000.19 286.967 Q2005.43 287.962 2007.9 290.485 Q2010.4 292.985 2010.4 297.198 Q2010.4 302.221 2007.02 304.814 Q2003.67 307.407 1997.16 307.407 Q1994.71 307.407 1991.93 306.851 Q1989.18 306.295 1986.21 305.207 L1986.21 300.393 Q1989.06 301.99 1991.79 302.8 Q1994.52 303.61 1997.16 303.61 Q2001.17 303.61 2003.34 302.036 Q2005.52 300.462 2005.52 297.545 Q2005.52 294.999 2003.94 293.564 Q2002.39 292.129 1998.83 291.411 L1995.98 290.856 Q1990.75 289.814 1988.41 287.592 Q1986.07 285.37 1986.07 281.411 Q1986.07 276.828 1989.29 274.189 Q1992.53 271.55 1998.2 271.55 Q2000.63 271.55 2003.16 271.99 Q2005.68 272.43 2008.32 273.309 Z" fill="#000000" fill-rule="evenodd" fill-opacity="1" /><path clip-path="url(#clip830)" d="M 0 0 M2017.51 280.809 L2021.77 280.809 L2021.77 306.735 L2017.51 306.735 L2017.51 280.809 M2017.51 270.717 L2021.77 270.717 L2021.77 276.11 L2017.51 276.11 L2017.51 270.717 Z" fill="#000000" fill-rule="evenodd" fill-opacity="1" /><path clip-path="url(#clip830)" d="M 0 0 M2050.87 285.786 Q2052.46 282.916 2054.68 281.55 Q2056.91 280.184 2059.92 280.184 Q2063.97 280.184 2066.17 283.032 Q2068.37 285.856 2068.37 291.087 L2068.37 306.735 L2064.08 306.735 L2064.08 291.226 Q2064.08 287.499 2062.76 285.694 Q2061.44 283.888 2058.74 283.888 Q2055.43 283.888 2053.5 286.087 Q2051.58 288.286 2051.58 292.083 L2051.58 306.735 L2047.3 306.735 L2047.3 291.226 Q2047.3 287.476 2045.98 285.694 Q2044.66 283.888 2041.91 283.888 Q2038.64 283.888 2036.72 286.11 Q2034.8 288.309 2034.8 292.083 L2034.8 306.735 L2030.52 306.735 L2030.52 280.809 L2034.8 280.809 L2034.8 284.837 Q2036.26 282.453 2038.3 281.319 Q2040.33 280.184 2043.13 280.184 Q2045.96 280.184 2047.93 281.62 Q2049.92 283.055 2050.87 285.786 Z" fill="#000000" fill-rule="evenodd" fill-opacity="1" /><path clip-path="url(#clip830)" d="M 0 0 M2076.42 296.504 L2076.42 280.809 L2080.68 280.809 L2080.68 296.342 Q2080.68 300.022 2082.11 301.874 Q2083.55 303.703 2086.42 303.703 Q2089.87 303.703 2091.86 301.504 Q2093.87 299.305 2093.87 295.508 L2093.87 280.809 L2098.13 280.809 L2098.13 306.735 L2093.87 306.735 L2093.87 302.754 Q2092.32 305.115 2090.26 306.272 Q2088.23 307.407 2085.52 307.407 Q2081.05 307.407 2078.74 304.629 Q2076.42 301.851 2076.42 296.504 M2087.14 280.184 L2087.14 280.184 Z" fill="#000000" fill-rule="evenodd" fill-opacity="1" /><path clip-path="url(#clip830)" d="M 0 0 M2106.91 270.717 L2111.17 270.717 L2111.17 306.735 L2106.91 306.735 L2106.91 270.717 Z" fill="#000000" fill-rule="evenodd" fill-opacity="1" /><path clip-path="url(#clip830)" d="M 0 0 M2131.86 293.703 Q2126.7 293.703 2124.71 294.883 Q2122.72 296.064 2122.72 298.911 Q2122.72 301.18 2124.2 302.522 Q2125.7 303.842 2128.27 303.842 Q2131.81 303.842 2133.94 301.342 Q2136.1 298.819 2136.1 294.652 L2136.1 293.703 L2131.86 293.703 M2140.36 291.944 L2140.36 306.735 L2136.1 306.735 L2136.1 302.8 Q2134.64 305.161 2132.46 306.295 Q2130.29 307.407 2127.14 307.407 Q2123.16 307.407 2120.8 305.184 Q2118.46 302.939 2118.46 299.189 Q2118.46 294.814 2121.37 292.592 Q2124.31 290.37 2130.12 290.37 L2136.1 290.37 L2136.1 289.953 Q2136.1 287.013 2134.15 285.416 Q2132.23 283.796 2128.74 283.796 Q2126.51 283.796 2124.41 284.328 Q2122.3 284.86 2120.36 285.925 L2120.36 281.99 Q2122.69 281.087 2124.89 280.647 Q2127.09 280.184 2129.17 280.184 Q2134.8 280.184 2137.58 283.101 Q2140.36 286.018 2140.36 291.944 Z" fill="#000000" fill-rule="evenodd" fill-opacity="1" /><path clip-path="url(#clip830)" d="M 0 0 M2153.34 273.448 L2153.34 280.809 L2162.11 280.809 L2162.11 284.12 L2153.34 284.12 L2153.34 298.194 Q2153.34 301.365 2154.2 302.268 Q2155.08 303.17 2157.74 303.17 L2162.11 303.17 L2162.11 306.735 L2157.74 306.735 Q2152.81 306.735 2150.93 304.907 Q2149.06 303.055 2149.06 298.194 L2149.06 284.12 L2145.93 284.12 L2145.93 280.809 L2149.06 280.809 L2149.06 273.448 L2153.34 273.448 Z" fill="#000000" fill-rule="evenodd" fill-opacity="1" /><path clip-path="url(#clip830)" d="M 0 0 M2167.72 280.809 L2171.98 280.809 L2171.98 306.735 L2167.72 306.735 L2167.72 280.809 M2167.72 270.717 L2171.98 270.717 L2171.98 276.11 L2167.72 276.11 L2167.72 270.717 Z" fill="#000000" fill-rule="evenodd" fill-opacity="1" /><path clip-path="url(#clip830)" d="M 0 0 M2190.93 283.796 Q2187.51 283.796 2185.52 286.481 Q2183.53 289.143 2183.53 293.795 Q2183.53 298.448 2185.49 301.133 Q2187.48 303.795 2190.93 303.795 Q2194.34 303.795 2196.33 301.11 Q2198.32 298.425 2198.32 293.795 Q2198.32 289.189 2196.33 286.504 Q2194.34 283.796 2190.93 283.796 M2190.93 280.184 Q2196.49 280.184 2199.66 283.796 Q2202.83 287.407 2202.83 293.795 Q2202.83 300.161 2199.66 303.795 Q2196.49 307.407 2190.93 307.407 Q2185.36 307.407 2182.18 303.795 Q2179.04 300.161 2179.04 293.795 Q2179.04 287.407 2182.18 283.796 Q2185.36 280.184 2190.93 280.184 Z" fill="#000000" fill-rule="evenodd" fill-opacity="1" /><path clip-path="url(#clip830)" d="M 0 0 M2231.44 291.087 L2231.44 306.735 L2227.18 306.735 L2227.18 291.226 Q2227.18 287.545 2225.75 285.717 Q2224.31 283.888 2221.44 283.888 Q2217.99 283.888 2216 286.087 Q2214.01 288.286 2214.01 292.083 L2214.01 306.735 L2209.73 306.735 L2209.73 280.809 L2214.01 280.809 L2214.01 284.837 Q2215.54 282.499 2217.6 281.342 Q2219.68 280.184 2222.39 280.184 Q2226.86 280.184 2229.15 282.962 Q2231.44 285.717 2231.44 291.087 Z" fill="#000000" fill-rule="evenodd" fill-opacity="1" /></svg>
