<?xml version="1.0" encoding="utf-8"?>
<svg xmlns="http://www.w3.org/2000/svg" xmlns:xlink="http://www.w3.org/1999/xlink" width="900" height="500" viewBox="0 0 3600 2000">
<defs>
  <clipPath id="clip870">
    <rect x="0" y="0" width="3600" height="2000"/>
  </clipPath>
</defs>
<path clip-path="url(#clip870)" d="
M0 2000 L3600 2000 L3600 0 L0 0  Z
  " fill="#ffffff" fill-rule="evenodd" fill-opacity="1"/>
<defs>
  <clipPath id="clip871">
    <rect x="720" y="0" width="2521" height="2000"/>
  </clipPath>
</defs>
<path clip-path="url(#clip870)" d="
M153.853 1877.97 L3552.76 1877.97 L3552.76 113.392 L153.853 113.392  Z
  " fill="#ffffff" fill-rule="evenodd" fill-opacity="1"/>
<defs>
  <clipPath id="clip872">
    <rect x="153" y="113" width="3400" height="1766"/>
  </clipPath>
</defs>
<polyline clip-path="url(#clip872)" style="stroke:#000000; stroke-width:2; stroke-opacity:0.1; fill:none" points="
  196.75,1877.97 196.75,113.392 
  "/>
<polyline clip-path="url(#clip872)" style="stroke:#000000; stroke-width:2; stroke-opacity:0.1; fill:none" points="
  916.991,1877.97 916.991,113.392 
  "/>
<polyline clip-path="url(#clip872)" style="stroke:#000000; stroke-width:2; stroke-opacity:0.1; fill:none" points="
  1637.23,1877.97 1637.23,113.392 
  "/>
<polyline clip-path="url(#clip872)" style="stroke:#000000; stroke-width:2; stroke-opacity:0.1; fill:none" points="
  2357.47,1877.97 2357.47,113.392 
  "/>
<polyline clip-path="url(#clip872)" style="stroke:#000000; stroke-width:2; stroke-opacity:0.1; fill:none" points="
  3077.71,1877.97 3077.71,113.392 
  "/>
<polyline clip-path="url(#clip870)" style="stroke:#000000; stroke-width:4; stroke-opacity:1; fill:none" points="
  153.853,1877.97 3552.76,1877.97 
  "/>
<polyline clip-path="url(#clip870)" style="stroke:#000000; stroke-width:4; stroke-opacity:1; fill:none" points="
  196.75,1877.97 196.75,1856.8 
  "/>
<polyline clip-path="url(#clip870)" style="stroke:#000000; stroke-width:4; stroke-opacity:1; fill:none" points="
  916.991,1877.97 916.991,1856.8 
  "/>
<polyline clip-path="url(#clip870)" style="stroke:#000000; stroke-width:4; stroke-opacity:1; fill:none" points="
  1637.23,1877.97 1637.23,1856.8 
  "/>
<polyline clip-path="url(#clip870)" style="stroke:#000000; stroke-width:4; stroke-opacity:1; fill:none" points="
  2357.47,1877.97 2357.47,1856.8 
  "/>
<polyline clip-path="url(#clip870)" style="stroke:#000000; stroke-width:4; stroke-opacity:1; fill:none" points="
  3077.71,1877.97 3077.71,1856.8 
  "/>
<path clip-path="url(#clip870)" d="M 0 0 M196.75 1916.76 Q193.139 1916.76 191.311 1920.33 Q189.505 1923.87 189.505 1931 Q189.505 1938.11 191.311 1941.67 Q193.139 1945.21 196.75 1945.21 Q200.385 1945.21 202.19 1941.67 Q204.019 1938.11 204.019 1931 Q204.019 1923.87 202.19 1920.33 Q200.385 1916.76 196.75 1916.76 M196.75 1913.06 Q202.561 1913.06 205.616 1917.67 Q208.695 1922.25 208.695 1931 Q208.695 1939.73 205.616 1944.33 Q202.561 1948.92 196.75 1948.92 Q190.94 1948.92 187.862 1944.33 Q184.806 1939.73 184.806 1931 Q184.806 1922.25 187.862 1917.67 Q190.94 1913.06 196.75 1913.06 Z" fill="#000000" fill-rule="evenodd" fill-opacity="1" /><path clip-path="url(#clip870)" d="M 0 0 M809.968 1935.22 L828.324 1935.22 L828.324 1939.15 L814.25 1939.15 L814.25 1947.63 Q815.269 1947.28 816.287 1947.12 Q817.306 1946.93 818.324 1946.93 Q824.111 1946.93 827.491 1950.1 Q830.871 1953.27 830.871 1958.69 Q830.871 1964.27 827.398 1967.37 Q823.926 1970.45 817.607 1970.45 Q815.431 1970.45 813.162 1970.08 Q810.917 1969.71 808.51 1968.97 L808.51 1964.27 Q810.593 1965.4 812.815 1965.96 Q815.037 1966.52 817.514 1966.52 Q821.519 1966.52 823.857 1964.41 Q826.195 1962.3 826.195 1958.69 Q826.195 1955.08 823.857 1952.97 Q821.519 1950.87 817.514 1950.87 Q815.639 1950.87 813.764 1951.28 Q811.912 1951.7 809.968 1952.58 L809.968 1935.22 Z" fill="#000000" fill-rule="evenodd" fill-opacity="1" /><path clip-path="url(#clip870)" d="M 0 0 M840.083 1963.9 L844.968 1963.9 L844.968 1969.78 L840.083 1969.78 L840.083 1963.9 Z" fill="#000000" fill-rule="evenodd" fill-opacity="1" /><path clip-path="url(#clip870)" d="M 0 0 M865.153 1938.3 Q861.542 1938.3 859.713 1941.86 Q857.907 1945.4 857.907 1952.53 Q857.907 1959.64 859.713 1963.21 Q861.542 1966.75 865.153 1966.75 Q868.787 1966.75 870.593 1963.21 Q872.421 1959.64 872.421 1952.53 Q872.421 1945.4 870.593 1941.86 Q868.787 1938.3 865.153 1938.3 M865.153 1934.59 Q870.963 1934.59 874.018 1939.2 Q877.097 1943.78 877.097 1952.53 Q877.097 1961.26 874.018 1965.87 Q870.963 1970.45 865.153 1970.45 Q859.343 1970.45 856.264 1965.87 Q853.208 1961.26 853.208 1952.53 Q853.208 1943.78 856.264 1939.2 Q859.343 1934.59 865.153 1934.59 Z" fill="#000000" fill-rule="evenodd" fill-opacity="1" /><path clip-path="url(#clip870)" d="M 0 0 M895.315 1938.3 Q891.704 1938.3 889.875 1941.86 Q888.069 1945.4 888.069 1952.53 Q888.069 1959.64 889.875 1963.21 Q891.704 1966.75 895.315 1966.75 Q898.949 1966.75 900.754 1963.21 Q902.583 1959.64 902.583 1952.53 Q902.583 1945.4 900.754 1941.86 Q898.949 1938.3 895.315 1938.3 M895.315 1934.59 Q901.125 1934.59 904.18 1939.2 Q907.259 1943.78 907.259 1952.53 Q907.259 1961.26 904.18 1965.87 Q901.125 1970.45 895.315 1970.45 Q889.504 1970.45 886.426 1965.87 Q883.37 1961.26 883.37 1952.53 Q883.37 1943.78 886.426 1939.2 Q889.504 1934.59 895.315 1934.59 Z" fill="#000000" fill-rule="evenodd" fill-opacity="1" /><path clip-path="url(#clip870)" d="M 0 0 M943.648 1944.32 L933.069 1954.94 L943.648 1965.52 L940.893 1968.32 L930.268 1957.7 L919.643 1968.32 L916.912 1965.52 L927.467 1954.94 L916.912 1944.32 L919.643 1941.52 L930.268 1952.14 L940.893 1941.52 L943.648 1944.32 Z" fill="#000000" fill-rule="evenodd" fill-opacity="1" /><path clip-path="url(#clip870)" d="M 0 0 M956.009 1965.84 L963.648 1965.84 L963.648 1939.48 L955.337 1941.14 L955.337 1936.89 L963.601 1935.22 L968.277 1935.22 L968.277 1965.84 L975.916 1965.84 L975.916 1969.78 L956.009 1969.78 L956.009 1965.84 Z" fill="#000000" fill-rule="evenodd" fill-opacity="1" /><path clip-path="url(#clip870)" d="M 0 0 M995.36 1938.3 Q991.749 1938.3 989.921 1941.86 Q988.115 1945.4 988.115 1952.53 Q988.115 1959.64 989.921 1963.21 Q991.749 1966.75 995.36 1966.75 Q998.995 1966.75 1000.8 1963.21 Q1002.63 1959.64 1002.63 1952.53 Q1002.63 1945.4 1000.8 1941.86 Q998.995 1938.3 995.36 1938.3 M995.36 1934.59 Q1001.17 1934.59 1004.23 1939.2 Q1007.3 1943.78 1007.3 1952.53 Q1007.3 1961.26 1004.23 1965.87 Q1001.17 1970.45 995.36 1970.45 Q989.55 1970.45 986.472 1965.87 Q983.416 1961.26 983.416 1952.53 Q983.416 1943.78 986.472 1939.2 Q989.55 1934.59 995.36 1934.59 Z" fill="#000000" fill-rule="evenodd" fill-opacity="1" /><path clip-path="url(#clip870)" d="M 0 0 M1008.49 1914.29 L1023.4 1914.29 L1023.4 1917.49 L1011.97 1917.49 L1011.97 1924.37 Q1012.8 1924.09 1013.62 1923.96 Q1014.45 1923.81 1015.28 1923.81 Q1019.98 1923.81 1022.73 1926.38 Q1025.47 1928.96 1025.47 1933.36 Q1025.47 1937.89 1022.65 1940.41 Q1019.83 1942.91 1014.7 1942.91 Q1012.93 1942.91 1011.09 1942.61 Q1009.26 1942.31 1007.3 1941.71 L1007.3 1937.89 Q1009 1938.81 1010.8 1939.27 Q1012.61 1939.72 1014.62 1939.72 Q1017.87 1939.72 1019.77 1938.01 Q1021.67 1936.29 1021.67 1933.36 Q1021.67 1930.43 1019.77 1928.71 Q1017.87 1927 1014.62 1927 Q1013.1 1927 1011.57 1927.34 Q1010.07 1927.68 1008.49 1928.39 L1008.49 1914.29 Z" fill="#000000" fill-rule="evenodd" fill-opacity="1" /><path clip-path="url(#clip870)" d="M 0 0 M1529.59 1965.84 L1537.22 1965.84 L1537.22 1939.48 L1528.91 1941.14 L1528.91 1936.89 L1537.18 1935.22 L1541.85 1935.22 L1541.85 1965.84 L1549.49 1965.84 L1549.49 1969.78 L1529.59 1969.78 L1529.59 1965.84 Z" fill="#000000" fill-rule="evenodd" fill-opacity="1" /><path clip-path="url(#clip870)" d="M 0 0 M1558.94 1963.9 L1563.82 1963.9 L1563.82 1969.78 L1558.94 1969.78 L1558.94 1963.9 Z" fill="#000000" fill-rule="evenodd" fill-opacity="1" /><path clip-path="url(#clip870)" d="M 0 0 M1584.01 1938.3 Q1580.4 1938.3 1578.57 1941.86 Q1576.76 1945.4 1576.76 1952.53 Q1576.76 1959.64 1578.57 1963.21 Q1580.4 1966.75 1584.01 1966.75 Q1587.64 1966.75 1589.45 1963.21 Q1591.28 1959.64 1591.28 1952.53 Q1591.28 1945.4 1589.45 1941.86 Q1587.64 1938.3 1584.01 1938.3 M1584.01 1934.59 Q1589.82 1934.59 1592.87 1939.2 Q1595.95 1943.78 1595.95 1952.53 Q1595.95 1961.26 1592.87 1965.87 Q1589.82 1970.45 1584.01 1970.45 Q1578.2 1970.45 1575.12 1965.87 Q1572.06 1961.26 1572.06 1952.53 Q1572.06 1943.78 1575.12 1939.2 Q1578.2 1934.59 1584.01 1934.59 Z" fill="#000000" fill-rule="evenodd" fill-opacity="1" /><path clip-path="url(#clip870)" d="M 0 0 M1614.17 1938.3 Q1610.56 1938.3 1608.73 1941.86 Q1606.92 1945.4 1606.92 1952.53 Q1606.92 1959.64 1608.73 1963.21 Q1610.56 1966.75 1614.17 1966.75 Q1617.8 1966.75 1619.61 1963.21 Q1621.44 1959.64 1621.44 1952.53 Q1621.44 1945.4 1619.61 1941.86 Q1617.8 1938.3 1614.17 1938.3 M1614.17 1934.59 Q1619.98 1934.59 1623.03 1939.2 Q1626.11 1943.78 1626.11 1952.53 Q1626.11 1961.26 1623.03 1965.87 Q1619.98 1970.45 1614.17 1970.45 Q1608.36 1970.45 1605.28 1965.87 Q1602.22 1961.26 1602.22 1952.53 Q1602.22 1943.78 1605.28 1939.2 Q1608.36 1934.59 1614.17 1934.59 Z" fill="#000000" fill-rule="evenodd" fill-opacity="1" /><path clip-path="url(#clip870)" d="M 0 0 M1662.5 1944.32 L1651.92 1954.94 L1662.5 1965.52 L1659.75 1968.32 L1649.12 1957.7 L1638.5 1968.32 L1635.77 1965.52 L1646.32 1954.94 L1635.77 1944.32 L1638.5 1941.52 L1649.12 1952.14 L1659.75 1941.52 L1662.5 1944.32 Z" fill="#000000" fill-rule="evenodd" fill-opacity="1" /><path clip-path="url(#clip870)" d="M 0 0 M1674.86 1965.84 L1682.5 1965.84 L1682.5 1939.48 L1674.19 1941.14 L1674.19 1936.89 L1682.46 1935.22 L1687.13 1935.22 L1687.13 1965.84 L1694.77 1965.84 L1694.77 1969.78 L1674.86 1969.78 L1674.86 1965.84 Z" fill="#000000" fill-rule="evenodd" fill-opacity="1" /><path clip-path="url(#clip870)" d="M 0 0 M1714.21 1938.3 Q1710.6 1938.3 1708.77 1941.86 Q1706.97 1945.4 1706.97 1952.53 Q1706.97 1959.64 1708.77 1963.21 Q1710.6 1966.75 1714.21 1966.75 Q1717.85 1966.75 1719.65 1963.21 Q1721.48 1959.64 1721.48 1952.53 Q1721.48 1945.4 1719.65 1941.86 Q1717.85 1938.3 1714.21 1938.3 M1714.21 1934.59 Q1720.02 1934.59 1723.08 1939.2 Q1726.16 1943.78 1726.16 1952.53 Q1726.16 1961.26 1723.08 1965.87 Q1720.02 1970.45 1714.21 1970.45 Q1708.4 1970.45 1705.33 1965.87 Q1702.27 1961.26 1702.27 1952.53 Q1702.27 1943.78 1705.33 1939.2 Q1708.4 1934.59 1714.21 1934.59 Z" fill="#000000" fill-rule="evenodd" fill-opacity="1" /><path clip-path="url(#clip870)" d="M 0 0 M1736.18 1926.81 Q1733.63 1926.81 1732.12 1928.56 Q1730.64 1930.31 1730.64 1933.36 Q1730.64 1936.39 1732.12 1938.16 Q1733.63 1939.9 1736.18 1939.9 Q1738.74 1939.9 1740.23 1938.16 Q1741.73 1936.39 1741.73 1933.36 Q1741.73 1930.31 1740.23 1928.56 Q1738.74 1926.81 1736.18 1926.81 M1743.73 1914.91 L1743.73 1918.37 Q1742.3 1917.69 1740.83 1917.34 Q1739.38 1916.98 1737.95 1916.98 Q1734.19 1916.98 1732.2 1919.52 Q1730.22 1922.06 1729.94 1927.19 Q1731.05 1925.55 1732.72 1924.69 Q1734.4 1923.81 1736.41 1923.81 Q1740.64 1923.81 1743.09 1926.38 Q1745.55 1928.94 1745.55 1933.36 Q1745.55 1937.69 1742.99 1940.3 Q1740.43 1942.91 1736.18 1942.91 Q1731.31 1942.91 1728.74 1939.19 Q1726.16 1935.45 1726.16 1928.36 Q1726.16 1921.7 1729.32 1917.75 Q1732.48 1913.78 1737.8 1913.78 Q1739.23 1913.78 1740.68 1914.06 Q1742.15 1914.35 1743.73 1914.91 Z" fill="#000000" fill-rule="evenodd" fill-opacity="1" /><path clip-path="url(#clip870)" d="M 0 0 M2249.83 1965.84 L2257.47 1965.84 L2257.47 1939.48 L2249.16 1941.14 L2249.16 1936.89 L2257.42 1935.22 L2262.1 1935.22 L2262.1 1965.84 L2269.73 1965.84 L2269.73 1969.78 L2249.83 1969.78 L2249.83 1965.84 Z" fill="#000000" fill-rule="evenodd" fill-opacity="1" /><path clip-path="url(#clip870)" d="M 0 0 M2279.18 1963.9 L2284.06 1963.9 L2284.06 1969.78 L2279.18 1969.78 L2279.18 1963.9 Z" fill="#000000" fill-rule="evenodd" fill-opacity="1" /><path clip-path="url(#clip870)" d="M 0 0 M2294.29 1935.22 L2312.65 1935.22 L2312.65 1939.15 L2298.58 1939.15 L2298.58 1947.63 Q2299.59 1947.28 2300.61 1947.12 Q2301.63 1946.93 2302.65 1946.93 Q2308.44 1946.93 2311.82 1950.1 Q2315.2 1953.27 2315.2 1958.69 Q2315.2 1964.27 2311.72 1967.37 Q2308.25 1970.45 2301.93 1970.45 Q2299.76 1970.45 2297.49 1970.08 Q2295.24 1969.71 2292.84 1968.97 L2292.84 1964.27 Q2294.92 1965.4 2297.14 1965.96 Q2299.36 1966.52 2301.84 1966.52 Q2305.84 1966.52 2308.18 1964.41 Q2310.52 1962.3 2310.52 1958.69 Q2310.52 1955.08 2308.18 1952.97 Q2305.84 1950.87 2301.84 1950.87 Q2299.97 1950.87 2298.09 1951.28 Q2296.24 1951.7 2294.29 1952.58 L2294.29 1935.22 Z" fill="#000000" fill-rule="evenodd" fill-opacity="1" /><path clip-path="url(#clip870)" d="M 0 0 M2334.41 1938.3 Q2330.8 1938.3 2328.97 1941.86 Q2327.16 1945.4 2327.16 1952.53 Q2327.16 1959.64 2328.97 1963.21 Q2330.8 1966.75 2334.41 1966.75 Q2338.04 1966.75 2339.85 1963.21 Q2341.68 1959.64 2341.68 1952.53 Q2341.68 1945.4 2339.85 1941.86 Q2338.04 1938.3 2334.41 1938.3 M2334.41 1934.59 Q2340.22 1934.59 2343.28 1939.2 Q2346.35 1943.78 2346.35 1952.53 Q2346.35 1961.26 2343.28 1965.87 Q2340.22 1970.45 2334.41 1970.45 Q2328.6 1970.45 2325.52 1965.87 Q2322.47 1961.26 2322.47 1952.53 Q2322.47 1943.78 2325.52 1939.2 Q2328.6 1934.59 2334.41 1934.59 Z" fill="#000000" fill-rule="evenodd" fill-opacity="1" /><path clip-path="url(#clip870)" d="M 0 0 M2382.74 1944.32 L2372.16 1954.94 L2382.74 1965.52 L2379.99 1968.32 L2369.36 1957.7 L2358.74 1968.32 L2356.01 1965.52 L2366.56 1954.94 L2356.01 1944.32 L2358.74 1941.52 L2369.36 1952.14 L2379.99 1941.52 L2382.74 1944.32 Z" fill="#000000" fill-rule="evenodd" fill-opacity="1" /><path clip-path="url(#clip870)" d="M 0 0 M2395.1 1965.84 L2402.74 1965.84 L2402.74 1939.48 L2394.43 1941.14 L2394.43 1936.89 L2402.7 1935.22 L2407.37 1935.22 L2407.37 1965.84 L2415.01 1965.84 L2415.01 1969.78 L2395.1 1969.78 L2395.1 1965.84 Z" fill="#000000" fill-rule="evenodd" fill-opacity="1" /><path clip-path="url(#clip870)" d="M 0 0 M2434.46 1938.3 Q2430.84 1938.3 2429.02 1941.86 Q2427.21 1945.4 2427.21 1952.53 Q2427.21 1959.64 2429.02 1963.21 Q2430.84 1966.75 2434.46 1966.75 Q2438.09 1966.75 2439.9 1963.21 Q2441.72 1959.64 2441.72 1952.53 Q2441.72 1945.4 2439.9 1941.86 Q2438.09 1938.3 2434.46 1938.3 M2434.46 1934.59 Q2440.27 1934.59 2443.32 1939.2 Q2446.4 1943.78 2446.4 1952.53 Q2446.4 1961.26 2443.32 1965.87 Q2440.27 1970.45 2434.46 1970.45 Q2428.65 1970.45 2425.57 1965.87 Q2422.51 1961.26 2422.51 1952.53 Q2422.51 1943.78 2425.57 1939.2 Q2428.65 1934.59 2434.46 1934.59 Z" fill="#000000" fill-rule="evenodd" fill-opacity="1" /><path clip-path="url(#clip870)" d="M 0 0 M2456.42 1926.81 Q2453.87 1926.81 2452.36 1928.56 Q2450.88 1930.31 2450.88 1933.36 Q2450.88 1936.39 2452.36 1938.16 Q2453.87 1939.9 2456.42 1939.9 Q2458.98 1939.9 2460.47 1938.16 Q2461.97 1936.39 2461.97 1933.36 Q2461.97 1930.31 2460.47 1928.56 Q2458.98 1926.81 2456.42 1926.81 M2463.97 1914.91 L2463.97 1918.37 Q2462.54 1917.69 2461.07 1917.34 Q2459.62 1916.98 2458.19 1916.98 Q2454.43 1916.98 2452.44 1919.52 Q2450.46 1922.06 2450.18 1927.19 Q2451.29 1925.55 2452.96 1924.69 Q2454.64 1923.81 2456.65 1923.81 Q2460.88 1923.81 2463.33 1926.38 Q2465.79 1928.94 2465.79 1933.36 Q2465.79 1937.69 2463.23 1940.3 Q2460.67 1942.91 2456.42 1942.91 Q2451.55 1942.91 2448.98 1939.19 Q2446.4 1935.45 2446.4 1928.36 Q2446.4 1921.7 2449.56 1917.75 Q2452.72 1913.78 2458.04 1913.78 Q2459.47 1913.78 2460.92 1914.06 Q2462.39 1914.35 2463.97 1914.91 Z" fill="#000000" fill-rule="evenodd" fill-opacity="1" /><path clip-path="url(#clip870)" d="M 0 0 M2974.15 1965.84 L2990.47 1965.84 L2990.47 1969.78 L2968.53 1969.78 L2968.53 1965.84 Q2971.19 1963.09 2975.77 1958.46 Q2980.38 1953.81 2981.56 1952.46 Q2983.81 1949.94 2984.69 1948.21 Q2985.59 1946.45 2985.59 1944.76 Q2985.59 1942 2983.64 1940.27 Q2981.72 1938.53 2978.62 1938.53 Q2976.42 1938.53 2973.97 1939.29 Q2971.54 1940.06 2968.76 1941.61 L2968.76 1936.89 Q2971.58 1935.75 2974.04 1935.17 Q2976.49 1934.59 2978.53 1934.59 Q2983.9 1934.59 2987.09 1937.28 Q2990.29 1939.96 2990.29 1944.46 Q2990.29 1946.58 2989.48 1948.51 Q2988.69 1950.4 2986.58 1953 Q2986.01 1953.67 2982.9 1956.89 Q2979.8 1960.08 2974.15 1965.84 Z" fill="#000000" fill-rule="evenodd" fill-opacity="1" /><path clip-path="url(#clip870)" d="M 0 0 M3000.29 1963.9 L3005.17 1963.9 L3005.17 1969.78 L3000.29 1969.78 L3000.29 1963.9 Z" fill="#000000" fill-rule="evenodd" fill-opacity="1" /><path clip-path="url(#clip870)" d="M 0 0 M3025.36 1938.3 Q3021.75 1938.3 3019.92 1941.86 Q3018.11 1945.4 3018.11 1952.53 Q3018.11 1959.64 3019.92 1963.21 Q3021.75 1966.75 3025.36 1966.75 Q3028.99 1966.75 3030.8 1963.21 Q3032.63 1959.64 3032.63 1952.53 Q3032.63 1945.4 3030.8 1941.86 Q3028.99 1938.3 3025.36 1938.3 M3025.36 1934.59 Q3031.17 1934.59 3034.22 1939.2 Q3037.3 1943.78 3037.3 1952.53 Q3037.3 1961.26 3034.22 1965.87 Q3031.17 1970.45 3025.36 1970.45 Q3019.55 1970.45 3016.47 1965.87 Q3013.41 1961.26 3013.41 1952.53 Q3013.41 1943.78 3016.47 1939.2 Q3019.55 1934.59 3025.36 1934.59 Z" fill="#000000" fill-rule="evenodd" fill-opacity="1" /><path clip-path="url(#clip870)" d="M 0 0 M3055.52 1938.3 Q3051.91 1938.3 3050.08 1941.86 Q3048.27 1945.4 3048.27 1952.53 Q3048.27 1959.64 3050.08 1963.21 Q3051.91 1966.75 3055.52 1966.75 Q3059.15 1966.75 3060.96 1963.21 Q3062.79 1959.64 3062.79 1952.53 Q3062.79 1945.4 3060.96 1941.86 Q3059.15 1938.3 3055.52 1938.3 M3055.52 1934.59 Q3061.33 1934.59 3064.38 1939.2 Q3067.46 1943.78 3067.46 1952.53 Q3067.46 1961.26 3064.38 1965.87 Q3061.33 1970.45 3055.52 1970.45 Q3049.71 1970.45 3046.63 1965.87 Q3043.57 1961.26 3043.57 1952.53 Q3043.57 1943.78 3046.63 1939.2 Q3049.71 1934.59 3055.52 1934.59 Z" fill="#000000" fill-rule="evenodd" fill-opacity="1" /><path clip-path="url(#clip870)" d="M 0 0 M3103.85 1944.32 L3093.27 1954.94 L3103.85 1965.52 L3101.1 1968.32 L3090.47 1957.7 L3079.85 1968.32 L3077.12 1965.52 L3087.67 1954.94 L3077.12 1944.32 L3079.85 1941.52 L3090.47 1952.14 L3101.1 1941.52 L3103.85 1944.32 Z" fill="#000000" fill-rule="evenodd" fill-opacity="1" /><path clip-path="url(#clip870)" d="M 0 0 M3116.21 1965.84 L3123.85 1965.84 L3123.85 1939.48 L3115.54 1941.14 L3115.54 1936.89 L3123.81 1935.22 L3128.48 1935.22 L3128.48 1965.84 L3136.12 1965.84 L3136.12 1969.78 L3116.21 1969.78 L3116.21 1965.84 Z" fill="#000000" fill-rule="evenodd" fill-opacity="1" /><path clip-path="url(#clip870)" d="M 0 0 M3155.56 1938.3 Q3151.95 1938.3 3150.12 1941.86 Q3148.32 1945.4 3148.32 1952.53 Q3148.32 1959.64 3150.12 1963.21 Q3151.95 1966.75 3155.56 1966.75 Q3159.2 1966.75 3161 1963.21 Q3162.83 1959.64 3162.83 1952.53 Q3162.83 1945.4 3161 1941.86 Q3159.2 1938.3 3155.56 1938.3 M3155.56 1934.59 Q3161.37 1934.59 3164.43 1939.2 Q3167.51 1943.78 3167.51 1952.53 Q3167.51 1961.26 3164.43 1965.87 Q3161.37 1970.45 3155.56 1970.45 Q3149.75 1970.45 3146.68 1965.87 Q3143.62 1961.26 3143.62 1952.53 Q3143.62 1943.78 3146.68 1939.2 Q3149.75 1934.59 3155.56 1934.59 Z" fill="#000000" fill-rule="evenodd" fill-opacity="1" /><path clip-path="url(#clip870)" d="M 0 0 M3177.53 1926.81 Q3174.98 1926.81 3173.47 1928.56 Q3171.98 1930.31 3171.98 1933.36 Q3171.98 1936.39 3173.47 1938.16 Q3174.98 1939.9 3177.53 1939.9 Q3180.09 1939.9 3181.58 1938.16 Q3183.08 1936.39 3183.08 1933.36 Q3183.08 1930.31 3181.58 1928.56 Q3180.09 1926.81 3177.53 1926.81 M3185.08 1914.91 L3185.08 1918.37 Q3183.65 1917.69 3182.18 1917.34 Q3180.73 1916.98 3179.3 1916.98 Q3175.54 1916.98 3173.55 1919.52 Q3171.57 1922.06 3171.29 1927.19 Q3172.4 1925.55 3174.07 1924.69 Q3175.75 1923.81 3177.76 1923.81 Q3181.99 1923.81 3184.44 1926.38 Q3186.9 1928.94 3186.9 1933.36 Q3186.9 1937.69 3184.34 1940.3 Q3181.78 1942.91 3177.53 1942.91 Q3172.66 1942.91 3170.09 1939.19 Q3167.51 1935.45 3167.51 1928.36 Q3167.51 1921.7 3170.67 1917.75 Q3173.83 1913.78 3179.15 1913.78 Q3180.58 1913.78 3182.03 1914.06 Q3183.5 1914.35 3185.08 1914.91 Z" fill="#000000" fill-rule="evenodd" fill-opacity="1" /><polyline clip-path="url(#clip872)" style="stroke:#000000; stroke-width:2; stroke-opacity:0.1; fill:none" points="
  153.853,1828.03 3552.76,1828.03 
  "/>
<polyline clip-path="url(#clip872)" style="stroke:#000000; stroke-width:2; stroke-opacity:0.1; fill:none" points="
  153.853,1389.95 3552.76,1389.95 
  "/>
<polyline clip-path="url(#clip872)" style="stroke:#000000; stroke-width:2; stroke-opacity:0.1; fill:none" points="
  153.853,951.874 3552.76,951.874 
  "/>
<polyline clip-path="url(#clip872)" style="stroke:#000000; stroke-width:2; stroke-opacity:0.1; fill:none" points="
  153.853,513.796 3552.76,513.796 
  "/>
<polyline clip-path="url(#clip870)" style="stroke:#000000; stroke-width:4; stroke-opacity:1; fill:none" points="
  153.853,1877.97 153.853,113.392 
  "/>
<polyline clip-path="url(#clip870)" style="stroke:#000000; stroke-width:4; stroke-opacity:1; fill:none" points="
  153.853,1828.03 194.64,1828.03 
  "/>
<polyline clip-path="url(#clip870)" style="stroke:#000000; stroke-width:4; stroke-opacity:1; fill:none" points="
  153.853,1389.95 194.64,1389.95 
  "/>
<polyline clip-path="url(#clip870)" style="stroke:#000000; stroke-width:4; stroke-opacity:1; fill:none" points="
  153.853,951.874 194.64,951.874 
  "/>
<polyline clip-path="url(#clip870)" style="stroke:#000000; stroke-width:4; stroke-opacity:1; fill:none" points="
  153.853,513.796 194.64,513.796 
  "/>
<path clip-path="url(#clip870)" d="M 0 0 M87.9086 1813.83 Q84.2975 1813.83 82.4688 1817.39 Q80.6632 1820.94 80.6632 1828.07 Q80.6632 1835.17 82.4688 1838.74 Q84.2975 1842.28 87.9086 1842.28 Q91.5428 1842.28 93.3483 1838.74 Q95.177 1835.17 95.177 1828.07 Q95.177 1820.94 93.3483 1817.39 Q91.5428 1813.83 87.9086 1813.83 M87.9086 1810.13 Q93.7187 1810.13 96.7743 1814.73 Q99.8529 1819.32 99.8529 1828.07 Q99.8529 1836.79 96.7743 1841.4 Q93.7187 1845.98 87.9086 1845.98 Q82.0984 1845.98 79.0197 1841.4 Q75.9642 1836.79 75.9642 1828.07 Q75.9642 1819.32 79.0197 1814.73 Q82.0984 1810.13 87.9086 1810.13 Z" fill="#000000" fill-rule="evenodd" fill-opacity="1" /><path clip-path="url(#clip870)" d="M 0 0 M51.7745 1403.3 L68.0939 1403.3 L68.0939 1407.23 L46.1495 1407.23 L46.1495 1403.3 Q48.8115 1400.54 53.3949 1395.91 Q58.0013 1391.26 59.1819 1389.92 Q61.4272 1387.39 62.3068 1385.66 Q63.2096 1383.9 63.2096 1382.21 Q63.2096 1379.45 61.2652 1377.72 Q59.3439 1375.98 56.2421 1375.98 Q54.043 1375.98 51.5893 1376.75 Q49.1588 1377.51 46.381 1379.06 L46.381 1374.34 Q49.2051 1373.2 51.6588 1372.63 Q54.1124 1372.05 56.1495 1372.05 Q61.5198 1372.05 64.7142 1374.73 Q67.9087 1377.42 67.9087 1381.91 Q67.9087 1384.04 67.0985 1385.96 Q66.3115 1387.86 64.205 1390.45 Q63.6263 1391.12 60.5245 1394.34 Q57.4226 1397.53 51.7745 1403.3 Z" fill="#000000" fill-rule="evenodd" fill-opacity="1" /><path clip-path="url(#clip870)" d="M 0 0 M87.9086 1375.75 Q84.2975 1375.75 82.4688 1379.32 Q80.6632 1382.86 80.6632 1389.99 Q80.6632 1397.09 82.4688 1400.66 Q84.2975 1404.2 87.9086 1404.2 Q91.5428 1404.2 93.3483 1400.66 Q95.177 1397.09 95.177 1389.99 Q95.177 1382.86 93.3483 1379.32 Q91.5428 1375.75 87.9086 1375.75 M87.9086 1372.05 Q93.7187 1372.05 96.7743 1376.65 Q99.8529 1381.24 99.8529 1389.99 Q99.8529 1398.71 96.7743 1403.32 Q93.7187 1407.9 87.9086 1407.9 Q82.0984 1407.9 79.0197 1403.32 Q75.9642 1398.71 75.9642 1389.99 Q75.9642 1381.24 79.0197 1376.65 Q82.0984 1372.05 87.9086 1372.05 Z" fill="#000000" fill-rule="evenodd" fill-opacity="1" /><path clip-path="url(#clip870)" d="M 0 0 M60.5939 938.668 L48.7884 957.117 L60.5939 957.117 L60.5939 938.668 M59.367 934.594 L65.2466 934.594 L65.2466 957.117 L70.1772 957.117 L70.1772 961.006 L65.2466 961.006 L65.2466 969.154 L60.5939 969.154 L60.5939 961.006 L44.9921 961.006 L44.9921 956.492 L59.367 934.594 Z" fill="#000000" fill-rule="evenodd" fill-opacity="1" /><path clip-path="url(#clip870)" d="M 0 0 M87.9086 937.673 Q84.2975 937.673 82.4688 941.238 Q80.6632 944.779 80.6632 951.909 Q80.6632 959.015 82.4688 962.58 Q84.2975 966.122 87.9086 966.122 Q91.5428 966.122 93.3483 962.58 Q95.177 959.015 95.177 951.909 Q95.177 944.779 93.3483 941.238 Q91.5428 937.673 87.9086 937.673 M87.9086 933.969 Q93.7187 933.969 96.7743 938.576 Q99.8529 943.159 99.8529 951.909 Q99.8529 960.636 96.7743 965.242 Q93.7187 969.825 87.9086 969.825 Q82.0984 969.825 79.0197 965.242 Q75.9642 960.636 75.9642 951.909 Q75.9642 943.159 79.0197 938.576 Q82.0984 933.969 87.9086 933.969 Z" fill="#000000" fill-rule="evenodd" fill-opacity="1" /><path clip-path="url(#clip870)" d="M 0 0 M58.3254 511.932 Q55.1773 511.932 53.3254 514.085 Q51.4967 516.238 51.4967 519.988 Q51.4967 523.715 53.3254 525.891 Q55.1773 528.043 58.3254 528.043 Q61.4735 528.043 63.3022 525.891 Q65.1541 523.715 65.1541 519.988 Q65.1541 516.238 63.3022 514.085 Q61.4735 511.932 58.3254 511.932 M67.6077 497.28 L67.6077 501.539 Q65.8485 500.706 64.0429 500.266 Q62.2606 499.826 60.5013 499.826 Q55.8717 499.826 53.418 502.951 Q50.9875 506.076 50.6402 512.395 Q52.006 510.381 54.0662 509.317 Q56.1263 508.229 58.6032 508.229 Q63.8115 508.229 66.8207 511.4 Q69.8531 514.548 69.8531 519.988 Q69.8531 525.312 66.705 528.529 Q63.5568 531.747 58.3254 531.747 Q52.33 531.747 49.1588 527.164 Q45.9875 522.557 45.9875 513.83 Q45.9875 505.636 49.8764 500.775 Q53.7652 495.891 60.3161 495.891 Q62.0754 495.891 63.8578 496.238 Q65.6633 496.585 67.6077 497.28 Z" fill="#000000" fill-rule="evenodd" fill-opacity="1" /><path clip-path="url(#clip870)" d="M 0 0 M87.9086 499.594 Q84.2975 499.594 82.4688 503.159 Q80.6632 506.701 80.6632 513.83 Q80.6632 520.937 82.4688 524.502 Q84.2975 528.043 87.9086 528.043 Q91.5428 528.043 93.3483 524.502 Q95.177 520.937 95.177 513.83 Q95.177 506.701 93.3483 503.159 Q91.5428 499.594 87.9086 499.594 M87.9086 495.891 Q93.7187 495.891 96.7743 500.497 Q99.8529 505.081 99.8529 513.83 Q99.8529 522.557 96.7743 527.164 Q93.7187 531.747 87.9086 531.747 Q82.0984 531.747 79.0197 527.164 Q75.9642 522.557 75.9642 513.83 Q75.9642 505.081 79.0197 500.497 Q82.0984 495.891 87.9086 495.891 Z" fill="#000000" fill-rule="evenodd" fill-opacity="1" /><path clip-path="url(#clip870)" d="M 0 0 M1267.93 12.096 L1276.11 12.096 L1276.11 68.3631 Q1276.11 79.3005 1271.94 84.2426 Q1267.81 89.1847 1258.61 89.1847 L1255.49 89.1847 L1255.49 82.2982 L1258.04 82.2982 Q1263.47 82.2982 1265.7 79.26 Q1267.93 76.2218 1267.93 68.3631 L1267.93 12.096 Z" fill="#000000" fill-rule="evenodd" fill-opacity="1" /><path clip-path="url(#clip870)" d="M 0 0 M1312.69 49.7694 Q1303.66 49.7694 1300.17 51.8354 Q1296.69 53.9013 1296.69 58.8839 Q1296.69 62.8538 1299.28 65.2034 Q1301.92 67.5124 1306.41 67.5124 Q1312.61 67.5124 1316.34 63.1374 Q1320.1 58.7219 1320.1 51.4303 L1320.1 49.7694 L1312.69 49.7694 M1327.56 46.6907 L1327.56 72.576 L1320.1 72.576 L1320.1 65.6895 Q1317.55 69.8214 1313.74 71.8063 Q1309.94 73.7508 1304.43 73.7508 Q1297.46 73.7508 1293.33 69.8619 Q1289.24 65.9325 1289.24 59.3701 Q1289.24 51.7138 1294.34 47.825 Q1299.49 43.9361 1309.65 43.9361 L1320.1 43.9361 L1320.1 43.2069 Q1320.1 38.0623 1316.7 35.2672 Q1313.34 32.4315 1307.22 32.4315 Q1303.33 32.4315 1299.65 33.3632 Q1295.96 34.295 1292.56 36.1584 L1292.56 29.2718 Q1296.65 27.692 1300.5 26.9223 Q1304.35 26.1121 1307.99 26.1121 Q1317.84 26.1121 1322.7 31.2163 Q1327.56 36.3204 1327.56 46.6907 Z" fill="#000000" fill-rule="evenodd" fill-opacity="1" /><path clip-path="url(#clip870)" d="M 0 0 M1350.12 65.7705 L1350.12 89.8329 L1342.63 89.8329 L1342.63 27.2059 L1350.12 27.2059 L1350.12 34.0924 Q1352.47 30.0415 1356.04 28.0971 Q1359.64 26.1121 1364.62 26.1121 Q1372.89 26.1121 1378.03 32.6746 Q1383.22 39.2371 1383.22 49.9314 Q1383.22 60.6258 1378.03 67.1883 Q1372.89 73.7508 1364.62 73.7508 Q1359.64 73.7508 1356.04 71.8063 Q1352.47 69.8214 1350.12 65.7705 M1375.48 49.9314 Q1375.48 41.7081 1372.08 37.0496 Q1368.72 32.3505 1362.8 32.3505 Q1356.89 32.3505 1353.48 37.0496 Q1350.12 41.7081 1350.12 49.9314 Q1350.12 58.1548 1353.48 62.8538 Q1356.89 67.5124 1362.8 67.5124 Q1368.72 67.5124 1372.08 62.8538 Q1375.48 58.1548 1375.48 49.9314 Z" fill="#000000" fill-rule="evenodd" fill-opacity="1" /><path clip-path="url(#clip870)" d="M 0 0 M1416.19 49.7694 Q1407.16 49.7694 1403.67 51.8354 Q1400.19 53.9013 1400.19 58.8839 Q1400.19 62.8538 1402.78 65.2034 Q1405.42 67.5124 1409.91 67.5124 Q1416.11 67.5124 1419.84 63.1374 Q1423.6 58.7219 1423.6 51.4303 L1423.6 49.7694 L1416.19 49.7694 M1431.06 46.6907 L1431.06 72.576 L1423.6 72.576 L1423.6 65.6895 Q1421.05 69.8214 1417.24 71.8063 Q1413.44 73.7508 1407.93 73.7508 Q1400.96 73.7508 1396.83 69.8619 Q1392.74 65.9325 1392.74 59.3701 Q1392.74 51.7138 1397.84 47.825 Q1402.99 43.9361 1413.15 43.9361 L1423.6 43.9361 L1423.6 43.2069 Q1423.6 38.0623 1420.2 35.2672 Q1416.84 32.4315 1410.72 32.4315 Q1406.83 32.4315 1403.15 33.3632 Q1399.46 34.295 1396.06 36.1584 L1396.06 29.2718 Q1400.15 27.692 1404 26.9223 Q1407.85 26.1121 1411.49 26.1121 Q1421.34 26.1121 1426.2 31.2163 Q1431.06 36.3204 1431.06 46.6907 Z" fill="#000000" fill-rule="evenodd" fill-opacity="1" /><path clip-path="url(#clip870)" d="M 0 0 M1484.13 45.1919 L1484.13 72.576 L1476.67 72.576 L1476.67 45.4349 Q1476.67 38.994 1474.16 35.7938 Q1471.65 32.5936 1466.63 32.5936 Q1460.59 32.5936 1457.11 36.4419 Q1453.62 40.2903 1453.62 46.9338 L1453.62 72.576 L1446.13 72.576 L1446.13 27.2059 L1453.62 27.2059 L1453.62 34.2544 Q1456.3 30.163 1459.9 28.1376 Q1463.55 26.1121 1468.29 26.1121 Q1476.1 26.1121 1480.11 30.9732 Q1484.13 35.7938 1484.13 45.1919 Z" fill="#000000" fill-rule="evenodd" fill-opacity="1" /><path clip-path="url(#clip870)" d="M 0 0 M1532.57 65.7705 L1532.57 89.8329 L1525.08 89.8329 L1525.08 27.2059 L1532.57 27.2059 L1532.57 34.0924 Q1534.92 30.0415 1538.49 28.0971 Q1542.09 26.1121 1547.08 26.1121 Q1555.34 26.1121 1560.48 32.6746 Q1565.67 39.2371 1565.67 49.9314 Q1565.67 60.6258 1560.48 67.1883 Q1555.34 73.7508 1547.08 73.7508 Q1542.09 73.7508 1538.49 71.8063 Q1534.92 69.8214 1532.57 65.7705 M1557.93 49.9314 Q1557.93 41.7081 1554.53 37.0496 Q1551.17 32.3505 1545.25 32.3505 Q1539.34 32.3505 1535.94 37.0496 Q1532.57 41.7081 1532.57 49.9314 Q1532.57 58.1548 1535.94 62.8538 Q1539.34 67.5124 1545.25 67.5124 Q1551.17 67.5124 1554.53 62.8538 Q1557.93 58.1548 1557.93 49.9314 Z" fill="#000000" fill-rule="evenodd" fill-opacity="1" /><path clip-path="url(#clip870)" d="M 0 0 M1595.61 32.4315 Q1589.61 32.4315 1586.13 37.1306 Q1582.64 41.7891 1582.64 49.9314 Q1582.64 58.0738 1586.09 62.7728 Q1589.57 67.4314 1595.61 67.4314 Q1601.56 67.4314 1605.04 62.7323 Q1608.53 58.0333 1608.53 49.9314 Q1608.53 41.8701 1605.04 37.1711 Q1601.56 32.4315 1595.61 32.4315 M1595.61 26.1121 Q1605.33 26.1121 1610.88 32.4315 Q1616.43 38.7509 1616.43 49.9314 Q1616.43 61.0714 1610.88 67.4314 Q1605.33 73.7508 1595.61 73.7508 Q1585.84 73.7508 1580.29 67.4314 Q1574.78 61.0714 1574.78 49.9314 Q1574.78 38.7509 1580.29 32.4315 Q1585.84 26.1121 1595.61 26.1121 Z" fill="#000000" fill-rule="evenodd" fill-opacity="1" /><path clip-path="url(#clip870)" d="M 0 0 M1635.99 65.7705 L1635.99 89.8329 L1628.5 89.8329 L1628.5 27.2059 L1635.99 27.2059 L1635.99 34.0924 Q1638.34 30.0415 1641.91 28.0971 Q1645.51 26.1121 1650.5 26.1121 Q1658.76 26.1121 1663.9 32.6746 Q1669.09 39.2371 1669.09 49.9314 Q1669.09 60.6258 1663.9 67.1883 Q1658.76 73.7508 1650.5 73.7508 Q1645.51 73.7508 1641.91 71.8063 Q1638.34 69.8214 1635.99 65.7705 M1661.35 49.9314 Q1661.35 41.7081 1657.95 37.0496 Q1654.59 32.3505 1648.67 32.3505 Q1642.76 32.3505 1639.36 37.0496 Q1635.99 41.7081 1635.99 49.9314 Q1635.99 58.1548 1639.36 62.8538 Q1642.76 67.5124 1648.67 67.5124 Q1654.59 67.5124 1657.95 62.8538 Q1661.35 58.1548 1661.35 49.9314 Z" fill="#000000" fill-rule="evenodd" fill-opacity="1" /><path clip-path="url(#clip870)" d="M 0 0 M1680.68 54.671 L1680.68 27.2059 L1688.13 27.2059 L1688.13 54.3874 Q1688.13 60.8284 1690.64 64.0691 Q1693.15 67.2693 1698.18 67.2693 Q1704.21 67.2693 1707.69 63.421 Q1711.22 59.5726 1711.22 52.9291 L1711.22 27.2059 L1718.67 27.2059 L1718.67 72.576 L1711.22 72.576 L1711.22 65.6084 Q1708.5 69.7404 1704.9 71.7658 Q1701.33 73.7508 1696.6 73.7508 Q1688.78 73.7508 1684.73 68.8897 Q1680.68 64.0286 1680.68 54.671 M1699.43 26.1121 L1699.43 26.1121 Z" fill="#000000" fill-rule="evenodd" fill-opacity="1" /><path clip-path="url(#clip870)" d="M 0 0 M1734.03 9.54393 L1741.48 9.54393 L1741.48 72.576 L1734.03 72.576 L1734.03 9.54393 Z" fill="#000000" fill-rule="evenodd" fill-opacity="1" /><path clip-path="url(#clip870)" d="M 0 0 M1777.69 49.7694 Q1768.66 49.7694 1765.18 51.8354 Q1761.69 53.9013 1761.69 58.8839 Q1761.69 62.8538 1764.29 65.2034 Q1766.92 67.5124 1771.42 67.5124 Q1777.61 67.5124 1781.34 63.1374 Q1785.11 58.7219 1785.11 51.4303 L1785.11 49.7694 L1777.69 49.7694 M1792.56 46.6907 L1792.56 72.576 L1785.11 72.576 L1785.11 65.6895 Q1782.56 69.8214 1778.75 71.8063 Q1774.94 73.7508 1769.43 73.7508 Q1762.46 73.7508 1758.33 69.8619 Q1754.24 65.9325 1754.24 59.3701 Q1754.24 51.7138 1759.34 47.825 Q1764.49 43.9361 1774.66 43.9361 L1785.11 43.9361 L1785.11 43.2069 Q1785.11 38.0623 1781.7 35.2672 Q1778.34 32.4315 1772.23 32.4315 Q1768.34 32.4315 1764.65 33.3632 Q1760.96 34.295 1757.56 36.1584 L1757.56 29.2718 Q1761.65 27.692 1765.5 26.9223 Q1769.35 26.1121 1773 26.1121 Q1782.84 26.1121 1787.7 31.2163 Q1792.56 36.3204 1792.56 46.6907 Z" fill="#000000" fill-rule="evenodd" fill-opacity="1" /><path clip-path="url(#clip870)" d="M 0 0 M1815.29 14.324 L1815.29 27.2059 L1830.64 27.2059 L1830.64 32.9987 L1815.29 32.9987 L1815.29 57.6282 Q1815.29 63.1779 1816.79 64.7578 Q1818.32 66.3376 1822.98 66.3376 L1830.64 66.3376 L1830.64 72.576 L1822.98 72.576 Q1814.35 72.576 1811.07 69.3758 Q1807.79 66.1351 1807.79 57.6282 L1807.79 32.9987 L1802.32 32.9987 L1802.32 27.2059 L1807.79 27.2059 L1807.79 14.324 L1815.29 14.324 Z" fill="#000000" fill-rule="evenodd" fill-opacity="1" /><path clip-path="url(#clip870)" d="M 0 0 M1840.44 27.2059 L1847.9 27.2059 L1847.9 72.576 L1840.44 72.576 L1840.44 27.2059 M1840.44 9.54393 L1847.9 9.54393 L1847.9 18.9825 L1840.44 18.9825 L1840.44 9.54393 Z" fill="#000000" fill-rule="evenodd" fill-opacity="1" /><path clip-path="url(#clip870)" d="M 0 0 M1881.07 32.4315 Q1875.08 32.4315 1871.59 37.1306 Q1868.11 41.7891 1868.11 49.9314 Q1868.11 58.0738 1871.55 62.7728 Q1875.04 67.4314 1881.07 67.4314 Q1887.03 67.4314 1890.51 62.7323 Q1894 58.0333 1894 49.9314 Q1894 41.8701 1890.51 37.1711 Q1887.03 32.4315 1881.07 32.4315 M1881.07 26.1121 Q1890.8 26.1121 1896.35 32.4315 Q1901.9 38.7509 1901.9 49.9314 Q1901.9 61.0714 1896.35 67.4314 Q1890.8 73.7508 1881.07 73.7508 Q1871.31 73.7508 1865.76 67.4314 Q1860.25 61.0714 1860.25 49.9314 Q1860.25 38.7509 1865.76 32.4315 Q1871.31 26.1121 1881.07 26.1121 Z" fill="#000000" fill-rule="evenodd" fill-opacity="1" /><path clip-path="url(#clip870)" d="M 0 0 M1951.96 45.1919 L1951.96 72.576 L1944.51 72.576 L1944.51 45.4349 Q1944.51 38.994 1942 35.7938 Q1939.49 32.5936 1934.46 32.5936 Q1928.43 32.5936 1924.94 36.4419 Q1921.46 40.2903 1921.46 46.9338 L1921.46 72.576 L1913.97 72.576 L1913.97 27.2059 L1921.46 27.2059 L1921.46 34.2544 Q1924.13 30.163 1927.74 28.1376 Q1931.39 26.1121 1936.13 26.1121 Q1943.94 26.1121 1947.95 30.9732 Q1951.96 35.7938 1951.96 45.1919 Z" fill="#000000" fill-rule="evenodd" fill-opacity="1" /><path clip-path="url(#clip870)" d="M 0 0 M2023.06 34.0924 L2023.06 9.54393 L2030.51 9.54393 L2030.51 72.576 L2023.06 72.576 L2023.06 65.7705 Q2020.71 69.8214 2017.1 71.8063 Q2013.54 73.7508 2008.51 73.7508 Q2000.29 73.7508 1995.11 67.1883 Q1989.96 60.6258 1989.96 49.9314 Q1989.96 39.2371 1995.11 32.6746 Q2000.29 26.1121 2008.51 26.1121 Q2013.54 26.1121 2017.1 28.0971 Q2020.71 30.0415 2023.06 34.0924 M1997.66 49.9314 Q1997.66 58.1548 2001.02 62.8538 Q2004.42 67.5124 2010.34 67.5124 Q2016.25 67.5124 2019.65 62.8538 Q2023.06 58.1548 2023.06 49.9314 Q2023.06 41.7081 2019.65 37.0496 Q2016.25 32.3505 2010.34 32.3505 Q2004.42 32.3505 2001.02 37.0496 Q1997.66 41.7081 1997.66 49.9314 Z" fill="#000000" fill-rule="evenodd" fill-opacity="1" /><path clip-path="url(#clip870)" d="M 0 0 M2045.86 27.2059 L2053.32 27.2059 L2053.32 72.576 L2045.86 72.576 L2045.86 27.2059 M2045.86 9.54393 L2053.32 9.54393 L2053.32 18.9825 L2045.86 18.9825 L2045.86 9.54393 Z" fill="#000000" fill-rule="evenodd" fill-opacity="1" /><path clip-path="url(#clip870)" d="M 0 0 M2097.84 28.5427 L2097.84 35.5912 Q2094.68 33.9709 2091.27 33.1607 Q2087.87 32.3505 2084.23 32.3505 Q2078.68 32.3505 2075.88 34.0519 Q2073.13 35.7533 2073.13 39.156 Q2073.13 41.7486 2075.11 43.2475 Q2077.1 44.7058 2083.09 46.0426 L2085.64 46.6097 Q2093.58 48.3111 2096.91 51.4303 Q2100.27 54.509 2100.27 60.0587 Q2100.27 66.3781 2095.24 70.0644 Q2090.26 73.7508 2081.51 73.7508 Q2077.87 73.7508 2073.9 73.0216 Q2069.97 72.3329 2065.59 70.9151 L2065.59 63.2184 Q2069.72 65.3654 2073.73 66.4591 Q2077.74 67.5124 2081.67 67.5124 Q2086.94 67.5124 2089.78 65.73 Q2092.61 63.9071 2092.61 60.6258 Q2092.61 57.5877 2090.55 55.9673 Q2088.52 54.3469 2081.59 52.8481 L2079 52.2405 Q2072.07 50.7821 2068.99 47.7845 Q2065.92 44.7463 2065.92 39.4801 Q2065.92 33.0797 2070.45 29.5959 Q2074.99 26.1121 2083.34 26.1121 Q2087.47 26.1121 2091.11 26.7198 Q2094.76 27.3274 2097.84 28.5427 Z" fill="#000000" fill-rule="evenodd" fill-opacity="1" /><path clip-path="url(#clip870)" d="M 0 0 M2119.51 14.324 L2119.51 27.2059 L2134.86 27.2059 L2134.86 32.9987 L2119.51 32.9987 L2119.51 57.6282 Q2119.51 63.1779 2121.01 64.7578 Q2122.55 66.3376 2127.21 66.3376 L2134.86 66.3376 L2134.86 72.576 L2127.21 72.576 Q2118.58 72.576 2115.3 69.3758 Q2112.02 66.1351 2112.02 57.6282 L2112.02 32.9987 L2106.55 32.9987 L2106.55 27.2059 L2112.02 27.2059 L2112.02 14.324 L2119.51 14.324 Z" fill="#000000" fill-rule="evenodd" fill-opacity="1" /><path clip-path="url(#clip870)" d="M 0 0 M2170.96 34.1734 Q2169.7 33.4443 2168.2 33.1202 Q2166.74 32.7556 2164.96 32.7556 Q2158.64 32.7556 2155.24 36.8875 Q2151.88 40.9789 2151.88 48.6757 L2151.88 72.576 L2144.38 72.576 L2144.38 27.2059 L2151.88 27.2059 L2151.88 34.2544 Q2154.23 30.1225 2157.99 28.1376 Q2161.76 26.1121 2167.15 26.1121 Q2167.92 26.1121 2168.85 26.2337 Q2169.78 26.3147 2170.92 26.5172 L2170.96 34.1734 Z" fill="#000000" fill-rule="evenodd" fill-opacity="1" /><path clip-path="url(#clip870)" d="M 0 0 M2178.77 27.2059 L2186.23 27.2059 L2186.23 72.576 L2178.77 72.576 L2178.77 27.2059 M2178.77 9.54393 L2186.23 9.54393 L2186.23 18.9825 L2178.77 18.9825 L2178.77 9.54393 Z" fill="#000000" fill-rule="evenodd" fill-opacity="1" /><path clip-path="url(#clip870)" d="M 0 0 M2234.39 49.9314 Q2234.39 41.7081 2230.99 37.0496 Q2227.63 32.3505 2221.71 32.3505 Q2215.8 32.3505 2212.4 37.0496 Q2209.03 41.7081 2209.03 49.9314 Q2209.03 58.1548 2212.4 62.8538 Q2215.8 67.5124 2221.71 67.5124 Q2227.63 67.5124 2230.99 62.8538 Q2234.39 58.1548 2234.39 49.9314 M2209.03 34.0924 Q2211.38 30.0415 2214.95 28.0971 Q2218.55 26.1121 2223.54 26.1121 Q2231.8 26.1121 2236.95 32.6746 Q2242.13 39.2371 2242.13 49.9314 Q2242.13 60.6258 2236.95 67.1883 Q2231.8 73.7508 2223.54 73.7508 Q2218.55 73.7508 2214.95 71.8063 Q2211.38 69.8214 2209.03 65.7705 L2209.03 72.576 L2201.54 72.576 L2201.54 9.54393 L2209.03 9.54393 L2209.03 34.0924 Z" fill="#000000" fill-rule="evenodd" fill-opacity="1" /><path clip-path="url(#clip870)" d="M 0 0 M2253.72 54.671 L2253.72 27.2059 L2261.17 27.2059 L2261.17 54.3874 Q2261.17 60.8284 2263.68 64.0691 Q2266.19 67.2693 2271.22 67.2693 Q2277.25 67.2693 2280.74 63.421 Q2284.26 59.5726 2284.26 52.9291 L2284.26 27.2059 L2291.71 27.2059 L2291.71 72.576 L2284.26 72.576 L2284.26 65.6084 Q2281.55 69.7404 2277.94 71.7658 Q2274.38 73.7508 2269.64 73.7508 Q2261.82 73.7508 2257.77 68.8897 Q2253.72 64.0286 2253.72 54.671 M2272.47 26.1121 L2272.47 26.1121 Z" fill="#000000" fill-rule="evenodd" fill-opacity="1" /><path clip-path="url(#clip870)" d="M 0 0 M2314.44 14.324 L2314.44 27.2059 L2329.79 27.2059 L2329.79 32.9987 L2314.44 32.9987 L2314.44 57.6282 Q2314.44 63.1779 2315.94 64.7578 Q2317.48 66.3376 2322.14 66.3376 L2329.79 66.3376 L2329.79 72.576 L2322.14 72.576 Q2313.51 72.576 2310.23 69.3758 Q2306.94 66.1351 2306.94 57.6282 L2306.94 32.9987 L2301.48 32.9987 L2301.48 27.2059 L2306.94 27.2059 L2306.94 14.324 L2314.44 14.324 Z" fill="#000000" fill-rule="evenodd" fill-opacity="1" /><path clip-path="url(#clip870)" d="M 0 0 M2339.6 27.2059 L2347.05 27.2059 L2347.05 72.576 L2339.6 72.576 L2339.6 27.2059 M2339.6 9.54393 L2347.05 9.54393 L2347.05 18.9825 L2339.6 18.9825 L2339.6 9.54393 Z" fill="#000000" fill-rule="evenodd" fill-opacity="1" /><path clip-path="url(#clip870)" d="M 0 0 M2380.23 32.4315 Q2374.23 32.4315 2370.75 37.1306 Q2367.26 41.7891 2367.26 49.9314 Q2367.26 58.0738 2370.71 62.7728 Q2374.19 67.4314 2380.23 67.4314 Q2386.18 67.4314 2389.66 62.7323 Q2393.15 58.0333 2393.15 49.9314 Q2393.15 41.8701 2389.66 37.1711 Q2386.18 32.4315 2380.23 32.4315 M2380.23 26.1121 Q2389.95 26.1121 2395.5 32.4315 Q2401.05 38.7509 2401.05 49.9314 Q2401.05 61.0714 2395.5 67.4314 Q2389.95 73.7508 2380.23 73.7508 Q2370.46 73.7508 2364.91 67.4314 Q2359.4 61.0714 2359.4 49.9314 Q2359.4 38.7509 2364.91 32.4315 Q2370.46 26.1121 2380.23 26.1121 Z" fill="#000000" fill-rule="evenodd" fill-opacity="1" /><path clip-path="url(#clip870)" d="M 0 0 M2451.12 45.1919 L2451.12 72.576 L2443.66 72.576 L2443.66 45.4349 Q2443.66 38.994 2441.15 35.7938 Q2438.64 32.5936 2433.62 32.5936 Q2427.58 32.5936 2424.1 36.4419 Q2420.61 40.2903 2420.61 46.9338 L2420.61 72.576 L2413.12 72.576 L2413.12 27.2059 L2420.61 27.2059 L2420.61 34.2544 Q2423.29 30.163 2426.89 28.1376 Q2430.54 26.1121 2435.28 26.1121 Q2443.1 26.1121 2447.11 30.9732 Q2451.12 35.7938 2451.12 45.1919 Z" fill="#000000" fill-rule="evenodd" fill-opacity="1" /><path clip-path="url(#clip872)" d="
M340.799 163.333 L340.799 1828.03 L484.847 1828.03 L484.847 163.333 L340.799 163.333 L340.799 163.333  Z
  " fill="#00ffff" fill-rule="evenodd" fill-opacity="0.7"/>
<polyline clip-path="url(#clip872)" style="stroke:#000000; stroke-width:4; stroke-opacity:0.7; fill:none" points="
  340.799,163.333 340.799,1828.03 484.847,1828.03 484.847,163.333 340.799,163.333 
  "/>
<path clip-path="url(#clip872)" d="
M484.847 1105.2 L484.847 1828.03 L628.895 1828.03 L628.895 1105.2 L484.847 1105.2 L484.847 1105.2  Z
  " fill="#00ffff" fill-rule="evenodd" fill-opacity="0.7"/>
<polyline clip-path="url(#clip872)" style="stroke:#000000; stroke-width:4; stroke-opacity:0.7; fill:none" points="
  484.847,1105.2 484.847,1828.03 628.895,1828.03 628.895,1105.2 484.847,1105.2 
  "/>
<path clip-path="url(#clip872)" d="
M628.895 1368.05 L628.895 1828.03 L772.943 1828.03 L772.943 1368.05 L628.895 1368.05 L628.895 1368.05  Z
  " fill="#00ffff" fill-rule="evenodd" fill-opacity="0.7"/>
<polyline clip-path="url(#clip872)" style="stroke:#000000; stroke-width:4; stroke-opacity:0.7; fill:none" points="
  628.895,1368.05 628.895,1828.03 772.943,1828.03 772.943,1368.05 628.895,1368.05 
  "/>
<path clip-path="url(#clip872)" d="
M772.943 1521.38 L772.943 1828.03 L916.991 1828.03 L916.991 1521.38 L772.943 1521.38 L772.943 1521.38  Z
  " fill="#00ffff" fill-rule="evenodd" fill-opacity="0.7"/>
<polyline clip-path="url(#clip872)" style="stroke:#000000; stroke-width:4; stroke-opacity:0.7; fill:none" points="
  772.943,1521.38 772.943,1828.03 916.991,1828.03 916.991,1521.38 772.943,1521.38 
  "/>
<path clip-path="url(#clip872)" d="
M916.991 1718.51 L916.991 1828.03 L1061.04 1828.03 L1061.04 1718.51 L916.991 1718.51 L916.991 1718.51  Z
  " fill="#00ffff" fill-rule="evenodd" fill-opacity="0.7"/>
<polyline clip-path="url(#clip872)" style="stroke:#000000; stroke-width:4; stroke-opacity:0.7; fill:none" points="
  916.991,1718.51 916.991,1828.03 1061.04,1828.03 1061.04,1718.51 916.991,1718.51 
  "/>
<path clip-path="url(#clip872)" d="
M1061.04 1784.22 L1061.04 1828.03 L1205.09 1828.03 L1205.09 1784.22 L1061.04 1784.22 L1061.04 1784.22  Z
  " fill="#00ffff" fill-rule="evenodd" fill-opacity="0.7"/>
<polyline clip-path="url(#clip872)" style="stroke:#000000; stroke-width:4; stroke-opacity:0.7; fill:none" points="
  1061.04,1784.22 1061.04,1828.03 1205.09,1828.03 1205.09,1784.22 1061.04,1784.22 
  "/>
<path clip-path="url(#clip872)" d="
M1205.09 1718.51 L1205.09 1828.03 L1349.14 1828.03 L1349.14 1718.51 L1205.09 1718.51 L1205.09 1718.51  Z
  " fill="#00ffff" fill-rule="evenodd" fill-opacity="0.7"/>
<polyline clip-path="url(#clip872)" style="stroke:#000000; stroke-width:4; stroke-opacity:0.7; fill:none" points="
  1205.09,1718.51 1205.09,1828.03 1349.14,1828.03 1349.14,1718.51 1205.09,1718.51 
  "/>
<path clip-path="url(#clip872)" d="
M1349.14 1828.03 L1349.14 1828.03 L1493.18 1828.03 L1493.18 1828.03 L1349.14 1828.03 L1349.14 1828.03  Z
  " fill="#00ffff" fill-rule="evenodd" fill-opacity="0.7"/>
<polyline clip-path="url(#clip872)" style="stroke:#000000; stroke-width:4; stroke-opacity:0.7; fill:none" points="
  1349.14,1828.03 1349.14,1828.03 1493.18,1828.03 1349.14,1828.03 
  "/>
<path clip-path="url(#clip872)" d="
M1493.18 1784.22 L1493.18 1828.03 L1637.23 1828.03 L1637.23 1784.22 L1493.18 1784.22 L1493.18 1784.22  Z
  " fill="#00ffff" fill-rule="evenodd" fill-opacity="0.7"/>
<polyline clip-path="url(#clip872)" style="stroke:#000000; stroke-width:4; stroke-opacity:0.7; fill:none" points="
  1493.18,1784.22 1493.18,1828.03 1637.23,1828.03 1637.23,1784.22 1493.18,1784.22 
  "/>
<path clip-path="url(#clip872)" d="
M1637.23 1806.13 L1637.23 1828.03 L1781.28 1828.03 L1781.28 1806.13 L1637.23 1806.13 L1637.23 1806.13  Z
  " fill="#00ffff" fill-rule="evenodd" fill-opacity="0.7"/>
<polyline clip-path="url(#clip872)" style="stroke:#000000; stroke-width:4; stroke-opacity:0.7; fill:none" points="
  1637.23,1806.13 1637.23,1828.03 1781.28,1828.03 1781.28,1806.13 1637.23,1806.13 
  "/>
<path clip-path="url(#clip872)" d="
M1781.28 1828.03 L1781.28 1828.03 L1925.33 1828.03 L1925.33 1828.03 L1781.28 1828.03 L1781.28 1828.03  Z
  " fill="#00ffff" fill-rule="evenodd" fill-opacity="0.7"/>
<polyline clip-path="url(#clip872)" style="stroke:#000000; stroke-width:4; stroke-opacity:0.7; fill:none" points="
  1781.28,1828.03 1781.28,1828.03 1925.33,1828.03 1781.28,1828.03 
  "/>
<path clip-path="url(#clip872)" d="
M1925.33 1828.03 L1925.33 1828.03 L2069.38 1828.03 L2069.38 1828.03 L1925.33 1828.03 L1925.33 1828.03  Z
  " fill="#00ffff" fill-rule="evenodd" fill-opacity="0.7"/>
<polyline clip-path="url(#clip872)" style="stroke:#000000; stroke-width:4; stroke-opacity:0.7; fill:none" points="
  1925.33,1828.03 1925.33,1828.03 2069.38,1828.03 1925.33,1828.03 
  "/>
<path clip-path="url(#clip872)" d="
M2069.38 1784.22 L2069.38 1828.03 L2213.42 1828.03 L2213.42 1784.22 L2069.38 1784.22 L2069.38 1784.22  Z
  " fill="#00ffff" fill-rule="evenodd" fill-opacity="0.7"/>
<polyline clip-path="url(#clip872)" style="stroke:#000000; stroke-width:4; stroke-opacity:0.7; fill:none" points="
  2069.38,1784.22 2069.38,1828.03 2213.42,1828.03 2213.42,1784.22 2069.38,1784.22 
  "/>
<path clip-path="url(#clip872)" d="
M2213.42 1806.13 L2213.42 1828.03 L2357.47 1828.03 L2357.47 1806.13 L2213.42 1806.13 L2213.42 1806.13  Z
  " fill="#00ffff" fill-rule="evenodd" fill-opacity="0.7"/>
<polyline clip-path="url(#clip872)" style="stroke:#000000; stroke-width:4; stroke-opacity:0.7; fill:none" points="
  2213.42,1806.13 2213.42,1828.03 2357.47,1828.03 2357.47,1806.13 2213.42,1806.13 
  "/>
<path clip-path="url(#clip872)" d="
M2357.47 1806.13 L2357.47 1828.03 L2501.52 1828.03 L2501.52 1806.13 L2357.47 1806.13 L2357.47 1806.13  Z
  " fill="#00ffff" fill-rule="evenodd" fill-opacity="0.7"/>
<polyline clip-path="url(#clip872)" style="stroke:#000000; stroke-width:4; stroke-opacity:0.7; fill:none" points="
  2357.47,1806.13 2357.47,1828.03 2501.52,1828.03 2501.52,1806.13 2357.47,1806.13 
  "/>
<path clip-path="url(#clip872)" d="
M2501.52 1828.03 L2501.52 1828.03 L2645.57 1828.03 L2645.57 1828.03 L2501.52 1828.03 L2501.52 1828.03  Z
  " fill="#00ffff" fill-rule="evenodd" fill-opacity="0.7"/>
<polyline clip-path="url(#clip872)" style="stroke:#000000; stroke-width:4; stroke-opacity:0.7; fill:none" points="
  2501.52,1828.03 2501.52,1828.03 2645.57,1828.03 2501.52,1828.03 
  "/>
<path clip-path="url(#clip872)" d="
M2645.57 1828.03 L2645.57 1828.03 L2789.62 1828.03 L2789.62 1828.03 L2645.57 1828.03 L2645.57 1828.03  Z
  " fill="#00ffff" fill-rule="evenodd" fill-opacity="0.7"/>
<polyline clip-path="url(#clip872)" style="stroke:#000000; stroke-width:4; stroke-opacity:0.7; fill:none" points="
  2645.57,1828.03 2645.57,1828.03 2789.62,1828.03 2645.57,1828.03 
  "/>
<path clip-path="url(#clip872)" d="
M2789.62 1806.13 L2789.62 1828.03 L2933.67 1828.03 L2933.67 1806.13 L2789.62 1806.13 L2789.62 1806.13  Z
  " fill="#00ffff" fill-rule="evenodd" fill-opacity="0.7"/>
<polyline clip-path="url(#clip872)" style="stroke:#000000; stroke-width:4; stroke-opacity:0.7; fill:none" points="
  2789.62,1806.13 2789.62,1828.03 2933.67,1828.03 2933.67,1806.13 2789.62,1806.13 
  "/>
<path clip-path="url(#clip872)" d="
M2933.67 1806.13 L2933.67 1828.03 L3077.71 1828.03 L3077.71 1806.13 L2933.67 1806.13 L2933.67 1806.13  Z
  " fill="#00ffff" fill-rule="evenodd" fill-opacity="0.7"/>
<polyline clip-path="url(#clip872)" style="stroke:#000000; stroke-width:4; stroke-opacity:0.7; fill:none" points="
  2933.67,1806.13 2933.67,1828.03 3077.71,1828.03 3077.71,1806.13 2933.67,1806.13 
  "/>
<path clip-path="url(#clip872)" d="
M3077.71 1828.03 L3077.71 1828.03 L3221.76 1828.03 L3221.76 1828.03 L3077.71 1828.03 L3077.71 1828.03  Z
  " fill="#00ffff" fill-rule="evenodd" fill-opacity="0.7"/>
<polyline clip-path="url(#clip872)" style="stroke:#000000; stroke-width:4; stroke-opacity:0.7; fill:none" points="
  3077.71,1828.03 3077.71,1828.03 3221.76,1828.03 3077.71,1828.03 
  "/>
<path clip-path="url(#clip872)" d="
M3221.76 1806.13 L3221.76 1828.03 L3365.81 1828.03 L3365.81 1806.13 L3221.76 1806.13 L3221.76 1806.13  Z
  " fill="#00ffff" fill-rule="evenodd" fill-opacity="0.7"/>
<polyline clip-path="url(#clip872)" style="stroke:#000000; stroke-width:4; stroke-opacity:0.7; fill:none" points="
  3221.76,1806.13 3221.76,1828.03 3365.81,1828.03 3365.81,1806.13 3221.76,1806.13 
  "/>
<path clip-path="url(#clip872)" d="
M340.799 535.7 L340.799 1828.03 L412.823 1828.03 L412.823 535.7 L340.799 535.7 L340.799 535.7  Z
  " fill="#ffa500" fill-rule="evenodd" fill-opacity="0.7"/>
<polyline clip-path="url(#clip872)" style="stroke:#000000; stroke-width:4; stroke-opacity:0.7; fill:none" points="
  340.799,535.7 340.799,1828.03 412.823,1828.03 412.823,535.7 340.799,535.7 
  "/>
<path clip-path="url(#clip872)" d="
M412.823 1017.59 L412.823 1828.03 L484.847 1828.03 L484.847 1017.59 L412.823 1017.59 L412.823 1017.59  Z
  " fill="#ffa500" fill-rule="evenodd" fill-opacity="0.7"/>
<polyline clip-path="url(#clip872)" style="stroke:#000000; stroke-width:4; stroke-opacity:0.7; fill:none" points="
  412.823,1017.59 412.823,1828.03 484.847,1828.03 484.847,1017.59 412.823,1017.59 
  "/>
<path clip-path="url(#clip872)" d="
M484.847 1192.82 L484.847 1828.03 L556.871 1828.03 L556.871 1192.82 L484.847 1192.82 L484.847 1192.82  Z
  " fill="#ffa500" fill-rule="evenodd" fill-opacity="0.7"/>
<polyline clip-path="url(#clip872)" style="stroke:#000000; stroke-width:4; stroke-opacity:0.7; fill:none" points="
  484.847,1192.82 484.847,1828.03 556.871,1828.03 556.871,1192.82 484.847,1192.82 
  "/>
<path clip-path="url(#clip872)" d="
M556.871 1565.18 L556.871 1828.03 L628.895 1828.03 L628.895 1565.18 L556.871 1565.18 L556.871 1565.18  Z
  " fill="#ffa500" fill-rule="evenodd" fill-opacity="0.7"/>
<polyline clip-path="url(#clip872)" style="stroke:#000000; stroke-width:4; stroke-opacity:0.7; fill:none" points="
  556.871,1565.18 556.871,1828.03 628.895,1828.03 628.895,1565.18 556.871,1565.18 
  "/>
<path clip-path="url(#clip872)" d="
M628.895 1630.9 L628.895 1828.03 L700.919 1828.03 L700.919 1630.9 L628.895 1630.9 L628.895 1630.9  Z
  " fill="#ffa500" fill-rule="evenodd" fill-opacity="0.7"/>
<polyline clip-path="url(#clip872)" style="stroke:#000000; stroke-width:4; stroke-opacity:0.7; fill:none" points="
  628.895,1630.9 628.895,1828.03 700.919,1828.03 700.919,1630.9 628.895,1630.9 
  "/>
<path clip-path="url(#clip872)" d="
M700.919 1652.8 L700.919 1828.03 L772.943 1828.03 L772.943 1652.8 L700.919 1652.8 L700.919 1652.8  Z
  " fill="#ffa500" fill-rule="evenodd" fill-opacity="0.7"/>
<polyline clip-path="url(#clip872)" style="stroke:#000000; stroke-width:4; stroke-opacity:0.7; fill:none" points="
  700.919,1652.8 700.919,1828.03 772.943,1828.03 772.943,1652.8 700.919,1652.8 
  "/>
<path clip-path="url(#clip872)" d="
M772.943 1608.99 L772.943 1828.03 L844.967 1828.03 L844.967 1608.99 L772.943 1608.99 L772.943 1608.99  Z
  " fill="#ffa500" fill-rule="evenodd" fill-opacity="0.7"/>
<polyline clip-path="url(#clip872)" style="stroke:#000000; stroke-width:4; stroke-opacity:0.7; fill:none" points="
  772.943,1608.99 772.943,1828.03 844.967,1828.03 844.967,1608.99 772.943,1608.99 
  "/>
<path clip-path="url(#clip872)" d="
M844.967 1740.42 L844.967 1828.03 L916.991 1828.03 L916.991 1740.42 L844.967 1740.42 L844.967 1740.42  Z
  " fill="#ffa500" fill-rule="evenodd" fill-opacity="0.7"/>
<polyline clip-path="url(#clip872)" style="stroke:#000000; stroke-width:4; stroke-opacity:0.7; fill:none" points="
  844.967,1740.42 844.967,1828.03 916.991,1828.03 916.991,1740.42 844.967,1740.42 
  "/>
<path clip-path="url(#clip872)" d="
M916.991 1784.22 L916.991 1828.03 L989.015 1828.03 L989.015 1784.22 L916.991 1784.22 L916.991 1784.22  Z
  " fill="#ffa500" fill-rule="evenodd" fill-opacity="0.7"/>
<polyline clip-path="url(#clip872)" style="stroke:#000000; stroke-width:4; stroke-opacity:0.7; fill:none" points="
  916.991,1784.22 916.991,1828.03 989.015,1828.03 989.015,1784.22 916.991,1784.22 
  "/>
<path clip-path="url(#clip872)" d="
M989.015 1762.32 L989.015 1828.03 L1061.04 1828.03 L1061.04 1762.32 L989.015 1762.32 L989.015 1762.32  Z
  " fill="#ffa500" fill-rule="evenodd" fill-opacity="0.7"/>
<polyline clip-path="url(#clip872)" style="stroke:#000000; stroke-width:4; stroke-opacity:0.7; fill:none" points="
  989.015,1762.32 989.015,1828.03 1061.04,1828.03 1061.04,1762.32 989.015,1762.32 
  "/>
<path clip-path="url(#clip872)" d="
M1061.04 1762.32 L1061.04 1828.03 L1133.06 1828.03 L1133.06 1762.32 L1061.04 1762.32 L1061.04 1762.32  Z
  " fill="#ffa500" fill-rule="evenodd" fill-opacity="0.7"/>
<polyline clip-path="url(#clip872)" style="stroke:#000000; stroke-width:4; stroke-opacity:0.7; fill:none" points="
  1061.04,1762.32 1061.04,1828.03 1133.06,1828.03 1133.06,1762.32 1061.04,1762.32 
  "/>
<path clip-path="url(#clip872)" d="
M1133.06 1740.42 L1133.06 1828.03 L1205.09 1828.03 L1205.09 1740.42 L1133.06 1740.42 L1133.06 1740.42  Z
  " fill="#ffa500" fill-rule="evenodd" fill-opacity="0.7"/>
<polyline clip-path="url(#clip872)" style="stroke:#000000; stroke-width:4; stroke-opacity:0.7; fill:none" points="
  1133.06,1740.42 1133.06,1828.03 1205.09,1828.03 1205.09,1740.42 1133.06,1740.42 
  "/>
<path clip-path="url(#clip872)" d="
M1205.09 1784.22 L1205.09 1828.03 L1277.11 1828.03 L1277.11 1784.22 L1205.09 1784.22 L1205.09 1784.22  Z
  " fill="#ffa500" fill-rule="evenodd" fill-opacity="0.7"/>
<polyline clip-path="url(#clip872)" style="stroke:#000000; stroke-width:4; stroke-opacity:0.7; fill:none" points="
  1205.09,1784.22 1205.09,1828.03 1277.11,1828.03 1277.11,1784.22 1205.09,1784.22 
  "/>
<path clip-path="url(#clip872)" d="
M1277.11 1740.42 L1277.11 1828.03 L1349.14 1828.03 L1349.14 1740.42 L1277.11 1740.42 L1277.11 1740.42  Z
  " fill="#ffa500" fill-rule="evenodd" fill-opacity="0.7"/>
<polyline clip-path="url(#clip872)" style="stroke:#000000; stroke-width:4; stroke-opacity:0.7; fill:none" points="
  1277.11,1740.42 1277.11,1828.03 1349.14,1828.03 1349.14,1740.42 1277.11,1740.42 
  "/>
<path clip-path="url(#clip872)" d="
M1349.14 1762.32 L1349.14 1828.03 L1421.16 1828.03 L1421.16 1762.32 L1349.14 1762.32 L1349.14 1762.32  Z
  " fill="#ffa500" fill-rule="evenodd" fill-opacity="0.7"/>
<polyline clip-path="url(#clip872)" style="stroke:#000000; stroke-width:4; stroke-opacity:0.7; fill:none" points="
  1349.14,1762.32 1349.14,1828.03 1421.16,1828.03 1421.16,1762.32 1349.14,1762.32 
  "/>
<path clip-path="url(#clip872)" d="
M1421.16 1806.13 L1421.16 1828.03 L1493.18 1828.03 L1493.18 1806.13 L1421.16 1806.13 L1421.16 1806.13  Z
  " fill="#ffa500" fill-rule="evenodd" fill-opacity="0.7"/>
<polyline clip-path="url(#clip872)" style="stroke:#000000; stroke-width:4; stroke-opacity:0.7; fill:none" points="
  1421.16,1806.13 1421.16,1828.03 1493.18,1828.03 1493.18,1806.13 1421.16,1806.13 
  "/>
<path clip-path="url(#clip872)" d="
M1493.18 1828.03 L1493.18 1828.03 L1565.21 1828.03 L1565.21 1828.03 L1493.18 1828.03 L1493.18 1828.03  Z
  " fill="#ffa500" fill-rule="evenodd" fill-opacity="0.7"/>
<polyline clip-path="url(#clip872)" style="stroke:#000000; stroke-width:4; stroke-opacity:0.7; fill:none" points="
  1493.18,1828.03 1493.18,1828.03 1565.21,1828.03 1493.18,1828.03 
  "/>
<path clip-path="url(#clip872)" d="
M1565.21 1828.03 L1565.21 1828.03 L1637.23 1828.03 L1637.23 1828.03 L1565.21 1828.03 L1565.21 1828.03  Z
  " fill="#ffa500" fill-rule="evenodd" fill-opacity="0.7"/>
<polyline clip-path="url(#clip872)" style="stroke:#000000; stroke-width:4; stroke-opacity:0.7; fill:none" points="
  1565.21,1828.03 1565.21,1828.03 1637.23,1828.03 1565.21,1828.03 
  "/>
<path clip-path="url(#clip872)" d="
M1637.23 1806.13 L1637.23 1828.03 L1709.26 1828.03 L1709.26 1806.13 L1637.23 1806.13 L1637.23 1806.13  Z
  " fill="#ffa500" fill-rule="evenodd" fill-opacity="0.7"/>
<polyline clip-path="url(#clip872)" style="stroke:#000000; stroke-width:4; stroke-opacity:0.7; fill:none" points="
  1637.23,1806.13 1637.23,1828.03 1709.26,1828.03 1709.26,1806.13 1637.23,1806.13 
  "/>
<path clip-path="url(#clip872)" d="
M1709.26 1784.22 L1709.26 1828.03 L1781.28 1828.03 L1781.28 1784.22 L1709.26 1784.22 L1709.26 1784.22  Z
  " fill="#ffa500" fill-rule="evenodd" fill-opacity="0.7"/>
<polyline clip-path="url(#clip872)" style="stroke:#000000; stroke-width:4; stroke-opacity:0.7; fill:none" points="
  1709.26,1784.22 1709.26,1828.03 1781.28,1828.03 1781.28,1784.22 1709.26,1784.22 
  "/>
<path clip-path="url(#clip872)" d="
M1781.28 1828.03 L1781.28 1828.03 L1853.3 1828.03 L1853.3 1828.03 L1781.28 1828.03 L1781.28 1828.03  Z
  " fill="#ffa500" fill-rule="evenodd" fill-opacity="0.7"/>
<polyline clip-path="url(#clip872)" style="stroke:#000000; stroke-width:4; stroke-opacity:0.7; fill:none" points="
  1781.28,1828.03 1781.28,1828.03 1853.3,1828.03 1781.28,1828.03 
  "/>
<path clip-path="url(#clip872)" d="
M1853.3 1828.03 L1853.3 1828.03 L1925.33 1828.03 L1925.33 1828.03 L1853.3 1828.03 L1853.3 1828.03  Z
  " fill="#ffa500" fill-rule="evenodd" fill-opacity="0.7"/>
<polyline clip-path="url(#clip872)" style="stroke:#000000; stroke-width:4; stroke-opacity:0.7; fill:none" points="
  1853.3,1828.03 1853.3,1828.03 1925.33,1828.03 1853.3,1828.03 
  "/>
<path clip-path="url(#clip872)" d="
M1925.33 1828.03 L1925.33 1828.03 L1997.35 1828.03 L1997.35 1828.03 L1925.33 1828.03 L1925.33 1828.03  Z
  " fill="#ffa500" fill-rule="evenodd" fill-opacity="0.7"/>
<polyline clip-path="url(#clip872)" style="stroke:#000000; stroke-width:4; stroke-opacity:0.7; fill:none" points="
  1925.33,1828.03 1925.33,1828.03 1997.35,1828.03 1925.33,1828.03 
  "/>
<path clip-path="url(#clip872)" d="
M1997.35 1828.03 L1997.35 1828.03 L2069.38 1828.03 L2069.38 1828.03 L1997.35 1828.03 L1997.35 1828.03  Z
  " fill="#ffa500" fill-rule="evenodd" fill-opacity="0.7"/>
<polyline clip-path="url(#clip872)" style="stroke:#000000; stroke-width:4; stroke-opacity:0.7; fill:none" points="
  1997.35,1828.03 1997.35,1828.03 2069.38,1828.03 1997.35,1828.03 
  "/>
<path clip-path="url(#clip872)" d="
M2069.38 1828.03 L2069.38 1828.03 L2141.4 1828.03 L2141.4 1828.03 L2069.38 1828.03 L2069.38 1828.03  Z
  " fill="#ffa500" fill-rule="evenodd" fill-opacity="0.7"/>
<polyline clip-path="url(#clip872)" style="stroke:#000000; stroke-width:4; stroke-opacity:0.7; fill:none" points="
  2069.38,1828.03 2069.38,1828.03 2141.4,1828.03 2069.38,1828.03 
  "/>
<path clip-path="url(#clip872)" d="
M2141.4 1828.03 L2141.4 1828.03 L2213.42 1828.03 L2213.42 1828.03 L2141.4 1828.03 L2141.4 1828.03  Z
  " fill="#ffa500" fill-rule="evenodd" fill-opacity="0.7"/>
<polyline clip-path="url(#clip872)" style="stroke:#000000; stroke-width:4; stroke-opacity:0.7; fill:none" points="
  2141.4,1828.03 2141.4,1828.03 2213.42,1828.03 2141.4,1828.03 
  "/>
<path clip-path="url(#clip872)" d="
M2213.42 1828.03 L2213.42 1828.03 L2285.45 1828.03 L2285.45 1828.03 L2213.42 1828.03 L2213.42 1828.03  Z
  " fill="#ffa500" fill-rule="evenodd" fill-opacity="0.7"/>
<polyline clip-path="url(#clip872)" style="stroke:#000000; stroke-width:4; stroke-opacity:0.7; fill:none" points="
  2213.42,1828.03 2213.42,1828.03 2285.45,1828.03 2213.42,1828.03 
  "/>
<path clip-path="url(#clip872)" d="
M2285.45 1828.03 L2285.45 1828.03 L2357.47 1828.03 L2357.47 1828.03 L2285.45 1828.03 L2285.45 1828.03  Z
  " fill="#ffa500" fill-rule="evenodd" fill-opacity="0.7"/>
<polyline clip-path="url(#clip872)" style="stroke:#000000; stroke-width:4; stroke-opacity:0.7; fill:none" points="
  2285.45,1828.03 2285.45,1828.03 2357.47,1828.03 2285.45,1828.03 
  "/>
<path clip-path="url(#clip872)" d="
M2357.47 1828.03 L2357.47 1828.03 L2429.5 1828.03 L2429.5 1828.03 L2357.47 1828.03 L2357.47 1828.03  Z
  " fill="#ffa500" fill-rule="evenodd" fill-opacity="0.7"/>
<polyline clip-path="url(#clip872)" style="stroke:#000000; stroke-width:4; stroke-opacity:0.7; fill:none" points="
  2357.47,1828.03 2357.47,1828.03 2429.5,1828.03 2357.47,1828.03 
  "/>
<path clip-path="url(#clip872)" d="
M2429.5 1828.03 L2429.5 1828.03 L2501.52 1828.03 L2501.52 1828.03 L2429.5 1828.03 L2429.5 1828.03  Z
  " fill="#ffa500" fill-rule="evenodd" fill-opacity="0.7"/>
<polyline clip-path="url(#clip872)" style="stroke:#000000; stroke-width:4; stroke-opacity:0.7; fill:none" points="
  2429.5,1828.03 2429.5,1828.03 2501.52,1828.03 2429.5,1828.03 
  "/>
<path clip-path="url(#clip872)" d="
M2501.52 1828.03 L2501.52 1828.03 L2573.55 1828.03 L2573.55 1828.03 L2501.52 1828.03 L2501.52 1828.03  Z
  " fill="#ffa500" fill-rule="evenodd" fill-opacity="0.7"/>
<polyline clip-path="url(#clip872)" style="stroke:#000000; stroke-width:4; stroke-opacity:0.7; fill:none" points="
  2501.52,1828.03 2501.52,1828.03 2573.55,1828.03 2501.52,1828.03 
  "/>
<path clip-path="url(#clip872)" d="
M2573.55 1828.03 L2573.55 1828.03 L2645.57 1828.03 L2645.57 1828.03 L2573.55 1828.03 L2573.55 1828.03  Z
  " fill="#ffa500" fill-rule="evenodd" fill-opacity="0.7"/>
<polyline clip-path="url(#clip872)" style="stroke:#000000; stroke-width:4; stroke-opacity:0.7; fill:none" points="
  2573.55,1828.03 2573.55,1828.03 2645.57,1828.03 2573.55,1828.03 
  "/>
<path clip-path="url(#clip872)" d="
M2645.57 1828.03 L2645.57 1828.03 L2717.59 1828.03 L2717.59 1828.03 L2645.57 1828.03 L2645.57 1828.03  Z
  " fill="#ffa500" fill-rule="evenodd" fill-opacity="0.7"/>
<polyline clip-path="url(#clip872)" style="stroke:#000000; stroke-width:4; stroke-opacity:0.7; fill:none" points="
  2645.57,1828.03 2645.57,1828.03 2717.59,1828.03 2645.57,1828.03 
  "/>
<path clip-path="url(#clip872)" d="
M2717.59 1806.13 L2717.59 1828.03 L2789.62 1828.03 L2789.62 1806.13 L2717.59 1806.13 L2717.59 1806.13  Z
  " fill="#ffa500" fill-rule="evenodd" fill-opacity="0.7"/>
<polyline clip-path="url(#clip872)" style="stroke:#000000; stroke-width:4; stroke-opacity:0.7; fill:none" points="
  2717.59,1806.13 2717.59,1828.03 2789.62,1828.03 2789.62,1806.13 2717.59,1806.13 
  "/>
<path clip-path="url(#clip870)" d="
M2695.42 353.651 L3439.46 353.651 L3439.46 172.211 L2695.42 172.211  Z
  " fill="#ffffff" fill-rule="evenodd" fill-opacity="1"/>
<polyline clip-path="url(#clip870)" style="stroke:#000000; stroke-width:4; stroke-opacity:1; fill:none" points="
  2695.42,353.651 3439.46,353.651 3439.46,172.211 2695.42,172.211 2695.42,353.651 
  "/>
<path clip-path="url(#clip870)" d="
M2733.18 256.883 L2959.78 256.883 L2959.78 208.499 L2733.18 208.499 L2733.18 256.883  Z
  " fill="#00ffff" fill-rule="evenodd" fill-opacity="0.7"/>
<polyline clip-path="url(#clip870)" style="stroke:#000000; stroke-width:4; stroke-opacity:1; fill:none" points="
  2733.18,256.883 2959.78,256.883 2959.78,208.499 2733.18,208.499 2733.18,256.883 
  "/>
<path clip-path="url(#clip870)" d="M 0 0 M3013.93 233.768 Q3015.43 234.277 3016.85 235.944 Q3018.28 237.61 3019.72 240.527 L3024.46 249.971 L3019.44 249.971 L3015.02 241.106 Q3013.3 237.634 3011.68 236.499 Q3010.09 235.365 3007.31 235.365 L3002.22 235.365 L3002.22 249.971 L2997.54 249.971 L2997.54 215.411 L3008.1 215.411 Q3014.02 215.411 3016.94 217.888 Q3019.86 220.365 3019.86 225.365 Q3019.86 228.629 3018.33 230.782 Q3016.82 232.935 3013.93 233.768 M3002.22 219.254 L3002.22 231.522 L3008.1 231.522 Q3011.48 231.522 3013.19 229.972 Q3014.93 228.397 3014.93 225.365 Q3014.93 222.333 3013.19 220.805 Q3011.48 219.254 3008.1 219.254 L3002.22 219.254 Z" fill="#000000" fill-rule="evenodd" fill-opacity="1" /><path clip-path="url(#clip870)" d="M 0 0 M3050.34 235.944 L3050.34 238.027 L3030.76 238.027 Q3031.04 242.425 3033.4 244.74 Q3035.78 247.032 3040.02 247.032 Q3042.47 247.032 3044.76 246.43 Q3047.08 245.828 3049.35 244.624 L3049.35 248.652 Q3047.05 249.624 3044.65 250.133 Q3042.24 250.643 3039.76 250.643 Q3033.56 250.643 3029.93 247.032 Q3026.31 243.421 3026.31 237.263 Q3026.31 230.897 3029.74 227.171 Q3033.19 223.421 3039.02 223.421 Q3044.25 223.421 3047.29 226.8 Q3050.34 230.157 3050.34 235.944 M3046.08 234.694 Q3046.04 231.198 3044.11 229.115 Q3042.22 227.032 3039.07 227.032 Q3035.5 227.032 3033.35 229.046 Q3031.22 231.06 3030.9 234.717 L3046.08 234.694 Z" fill="#000000" fill-rule="evenodd" fill-opacity="1" /><path clip-path="url(#clip870)" d="M 0 0 M3069.11 236.939 Q3063.95 236.939 3061.96 238.12 Q3059.97 239.3 3059.97 242.147 Q3059.97 244.416 3061.45 245.759 Q3062.96 247.078 3065.53 247.078 Q3069.07 247.078 3071.2 244.578 Q3073.35 242.055 3073.35 237.888 L3073.35 236.939 L3069.11 236.939 M3077.61 235.18 L3077.61 249.971 L3073.35 249.971 L3073.35 246.036 Q3071.89 248.397 3069.72 249.532 Q3067.54 250.643 3064.39 250.643 Q3060.41 250.643 3058.05 248.421 Q3055.71 246.175 3055.71 242.425 Q3055.71 238.05 3058.63 235.828 Q3061.57 233.606 3067.38 233.606 L3073.35 233.606 L3073.35 233.189 Q3073.35 230.249 3071.41 228.652 Q3069.49 227.032 3065.99 227.032 Q3063.77 227.032 3061.66 227.564 Q3059.55 228.097 3057.61 229.161 L3057.61 225.226 Q3059.95 224.323 3062.15 223.884 Q3064.35 223.421 3066.43 223.421 Q3072.05 223.421 3074.83 226.337 Q3077.61 229.254 3077.61 235.18 Z" fill="#000000" fill-rule="evenodd" fill-opacity="1" /><path clip-path="url(#clip870)" d="M 0 0 M3086.38 213.953 L3090.64 213.953 L3090.64 249.971 L3086.38 249.971 L3086.38 213.953 Z" fill="#000000" fill-rule="evenodd" fill-opacity="1" /><path clip-path="url(#clip870)" d="M 0 0 M3131.68 227.981 L3131.68 213.953 L3135.94 213.953 L3135.94 249.971 L3131.68 249.971 L3131.68 246.083 Q3130.34 248.397 3128.28 249.532 Q3126.24 250.643 3123.37 250.643 Q3118.67 250.643 3115.71 246.893 Q3112.77 243.143 3112.77 237.032 Q3112.77 230.921 3115.71 227.171 Q3118.67 223.421 3123.37 223.421 Q3126.24 223.421 3128.28 224.555 Q3130.34 225.666 3131.68 227.981 M3117.17 237.032 Q3117.17 241.731 3119.09 244.416 Q3121.04 247.078 3124.42 247.078 Q3127.79 247.078 3129.74 244.416 Q3131.68 241.731 3131.68 237.032 Q3131.68 232.333 3129.74 229.671 Q3127.79 226.985 3124.42 226.985 Q3121.04 226.985 3119.09 229.671 Q3117.17 232.333 3117.17 237.032 Z" fill="#000000" fill-rule="evenodd" fill-opacity="1" /><path clip-path="url(#clip870)" d="M 0 0 M3156.5 236.939 Q3151.34 236.939 3149.35 238.12 Q3147.36 239.3 3147.36 242.147 Q3147.36 244.416 3148.84 245.759 Q3150.34 247.078 3152.91 247.078 Q3156.45 247.078 3158.58 244.578 Q3160.73 242.055 3160.73 237.888 L3160.73 236.939 L3156.5 236.939 M3164.99 235.18 L3164.99 249.971 L3160.73 249.971 L3160.73 246.036 Q3159.28 248.397 3157.1 249.532 Q3154.92 250.643 3151.78 250.643 Q3147.79 250.643 3145.43 248.421 Q3143.1 246.175 3143.1 242.425 Q3143.1 238.05 3146.01 235.828 Q3148.95 233.606 3154.76 233.606 L3160.73 233.606 L3160.73 233.189 Q3160.73 230.249 3158.79 228.652 Q3156.87 227.032 3153.37 227.032 Q3151.15 227.032 3149.04 227.564 Q3146.94 228.097 3144.99 229.161 L3144.99 225.226 Q3147.33 224.323 3149.53 223.884 Q3151.73 223.421 3153.81 223.421 Q3159.44 223.421 3162.22 226.337 Q3164.99 229.254 3164.99 235.18 Z" fill="#000000" fill-rule="evenodd" fill-opacity="1" /><path clip-path="url(#clip870)" d="M 0 0 M3177.98 216.685 L3177.98 224.046 L3186.75 224.046 L3186.75 227.356 L3177.98 227.356 L3177.98 241.43 Q3177.98 244.601 3178.84 245.504 Q3179.72 246.407 3182.38 246.407 L3186.75 246.407 L3186.75 249.971 L3182.38 249.971 Q3177.45 249.971 3175.57 248.143 Q3173.7 246.291 3173.7 241.43 L3173.7 227.356 L3170.57 227.356 L3170.57 224.046 L3173.7 224.046 L3173.7 216.685 L3177.98 216.685 Z" fill="#000000" fill-rule="evenodd" fill-opacity="1" /><path clip-path="url(#clip870)" d="M 0 0 M3204.14 236.939 Q3198.98 236.939 3196.98 238.12 Q3194.99 239.3 3194.99 242.147 Q3194.99 244.416 3196.48 245.759 Q3197.98 247.078 3200.55 247.078 Q3204.09 247.078 3206.22 244.578 Q3208.37 242.055 3208.37 237.888 L3208.37 236.939 L3204.14 236.939 M3212.63 235.18 L3212.63 249.971 L3208.37 249.971 L3208.37 246.036 Q3206.91 248.397 3204.74 249.532 Q3202.56 250.643 3199.41 250.643 Q3195.43 250.643 3193.07 248.421 Q3190.73 246.175 3190.73 242.425 Q3190.73 238.05 3193.65 235.828 Q3196.59 233.606 3202.4 233.606 L3208.37 233.606 L3208.37 233.189 Q3208.37 230.249 3206.43 228.652 Q3204.51 227.032 3201.01 227.032 Q3198.79 227.032 3196.68 227.564 Q3194.58 228.097 3192.63 229.161 L3192.63 225.226 Q3194.97 224.323 3197.17 223.884 Q3199.37 223.421 3201.45 223.421 Q3207.08 223.421 3209.85 226.337 Q3212.63 229.254 3212.63 235.18 Z" fill="#000000" fill-rule="evenodd" fill-opacity="1" /><path clip-path="url(#clip870)" d="
M2733.18 317.363 L2959.78 317.363 L2959.78 268.979 L2733.18 268.979 L2733.18 317.363  Z
  " fill="#ffa500" fill-rule="evenodd" fill-opacity="0.7"/>
<polyline clip-path="url(#clip870)" style="stroke:#000000; stroke-width:4; stroke-opacity:1; fill:none" points="
  2733.18,317.363 2959.78,317.363 2959.78,268.979 2733.18,268.979 2733.18,317.363 
  "/>
<path clip-path="url(#clip870)" d="M 0 0 M3023.1 305.521 L3023.1 296.239 L3015.46 296.239 L3015.46 292.396 L3027.73 292.396 L3027.73 307.234 Q3025.02 309.155 3021.75 310.151 Q3018.49 311.123 3014.79 311.123 Q3006.68 311.123 3002.1 306.401 Q2997.54 301.655 2997.54 293.206 Q2997.54 284.734 3002.1 280.012 Q3006.68 275.266 3014.79 275.266 Q3018.17 275.266 3021.2 276.1 Q3024.25 276.933 3026.82 278.553 L3026.82 283.53 Q3024.23 281.331 3021.31 280.22 Q3018.4 279.109 3015.18 279.109 Q3008.84 279.109 3005.64 282.651 Q3002.47 286.192 3002.47 293.206 Q3002.47 300.197 3005.64 303.739 Q3008.84 307.28 3015.18 307.28 Q3017.66 307.28 3019.6 306.864 Q3021.55 306.424 3023.1 305.521 Z" fill="#000000" fill-rule="evenodd" fill-opacity="1" /><path clip-path="url(#clip870)" d="M 0 0 M3058.26 296.424 L3058.26 298.507 L3038.68 298.507 Q3038.95 302.905 3041.31 305.22 Q3043.7 307.512 3047.93 307.512 Q3050.39 307.512 3052.68 306.91 Q3054.99 306.308 3057.26 305.104 L3057.26 309.132 Q3054.97 310.104 3052.56 310.613 Q3050.16 311.123 3047.68 311.123 Q3041.48 311.123 3037.84 307.512 Q3034.23 303.901 3034.23 297.743 Q3034.23 291.377 3037.66 287.651 Q3041.11 283.901 3046.94 283.901 Q3052.17 283.901 3055.2 287.28 Q3058.26 290.637 3058.26 296.424 M3054 295.174 Q3053.95 291.678 3052.03 289.595 Q3050.13 287.512 3046.99 287.512 Q3043.42 287.512 3041.27 289.526 Q3039.14 291.54 3038.81 295.197 L3054 295.174 Z" fill="#000000" fill-rule="evenodd" fill-opacity="1" /><path clip-path="url(#clip870)" d="M 0 0 M3086.8 294.803 L3086.8 310.451 L3082.54 310.451 L3082.54 294.942 Q3082.54 291.262 3081.11 289.433 Q3079.67 287.604 3076.8 287.604 Q3073.35 287.604 3071.36 289.803 Q3069.37 292.002 3069.37 295.799 L3069.37 310.451 L3065.09 310.451 L3065.09 284.526 L3069.37 284.526 L3069.37 288.553 Q3070.9 286.215 3072.96 285.058 Q3075.04 283.901 3077.75 283.901 Q3082.22 283.901 3084.51 286.678 Q3086.8 289.433 3086.8 294.803 Z" fill="#000000" fill-rule="evenodd" fill-opacity="1" /><path clip-path="url(#clip870)" d="M 0 0 M3117.47 296.424 L3117.47 298.507 L3097.89 298.507 Q3098.17 302.905 3100.53 305.22 Q3102.91 307.512 3107.15 307.512 Q3109.6 307.512 3111.89 306.91 Q3114.21 306.308 3116.48 305.104 L3116.48 309.132 Q3114.18 310.104 3111.78 310.613 Q3109.37 311.123 3106.89 311.123 Q3100.69 311.123 3097.05 307.512 Q3093.44 303.901 3093.44 297.743 Q3093.44 291.377 3096.87 287.651 Q3100.32 283.901 3106.15 283.901 Q3111.38 283.901 3114.42 287.28 Q3117.47 290.637 3117.47 296.424 M3113.21 295.174 Q3113.17 291.678 3111.24 289.595 Q3109.35 287.512 3106.2 287.512 Q3102.63 287.512 3100.48 289.526 Q3098.35 291.54 3098.03 295.197 L3113.21 295.174 Z" fill="#000000" fill-rule="evenodd" fill-opacity="1" /><path clip-path="url(#clip870)" d="M 0 0 M3139.48 288.507 Q3138.77 288.09 3137.91 287.905 Q3137.08 287.697 3136.06 287.697 Q3132.45 287.697 3130.5 290.058 Q3128.58 292.396 3128.58 296.794 L3128.58 310.451 L3124.3 310.451 L3124.3 284.526 L3128.58 284.526 L3128.58 288.553 Q3129.92 286.192 3132.08 285.058 Q3134.23 283.901 3137.31 283.901 Q3137.75 283.901 3138.28 283.97 Q3138.81 284.016 3139.46 284.132 L3139.48 288.507 Z" fill="#000000" fill-rule="evenodd" fill-opacity="1" /><path clip-path="url(#clip870)" d="M 0 0 M3155.73 297.419 Q3150.57 297.419 3148.58 298.6 Q3146.59 299.78 3146.59 302.627 Q3146.59 304.896 3148.07 306.239 Q3149.58 307.558 3152.15 307.558 Q3155.69 307.558 3157.82 305.058 Q3159.97 302.535 3159.97 298.368 L3159.97 297.419 L3155.73 297.419 M3164.23 295.66 L3164.23 310.451 L3159.97 310.451 L3159.97 306.516 Q3158.51 308.877 3156.34 310.012 Q3154.16 311.123 3151.01 311.123 Q3147.03 311.123 3144.67 308.901 Q3142.33 306.655 3142.33 302.905 Q3142.33 298.53 3145.25 296.308 Q3148.19 294.086 3154 294.086 L3159.97 294.086 L3159.97 293.669 Q3159.97 290.729 3158.03 289.132 Q3156.11 287.512 3152.61 287.512 Q3150.39 287.512 3148.28 288.044 Q3146.17 288.577 3144.23 289.641 L3144.23 285.706 Q3146.57 284.803 3148.77 284.364 Q3150.97 283.901 3153.05 283.901 Q3158.67 283.901 3161.45 286.817 Q3164.23 289.734 3164.23 295.66 Z" fill="#000000" fill-rule="evenodd" fill-opacity="1" /><path clip-path="url(#clip870)" d="M 0 0 M3177.22 277.165 L3177.22 284.526 L3185.99 284.526 L3185.99 287.836 L3177.22 287.836 L3177.22 301.91 Q3177.22 305.081 3178.07 305.984 Q3178.95 306.887 3181.61 306.887 L3185.99 306.887 L3185.99 310.451 L3181.61 310.451 Q3176.68 310.451 3174.81 308.623 Q3172.93 306.771 3172.93 301.91 L3172.93 287.836 L3169.81 287.836 L3169.81 284.526 L3172.93 284.526 L3172.93 277.165 L3177.22 277.165 Z" fill="#000000" fill-rule="evenodd" fill-opacity="1" /><path clip-path="url(#clip870)" d="M 0 0 M3213.77 296.424 L3213.77 298.507 L3194.18 298.507 Q3194.46 302.905 3196.82 305.22 Q3199.21 307.512 3203.44 307.512 Q3205.9 307.512 3208.19 306.91 Q3210.5 306.308 3212.77 305.104 L3212.77 309.132 Q3210.48 310.104 3208.07 310.613 Q3205.66 311.123 3203.19 311.123 Q3196.98 311.123 3193.35 307.512 Q3189.74 303.901 3189.74 297.743 Q3189.74 291.377 3193.16 287.651 Q3196.61 283.901 3202.45 283.901 Q3207.68 283.901 3210.71 287.28 Q3213.77 290.637 3213.77 296.424 M3209.51 295.174 Q3209.46 291.678 3207.54 289.595 Q3205.64 287.512 3202.49 287.512 Q3198.93 287.512 3196.78 289.526 Q3194.65 291.54 3194.32 295.197 L3209.51 295.174 Z" fill="#000000" fill-rule="evenodd" fill-opacity="1" /><path clip-path="url(#clip870)" d="M 0 0 M3237.82 288.461 L3237.82 274.433 L3242.08 274.433 L3242.08 310.451 L3237.82 310.451 L3237.82 306.563 Q3236.47 308.877 3234.41 310.012 Q3232.38 311.123 3229.51 311.123 Q3224.81 311.123 3221.85 307.373 Q3218.91 303.623 3218.91 297.512 Q3218.91 291.401 3221.85 287.651 Q3224.81 283.901 3229.51 283.901 Q3232.38 283.901 3234.41 285.035 Q3236.47 286.146 3237.82 288.461 M3223.3 297.512 Q3223.3 302.211 3225.23 304.896 Q3227.17 307.558 3230.55 307.558 Q3233.93 307.558 3235.87 304.896 Q3237.82 302.211 3237.82 297.512 Q3237.82 292.813 3235.87 290.151 Q3233.93 287.465 3230.55 287.465 Q3227.17 287.465 3225.23 290.151 Q3223.3 292.813 3223.3 297.512 Z" fill="#000000" fill-rule="evenodd" fill-opacity="1" /><path clip-path="url(#clip870)" d="M 0 0 M3282.98 288.461 L3282.98 274.433 L3287.24 274.433 L3287.24 310.451 L3282.98 310.451 L3282.98 306.563 Q3281.64 308.877 3279.58 310.012 Q3277.54 311.123 3274.67 311.123 Q3269.97 311.123 3267.01 307.373 Q3264.07 303.623 3264.07 297.512 Q3264.07 291.401 3267.01 287.651 Q3269.97 283.901 3274.67 283.901 Q3277.54 283.901 3279.58 285.035 Q3281.64 286.146 3282.98 288.461 M3268.47 297.512 Q3268.47 302.211 3270.39 304.896 Q3272.33 307.558 3275.71 307.558 Q3279.09 307.558 3281.03 304.896 Q3282.98 302.211 3282.98 297.512 Q3282.98 292.813 3281.03 290.151 Q3279.09 287.465 3275.71 287.465 Q3272.33 287.465 3270.39 290.151 Q3268.47 292.813 3268.47 297.512 Z" fill="#000000" fill-rule="evenodd" fill-opacity="1" /><path clip-path="url(#clip870)" d="M 0 0 M3307.79 297.419 Q3302.63 297.419 3300.64 298.6 Q3298.65 299.78 3298.65 302.627 Q3298.65 304.896 3300.13 306.239 Q3301.64 307.558 3304.21 307.558 Q3307.75 307.558 3309.88 305.058 Q3312.03 302.535 3312.03 298.368 L3312.03 297.419 L3307.79 297.419 M3316.29 295.66 L3316.29 310.451 L3312.03 310.451 L3312.03 306.516 Q3310.57 308.877 3308.4 310.012 Q3306.22 311.123 3303.07 311.123 Q3299.09 311.123 3296.73 308.901 Q3294.39 306.655 3294.39 302.905 Q3294.39 298.53 3297.31 296.308 Q3300.25 294.086 3306.06 294.086 L3312.03 294.086 L3312.03 293.669 Q3312.03 290.729 3310.09 289.132 Q3308.16 287.512 3304.67 287.512 Q3302.45 287.512 3300.34 288.044 Q3298.23 288.577 3296.29 289.641 L3296.29 285.706 Q3298.63 284.803 3300.83 284.364 Q3303.03 283.901 3305.11 283.901 Q3310.73 283.901 3313.51 286.817 Q3316.29 289.734 3316.29 295.66 Z" fill="#000000" fill-rule="evenodd" fill-opacity="1" /><path clip-path="url(#clip870)" d="M 0 0 M3329.28 277.165 L3329.28 284.526 L3338.05 284.526 L3338.05 287.836 L3329.28 287.836 L3329.28 301.91 Q3329.28 305.081 3330.13 305.984 Q3331.01 306.887 3333.67 306.887 L3338.05 306.887 L3338.05 310.451 L3333.67 310.451 Q3328.74 310.451 3326.87 308.623 Q3324.99 306.771 3324.99 301.91 L3324.99 287.836 L3321.87 287.836 L3321.87 284.526 L3324.99 284.526 L3324.99 277.165 L3329.28 277.165 Z" fill="#000000" fill-rule="evenodd" fill-opacity="1" /><path clip-path="url(#clip870)" d="M 0 0 M3355.43 297.419 Q3350.27 297.419 3348.28 298.6 Q3346.29 299.78 3346.29 302.627 Q3346.29 304.896 3347.77 306.239 Q3349.28 307.558 3351.84 307.558 Q3355.39 307.558 3357.52 305.058 Q3359.67 302.535 3359.67 298.368 L3359.67 297.419 L3355.43 297.419 M3363.93 295.66 L3363.93 310.451 L3359.67 310.451 L3359.67 306.516 Q3358.21 308.877 3356.03 310.012 Q3353.86 311.123 3350.71 311.123 Q3346.73 311.123 3344.37 308.901 Q3342.03 306.655 3342.03 302.905 Q3342.03 298.53 3344.95 296.308 Q3347.89 294.086 3353.7 294.086 L3359.67 294.086 L3359.67 293.669 Q3359.67 290.729 3357.72 289.132 Q3355.8 287.512 3352.31 287.512 Q3350.09 287.512 3347.98 288.044 Q3345.87 288.577 3343.93 289.641 L3343.93 285.706 Q3346.27 284.803 3348.47 284.364 Q3350.66 283.901 3352.75 283.901 Q3358.37 283.901 3361.15 286.817 Q3363.93 289.734 3363.93 295.66 Z" fill="#000000" fill-rule="evenodd" fill-opacity="1" /></svg>
